  0
SECTION
  2
HEADER
  9
$ACADVER
  1
AC1009
  9
$INSBASE
 10
0.0
 20
0.0
 30
0.0
  9
$EXTMIN
 10
0.0
 20
0.0
 30
0.0
  9
$EXTMAX
 10
0.0
 20
0.0
 30
0.0
  0
ENDSEC
  0
SECTION
  2
TABLES
  0
TABLE
  2
VPORT
 70
0
  0
ENDTAB
  0
TABLE
  2
LTYPE
 70
1
  0
LTYPE
  2
CONTINUOUS
 70
0
  3
Solid line
 72
65
 73
0
 40
0.0
  0
ENDTAB
  0
TABLE
  2
LAYER
 70
1
  0
LAYER
  2
0
 70
64
 62
7
  6
continuous
  0
ENDTAB
  0
TABLE
  2
STYLE
 70
1
  0
STYLE
  2
STANDARD
 70
0
 40
0
 41
1.0
 50
0.0
 71
0
 42
1
 3
ARIAL.TTF
 4

  0
ENDTAB
  0
TABLE
  2
VIEW
 70
0
  0
ENDTAB
  0
ENDSEC
  0
SECTION
  2
BLOCKS
  0
ENDSEC
  0
SECTION
  2
ENTITIES
  0
ARC
  8
Group
 62
0
 10
2.825
 20
-2.825
 30
0.0
 40
0.3
 50
90.0
 51
-180.0
  0
ARC
  8
Group
 62
0
 10
2.824999999999999
 20
-16.224999999999998
 30
0.0
 40
0.3
 50
-180.0
 51
-90.0
  0
ARC
  8
Group
 62
0
 10
16.225
 20
-2.824999999999999
 30
0.0
 40
0.3
 50
-0.0
 51
90.0
  0
ARC
  8
Group
 62
0
 10
16.224999999999998
 20
-16.224999999999998
 30
0.0
 40
0.3
 50
-90.0
 51
-0.0
  0
POLYLINE
  8
Group
 62
0
 70
0
 66
1
 10
0.0
 20
0.0
 30
0.0
  0
VERTEX
  8
Group
 10
2.825
 20
-2.525
 30
0.0
  0
VERTEX
  8
Group
 10
16.225
 20
-2.524999999999999
 30
0.0
  0
SEQEND
  8
Group
  0
POLYLINE
  8
Group
 62
0
 70
0
 66
1
 10
0.0
 20
0.0
 30
0.0
  0
VERTEX
  8
Group
 10
16.525000000000002
 20
-2.824999999999999
 30
0.0
  0
VERTEX
  8
Group
 10
16.525
 20
-16.224999999999998
 30
0.0
  0
SEQEND
  8
Group
  0
POLYLINE
  8
Group
 62
0
 70
0
 66
1
 10
0.0
 20
0.0
 30
0.0
  0
VERTEX
  8
Group
 10
16.224999999999998
 20
-16.525
 30
0.0
  0
VERTEX
  8
Group
 10
2.8249999999999993
 20
-16.525
 30
0.0
  0
SEQEND
  8
Group
  0
POLYLINE
  8
Group
 62
0
 70
0
 66
1
 10
0.0
 20
0.0
 30
0.0
  0
VERTEX
  8
Group
 10
2.524999999999999
 20
-16.224999999999998
 30
0.0
  0
VERTEX
  8
Group
 10
2.525
 20
-2.8249999999999993
 30
0.0
  0
SEQEND
  8
Group
  0
ARC
  8
Group002
 62
0
 10
21.875
 20
-2.825
 30
0.0
 40
0.3
 50
90.0
 51
-180.0
  0
ARC
  8
Group002
 62
0
 10
21.875
 20
-16.224999999999998
 30
0.0
 40
0.3
 50
-180.0
 51
-90.0
  0
ARC
  8
Group002
 62
0
 10
35.275000000000006
 20
-2.824999999999999
 30
0.0
 40
0.3
 50
-0.0
 51
90.0
  0
ARC
  8
Group002
 62
0
 10
35.275
 20
-16.224999999999998
 30
0.0
 40
0.3
 50
-90.0
 51
-0.0
  0
POLYLINE
  8
Group002
 62
0
 70
0
 66
1
 10
0.0
 20
0.0
 30
0.0
  0
VERTEX
  8
Group002
 10
21.875
 20
-2.525
 30
0.0
  0
VERTEX
  8
Group002
 10
35.275000000000006
 20
-2.524999999999999
 30
0.0
  0
SEQEND
  8
Group002
  0
POLYLINE
  8
Group002
 62
0
 70
0
 66
1
 10
0.0
 20
0.0
 30
0.0
  0
VERTEX
  8
Group002
 10
35.575
 20
-2.824999999999999
 30
0.0
  0
VERTEX
  8
Group002
 10
35.575
 20
-16.224999999999998
 30
0.0
  0
SEQEND
  8
Group002
  0
POLYLINE
  8
Group002
 62
0
 70
0
 66
1
 10
0.0
 20
0.0
 30
0.0
  0
VERTEX
  8
Group002
 10
35.275
 20
-16.525
 30
0.0
  0
VERTEX
  8
Group002
 10
21.875
 20
-16.525
 30
0.0
  0
SEQEND
  8
Group002
  0
POLYLINE
  8
Group002
 62
0
 70
0
 66
1
 10
0.0
 20
0.0
 30
0.0
  0
VERTEX
  8
Group002
 10
21.575
 20
-16.224999999999998
 30
0.0
  0
VERTEX
  8
Group002
 10
21.575
 20
-2.8249999999999993
 30
0.0
  0
SEQEND
  8
Group002
  0
ARC
  8
Group003
 62
0
 10
2.825
 20
-21.875
 30
0.0
 40
0.3
 50
90.0
 51
-180.0
  0
ARC
  8
Group003
 62
0
 10
2.824999999999999
 20
-35.275
 30
0.0
 40
0.3
 50
-180.0
 51
-90.0
  0
ARC
  8
Group003
 62
0
 10
16.225
 20
-21.875
 30
0.0
 40
0.3
 50
-0.0
 51
90.0
  0
ARC
  8
Group003
 62
0
 10
16.224999999999998
 20
-35.275
 30
0.0
 40
0.3
 50
-90.0
 51
-0.0
  0
POLYLINE
  8
Group003
 62
0
 70
0
 66
1
 10
0.0
 20
0.0
 30
0.0
  0
VERTEX
  8
Group003
 10
2.825
 20
-21.575
 30
0.0
  0
VERTEX
  8
Group003
 10
16.225
 20
-21.575
 30
0.0
  0
SEQEND
  8
Group003
  0
POLYLINE
  8
Group003
 62
0
 70
0
 66
1
 10
0.0
 20
0.0
 30
0.0
  0
VERTEX
  8
Group003
 10
16.525000000000002
 20
-21.875
 30
0.0
  0
VERTEX
  8
Group003
 10
16.525
 20
-35.275
 30
0.0
  0
SEQEND
  8
Group003
  0
POLYLINE
  8
Group003
 62
0
 70
0
 66
1
 10
0.0
 20
0.0
 30
0.0
  0
VERTEX
  8
Group003
 10
16.224999999999998
 20
-35.575
 30
0.0
  0
VERTEX
  8
Group003
 10
2.8249999999999993
 20
-35.575
 30
0.0
  0
SEQEND
  8
Group003
  0
POLYLINE
  8
Group003
 62
0
 70
0
 66
1
 10
0.0
 20
0.0
 30
0.0
  0
VERTEX
  8
Group003
 10
2.524999999999999
 20
-35.275
 30
0.0
  0
VERTEX
  8
Group003
 10
2.525
 20
-21.875
 30
0.0
  0
SEQEND
  8
Group003
  0
ARC
  8
Group004
 62
0
 10
21.875
 20
-21.875
 30
0.0
 40
0.3
 50
90.0
 51
-180.0
  0
ARC
  8
Group004
 62
0
 10
21.875
 20
-35.275
 30
0.0
 40
0.3
 50
-180.0
 51
-90.0
  0
ARC
  8
Group004
 62
0
 10
35.275000000000006
 20
-21.875
 30
0.0
 40
0.3
 50
-0.0
 51
90.0
  0
ARC
  8
Group004
 62
0
 10
35.275
 20
-35.275
 30
0.0
 40
0.3
 50
-90.0
 51
-0.0
  0
POLYLINE
  8
Group004
 62
0
 70
0
 66
1
 10
0.0
 20
0.0
 30
0.0
  0
VERTEX
  8
Group004
 10
21.875
 20
-21.575
 30
0.0
  0
VERTEX
  8
Group004
 10
35.275000000000006
 20
-21.575
 30
0.0
  0
SEQEND
  8
Group004
  0
POLYLINE
  8
Group004
 62
0
 70
0
 66
1
 10
0.0
 20
0.0
 30
0.0
  0
VERTEX
  8
Group004
 10
35.575
 20
-21.875
 30
0.0
  0
VERTEX
  8
Group004
 10
35.575
 20
-35.275
 30
0.0
  0
SEQEND
  8
Group004
  0
POLYLINE
  8
Group004
 62
0
 70
0
 66
1
 10
0.0
 20
0.0
 30
0.0
  0
VERTEX
  8
Group004
 10
35.275
 20
-35.575
 30
0.0
  0
VERTEX
  8
Group004
 10
21.875
 20
-35.575
 30
0.0
  0
SEQEND
  8
Group004
  0
POLYLINE
  8
Group004
 62
0
 70
0
 66
1
 10
0.0
 20
0.0
 30
0.0
  0
VERTEX
  8
Group004
 10
21.575
 20
-35.275
 30
0.0
  0
VERTEX
  8
Group004
 10
21.575
 20
-21.875
 30
0.0
  0
SEQEND
  8
Group004
  0
ARC
  8
Group005
 62
0
 10
2.825
 20
-40.925000000000004
 30
0.0
 40
0.3
 50
90.0
 51
-180.0
  0
ARC
  8
Group005
 62
0
 10
2.824999999999999
 20
-54.325
 30
0.0
 40
0.3
 50
-180.0
 51
-90.0
  0
ARC
  8
Group005
 62
0
 10
16.225
 20
-40.925
 30
0.0
 40
0.3
 50
-0.0
 51
90.0
  0
ARC
  8
Group005
 62
0
 10
16.224999999999998
 20
-54.325
 30
0.0
 40
0.3
 50
-90.0
 51
-0.0
  0
POLYLINE
  8
Group005
 62
0
 70
0
 66
1
 10
0.0
 20
0.0
 30
0.0
  0
VERTEX
  8
Group005
 10
2.825
 20
-40.625
 30
0.0
  0
VERTEX
  8
Group005
 10
16.225
 20
-40.625
 30
0.0
  0
SEQEND
  8
Group005
  0
POLYLINE
  8
Group005
 62
0
 70
0
 66
1
 10
0.0
 20
0.0
 30
0.0
  0
VERTEX
  8
Group005
 10
16.525000000000002
 20
-40.925
 30
0.0
  0
VERTEX
  8
Group005
 10
16.525
 20
-54.324999999999996
 30
0.0
  0
SEQEND
  8
Group005
  0
POLYLINE
  8
Group005
 62
0
 70
0
 66
1
 10
0.0
 20
0.0
 30
0.0
  0
VERTEX
  8
Group005
 10
16.224999999999998
 20
-54.625
 30
0.0
  0
VERTEX
  8
Group005
 10
2.8249999999999993
 20
-54.625
 30
0.0
  0
SEQEND
  8
Group005
  0
POLYLINE
  8
Group005
 62
0
 70
0
 66
1
 10
0.0
 20
0.0
 30
0.0
  0
VERTEX
  8
Group005
 10
2.524999999999999
 20
-54.325
 30
0.0
  0
VERTEX
  8
Group005
 10
2.525
 20
-40.925000000000004
 30
0.0
  0
SEQEND
  8
Group005
  0
ARC
  8
Group006
 62
0
 10
21.875
 20
-40.925000000000004
 30
0.0
 40
0.3
 50
90.0
 51
-180.0
  0
ARC
  8
Group006
 62
0
 10
21.875
 20
-54.325
 30
0.0
 40
0.3
 50
-180.0
 51
-90.0
  0
ARC
  8
Group006
 62
0
 10
35.275000000000006
 20
-40.925
 30
0.0
 40
0.3
 50
-0.0
 51
90.0
  0
ARC
  8
Group006
 62
0
 10
35.275
 20
-54.325
 30
0.0
 40
0.3
 50
-90.0
 51
-0.0
  0
POLYLINE
  8
Group006
 62
0
 70
0
 66
1
 10
0.0
 20
0.0
 30
0.0
  0
VERTEX
  8
Group006
 10
21.875
 20
-40.625
 30
0.0
  0
VERTEX
  8
Group006
 10
35.275000000000006
 20
-40.625
 30
0.0
  0
SEQEND
  8
Group006
  0
POLYLINE
  8
Group006
 62
0
 70
0
 66
1
 10
0.0
 20
0.0
 30
0.0
  0
VERTEX
  8
Group006
 10
35.575
 20
-40.925
 30
0.0
  0
VERTEX
  8
Group006
 10
35.575
 20
-54.324999999999996
 30
0.0
  0
SEQEND
  8
Group006
  0
POLYLINE
  8
Group006
 62
0
 70
0
 66
1
 10
0.0
 20
0.0
 30
0.0
  0
VERTEX
  8
Group006
 10
35.275
 20
-54.625
 30
0.0
  0
VERTEX
  8
Group006
 10
21.875
 20
-54.625
 30
0.0
  0
SEQEND
  8
Group006
  0
POLYLINE
  8
Group006
 62
0
 70
0
 66
1
 10
0.0
 20
0.0
 30
0.0
  0
VERTEX
  8
Group006
 10
21.575
 20
-54.325
 30
0.0
  0
VERTEX
  8
Group006
 10
21.575
 20
-40.925000000000004
 30
0.0
  0
SEQEND
  8
Group006
  0
ARC
  8
Group007
 62
0
 10
2.825
 20
-59.975
 30
0.0
 40
0.3
 50
90.0
 51
-180.0
  0
ARC
  8
Group007
 62
0
 10
2.824999999999999
 20
-73.375
 30
0.0
 40
0.3
 50
-180.0
 51
-90.0
  0
ARC
  8
Group007
 62
0
 10
16.225
 20
-59.975
 30
0.0
 40
0.3
 50
-0.0
 51
90.0
  0
ARC
  8
Group007
 62
0
 10
16.224999999999998
 20
-73.375
 30
0.0
 40
0.3
 50
-90.0
 51
-0.0
  0
POLYLINE
  8
Group007
 62
0
 70
0
 66
1
 10
0.0
 20
0.0
 30
0.0
  0
VERTEX
  8
Group007
 10
2.825
 20
-59.675
 30
0.0
  0
VERTEX
  8
Group007
 10
16.225
 20
-59.675
 30
0.0
  0
SEQEND
  8
Group007
  0
POLYLINE
  8
Group007
 62
0
 70
0
 66
1
 10
0.0
 20
0.0
 30
0.0
  0
VERTEX
  8
Group007
 10
16.525000000000002
 20
-59.975
 30
0.0
  0
VERTEX
  8
Group007
 10
16.525
 20
-73.375
 30
0.0
  0
SEQEND
  8
Group007
  0
POLYLINE
  8
Group007
 62
0
 70
0
 66
1
 10
0.0
 20
0.0
 30
0.0
  0
VERTEX
  8
Group007
 10
16.224999999999998
 20
-73.67500000000001
 30
0.0
  0
VERTEX
  8
Group007
 10
2.8249999999999993
 20
-73.67500000000001
 30
0.0
  0
SEQEND
  8
Group007
  0
POLYLINE
  8
Group007
 62
0
 70
0
 66
1
 10
0.0
 20
0.0
 30
0.0
  0
VERTEX
  8
Group007
 10
2.524999999999999
 20
-73.375
 30
0.0
  0
VERTEX
  8
Group007
 10
2.525
 20
-59.975
 30
0.0
  0
SEQEND
  8
Group007
  0
ARC
  8
Group008
 62
0
 10
21.875
 20
-59.975
 30
0.0
 40
0.3
 50
90.0
 51
-180.0
  0
ARC
  8
Group008
 62
0
 10
21.875
 20
-73.375
 30
0.0
 40
0.3
 50
-180.0
 51
-90.0
  0
ARC
  8
Group008
 62
0
 10
35.275000000000006
 20
-59.975
 30
0.0
 40
0.3
 50
-0.0
 51
90.0
  0
ARC
  8
Group008
 62
0
 10
35.275
 20
-73.375
 30
0.0
 40
0.3
 50
-90.0
 51
-0.0
  0
POLYLINE
  8
Group008
 62
0
 70
0
 66
1
 10
0.0
 20
0.0
 30
0.0
  0
VERTEX
  8
Group008
 10
21.875
 20
-59.675
 30
0.0
  0
VERTEX
  8
Group008
 10
35.275000000000006
 20
-59.675
 30
0.0
  0
SEQEND
  8
Group008
  0
POLYLINE
  8
Group008
 62
0
 70
0
 66
1
 10
0.0
 20
0.0
 30
0.0
  0
VERTEX
  8
Group008
 10
35.575
 20
-59.975
 30
0.0
  0
VERTEX
  8
Group008
 10
35.575
 20
-73.375
 30
0.0
  0
SEQEND
  8
Group008
  0
POLYLINE
  8
Group008
 62
0
 70
0
 66
1
 10
0.0
 20
0.0
 30
0.0
  0
VERTEX
  8
Group008
 10
35.275
 20
-73.67500000000001
 30
0.0
  0
VERTEX
  8
Group008
 10
21.875
 20
-73.67500000000001
 30
0.0
  0
SEQEND
  8
Group008
  0
POLYLINE
  8
Group008
 62
0
 70
0
 66
1
 10
0.0
 20
0.0
 30
0.0
  0
VERTEX
  8
Group008
 10
21.575
 20
-73.375
 30
0.0
  0
VERTEX
  8
Group008
 10
21.575
 20
-59.975
 30
0.0
  0
SEQEND
  8
Group008
  0
ARC
  8
Group009
 62
0
 10
2.825
 20
-79.025
 30
0.0
 40
0.3
 50
90.0
 51
-180.0
  0
ARC
  8
Group009
 62
0
 10
2.824999999999999
 20
-92.425
 30
0.0
 40
0.3
 50
-180.0
 51
-90.0
  0
ARC
  8
Group009
 62
0
 10
16.225
 20
-79.025
 30
0.0
 40
0.3
 50
-0.0
 51
90.0
  0
ARC
  8
Group009
 62
0
 10
16.224999999999998
 20
-92.425
 30
0.0
 40
0.3
 50
-90.0
 51
-0.0
  0
POLYLINE
  8
Group009
 62
0
 70
0
 66
1
 10
0.0
 20
0.0
 30
0.0
  0
VERTEX
  8
Group009
 10
2.825
 20
-78.72500000000001
 30
0.0
  0
VERTEX
  8
Group009
 10
16.225
 20
-78.72500000000001
 30
0.0
  0
SEQEND
  8
Group009
  0
POLYLINE
  8
Group009
 62
0
 70
0
 66
1
 10
0.0
 20
0.0
 30
0.0
  0
VERTEX
  8
Group009
 10
16.525000000000002
 20
-79.025
 30
0.0
  0
VERTEX
  8
Group009
 10
16.525
 20
-92.42500000000001
 30
0.0
  0
SEQEND
  8
Group009
  0
POLYLINE
  8
Group009
 62
0
 70
0
 66
1
 10
0.0
 20
0.0
 30
0.0
  0
VERTEX
  8
Group009
 10
16.224999999999998
 20
-92.725
 30
0.0
  0
VERTEX
  8
Group009
 10
2.8249999999999993
 20
-92.725
 30
0.0
  0
SEQEND
  8
Group009
  0
POLYLINE
  8
Group009
 62
0
 70
0
 66
1
 10
0.0
 20
0.0
 30
0.0
  0
VERTEX
  8
Group009
 10
2.524999999999999
 20
-92.425
 30
0.0
  0
VERTEX
  8
Group009
 10
2.525
 20
-79.025
 30
0.0
  0
SEQEND
  8
Group009
  0
ARC
  8
Group010
 62
0
 10
21.875
 20
-79.025
 30
0.0
 40
0.3
 50
90.0
 51
-180.0
  0
ARC
  8
Group010
 62
0
 10
21.875
 20
-92.425
 30
0.0
 40
0.3
 50
-180.0
 51
-90.0
  0
ARC
  8
Group010
 62
0
 10
35.275000000000006
 20
-79.025
 30
0.0
 40
0.3
 50
-0.0
 51
90.0
  0
ARC
  8
Group010
 62
0
 10
35.275
 20
-92.425
 30
0.0
 40
0.3
 50
-90.0
 51
-0.0
  0
POLYLINE
  8
Group010
 62
0
 70
0
 66
1
 10
0.0
 20
0.0
 30
0.0
  0
VERTEX
  8
Group010
 10
21.875
 20
-78.72500000000001
 30
0.0
  0
VERTEX
  8
Group010
 10
35.275000000000006
 20
-78.72500000000001
 30
0.0
  0
SEQEND
  8
Group010
  0
POLYLINE
  8
Group010
 62
0
 70
0
 66
1
 10
0.0
 20
0.0
 30
0.0
  0
VERTEX
  8
Group010
 10
35.575
 20
-79.025
 30
0.0
  0
VERTEX
  8
Group010
 10
35.575
 20
-92.42500000000001
 30
0.0
  0
SEQEND
  8
Group010
  0
POLYLINE
  8
Group010
 62
0
 70
0
 66
1
 10
0.0
 20
0.0
 30
0.0
  0
VERTEX
  8
Group010
 10
35.275
 20
-92.725
 30
0.0
  0
VERTEX
  8
Group010
 10
21.875
 20
-92.725
 30
0.0
  0
SEQEND
  8
Group010
  0
POLYLINE
  8
Group010
 62
0
 70
0
 66
1
 10
0.0
 20
0.0
 30
0.0
  0
VERTEX
  8
Group010
 10
21.575
 20
-92.425
 30
0.0
  0
VERTEX
  8
Group010
 10
21.575
 20
-79.025
 30
0.0
  0
SEQEND
  8
Group010
  0
ARC
  8
Group012
 62
0
 10
50.45
 20
-2.825
 30
0.0
 40
0.3
 50
90.0
 51
-180.0
  0
ARC
  8
Group012
 62
0
 10
50.449999999999996
 20
-16.224999999999998
 30
0.0
 40
0.3
 50
-180.0
 51
-90.0
  0
ARC
  8
Group012
 62
0
 10
63.85
 20
-2.824999999999999
 30
0.0
 40
0.3
 50
-0.0
 51
90.0
  0
ARC
  8
Group012
 62
0
 10
63.849999999999994
 20
-16.224999999999998
 30
0.0
 40
0.3
 50
-90.0
 51
-0.0
  0
POLYLINE
  8
Group012
 62
0
 70
0
 66
1
 10
0.0
 20
0.0
 30
0.0
  0
VERTEX
  8
Group012
 10
50.45
 20
-2.525
 30
0.0
  0
VERTEX
  8
Group012
 10
63.85000000000001
 20
-2.524999999999999
 30
0.0
  0
SEQEND
  8
Group012
  0
POLYLINE
  8
Group012
 62
0
 70
0
 66
1
 10
0.0
 20
0.0
 30
0.0
  0
VERTEX
  8
Group012
 10
64.15
 20
-2.824999999999999
 30
0.0
  0
VERTEX
  8
Group012
 10
64.15
 20
-16.224999999999998
 30
0.0
  0
SEQEND
  8
Group012
  0
POLYLINE
  8
Group012
 62
0
 70
0
 66
1
 10
0.0
 20
0.0
 30
0.0
  0
VERTEX
  8
Group012
 10
63.849999999999994
 20
-16.525
 30
0.0
  0
VERTEX
  8
Group012
 10
50.449999999999996
 20
-16.525
 30
0.0
  0
SEQEND
  8
Group012
  0
POLYLINE
  8
Group012
 62
0
 70
0
 66
1
 10
0.0
 20
0.0
 30
0.0
  0
VERTEX
  8
Group012
 10
50.15
 20
-16.224999999999998
 30
0.0
  0
VERTEX
  8
Group012
 10
50.15
 20
-2.8249999999999993
 30
0.0
  0
SEQEND
  8
Group012
  0
ARC
  8
Group013
 62
0
 10
69.5
 20
-2.825
 30
0.0
 40
0.3
 50
90.0
 51
-180.0
  0
ARC
  8
Group013
 62
0
 10
69.5
 20
-16.224999999999998
 30
0.0
 40
0.3
 50
-180.0
 51
-90.0
  0
ARC
  8
Group013
 62
0
 10
82.9
 20
-2.824999999999999
 30
0.0
 40
0.3
 50
-0.0
 51
90.0
  0
ARC
  8
Group013
 62
0
 10
82.89999999999999
 20
-16.224999999999998
 30
0.0
 40
0.3
 50
-90.0
 51
-0.0
  0
POLYLINE
  8
Group013
 62
0
 70
0
 66
1
 10
0.0
 20
0.0
 30
0.0
  0
VERTEX
  8
Group013
 10
69.5
 20
-2.525
 30
0.0
  0
VERTEX
  8
Group013
 10
82.9
 20
-2.524999999999999
 30
0.0
  0
SEQEND
  8
Group013
  0
POLYLINE
  8
Group013
 62
0
 70
0
 66
1
 10
0.0
 20
0.0
 30
0.0
  0
VERTEX
  8
Group013
 10
83.2
 20
-2.824999999999999
 30
0.0
  0
VERTEX
  8
Group013
 10
83.2
 20
-16.224999999999998
 30
0.0
  0
SEQEND
  8
Group013
  0
POLYLINE
  8
Group013
 62
0
 70
0
 66
1
 10
0.0
 20
0.0
 30
0.0
  0
VERTEX
  8
Group013
 10
82.89999999999999
 20
-16.525
 30
0.0
  0
VERTEX
  8
Group013
 10
69.5
 20
-16.525
 30
0.0
  0
SEQEND
  8
Group013
  0
POLYLINE
  8
Group013
 62
0
 70
0
 66
1
 10
0.0
 20
0.0
 30
0.0
  0
VERTEX
  8
Group013
 10
69.19999999999999
 20
-16.224999999999998
 30
0.0
  0
VERTEX
  8
Group013
 10
69.19999999999999
 20
-2.8249999999999993
 30
0.0
  0
SEQEND
  8
Group013
  0
ARC
  8
Group014
 62
0
 10
88.55
 20
-2.825
 30
0.0
 40
0.3
 50
90.0
 51
-180.0
  0
ARC
  8
Group014
 62
0
 10
88.55
 20
-16.224999999999998
 30
0.0
 40
0.3
 50
-180.0
 51
-90.0
  0
ARC
  8
Group014
 62
0
 10
101.95
 20
-2.824999999999999
 30
0.0
 40
0.3
 50
-0.0
 51
90.0
  0
ARC
  8
Group014
 62
0
 10
101.94999999999999
 20
-16.224999999999998
 30
0.0
 40
0.3
 50
-90.0
 51
-0.0
  0
POLYLINE
  8
Group014
 62
0
 70
0
 66
1
 10
0.0
 20
0.0
 30
0.0
  0
VERTEX
  8
Group014
 10
88.55
 20
-2.525
 30
0.0
  0
VERTEX
  8
Group014
 10
101.95
 20
-2.524999999999999
 30
0.0
  0
SEQEND
  8
Group014
  0
POLYLINE
  8
Group014
 62
0
 70
0
 66
1
 10
0.0
 20
0.0
 30
0.0
  0
VERTEX
  8
Group014
 10
102.25
 20
-2.824999999999999
 30
0.0
  0
VERTEX
  8
Group014
 10
102.25
 20
-16.224999999999998
 30
0.0
  0
SEQEND
  8
Group014
  0
POLYLINE
  8
Group014
 62
0
 70
0
 66
1
 10
0.0
 20
0.0
 30
0.0
  0
VERTEX
  8
Group014
 10
101.94999999999999
 20
-16.525
 30
0.0
  0
VERTEX
  8
Group014
 10
88.55
 20
-16.525
 30
0.0
  0
SEQEND
  8
Group014
  0
POLYLINE
  8
Group014
 62
0
 70
0
 66
1
 10
0.0
 20
0.0
 30
0.0
  0
VERTEX
  8
Group014
 10
88.24999999999999
 20
-16.224999999999998
 30
0.0
  0
VERTEX
  8
Group014
 10
88.24999999999999
 20
-2.8249999999999993
 30
0.0
  0
SEQEND
  8
Group014
  0
ARC
  8
Group015
 62
0
 10
107.6
 20
-2.825
 30
0.0
 40
0.3
 50
90.0
 51
-180.0
  0
ARC
  8
Group015
 62
0
 10
107.6
 20
-16.224999999999998
 30
0.0
 40
0.3
 50
-180.0
 51
-90.0
  0
ARC
  8
Group015
 62
0
 10
121.0
 20
-2.824999999999999
 30
0.0
 40
0.3
 50
-0.0
 51
90.0
  0
ARC
  8
Group015
 62
0
 10
120.99999999999999
 20
-16.224999999999998
 30
0.0
 40
0.3
 50
-90.0
 51
-0.0
  0
POLYLINE
  8
Group015
 62
0
 70
0
 66
1
 10
0.0
 20
0.0
 30
0.0
  0
VERTEX
  8
Group015
 10
107.6
 20
-2.525
 30
0.0
  0
VERTEX
  8
Group015
 10
121.0
 20
-2.524999999999999
 30
0.0
  0
SEQEND
  8
Group015
  0
POLYLINE
  8
Group015
 62
0
 70
0
 66
1
 10
0.0
 20
0.0
 30
0.0
  0
VERTEX
  8
Group015
 10
121.3
 20
-2.824999999999999
 30
0.0
  0
VERTEX
  8
Group015
 10
121.3
 20
-16.224999999999998
 30
0.0
  0
SEQEND
  8
Group015
  0
POLYLINE
  8
Group015
 62
0
 70
0
 66
1
 10
0.0
 20
0.0
 30
0.0
  0
VERTEX
  8
Group015
 10
120.99999999999999
 20
-16.525
 30
0.0
  0
VERTEX
  8
Group015
 10
107.6
 20
-16.525
 30
0.0
  0
SEQEND
  8
Group015
  0
POLYLINE
  8
Group015
 62
0
 70
0
 66
1
 10
0.0
 20
0.0
 30
0.0
  0
VERTEX
  8
Group015
 10
107.29999999999998
 20
-16.224999999999998
 30
0.0
  0
VERTEX
  8
Group015
 10
107.29999999999998
 20
-2.8249999999999993
 30
0.0
  0
SEQEND
  8
Group015
  0
ARC
  8
Group016
 62
0
 10
126.64999999999999
 20
-2.825
 30
0.0
 40
0.3
 50
90.0
 51
-180.0
  0
ARC
  8
Group016
 62
0
 10
126.64999999999998
 20
-16.224999999999998
 30
0.0
 40
0.3
 50
-180.0
 51
-90.0
  0
ARC
  8
Group016
 62
0
 10
140.04999999999998
 20
-2.824999999999999
 30
0.0
 40
0.3
 50
-0.0
 51
90.0
  0
ARC
  8
Group016
 62
0
 10
140.04999999999998
 20
-16.224999999999998
 30
0.0
 40
0.3
 50
-90.0
 51
-0.0
  0
POLYLINE
  8
Group016
 62
0
 70
0
 66
1
 10
0.0
 20
0.0
 30
0.0
  0
VERTEX
  8
Group016
 10
126.64999999999999
 20
-2.525
 30
0.0
  0
VERTEX
  8
Group016
 10
140.05
 20
-2.524999999999999
 30
0.0
  0
SEQEND
  8
Group016
  0
POLYLINE
  8
Group016
 62
0
 70
0
 66
1
 10
0.0
 20
0.0
 30
0.0
  0
VERTEX
  8
Group016
 10
140.35
 20
-2.824999999999999
 30
0.0
  0
VERTEX
  8
Group016
 10
140.35
 20
-16.224999999999998
 30
0.0
  0
SEQEND
  8
Group016
  0
POLYLINE
  8
Group016
 62
0
 70
0
 66
1
 10
0.0
 20
0.0
 30
0.0
  0
VERTEX
  8
Group016
 10
140.04999999999998
 20
-16.525
 30
0.0
  0
VERTEX
  8
Group016
 10
126.64999999999998
 20
-16.525
 30
0.0
  0
SEQEND
  8
Group016
  0
POLYLINE
  8
Group016
 62
0
 70
0
 66
1
 10
0.0
 20
0.0
 30
0.0
  0
VERTEX
  8
Group016
 10
126.35
 20
-16.224999999999998
 30
0.0
  0
VERTEX
  8
Group016
 10
126.35
 20
-2.8249999999999993
 30
0.0
  0
SEQEND
  8
Group016
  0
ARC
  8
Group017
 62
0
 10
145.7
 20
-2.825
 30
0.0
 40
0.3
 50
90.0
 51
-180.0
  0
ARC
  8
Group017
 62
0
 10
145.7
 20
-16.224999999999998
 30
0.0
 40
0.3
 50
-180.0
 51
-90.0
  0
ARC
  8
Group017
 62
0
 10
159.1
 20
-2.824999999999999
 30
0.0
 40
0.3
 50
-0.0
 51
90.0
  0
ARC
  8
Group017
 62
0
 10
159.1
 20
-16.224999999999998
 30
0.0
 40
0.3
 50
-90.0
 51
-0.0
  0
POLYLINE
  8
Group017
 62
0
 70
0
 66
1
 10
0.0
 20
0.0
 30
0.0
  0
VERTEX
  8
Group017
 10
145.7
 20
-2.525
 30
0.0
  0
VERTEX
  8
Group017
 10
159.1
 20
-2.524999999999999
 30
0.0
  0
SEQEND
  8
Group017
  0
POLYLINE
  8
Group017
 62
0
 70
0
 66
1
 10
0.0
 20
0.0
 30
0.0
  0
VERTEX
  8
Group017
 10
159.4
 20
-2.824999999999999
 30
0.0
  0
VERTEX
  8
Group017
 10
159.4
 20
-16.224999999999998
 30
0.0
  0
SEQEND
  8
Group017
  0
POLYLINE
  8
Group017
 62
0
 70
0
 66
1
 10
0.0
 20
0.0
 30
0.0
  0
VERTEX
  8
Group017
 10
159.1
 20
-16.525
 30
0.0
  0
VERTEX
  8
Group017
 10
145.7
 20
-16.525
 30
0.0
  0
SEQEND
  8
Group017
  0
POLYLINE
  8
Group017
 62
0
 70
0
 66
1
 10
0.0
 20
0.0
 30
0.0
  0
VERTEX
  8
Group017
 10
145.4
 20
-16.224999999999998
 30
0.0
  0
VERTEX
  8
Group017
 10
145.4
 20
-2.8249999999999993
 30
0.0
  0
SEQEND
  8
Group017
  0
ARC
  8
Group018
 62
0
 10
164.75
 20
-2.825
 30
0.0
 40
0.3
 50
90.0
 51
-180.0
  0
ARC
  8
Group018
 62
0
 10
164.75
 20
-16.224999999999998
 30
0.0
 40
0.3
 50
-180.0
 51
-90.0
  0
ARC
  8
Group018
 62
0
 10
178.15
 20
-2.824999999999999
 30
0.0
 40
0.3
 50
-0.0
 51
90.0
  0
ARC
  8
Group018
 62
0
 10
178.15
 20
-16.224999999999998
 30
0.0
 40
0.3
 50
-90.0
 51
-0.0
  0
POLYLINE
  8
Group018
 62
0
 70
0
 66
1
 10
0.0
 20
0.0
 30
0.0
  0
VERTEX
  8
Group018
 10
164.75
 20
-2.525
 30
0.0
  0
VERTEX
  8
Group018
 10
178.15
 20
-2.524999999999999
 30
0.0
  0
SEQEND
  8
Group018
  0
POLYLINE
  8
Group018
 62
0
 70
0
 66
1
 10
0.0
 20
0.0
 30
0.0
  0
VERTEX
  8
Group018
 10
178.45000000000002
 20
-2.824999999999999
 30
0.0
  0
VERTEX
  8
Group018
 10
178.45000000000002
 20
-16.224999999999998
 30
0.0
  0
SEQEND
  8
Group018
  0
POLYLINE
  8
Group018
 62
0
 70
0
 66
1
 10
0.0
 20
0.0
 30
0.0
  0
VERTEX
  8
Group018
 10
178.15
 20
-16.525
 30
0.0
  0
VERTEX
  8
Group018
 10
164.75
 20
-16.525
 30
0.0
  0
SEQEND
  8
Group018
  0
POLYLINE
  8
Group018
 62
0
 70
0
 66
1
 10
0.0
 20
0.0
 30
0.0
  0
VERTEX
  8
Group018
 10
164.45000000000002
 20
-16.224999999999998
 30
0.0
  0
VERTEX
  8
Group018
 10
164.45000000000002
 20
-2.8249999999999993
 30
0.0
  0
SEQEND
  8
Group018
  0
ARC
  8
Group019
 62
0
 10
183.8
 20
-2.825
 30
0.0
 40
0.3
 50
90.0
 51
-180.0
  0
ARC
  8
Group019
 62
0
 10
183.8
 20
-16.224999999999998
 30
0.0
 40
0.3
 50
-180.0
 51
-90.0
  0
ARC
  8
Group019
 62
0
 10
197.20000000000002
 20
-2.824999999999999
 30
0.0
 40
0.3
 50
-0.0
 51
90.0
  0
ARC
  8
Group019
 62
0
 10
197.20000000000002
 20
-16.224999999999998
 30
0.0
 40
0.3
 50
-90.0
 51
-0.0
  0
POLYLINE
  8
Group019
 62
0
 70
0
 66
1
 10
0.0
 20
0.0
 30
0.0
  0
VERTEX
  8
Group019
 10
183.8
 20
-2.525
 30
0.0
  0
VERTEX
  8
Group019
 10
197.20000000000002
 20
-2.524999999999999
 30
0.0
  0
SEQEND
  8
Group019
  0
POLYLINE
  8
Group019
 62
0
 70
0
 66
1
 10
0.0
 20
0.0
 30
0.0
  0
VERTEX
  8
Group019
 10
197.50000000000003
 20
-2.824999999999999
 30
0.0
  0
VERTEX
  8
Group019
 10
197.50000000000003
 20
-16.224999999999998
 30
0.0
  0
SEQEND
  8
Group019
  0
POLYLINE
  8
Group019
 62
0
 70
0
 66
1
 10
0.0
 20
0.0
 30
0.0
  0
VERTEX
  8
Group019
 10
197.20000000000002
 20
-16.525
 30
0.0
  0
VERTEX
  8
Group019
 10
183.8
 20
-16.525
 30
0.0
  0
SEQEND
  8
Group019
  0
POLYLINE
  8
Group019
 62
0
 70
0
 66
1
 10
0.0
 20
0.0
 30
0.0
  0
VERTEX
  8
Group019
 10
183.50000000000003
 20
-16.224999999999998
 30
0.0
  0
VERTEX
  8
Group019
 10
183.50000000000003
 20
-2.8249999999999993
 30
0.0
  0
SEQEND
  8
Group019
  0
ARC
  8
Group020
 62
0
 10
202.85000000000002
 20
-2.825
 30
0.0
 40
0.3
 50
90.0
 51
-180.0
  0
ARC
  8
Group020
 62
0
 10
202.85000000000002
 20
-16.224999999999998
 30
0.0
 40
0.3
 50
-180.0
 51
-90.0
  0
ARC
  8
Group020
 62
0
 10
216.25
 20
-2.824999999999999
 30
0.0
 40
0.3
 50
-0.0
 51
90.0
  0
ARC
  8
Group020
 62
0
 10
216.25
 20
-16.224999999999998
 30
0.0
 40
0.3
 50
-90.0
 51
-0.0
  0
POLYLINE
  8
Group020
 62
0
 70
0
 66
1
 10
0.0
 20
0.0
 30
0.0
  0
VERTEX
  8
Group020
 10
202.85000000000002
 20
-2.525
 30
0.0
  0
VERTEX
  8
Group020
 10
216.25000000000003
 20
-2.524999999999999
 30
0.0
  0
SEQEND
  8
Group020
  0
POLYLINE
  8
Group020
 62
0
 70
0
 66
1
 10
0.0
 20
0.0
 30
0.0
  0
VERTEX
  8
Group020
 10
216.55
 20
-2.824999999999999
 30
0.0
  0
VERTEX
  8
Group020
 10
216.55
 20
-16.224999999999998
 30
0.0
  0
SEQEND
  8
Group020
  0
POLYLINE
  8
Group020
 62
0
 70
0
 66
1
 10
0.0
 20
0.0
 30
0.0
  0
VERTEX
  8
Group020
 10
216.25
 20
-16.525
 30
0.0
  0
VERTEX
  8
Group020
 10
202.85
 20
-16.525
 30
0.0
  0
SEQEND
  8
Group020
  0
POLYLINE
  8
Group020
 62
0
 70
0
 66
1
 10
0.0
 20
0.0
 30
0.0
  0
VERTEX
  8
Group020
 10
202.55
 20
-16.224999999999998
 30
0.0
  0
VERTEX
  8
Group020
 10
202.55
 20
-2.8249999999999993
 30
0.0
  0
SEQEND
  8
Group020
  0
ARC
  8
Group021
 62
0
 10
221.90000000000003
 20
-2.825000000000001
 30
0.0
 40
0.3
 50
90.0
 51
-180.0
  0
ARC
  8
Group021
 62
0
 10
221.90000000000003
 20
-16.225
 30
0.0
 40
0.3
 50
-180.0
 51
-90.0
  0
ARC
  8
Group021
 62
0
 10
235.30000000000004
 20
-2.824999999999999
 30
0.0
 40
0.3
 50
-0.0
 51
90.0
  0
ARC
  8
Group021
 62
0
 10
235.30000000000004
 20
-16.225
 30
0.0
 40
0.3
 50
-90.0
 51
-0.0
  0
POLYLINE
  8
Group021
 62
0
 70
0
 66
1
 10
0.0
 20
0.0
 30
0.0
  0
VERTEX
  8
Group021
 10
221.90000000000003
 20
-2.525
 30
0.0
  0
VERTEX
  8
Group021
 10
235.30000000000004
 20
-2.525
 30
0.0
  0
SEQEND
  8
Group021
  0
POLYLINE
  8
Group021
 62
0
 70
0
 66
1
 10
0.0
 20
0.0
 30
0.0
  0
VERTEX
  8
Group021
 10
235.60000000000005
 20
-2.824999999999999
 30
0.0
  0
VERTEX
  8
Group021
 10
235.60000000000005
 20
-16.225
 30
0.0
  0
SEQEND
  8
Group021
  0
POLYLINE
  8
Group021
 62
0
 70
0
 66
1
 10
0.0
 20
0.0
 30
0.0
  0
VERTEX
  8
Group021
 10
235.30000000000004
 20
-16.525
 30
0.0
  0
VERTEX
  8
Group021
 10
221.90000000000003
 20
-16.525
 30
0.0
  0
SEQEND
  8
Group021
  0
POLYLINE
  8
Group021
 62
0
 70
0
 66
1
 10
0.0
 20
0.0
 30
0.0
  0
VERTEX
  8
Group021
 10
221.60000000000005
 20
-16.225
 30
0.0
  0
VERTEX
  8
Group021
 10
221.60000000000005
 20
-2.825000000000003
 30
0.0
  0
SEQEND
  8
Group021
  0
ARC
  8
Group022
 62
0
 10
240.95000000000005
 20
-2.8250000000000037
 30
0.0
 40
0.3
 50
90.0
 51
-180.0
  0
ARC
  8
Group022
 62
0
 10
240.95000000000005
 20
-16.225
 30
0.0
 40
0.3
 50
-180.0
 51
-90.0
  0
ARC
  8
Group022
 62
0
 10
254.35000000000005
 20
-2.8250000000000024
 30
0.0
 40
0.3
 50
-0.0
 51
90.0
  0
ARC
  8
Group022
 62
0
 10
254.35000000000005
 20
-16.225
 30
0.0
 40
0.3
 50
-90.0
 51
-0.0
  0
POLYLINE
  8
Group022
 62
0
 70
0
 66
1
 10
0.0
 20
0.0
 30
0.0
  0
VERTEX
  8
Group022
 10
240.95000000000005
 20
-2.5250000000000035
 30
0.0
  0
VERTEX
  8
Group022
 10
254.35000000000005
 20
-2.5250000000000026
 30
0.0
  0
SEQEND
  8
Group022
  0
POLYLINE
  8
Group022
 62
0
 70
0
 66
1
 10
0.0
 20
0.0
 30
0.0
  0
VERTEX
  8
Group022
 10
254.65000000000006
 20
-2.8250000000000024
 30
0.0
  0
VERTEX
  8
Group022
 10
254.65000000000006
 20
-16.225
 30
0.0
  0
SEQEND
  8
Group022
  0
POLYLINE
  8
Group022
 62
0
 70
0
 66
1
 10
0.0
 20
0.0
 30
0.0
  0
VERTEX
  8
Group022
 10
254.35000000000005
 20
-16.525000000000002
 30
0.0
  0
VERTEX
  8
Group022
 10
240.95000000000005
 20
-16.525000000000002
 30
0.0
  0
SEQEND
  8
Group022
  0
POLYLINE
  8
Group022
 62
0
 70
0
 66
1
 10
0.0
 20
0.0
 30
0.0
  0
VERTEX
  8
Group022
 10
240.65000000000006
 20
-16.225
 30
0.0
  0
VERTEX
  8
Group022
 10
240.65000000000006
 20
-2.825000000000003
 30
0.0
  0
SEQEND
  8
Group022
  0
ARC
  8
Group023
 62
0
 10
260.00000000000006
 20
-2.8250000000000037
 30
0.0
 40
0.3
 50
90.0
 51
-180.0
  0
ARC
  8
Group023
 62
0
 10
260.00000000000006
 20
-16.225
 30
0.0
 40
0.3
 50
-180.0
 51
-90.0
  0
ARC
  8
Group023
 62
0
 10
273.4000000000001
 20
-2.8250000000000024
 30
0.0
 40
0.3
 50
-0.0
 51
90.0
  0
ARC
  8
Group023
 62
0
 10
273.4000000000001
 20
-16.225
 30
0.0
 40
0.3
 50
-90.0
 51
-0.0
  0
POLYLINE
  8
Group023
 62
0
 70
0
 66
1
 10
0.0
 20
0.0
 30
0.0
  0
VERTEX
  8
Group023
 10
260.00000000000006
 20
-2.5250000000000035
 30
0.0
  0
VERTEX
  8
Group023
 10
273.4000000000001
 20
-2.5250000000000026
 30
0.0
  0
SEQEND
  8
Group023
  0
POLYLINE
  8
Group023
 62
0
 70
0
 66
1
 10
0.0
 20
0.0
 30
0.0
  0
VERTEX
  8
Group023
 10
273.70000000000005
 20
-2.8250000000000024
 30
0.0
  0
VERTEX
  8
Group023
 10
273.70000000000005
 20
-16.225
 30
0.0
  0
SEQEND
  8
Group023
  0
POLYLINE
  8
Group023
 62
0
 70
0
 66
1
 10
0.0
 20
0.0
 30
0.0
  0
VERTEX
  8
Group023
 10
273.4000000000001
 20
-16.525000000000002
 30
0.0
  0
VERTEX
  8
Group023
 10
260.0000000000001
 20
-16.525000000000002
 30
0.0
  0
SEQEND
  8
Group023
  0
POLYLINE
  8
Group023
 62
0
 70
0
 66
1
 10
0.0
 20
0.0
 30
0.0
  0
VERTEX
  8
Group023
 10
259.70000000000005
 20
-16.225
 30
0.0
  0
VERTEX
  8
Group023
 10
259.70000000000005
 20
-2.825000000000003
 30
0.0
  0
SEQEND
  8
Group023
  0
ARC
  8
Group024
 62
0
 10
279.05000000000007
 20
-2.825000000000004
 30
0.0
 40
0.3
 50
90.0
 51
-180.0
  0
ARC
  8
Group024
 62
0
 10
279.05000000000007
 20
-16.225
 30
0.0
 40
0.3
 50
-180.0
 51
-90.0
  0
ARC
  8
Group024
 62
0
 10
292.4500000000001
 20
-2.825000000000002
 30
0.0
 40
0.3
 50
-0.0
 51
90.0
  0
ARC
  8
Group024
 62
0
 10
292.4500000000001
 20
-16.225
 30
0.0
 40
0.3
 50
-90.0
 51
-0.0
  0
POLYLINE
  8
Group024
 62
0
 70
0
 66
1
 10
0.0
 20
0.0
 30
0.0
  0
VERTEX
  8
Group024
 10
279.05000000000007
 20
-2.525000000000003
 30
0.0
  0
VERTEX
  8
Group024
 10
292.4500000000001
 20
-2.525000000000002
 30
0.0
  0
SEQEND
  8
Group024
  0
POLYLINE
  8
Group024
 62
0
 70
0
 66
1
 10
0.0
 20
0.0
 30
0.0
  0
VERTEX
  8
Group024
 10
292.75000000000006
 20
-2.825000000000002
 30
0.0
  0
VERTEX
  8
Group024
 10
292.75000000000006
 20
-16.225
 30
0.0
  0
SEQEND
  8
Group024
  0
POLYLINE
  8
Group024
 62
0
 70
0
 66
1
 10
0.0
 20
0.0
 30
0.0
  0
VERTEX
  8
Group024
 10
292.4500000000001
 20
-16.525000000000002
 30
0.0
  0
VERTEX
  8
Group024
 10
279.0500000000001
 20
-16.525000000000002
 30
0.0
  0
SEQEND
  8
Group024
  0
POLYLINE
  8
Group024
 62
0
 70
0
 66
1
 10
0.0
 20
0.0
 30
0.0
  0
VERTEX
  8
Group024
 10
278.75000000000006
 20
-16.225
 30
0.0
  0
VERTEX
  8
Group024
 10
278.75000000000006
 20
-2.825000000000003
 30
0.0
  0
SEQEND
  8
Group024
  0
ARC
  8
backspace
 62
0
 10
307.6250000000001
 20
-2.825000000000004
 30
0.0
 40
0.3
 50
90.0
 51
-180.0
  0
ARC
  8
backspace
 62
0
 10
307.6250000000001
 20
-16.225
 30
0.0
 40
0.3
 50
-180.0
 51
-90.0
  0
ARC
  8
backspace
 62
0
 10
321.02500000000015
 20
-2.825000000000002
 30
0.0
 40
0.3
 50
-0.0
 51
90.0
  0
ARC
  8
backspace
 62
0
 10
321.02500000000015
 20
-16.225
 30
0.0
 40
0.3
 50
-90.0
 51
-0.0
  0
POLYLINE
  8
backspace
 62
0
 70
0
 66
1
 10
0.0
 20
0.0
 30
0.0
  0
VERTEX
  8
backspace
 10
307.6250000000001
 20
-2.525000000000003
 30
0.0
  0
VERTEX
  8
backspace
 10
321.02500000000015
 20
-2.525000000000002
 30
0.0
  0
SEQEND
  8
backspace
  0
POLYLINE
  8
backspace
 62
0
 70
0
 66
1
 10
0.0
 20
0.0
 30
0.0
  0
VERTEX
  8
backspace
 10
321.02500000000015
 20
-16.525000000000002
 30
0.0
  0
VERTEX
  8
backspace
 10
307.62500000000017
 20
-16.525000000000002
 30
0.0
  0
SEQEND
  8
backspace
  0
POLYLINE
  8
left002
 62
0
 70
0
 66
1
 10
0.0
 20
0.0
 30
0.0
  0
VERTEX
  8
left002
 10
298.2250000000002
 20
-7.224999999999987
 30
0.0
  0
VERTEX
  8
left002
 10
298.2250000000002
 20
-10.024999999999984
 30
0.0
  0
SEQEND
  8
left002
  0
POLYLINE
  8
left002
 62
0
 70
0
 66
1
 10
0.0
 20
0.0
 30
0.0
  0
VERTEX
  8
left002
 10
299.1000000000002
 20
-3.9949999999999903
 30
0.0
  0
VERTEX
  8
left002
 10
305.75000000000017
 20
-3.9949999999999903
 30
0.0
  0
SEQEND
  8
left002
  0
POLYLINE
  8
left002
 62
0
 70
0
 66
1
 10
0.0
 20
0.0
 30
0.0
  0
VERTEX
  8
left002
 10
300.9250000000001
 20
-17.494999999999997
 30
0.0
  0
VERTEX
  8
left002
 10
303.9250000000001
 20
-17.494999999999997
 30
0.0
  0
SEQEND
  8
left002
  0
POLYLINE
  8
left002
 62
0
 70
0
 66
1
 10
0.0
 20
0.0
 30
0.0
  0
VERTEX
  8
left002
 10
299.1000000000002
 20
-16.29499999999998
 30
0.0
  0
VERTEX
  8
left002
 10
300.9250000000002
 20
-16.29499999999998
 30
0.0
  0
SEQEND
  8
left002
  0
POLYLINE
  8
left002
 62
0
 70
0
 66
1
 10
0.0
 20
0.0
 30
0.0
  0
VERTEX
  8
left002
 10
300.9250000000001
 20
-17.494999999999997
 30
0.0
  0
VERTEX
  8
left002
 10
300.9250000000001
 20
-16.294999999999995
 30
0.0
  0
SEQEND
  8
left002
  0
POLYLINE
  8
left002
 62
0
 70
0
 66
1
 10
0.0
 20
0.0
 30
0.0
  0
VERTEX
  8
left002
 10
303.9250000000001
 20
-17.494999999999997
 30
0.0
  0
VERTEX
  8
left002
 10
303.9250000000001
 20
-16.294999999999995
 30
0.0
  0
SEQEND
  8
left002
  0
POLYLINE
  8
left002
 62
0
 70
0
 66
1
 10
0.0
 20
0.0
 30
0.0
  0
VERTEX
  8
left002
 10
303.9250000000001
 20
-16.29499999999998
 30
0.0
  0
VERTEX
  8
left002
 10
305.7500000000001
 20
-16.29499999999998
 30
0.0
  0
SEQEND
  8
left002
  0
POLYLINE
  8
left002
 62
0
 70
0
 66
1
 10
0.0
 20
0.0
 30
0.0
  0
VERTEX
  8
left002
 10
305.75000000000017
 20
-16.29499999999998
 30
0.0
  0
VERTEX
  8
left002
 10
305.75000000000017
 20
-15.494999999999983
 30
0.0
  0
SEQEND
  8
left002
  0
POLYLINE
  8
left002
 62
0
 70
0
 66
1
 10
0.0
 20
0.0
 30
0.0
  0
VERTEX
  8
left002
 10
305.75000000000017
 20
-15.494999999999997
 30
0.0
  0
VERTEX
  8
left002
 10
307.32500000000016
 20
-15.494999999999997
 30
0.0
  0
SEQEND
  8
left002
  0
POLYLINE
  8
left002
 62
0
 70
0
 66
1
 10
0.0
 20
0.0
 30
0.0
  0
VERTEX
  8
left002
 10
305.75000000000017
 20
-3.9949999999999903
 30
0.0
  0
VERTEX
  8
left002
 10
305.75000000000017
 20
-4.7949999999999875
 30
0.0
  0
SEQEND
  8
left002
  0
POLYLINE
  8
left002
 62
0
 70
0
 66
1
 10
0.0
 20
0.0
 30
0.0
  0
VERTEX
  8
left002
 10
305.75000000000017
 20
-4.7949999999999875
 30
0.0
  0
VERTEX
  8
left002
 10
307.32500000000016
 20
-4.7949999999999875
 30
0.0
  0
SEQEND
  8
left002
  0
POLYLINE
  8
left002
 62
0
 70
0
 66
1
 10
0.0
 20
0.0
 30
0.0
  0
VERTEX
  8
left002
 10
298.2250000000002
 20
-10.024999999999999
 30
0.0
  0
VERTEX
  8
left002
 10
299.1000000000002
 20
-10.024999999999999
 30
0.0
  0
SEQEND
  8
left002
  0
POLYLINE
  8
left002
 62
0
 70
0
 66
1
 10
0.0
 20
0.0
 30
0.0
  0
VERTEX
  8
left002
 10
298.2250000000002
 20
-7.224999999999987
 30
0.0
  0
VERTEX
  8
left002
 10
299.1000000000002
 20
-7.224999999999987
 30
0.0
  0
SEQEND
  8
left002
  0
POLYLINE
  8
left002
 62
0
 70
0
 66
1
 10
0.0
 20
0.0
 30
0.0
  0
VERTEX
  8
left002
 10
307.3250000000001
 20
-4.7949999999999875
 30
0.0
  0
VERTEX
  8
left002
 10
307.3250000000001
 20
-2.825000000000003
 30
0.0
  0
SEQEND
  8
left002
  0
POLYLINE
  8
left002
 62
0
 70
0
 66
1
 10
0.0
 20
0.0
 30
0.0
  0
VERTEX
  8
left002
 10
307.3250000000001
 20
-15.494999999999997
 30
0.0
  0
VERTEX
  8
left002
 10
307.3250000000001
 20
-16.225
 30
0.0
  0
SEQEND
  8
left002
  0
POLYLINE
  8
left002
 62
0
 70
0
 66
1
 10
0.0
 20
0.0
 30
0.0
  0
VERTEX
  8
left002
 10
299.1000000000002
 20
-10.024999999999999
 30
0.0
  0
VERTEX
  8
left002
 10
299.1000000000002
 20
-16.294999999999995
 30
0.0
  0
SEQEND
  8
left002
  0
POLYLINE
  8
left002
 62
0
 70
0
 66
1
 10
0.0
 20
0.0
 30
0.0
  0
VERTEX
  8
left002
 10
299.1000000000002
 20
-7.224999999999987
 30
0.0
  0
VERTEX
  8
left002
 10
299.1000000000002
 20
-3.9949999999999832
 30
0.0
  0
SEQEND
  8
left002
  0
POLYLINE
  8
right002
 62
0
 70
0
 66
1
 10
0.0
 20
0.0
 30
0.0
  0
VERTEX
  8
right002
 10
330.4250000000001
 20
-7.224999999999987
 30
0.0
  0
VERTEX
  8
right002
 10
330.4250000000001
 20
-10.024999999999984
 30
0.0
  0
SEQEND
  8
right002
  0
POLYLINE
  8
right002
 62
0
 70
0
 66
1
 10
0.0
 20
0.0
 30
0.0
  0
VERTEX
  8
right002
 10
322.90000000000015
 20
-3.9949999999999903
 30
0.0
  0
VERTEX
  8
right002
 10
329.5500000000001
 20
-3.9949999999999903
 30
0.0
  0
SEQEND
  8
right002
  0
POLYLINE
  8
right002
 62
0
 70
0
 66
1
 10
0.0
 20
0.0
 30
0.0
  0
VERTEX
  8
right002
 10
324.7250000000002
 20
-17.494999999999997
 30
0.0
  0
VERTEX
  8
right002
 10
327.7250000000002
 20
-17.494999999999997
 30
0.0
  0
SEQEND
  8
right002
  0
POLYLINE
  8
right002
 62
0
 70
0
 66
1
 10
0.0
 20
0.0
 30
0.0
  0
VERTEX
  8
right002
 10
322.90000000000015
 20
-16.29499999999998
 30
0.0
  0
VERTEX
  8
right002
 10
324.72500000000014
 20
-16.29499999999998
 30
0.0
  0
SEQEND
  8
right002
  0
POLYLINE
  8
right002
 62
0
 70
0
 66
1
 10
0.0
 20
0.0
 30
0.0
  0
VERTEX
  8
right002
 10
324.7250000000002
 20
-17.494999999999997
 30
0.0
  0
VERTEX
  8
right002
 10
324.7250000000002
 20
-16.294999999999995
 30
0.0
  0
SEQEND
  8
right002
  0
POLYLINE
  8
right002
 62
0
 70
0
 66
1
 10
0.0
 20
0.0
 30
0.0
  0
VERTEX
  8
right002
 10
327.7250000000002
 20
-17.494999999999997
 30
0.0
  0
VERTEX
  8
right002
 10
327.7250000000002
 20
-16.294999999999995
 30
0.0
  0
SEQEND
  8
right002
  0
POLYLINE
  8
right002
 62
0
 70
0
 66
1
 10
0.0
 20
0.0
 30
0.0
  0
VERTEX
  8
right002
 10
327.7250000000002
 20
-16.29499999999998
 30
0.0
  0
VERTEX
  8
right002
 10
329.5500000000002
 20
-16.29499999999998
 30
0.0
  0
SEQEND
  8
right002
  0
POLYLINE
  8
right002
 62
0
 70
0
 66
1
 10
0.0
 20
0.0
 30
0.0
  0
VERTEX
  8
right002
 10
322.90000000000015
 20
-16.29499999999998
 30
0.0
  0
VERTEX
  8
right002
 10
322.90000000000015
 20
-15.494999999999983
 30
0.0
  0
SEQEND
  8
right002
  0
POLYLINE
  8
right002
 62
0
 70
0
 66
1
 10
0.0
 20
0.0
 30
0.0
  0
VERTEX
  8
right002
 10
321.3250000000001
 20
-15.494999999999983
 30
0.0
  0
VERTEX
  8
right002
 10
322.9000000000001
 20
-15.494999999999983
 30
0.0
  0
SEQEND
  8
right002
  0
POLYLINE
  8
right002
 62
0
 70
0
 66
1
 10
0.0
 20
0.0
 30
0.0
  0
VERTEX
  8
right002
 10
322.90000000000015
 20
-3.9949999999999832
 30
0.0
  0
VERTEX
  8
right002
 10
322.90000000000015
 20
-4.79499999999998
 30
0.0
  0
SEQEND
  8
right002
  0
POLYLINE
  8
right002
 62
0
 70
0
 66
1
 10
0.0
 20
0.0
 30
0.0
  0
VERTEX
  8
right002
 10
321.3250000000001
 20
-4.79499999999998
 30
0.0
  0
VERTEX
  8
right002
 10
322.9000000000001
 20
-4.79499999999998
 30
0.0
  0
SEQEND
  8
right002
  0
POLYLINE
  8
right002
 62
0
 70
0
 66
1
 10
0.0
 20
0.0
 30
0.0
  0
VERTEX
  8
right002
 10
329.5500000000001
 20
-10.024999999999999
 30
0.0
  0
VERTEX
  8
right002
 10
330.4250000000001
 20
-10.024999999999999
 30
0.0
  0
SEQEND
  8
right002
  0
POLYLINE
  8
right002
 62
0
 70
0
 66
1
 10
0.0
 20
0.0
 30
0.0
  0
VERTEX
  8
right002
 10
329.5500000000001
 20
-7.224999999999987
 30
0.0
  0
VERTEX
  8
right002
 10
330.4250000000001
 20
-7.224999999999987
 30
0.0
  0
SEQEND
  8
right002
  0
POLYLINE
  8
right002
 62
0
 70
0
 66
1
 10
0.0
 20
0.0
 30
0.0
  0
VERTEX
  8
right002
 10
321.3250000000001
 20
-4.79499999999998
 30
0.0
  0
VERTEX
  8
right002
 10
321.3250000000001
 20
-2.8249999999999957
 30
0.0
  0
SEQEND
  8
right002
  0
POLYLINE
  8
right002
 62
0
 70
0
 66
1
 10
0.0
 20
0.0
 30
0.0
  0
VERTEX
  8
right002
 10
321.3250000000001
 20
-15.494999999999983
 30
0.0
  0
VERTEX
  8
right002
 10
321.3250000000001
 20
-16.224999999999987
 30
0.0
  0
SEQEND
  8
right002
  0
POLYLINE
  8
right002
 62
0
 70
0
 66
1
 10
0.0
 20
0.0
 30
0.0
  0
VERTEX
  8
right002
 10
329.5500000000001
 20
-10.024999999999999
 30
0.0
  0
VERTEX
  8
right002
 10
329.5500000000001
 20
-16.294999999999995
 30
0.0
  0
SEQEND
  8
right002
  0
POLYLINE
  8
right002
 62
0
 70
0
 66
1
 10
0.0
 20
0.0
 30
0.0
  0
VERTEX
  8
right002
 10
329.5500000000001
 20
-7.224999999999987
 30
0.0
  0
VERTEX
  8
right002
 10
329.5500000000001
 20
-3.9949999999999832
 30
0.0
  0
SEQEND
  8
right002
  0
POLYLINE
  8
Group028
 62
0
 70
0
 66
1
 10
0.0
 20
0.0
 30
0.0
  0
VERTEX
  8
Group028
 10
55.212500000000006
 20
-21.574999999999992
 30
0.0
  0
VERTEX
  8
Group028
 10
68.61250000000001
 20
-21.574999999999992
 30
0.0
  0
SEQEND
  8
Group028
  0
POLYLINE
  8
Group028
 62
0
 70
0
 66
1
 10
0.0
 20
0.0
 30
0.0
  0
VERTEX
  8
Group028
 10
68.6125
 20
-35.57499999999999
 30
0.0
  0
VERTEX
  8
Group028
 10
55.2125
 20
-35.57499999999999
 30
0.0
  0
SEQEND
  8
Group028
  0
POLYLINE
  8
Group028
 62
0
 70
0
 66
1
 10
0.0
 20
0.0
 30
0.0
  0
VERTEX
  8
Group028
 10
68.91250000000001
 20
-21.874999999999993
 30
0.0
  0
VERTEX
  8
Group028
 10
68.91250000000001
 20
-35.27499999999999
 30
0.0
  0
SEQEND
  8
Group028
  0
ARC
  8
Group028
 62
0
 10
55.2125
 20
-35.27499999999999
 30
0.0
 40
0.3
 50
-180.0
 51
-90.0
  0
ARC
  8
Group028
 62
0
 10
68.6125
 20
-35.27499999999999
 30
0.0
 40
0.3
 50
-90.0
 51
-0.0
  0
ARC
  8
Group028
 62
0
 10
68.61250000000001
 20
-21.874999999999993
 30
0.0
 40
0.3
 50
-0.0
 51
90.0
  0
ARC
  8
Group028
 62
0
 10
55.212500000000006
 20
-21.874999999999993
 30
0.0
 40
0.3
 50
90.0
 51
-180.0
  0
POLYLINE
  8
Group028
 62
0
 70
0
 66
1
 10
0.0
 20
0.0
 30
0.0
  0
VERTEX
  8
Group028
 10
54.9125
 20
-35.27499999999999
 30
0.0
  0
VERTEX
  8
Group028
 10
54.9125
 20
-21.874999999999993
 30
0.0
  0
SEQEND
  8
Group028
  0
ARC
  8
Group029
 62
0
 10
79.025
 20
-21.874999999999996
 30
0.0
 40
0.3
 50
90.0
 51
-180.0
  0
ARC
  8
Group029
 62
0
 10
79.025
 20
-35.27499999999999
 30
0.0
 40
0.3
 50
-180.0
 51
-90.0
  0
ARC
  8
Group029
 62
0
 10
92.42500000000001
 20
-21.874999999999996
 30
0.0
 40
0.3
 50
-0.0
 51
90.0
  0
ARC
  8
Group029
 62
0
 10
92.425
 20
-35.27499999999999
 30
0.0
 40
0.3
 50
-90.0
 51
-0.0
  0
POLYLINE
  8
Group029
 62
0
 70
0
 66
1
 10
0.0
 20
0.0
 30
0.0
  0
VERTEX
  8
Group029
 10
79.025
 20
-21.574999999999996
 30
0.0
  0
VERTEX
  8
Group029
 10
92.42500000000001
 20
-21.574999999999996
 30
0.0
  0
SEQEND
  8
Group029
  0
POLYLINE
  8
Group029
 62
0
 70
0
 66
1
 10
0.0
 20
0.0
 30
0.0
  0
VERTEX
  8
Group029
 10
92.72500000000001
 20
-21.874999999999996
 30
0.0
  0
VERTEX
  8
Group029
 10
92.72500000000001
 20
-35.27499999999999
 30
0.0
  0
SEQEND
  8
Group029
  0
POLYLINE
  8
Group029
 62
0
 70
0
 66
1
 10
0.0
 20
0.0
 30
0.0
  0
VERTEX
  8
Group029
 10
92.425
 20
-35.574999999999996
 30
0.0
  0
VERTEX
  8
Group029
 10
79.025
 20
-35.574999999999996
 30
0.0
  0
SEQEND
  8
Group029
  0
POLYLINE
  8
Group029
 62
0
 70
0
 66
1
 10
0.0
 20
0.0
 30
0.0
  0
VERTEX
  8
Group029
 10
78.725
 20
-35.27499999999999
 30
0.0
  0
VERTEX
  8
Group029
 10
78.725
 20
-21.874999999999993
 30
0.0
  0
SEQEND
  8
Group029
  0
ARC
  8
Group030
 62
0
 10
98.075
 20
-21.874999999999993
 30
0.0
 40
0.3
 50
90.0
 51
-180.0
  0
ARC
  8
Group030
 62
0
 10
98.075
 20
-35.27499999999999
 30
0.0
 40
0.3
 50
-180.0
 51
-90.0
  0
ARC
  8
Group030
 62
0
 10
111.47500000000001
 20
-21.874999999999993
 30
0.0
 40
0.3
 50
-0.0
 51
90.0
  0
ARC
  8
Group030
 62
0
 10
111.475
 20
-35.27499999999999
 30
0.0
 40
0.3
 50
-90.0
 51
-0.0
  0
POLYLINE
  8
Group030
 62
0
 70
0
 66
1
 10
0.0
 20
0.0
 30
0.0
  0
VERTEX
  8
Group030
 10
98.075
 20
-21.574999999999992
 30
0.0
  0
VERTEX
  8
Group030
 10
111.47500000000001
 20
-21.574999999999992
 30
0.0
  0
SEQEND
  8
Group030
  0
POLYLINE
  8
Group030
 62
0
 70
0
 66
1
 10
0.0
 20
0.0
 30
0.0
  0
VERTEX
  8
Group030
 10
111.775
 20
-21.874999999999993
 30
0.0
  0
VERTEX
  8
Group030
 10
111.775
 20
-35.27499999999999
 30
0.0
  0
SEQEND
  8
Group030
  0
POLYLINE
  8
Group030
 62
0
 70
0
 66
1
 10
0.0
 20
0.0
 30
0.0
  0
VERTEX
  8
Group030
 10
111.475
 20
-35.57499999999999
 30
0.0
  0
VERTEX
  8
Group030
 10
98.075
 20
-35.57499999999999
 30
0.0
  0
SEQEND
  8
Group030
  0
POLYLINE
  8
Group030
 62
0
 70
0
 66
1
 10
0.0
 20
0.0
 30
0.0
  0
VERTEX
  8
Group030
 10
97.77499999999999
 20
-35.27499999999999
 30
0.0
  0
VERTEX
  8
Group030
 10
97.77499999999999
 20
-21.874999999999993
 30
0.0
  0
SEQEND
  8
Group030
  0
ARC
  8
Group031
 62
0
 10
117.125
 20
-21.874999999999993
 30
0.0
 40
0.3
 50
90.0
 51
-180.0
  0
ARC
  8
Group031
 62
0
 10
117.125
 20
-35.27499999999999
 30
0.0
 40
0.3
 50
-180.0
 51
-90.0
  0
ARC
  8
Group031
 62
0
 10
130.525
 20
-21.874999999999993
 30
0.0
 40
0.3
 50
-0.0
 51
90.0
  0
ARC
  8
Group031
 62
0
 10
130.52499999999998
 20
-35.27499999999999
 30
0.0
 40
0.3
 50
-90.0
 51
-0.0
  0
POLYLINE
  8
Group031
 62
0
 70
0
 66
1
 10
0.0
 20
0.0
 30
0.0
  0
VERTEX
  8
Group031
 10
117.125
 20
-21.574999999999992
 30
0.0
  0
VERTEX
  8
Group031
 10
130.525
 20
-21.574999999999992
 30
0.0
  0
SEQEND
  8
Group031
  0
POLYLINE
  8
Group031
 62
0
 70
0
 66
1
 10
0.0
 20
0.0
 30
0.0
  0
VERTEX
  8
Group031
 10
130.825
 20
-21.874999999999993
 30
0.0
  0
VERTEX
  8
Group031
 10
130.825
 20
-35.27499999999999
 30
0.0
  0
SEQEND
  8
Group031
  0
POLYLINE
  8
Group031
 62
0
 70
0
 66
1
 10
0.0
 20
0.0
 30
0.0
  0
VERTEX
  8
Group031
 10
130.52499999999998
 20
-35.57499999999999
 30
0.0
  0
VERTEX
  8
Group031
 10
117.12499999999999
 20
-35.57499999999999
 30
0.0
  0
SEQEND
  8
Group031
  0
POLYLINE
  8
Group031
 62
0
 70
0
 66
1
 10
0.0
 20
0.0
 30
0.0
  0
VERTEX
  8
Group031
 10
116.82499999999999
 20
-35.27499999999999
 30
0.0
  0
VERTEX
  8
Group031
 10
116.82499999999999
 20
-21.874999999999993
 30
0.0
  0
SEQEND
  8
Group031
  0
ARC
  8
Group032
 62
0
 10
136.175
 20
-21.874999999999993
 30
0.0
 40
0.3
 50
90.0
 51
-180.0
  0
ARC
  8
Group032
 62
0
 10
136.175
 20
-35.27499999999999
 30
0.0
 40
0.3
 50
-180.0
 51
-90.0
  0
ARC
  8
Group032
 62
0
 10
149.575
 20
-21.874999999999993
 30
0.0
 40
0.3
 50
-0.0
 51
90.0
  0
ARC
  8
Group032
 62
0
 10
149.575
 20
-35.27499999999999
 30
0.0
 40
0.3
 50
-90.0
 51
-0.0
  0
POLYLINE
  8
Group032
 62
0
 70
0
 66
1
 10
0.0
 20
0.0
 30
0.0
  0
VERTEX
  8
Group032
 10
136.175
 20
-21.574999999999992
 30
0.0
  0
VERTEX
  8
Group032
 10
149.57500000000002
 20
-21.574999999999992
 30
0.0
  0
SEQEND
  8
Group032
  0
POLYLINE
  8
Group032
 62
0
 70
0
 66
1
 10
0.0
 20
0.0
 30
0.0
  0
VERTEX
  8
Group032
 10
149.875
 20
-21.874999999999993
 30
0.0
  0
VERTEX
  8
Group032
 10
149.875
 20
-35.27499999999999
 30
0.0
  0
SEQEND
  8
Group032
  0
POLYLINE
  8
Group032
 62
0
 70
0
 66
1
 10
0.0
 20
0.0
 30
0.0
  0
VERTEX
  8
Group032
 10
149.575
 20
-35.57499999999999
 30
0.0
  0
VERTEX
  8
Group032
 10
136.175
 20
-35.57499999999999
 30
0.0
  0
SEQEND
  8
Group032
  0
POLYLINE
  8
Group032
 62
0
 70
0
 66
1
 10
0.0
 20
0.0
 30
0.0
  0
VERTEX
  8
Group032
 10
135.875
 20
-35.27499999999999
 30
0.0
  0
VERTEX
  8
Group032
 10
135.875
 20
-21.874999999999993
 30
0.0
  0
SEQEND
  8
Group032
  0
ARC
  8
Group033
 62
0
 10
155.225
 20
-21.874999999999993
 30
0.0
 40
0.3
 50
90.0
 51
-180.0
  0
ARC
  8
Group033
 62
0
 10
155.225
 20
-35.27499999999999
 30
0.0
 40
0.3
 50
-180.0
 51
-90.0
  0
ARC
  8
Group033
 62
0
 10
168.62499999999997
 20
-21.874999999999993
 30
0.0
 40
0.3
 50
-0.0
 51
90.0
  0
ARC
  8
Group033
 62
0
 10
168.62499999999997
 20
-35.27499999999999
 30
0.0
 40
0.3
 50
-90.0
 51
-0.0
  0
POLYLINE
  8
Group033
 62
0
 70
0
 66
1
 10
0.0
 20
0.0
 30
0.0
  0
VERTEX
  8
Group033
 10
155.225
 20
-21.574999999999992
 30
0.0
  0
VERTEX
  8
Group033
 10
168.625
 20
-21.574999999999992
 30
0.0
  0
SEQEND
  8
Group033
  0
POLYLINE
  8
Group033
 62
0
 70
0
 66
1
 10
0.0
 20
0.0
 30
0.0
  0
VERTEX
  8
Group033
 10
168.92499999999998
 20
-21.874999999999993
 30
0.0
  0
VERTEX
  8
Group033
 10
168.92499999999998
 20
-35.27499999999999
 30
0.0
  0
SEQEND
  8
Group033
  0
POLYLINE
  8
Group033
 62
0
 70
0
 66
1
 10
0.0
 20
0.0
 30
0.0
  0
VERTEX
  8
Group033
 10
168.62499999999997
 20
-35.57499999999999
 30
0.0
  0
VERTEX
  8
Group033
 10
155.225
 20
-35.57499999999999
 30
0.0
  0
SEQEND
  8
Group033
  0
POLYLINE
  8
Group033
 62
0
 70
0
 66
1
 10
0.0
 20
0.0
 30
0.0
  0
VERTEX
  8
Group033
 10
154.92499999999998
 20
-35.27499999999999
 30
0.0
  0
VERTEX
  8
Group033
 10
154.92499999999998
 20
-21.874999999999993
 30
0.0
  0
SEQEND
  8
Group033
  0
ARC
  8
Group034
 62
0
 10
174.27499999999998
 20
-21.874999999999993
 30
0.0
 40
0.3
 50
90.0
 51
-180.0
  0
ARC
  8
Group034
 62
0
 10
174.27499999999998
 20
-35.27499999999999
 30
0.0
 40
0.3
 50
-180.0
 51
-90.0
  0
ARC
  8
Group034
 62
0
 10
187.67499999999995
 20
-21.874999999999993
 30
0.0
 40
0.3
 50
-0.0
 51
90.0
  0
ARC
  8
Group034
 62
0
 10
187.67499999999995
 20
-35.27499999999999
 30
0.0
 40
0.3
 50
-90.0
 51
-0.0
  0
POLYLINE
  8
Group034
 62
0
 70
0
 66
1
 10
0.0
 20
0.0
 30
0.0
  0
VERTEX
  8
Group034
 10
174.27499999999998
 20
-21.574999999999992
 30
0.0
  0
VERTEX
  8
Group034
 10
187.67499999999998
 20
-21.574999999999992
 30
0.0
  0
SEQEND
  8
Group034
  0
POLYLINE
  8
Group034
 62
0
 70
0
 66
1
 10
0.0
 20
0.0
 30
0.0
  0
VERTEX
  8
Group034
 10
187.97499999999997
 20
-21.874999999999993
 30
0.0
  0
VERTEX
  8
Group034
 10
187.97499999999997
 20
-35.27499999999999
 30
0.0
  0
SEQEND
  8
Group034
  0
POLYLINE
  8
Group034
 62
0
 70
0
 66
1
 10
0.0
 20
0.0
 30
0.0
  0
VERTEX
  8
Group034
 10
187.67499999999995
 20
-35.57499999999999
 30
0.0
  0
VERTEX
  8
Group034
 10
174.27499999999998
 20
-35.57499999999999
 30
0.0
  0
SEQEND
  8
Group034
  0
POLYLINE
  8
Group034
 62
0
 70
0
 66
1
 10
0.0
 20
0.0
 30
0.0
  0
VERTEX
  8
Group034
 10
173.97499999999997
 20
-35.27499999999999
 30
0.0
  0
VERTEX
  8
Group034
 10
173.97499999999997
 20
-21.874999999999993
 30
0.0
  0
SEQEND
  8
Group034
  0
ARC
  8
Group035
 62
0
 10
193.32499999999996
 20
-21.874999999999993
 30
0.0
 40
0.3
 50
90.0
 51
-180.0
  0
ARC
  8
Group035
 62
0
 10
193.32499999999996
 20
-35.27499999999999
 30
0.0
 40
0.3
 50
-180.0
 51
-90.0
  0
ARC
  8
Group035
 62
0
 10
206.72499999999994
 20
-21.874999999999993
 30
0.0
 40
0.3
 50
-0.0
 51
90.0
  0
ARC
  8
Group035
 62
0
 10
206.72499999999994
 20
-35.27499999999999
 30
0.0
 40
0.3
 50
-90.0
 51
-0.0
  0
POLYLINE
  8
Group035
 62
0
 70
0
 66
1
 10
0.0
 20
0.0
 30
0.0
  0
VERTEX
  8
Group035
 10
193.32499999999996
 20
-21.574999999999992
 30
0.0
  0
VERTEX
  8
Group035
 10
206.72499999999997
 20
-21.574999999999992
 30
0.0
  0
SEQEND
  8
Group035
  0
POLYLINE
  8
Group035
 62
0
 70
0
 66
1
 10
0.0
 20
0.0
 30
0.0
  0
VERTEX
  8
Group035
 10
207.02499999999995
 20
-21.874999999999993
 30
0.0
  0
VERTEX
  8
Group035
 10
207.02499999999995
 20
-35.27499999999999
 30
0.0
  0
SEQEND
  8
Group035
  0
POLYLINE
  8
Group035
 62
0
 70
0
 66
1
 10
0.0
 20
0.0
 30
0.0
  0
VERTEX
  8
Group035
 10
206.72499999999994
 20
-35.57499999999999
 30
0.0
  0
VERTEX
  8
Group035
 10
193.32499999999996
 20
-35.57499999999999
 30
0.0
  0
SEQEND
  8
Group035
  0
POLYLINE
  8
Group035
 62
0
 70
0
 66
1
 10
0.0
 20
0.0
 30
0.0
  0
VERTEX
  8
Group035
 10
193.02499999999995
 20
-35.27499999999999
 30
0.0
  0
VERTEX
  8
Group035
 10
193.02499999999995
 20
-21.874999999999993
 30
0.0
  0
SEQEND
  8
Group035
  0
ARC
  8
Group036
 62
0
 10
212.37499999999994
 20
-21.874999999999993
 30
0.0
 40
0.3
 50
90.0
 51
-180.0
  0
ARC
  8
Group036
 62
0
 10
212.37499999999994
 20
-35.27499999999999
 30
0.0
 40
0.3
 50
-180.0
 51
-90.0
  0
ARC
  8
Group036
 62
0
 10
225.77499999999992
 20
-21.874999999999993
 30
0.0
 40
0.3
 50
-0.0
 51
90.0
  0
ARC
  8
Group036
 62
0
 10
225.77499999999992
 20
-35.27499999999999
 30
0.0
 40
0.3
 50
-90.0
 51
-0.0
  0
POLYLINE
  8
Group036
 62
0
 70
0
 66
1
 10
0.0
 20
0.0
 30
0.0
  0
VERTEX
  8
Group036
 10
212.37499999999994
 20
-21.574999999999992
 30
0.0
  0
VERTEX
  8
Group036
 10
225.77499999999995
 20
-21.574999999999992
 30
0.0
  0
SEQEND
  8
Group036
  0
POLYLINE
  8
Group036
 62
0
 70
0
 66
1
 10
0.0
 20
0.0
 30
0.0
  0
VERTEX
  8
Group036
 10
226.07499999999993
 20
-21.874999999999993
 30
0.0
  0
VERTEX
  8
Group036
 10
226.07499999999993
 20
-35.27499999999999
 30
0.0
  0
SEQEND
  8
Group036
  0
POLYLINE
  8
Group036
 62
0
 70
0
 66
1
 10
0.0
 20
0.0
 30
0.0
  0
VERTEX
  8
Group036
 10
225.77499999999992
 20
-35.57499999999999
 30
0.0
  0
VERTEX
  8
Group036
 10
212.37499999999994
 20
-35.57499999999999
 30
0.0
  0
SEQEND
  8
Group036
  0
POLYLINE
  8
Group036
 62
0
 70
0
 66
1
 10
0.0
 20
0.0
 30
0.0
  0
VERTEX
  8
Group036
 10
212.07499999999993
 20
-35.27499999999999
 30
0.0
  0
VERTEX
  8
Group036
 10
212.07499999999993
 20
-21.874999999999993
 30
0.0
  0
SEQEND
  8
Group036
  0
ARC
  8
Group037
 62
0
 10
231.42499999999993
 20
-21.874999999999993
 30
0.0
 40
0.3
 50
90.0
 51
-180.0
  0
ARC
  8
Group037
 62
0
 10
231.42499999999993
 20
-35.27499999999999
 30
0.0
 40
0.3
 50
-180.0
 51
-90.0
  0
ARC
  8
Group037
 62
0
 10
244.8249999999999
 20
-21.874999999999993
 30
0.0
 40
0.3
 50
-0.0
 51
90.0
  0
ARC
  8
Group037
 62
0
 10
244.8249999999999
 20
-35.27499999999999
 30
0.0
 40
0.3
 50
-90.0
 51
-0.0
  0
POLYLINE
  8
Group037
 62
0
 70
0
 66
1
 10
0.0
 20
0.0
 30
0.0
  0
VERTEX
  8
Group037
 10
231.42499999999993
 20
-21.574999999999992
 30
0.0
  0
VERTEX
  8
Group037
 10
244.82499999999993
 20
-21.574999999999992
 30
0.0
  0
SEQEND
  8
Group037
  0
POLYLINE
  8
Group037
 62
0
 70
0
 66
1
 10
0.0
 20
0.0
 30
0.0
  0
VERTEX
  8
Group037
 10
245.12499999999991
 20
-21.874999999999993
 30
0.0
  0
VERTEX
  8
Group037
 10
245.12499999999991
 20
-35.27499999999999
 30
0.0
  0
SEQEND
  8
Group037
  0
POLYLINE
  8
Group037
 62
0
 70
0
 66
1
 10
0.0
 20
0.0
 30
0.0
  0
VERTEX
  8
Group037
 10
244.8249999999999
 20
-35.57499999999999
 30
0.0
  0
VERTEX
  8
Group037
 10
231.42499999999993
 20
-35.57499999999999
 30
0.0
  0
SEQEND
  8
Group037
  0
POLYLINE
  8
Group037
 62
0
 70
0
 66
1
 10
0.0
 20
0.0
 30
0.0
  0
VERTEX
  8
Group037
 10
231.12499999999991
 20
-35.27499999999999
 30
0.0
  0
VERTEX
  8
Group037
 10
231.12499999999991
 20
-21.874999999999993
 30
0.0
  0
SEQEND
  8
Group037
  0
ARC
  8
Group038
 62
0
 10
250.4749999999999
 20
-21.874999999999993
 30
0.0
 40
0.3
 50
90.0
 51
-180.0
  0
ARC
  8
Group038
 62
0
 10
250.4749999999999
 20
-35.27499999999999
 30
0.0
 40
0.3
 50
-180.0
 51
-90.0
  0
ARC
  8
Group038
 62
0
 10
263.8749999999999
 20
-21.874999999999993
 30
0.0
 40
0.3
 50
-0.0
 51
90.0
  0
ARC
  8
Group038
 62
0
 10
263.8749999999999
 20
-35.27499999999999
 30
0.0
 40
0.3
 50
-90.0
 51
-0.0
  0
POLYLINE
  8
Group038
 62
0
 70
0
 66
1
 10
0.0
 20
0.0
 30
0.0
  0
VERTEX
  8
Group038
 10
250.4749999999999
 20
-21.574999999999992
 30
0.0
  0
VERTEX
  8
Group038
 10
263.8749999999999
 20
-21.574999999999992
 30
0.0
  0
SEQEND
  8
Group038
  0
POLYLINE
  8
Group038
 62
0
 70
0
 66
1
 10
0.0
 20
0.0
 30
0.0
  0
VERTEX
  8
Group038
 10
264.17499999999984
 20
-21.874999999999993
 30
0.0
  0
VERTEX
  8
Group038
 10
264.17499999999984
 20
-35.27499999999999
 30
0.0
  0
SEQEND
  8
Group038
  0
POLYLINE
  8
Group038
 62
0
 70
0
 66
1
 10
0.0
 20
0.0
 30
0.0
  0
VERTEX
  8
Group038
 10
263.8749999999999
 20
-35.57499999999999
 30
0.0
  0
VERTEX
  8
Group038
 10
250.4749999999999
 20
-35.57499999999999
 30
0.0
  0
SEQEND
  8
Group038
  0
POLYLINE
  8
Group038
 62
0
 70
0
 66
1
 10
0.0
 20
0.0
 30
0.0
  0
VERTEX
  8
Group038
 10
250.1749999999999
 20
-35.27499999999999
 30
0.0
  0
VERTEX
  8
Group038
 10
250.1749999999999
 20
-21.874999999999993
 30
0.0
  0
SEQEND
  8
Group038
  0
ARC
  8
Group039
 62
0
 10
269.52499999999986
 20
-21.874999999999993
 30
0.0
 40
0.3
 50
90.0
 51
-180.0
  0
ARC
  8
Group039
 62
0
 10
269.52499999999986
 20
-35.27499999999999
 30
0.0
 40
0.3
 50
-180.0
 51
-90.0
  0
ARC
  8
Group039
 62
0
 10
282.92499999999984
 20
-21.874999999999993
 30
0.0
 40
0.3
 50
-0.0
 51
90.0
  0
ARC
  8
Group039
 62
0
 10
282.92499999999984
 20
-35.27499999999999
 30
0.0
 40
0.3
 50
-90.0
 51
-0.0
  0
POLYLINE
  8
Group039
 62
0
 70
0
 66
1
 10
0.0
 20
0.0
 30
0.0
  0
VERTEX
  8
Group039
 10
269.52499999999986
 20
-21.574999999999992
 30
0.0
  0
VERTEX
  8
Group039
 10
282.92499999999984
 20
-21.574999999999992
 30
0.0
  0
SEQEND
  8
Group039
  0
POLYLINE
  8
Group039
 62
0
 70
0
 66
1
 10
0.0
 20
0.0
 30
0.0
  0
VERTEX
  8
Group039
 10
283.2249999999998
 20
-21.874999999999993
 30
0.0
  0
VERTEX
  8
Group039
 10
283.2249999999998
 20
-35.27499999999999
 30
0.0
  0
SEQEND
  8
Group039
  0
POLYLINE
  8
Group039
 62
0
 70
0
 66
1
 10
0.0
 20
0.0
 30
0.0
  0
VERTEX
  8
Group039
 10
282.92499999999984
 20
-35.57499999999999
 30
0.0
  0
VERTEX
  8
Group039
 10
269.52499999999986
 20
-35.57499999999999
 30
0.0
  0
SEQEND
  8
Group039
  0
POLYLINE
  8
Group039
 62
0
 70
0
 66
1
 10
0.0
 20
0.0
 30
0.0
  0
VERTEX
  8
Group039
 10
269.2249999999998
 20
-35.27499999999999
 30
0.0
  0
VERTEX
  8
Group039
 10
269.2249999999998
 20
-21.874999999999993
 30
0.0
  0
SEQEND
  8
Group039
  0
ARC
  8
Group040
 62
0
 10
288.5749999999998
 20
-21.874999999999993
 30
0.0
 40
0.3
 50
90.0
 51
-180.0
  0
ARC
  8
Group040
 62
0
 10
288.5749999999998
 20
-35.27499999999999
 30
0.0
 40
0.3
 50
-180.0
 51
-90.0
  0
ARC
  8
Group040
 62
0
 10
301.9749999999998
 20
-21.874999999999993
 30
0.0
 40
0.3
 50
-0.0
 51
90.0
  0
ARC
  8
Group040
 62
0
 10
301.9749999999998
 20
-35.27499999999999
 30
0.0
 40
0.3
 50
-90.0
 51
-0.0
  0
POLYLINE
  8
Group040
 62
0
 70
0
 66
1
 10
0.0
 20
0.0
 30
0.0
  0
VERTEX
  8
Group040
 10
288.5749999999998
 20
-21.574999999999992
 30
0.0
  0
VERTEX
  8
Group040
 10
301.9749999999998
 20
-21.574999999999992
 30
0.0
  0
SEQEND
  8
Group040
  0
POLYLINE
  8
Group040
 62
0
 70
0
 66
1
 10
0.0
 20
0.0
 30
0.0
  0
VERTEX
  8
Group040
 10
302.27499999999975
 20
-21.874999999999993
 30
0.0
  0
VERTEX
  8
Group040
 10
302.27499999999975
 20
-35.27499999999999
 30
0.0
  0
SEQEND
  8
Group040
  0
POLYLINE
  8
Group040
 62
0
 70
0
 66
1
 10
0.0
 20
0.0
 30
0.0
  0
VERTEX
  8
Group040
 10
301.9749999999998
 20
-35.57499999999999
 30
0.0
  0
VERTEX
  8
Group040
 10
288.5749999999998
 20
-35.57499999999999
 30
0.0
  0
SEQEND
  8
Group040
  0
POLYLINE
  8
Group040
 62
0
 70
0
 66
1
 10
0.0
 20
0.0
 30
0.0
  0
VERTEX
  8
Group040
 10
288.27499999999975
 20
-35.27499999999999
 30
0.0
  0
VERTEX
  8
Group040
 10
288.27499999999975
 20
-21.874999999999993
 30
0.0
  0
SEQEND
  8
Group040
  0
POLYLINE
  8
Group041
 62
0
 70
0
 66
1
 10
0.0
 20
0.0
 30
0.0
  0
VERTEX
  8
Group041
 10
312.3874999999997
 20
-21.574999999999992
 30
0.0
  0
VERTEX
  8
Group041
 10
325.7874999999997
 20
-21.574999999999992
 30
0.0
  0
SEQEND
  8
Group041
  0
POLYLINE
  8
Group041
 62
0
 70
0
 66
1
 10
0.0
 20
0.0
 30
0.0
  0
VERTEX
  8
Group041
 10
325.78749999999974
 20
-35.57499999999999
 30
0.0
  0
VERTEX
  8
Group041
 10
312.38749999999976
 20
-35.57499999999999
 30
0.0
  0
SEQEND
  8
Group041
  0
POLYLINE
  8
Group041
 62
0
 70
0
 66
1
 10
0.0
 20
0.0
 30
0.0
  0
VERTEX
  8
Group041
 10
326.08749999999975
 20
-21.874999999999993
 30
0.0
  0
VERTEX
  8
Group041
 10
326.08749999999975
 20
-35.27499999999999
 30
0.0
  0
SEQEND
  8
Group041
  0
ARC
  8
Group041
 62
0
 10
312.3874999999997
 20
-35.27499999999999
 30
0.0
 40
0.3
 50
-180.0
 51
-90.0
  0
ARC
  8
Group041
 62
0
 10
325.78749999999974
 20
-35.27499999999999
 30
0.0
 40
0.3
 50
-90.0
 51
-0.0
  0
ARC
  8
Group041
 62
0
 10
325.78749999999974
 20
-21.874999999999993
 30
0.0
 40
0.3
 50
-0.0
 51
90.0
  0
ARC
  8
Group041
 62
0
 10
312.3874999999997
 20
-21.874999999999993
 30
0.0
 40
0.3
 50
90.0
 51
-180.0
  0
POLYLINE
  8
Group041
 62
0
 70
0
 66
1
 10
0.0
 20
0.0
 30
0.0
  0
VERTEX
  8
Group041
 10
312.08749999999975
 20
-35.27499999999999
 30
0.0
  0
VERTEX
  8
Group041
 10
312.08749999999975
 20
-21.874999999999993
 30
0.0
  0
SEQEND
  8
Group041
  0
POLYLINE
  8
capslock
 62
0
 70
0
 66
1
 10
0.0
 20
0.0
 30
0.0
  0
VERTEX
  8
capslock
 10
71.29375000000002
 20
-40.92499999999999
 30
0.0
  0
VERTEX
  8
capslock
 10
71.29375000000002
 20
-54.32499999999999
 30
0.0
  0
SEQEND
  8
capslock
  0
ARC
  8
capslock
 62
0
 10
70.99375
 20
-40.92499999999999
 30
0.0
 40
0.3
 50
-0.0
 51
90.0
  0
ARC
  8
capslock
 62
0
 10
70.99375
 20
-54.32499999999999
 30
0.0
 40
0.3
 50
-90.0
 51
-0.0
  0
ARC
  8
capslock
 62
0
 10
52.831250000000004
 20
-40.92499999999999
 30
0.0
 40
0.3
 50
90.0
 51
-180.0
  0
ARC
  8
capslock
 62
0
 10
52.83125
 20
-54.32499999999999
 30
0.0
 40
0.3
 50
-180.0
 51
-90.0
  0
POLYLINE
  8
capslock
 62
0
 70
0
 66
1
 10
0.0
 20
0.0
 30
0.0
  0
VERTEX
  8
capslock
 10
52.53125
 20
-54.32499999999999
 30
0.0
  0
VERTEX
  8
capslock
 10
52.53125
 20
-40.92499999999999
 30
0.0
  0
SEQEND
  8
capslock
  0
POLYLINE
  8
capslock
 62
0
 70
0
 66
1
 10
0.0
 20
0.0
 30
0.0
  0
VERTEX
  8
capslock
 10
52.831250000000004
 20
-40.62499999999999
 30
0.0
  0
VERTEX
  8
capslock
 10
70.99375
 20
-40.62499999999999
 30
0.0
  0
SEQEND
  8
capslock
  0
POLYLINE
  8
capslock
 62
0
 70
0
 66
1
 10
0.0
 20
0.0
 30
0.0
  0
VERTEX
  8
capslock
 10
70.99375
 20
-54.624999999999986
 30
0.0
  0
VERTEX
  8
capslock
 10
52.83125
 20
-54.624999999999986
 30
0.0
  0
SEQEND
  8
capslock
  0
ARC
  8
Group044
 62
0
 10
83.78750000000001
 20
-40.925
 30
0.0
 40
0.3
 50
90.0
 51
-180.0
  0
ARC
  8
Group044
 62
0
 10
83.7875
 20
-54.32499999999999
 30
0.0
 40
0.3
 50
-180.0
 51
-90.0
  0
ARC
  8
Group044
 62
0
 10
97.1875
 20
-40.92499999999999
 30
0.0
 40
0.3
 50
-0.0
 51
90.0
  0
ARC
  8
Group044
 62
0
 10
97.1875
 20
-54.32499999999999
 30
0.0
 40
0.3
 50
-90.0
 51
-0.0
  0
POLYLINE
  8
Group044
 62
0
 70
0
 66
1
 10
0.0
 20
0.0
 30
0.0
  0
VERTEX
  8
Group044
 10
83.78750000000001
 20
-40.62499999999999
 30
0.0
  0
VERTEX
  8
Group044
 10
97.18750000000001
 20
-40.62499999999999
 30
0.0
  0
SEQEND
  8
Group044
  0
POLYLINE
  8
Group044
 62
0
 70
0
 66
1
 10
0.0
 20
0.0
 30
0.0
  0
VERTEX
  8
Group044
 10
97.48750000000001
 20
-40.92499999999999
 30
0.0
  0
VERTEX
  8
Group044
 10
97.48750000000001
 20
-54.32499999999999
 30
0.0
  0
SEQEND
  8
Group044
  0
POLYLINE
  8
Group044
 62
0
 70
0
 66
1
 10
0.0
 20
0.0
 30
0.0
  0
VERTEX
  8
Group044
 10
97.1875
 20
-54.62499999999999
 30
0.0
  0
VERTEX
  8
Group044
 10
83.7875
 20
-54.62499999999999
 30
0.0
  0
SEQEND
  8
Group044
  0
POLYLINE
  8
Group044
 62
0
 70
0
 66
1
 10
0.0
 20
0.0
 30
0.0
  0
VERTEX
  8
Group044
 10
83.48750000000001
 20
-54.32499999999999
 30
0.0
  0
VERTEX
  8
Group044
 10
83.48750000000001
 20
-40.92499999999999
 30
0.0
  0
SEQEND
  8
Group044
  0
ARC
  8
Group045
 62
0
 10
102.8375
 20
-40.925
 30
0.0
 40
0.3
 50
90.0
 51
-180.0
  0
ARC
  8
Group045
 62
0
 10
102.83749999999999
 20
-54.32499999999999
 30
0.0
 40
0.3
 50
-180.0
 51
-90.0
  0
ARC
  8
Group045
 62
0
 10
116.2375
 20
-40.92499999999999
 30
0.0
 40
0.3
 50
-0.0
 51
90.0
  0
ARC
  8
Group045
 62
0
 10
116.2375
 20
-54.32499999999999
 30
0.0
 40
0.3
 50
-90.0
 51
-0.0
  0
POLYLINE
  8
Group045
 62
0
 70
0
 66
1
 10
0.0
 20
0.0
 30
0.0
  0
VERTEX
  8
Group045
 10
102.8375
 20
-40.62499999999999
 30
0.0
  0
VERTEX
  8
Group045
 10
116.23750000000001
 20
-40.62499999999999
 30
0.0
  0
SEQEND
  8
Group045
  0
POLYLINE
  8
Group045
 62
0
 70
0
 66
1
 10
0.0
 20
0.0
 30
0.0
  0
VERTEX
  8
Group045
 10
116.53750000000001
 20
-40.92499999999999
 30
0.0
  0
VERTEX
  8
Group045
 10
116.53750000000001
 20
-54.32499999999999
 30
0.0
  0
SEQEND
  8
Group045
  0
POLYLINE
  8
Group045
 62
0
 70
0
 66
1
 10
0.0
 20
0.0
 30
0.0
  0
VERTEX
  8
Group045
 10
116.2375
 20
-54.62499999999999
 30
0.0
  0
VERTEX
  8
Group045
 10
102.83749999999999
 20
-54.62499999999999
 30
0.0
  0
SEQEND
  8
Group045
  0
POLYLINE
  8
Group045
 62
0
 70
0
 66
1
 10
0.0
 20
0.0
 30
0.0
  0
VERTEX
  8
Group045
 10
102.53750000000001
 20
-54.32499999999999
 30
0.0
  0
VERTEX
  8
Group045
 10
102.53750000000001
 20
-40.92499999999999
 30
0.0
  0
SEQEND
  8
Group045
  0
ARC
  8
Group046
 62
0
 10
121.8875
 20
-40.925
 30
0.0
 40
0.3
 50
90.0
 51
-180.0
  0
ARC
  8
Group046
 62
0
 10
121.88749999999999
 20
-54.32499999999999
 30
0.0
 40
0.3
 50
-180.0
 51
-90.0
  0
ARC
  8
Group046
 62
0
 10
135.2875
 20
-40.92499999999999
 30
0.0
 40
0.3
 50
-0.0
 51
90.0
  0
ARC
  8
Group046
 62
0
 10
135.2875
 20
-54.32499999999999
 30
0.0
 40
0.3
 50
-90.0
 51
-0.0
  0
POLYLINE
  8
Group046
 62
0
 70
0
 66
1
 10
0.0
 20
0.0
 30
0.0
  0
VERTEX
  8
Group046
 10
121.8875
 20
-40.62499999999999
 30
0.0
  0
VERTEX
  8
Group046
 10
135.28750000000002
 20
-40.62499999999999
 30
0.0
  0
SEQEND
  8
Group046
  0
POLYLINE
  8
Group046
 62
0
 70
0
 66
1
 10
0.0
 20
0.0
 30
0.0
  0
VERTEX
  8
Group046
 10
135.5875
 20
-40.92499999999999
 30
0.0
  0
VERTEX
  8
Group046
 10
135.5875
 20
-54.32499999999999
 30
0.0
  0
SEQEND
  8
Group046
  0
POLYLINE
  8
Group046
 62
0
 70
0
 66
1
 10
0.0
 20
0.0
 30
0.0
  0
VERTEX
  8
Group046
 10
135.2875
 20
-54.62499999999999
 30
0.0
  0
VERTEX
  8
Group046
 10
121.88749999999999
 20
-54.62499999999999
 30
0.0
  0
SEQEND
  8
Group046
  0
POLYLINE
  8
Group046
 62
0
 70
0
 66
1
 10
0.0
 20
0.0
 30
0.0
  0
VERTEX
  8
Group046
 10
121.5875
 20
-54.32499999999999
 30
0.0
  0
VERTEX
  8
Group046
 10
121.5875
 20
-40.92499999999999
 30
0.0
  0
SEQEND
  8
Group046
  0
ARC
  8
Group047
 62
0
 10
140.9375
 20
-40.925
 30
0.0
 40
0.3
 50
90.0
 51
-180.0
  0
ARC
  8
Group047
 62
0
 10
140.9375
 20
-54.32499999999999
 30
0.0
 40
0.3
 50
-180.0
 51
-90.0
  0
ARC
  8
Group047
 62
0
 10
154.3375
 20
-40.92499999999999
 30
0.0
 40
0.3
 50
-0.0
 51
90.0
  0
ARC
  8
Group047
 62
0
 10
154.3375
 20
-54.32499999999999
 30
0.0
 40
0.3
 50
-90.0
 51
-0.0
  0
POLYLINE
  8
Group047
 62
0
 70
0
 66
1
 10
0.0
 20
0.0
 30
0.0
  0
VERTEX
  8
Group047
 10
140.9375
 20
-40.62499999999999
 30
0.0
  0
VERTEX
  8
Group047
 10
154.33750000000003
 20
-40.62499999999999
 30
0.0
  0
SEQEND
  8
Group047
  0
POLYLINE
  8
Group047
 62
0
 70
0
 66
1
 10
0.0
 20
0.0
 30
0.0
  0
VERTEX
  8
Group047
 10
154.63750000000002
 20
-40.92499999999999
 30
0.0
  0
VERTEX
  8
Group047
 10
154.63750000000002
 20
-54.32499999999999
 30
0.0
  0
SEQEND
  8
Group047
  0
POLYLINE
  8
Group047
 62
0
 70
0
 66
1
 10
0.0
 20
0.0
 30
0.0
  0
VERTEX
  8
Group047
 10
154.3375
 20
-54.62499999999999
 30
0.0
  0
VERTEX
  8
Group047
 10
140.9375
 20
-54.62499999999999
 30
0.0
  0
SEQEND
  8
Group047
  0
POLYLINE
  8
Group047
 62
0
 70
0
 66
1
 10
0.0
 20
0.0
 30
0.0
  0
VERTEX
  8
Group047
 10
140.63750000000002
 20
-54.32499999999999
 30
0.0
  0
VERTEX
  8
Group047
 10
140.63750000000002
 20
-40.92499999999999
 30
0.0
  0
SEQEND
  8
Group047
  0
ARC
  8
Group048
 62
0
 10
159.9875
 20
-40.925
 30
0.0
 40
0.3
 50
90.0
 51
-180.0
  0
ARC
  8
Group048
 62
0
 10
159.9875
 20
-54.32499999999999
 30
0.0
 40
0.3
 50
-180.0
 51
-90.0
  0
ARC
  8
Group048
 62
0
 10
173.38750000000002
 20
-40.92499999999999
 30
0.0
 40
0.3
 50
-0.0
 51
90.0
  0
ARC
  8
Group048
 62
0
 10
173.38750000000002
 20
-54.32499999999999
 30
0.0
 40
0.3
 50
-90.0
 51
-0.0
  0
POLYLINE
  8
Group048
 62
0
 70
0
 66
1
 10
0.0
 20
0.0
 30
0.0
  0
VERTEX
  8
Group048
 10
159.9875
 20
-40.62499999999999
 30
0.0
  0
VERTEX
  8
Group048
 10
173.38750000000005
 20
-40.62499999999999
 30
0.0
  0
SEQEND
  8
Group048
  0
POLYLINE
  8
Group048
 62
0
 70
0
 66
1
 10
0.0
 20
0.0
 30
0.0
  0
VERTEX
  8
Group048
 10
173.68750000000003
 20
-40.92499999999999
 30
0.0
  0
VERTEX
  8
Group048
 10
173.68750000000003
 20
-54.32499999999999
 30
0.0
  0
SEQEND
  8
Group048
  0
POLYLINE
  8
Group048
 62
0
 70
0
 66
1
 10
0.0
 20
0.0
 30
0.0
  0
VERTEX
  8
Group048
 10
173.38750000000002
 20
-54.62499999999999
 30
0.0
  0
VERTEX
  8
Group048
 10
159.9875
 20
-54.62499999999999
 30
0.0
  0
SEQEND
  8
Group048
  0
POLYLINE
  8
Group048
 62
0
 70
0
 66
1
 10
0.0
 20
0.0
 30
0.0
  0
VERTEX
  8
Group048
 10
159.68750000000003
 20
-54.32499999999999
 30
0.0
  0
VERTEX
  8
Group048
 10
159.68750000000003
 20
-40.92499999999999
 30
0.0
  0
SEQEND
  8
Group048
  0
ARC
  8
Group049
 62
0
 10
179.03750000000002
 20
-40.925
 30
0.0
 40
0.3
 50
90.0
 51
-180.0
  0
ARC
  8
Group049
 62
0
 10
179.03750000000002
 20
-54.32499999999999
 30
0.0
 40
0.3
 50
-180.0
 51
-90.0
  0
ARC
  8
Group049
 62
0
 10
192.43750000000003
 20
-40.92499999999999
 30
0.0
 40
0.3
 50
-0.0
 51
90.0
  0
ARC
  8
Group049
 62
0
 10
192.43750000000003
 20
-54.32499999999999
 30
0.0
 40
0.3
 50
-90.0
 51
-0.0
  0
POLYLINE
  8
Group049
 62
0
 70
0
 66
1
 10
0.0
 20
0.0
 30
0.0
  0
VERTEX
  8
Group049
 10
179.03750000000002
 20
-40.62499999999999
 30
0.0
  0
VERTEX
  8
Group049
 10
192.43750000000006
 20
-40.62499999999999
 30
0.0
  0
SEQEND
  8
Group049
  0
POLYLINE
  8
Group049
 62
0
 70
0
 66
1
 10
0.0
 20
0.0
 30
0.0
  0
VERTEX
  8
Group049
 10
192.73750000000004
 20
-40.92499999999999
 30
0.0
  0
VERTEX
  8
Group049
 10
192.73750000000004
 20
-54.32499999999999
 30
0.0
  0
SEQEND
  8
Group049
  0
POLYLINE
  8
Group049
 62
0
 70
0
 66
1
 10
0.0
 20
0.0
 30
0.0
  0
VERTEX
  8
Group049
 10
192.43750000000003
 20
-54.62499999999999
 30
0.0
  0
VERTEX
  8
Group049
 10
179.03750000000002
 20
-54.62499999999999
 30
0.0
  0
SEQEND
  8
Group049
  0
POLYLINE
  8
Group049
 62
0
 70
0
 66
1
 10
0.0
 20
0.0
 30
0.0
  0
VERTEX
  8
Group049
 10
178.73750000000004
 20
-54.32499999999999
 30
0.0
  0
VERTEX
  8
Group049
 10
178.73750000000004
 20
-40.92499999999999
 30
0.0
  0
SEQEND
  8
Group049
  0
ARC
  8
Group050
 62
0
 10
198.08750000000003
 20
-40.925
 30
0.0
 40
0.3
 50
90.0
 51
-180.0
  0
ARC
  8
Group050
 62
0
 10
198.08750000000003
 20
-54.32499999999999
 30
0.0
 40
0.3
 50
-180.0
 51
-90.0
  0
ARC
  8
Group050
 62
0
 10
211.48750000000004
 20
-40.92499999999999
 30
0.0
 40
0.3
 50
-0.0
 51
90.0
  0
ARC
  8
Group050
 62
0
 10
211.48750000000004
 20
-54.32499999999999
 30
0.0
 40
0.3
 50
-90.0
 51
-0.0
  0
POLYLINE
  8
Group050
 62
0
 70
0
 66
1
 10
0.0
 20
0.0
 30
0.0
  0
VERTEX
  8
Group050
 10
198.08750000000003
 20
-40.62499999999999
 30
0.0
  0
VERTEX
  8
Group050
 10
211.48750000000007
 20
-40.62499999999999
 30
0.0
  0
SEQEND
  8
Group050
  0
POLYLINE
  8
Group050
 62
0
 70
0
 66
1
 10
0.0
 20
0.0
 30
0.0
  0
VERTEX
  8
Group050
 10
211.78750000000005
 20
-40.92499999999999
 30
0.0
  0
VERTEX
  8
Group050
 10
211.78750000000005
 20
-54.32499999999999
 30
0.0
  0
SEQEND
  8
Group050
  0
POLYLINE
  8
Group050
 62
0
 70
0
 66
1
 10
0.0
 20
0.0
 30
0.0
  0
VERTEX
  8
Group050
 10
211.48750000000004
 20
-54.62499999999999
 30
0.0
  0
VERTEX
  8
Group050
 10
198.08750000000003
 20
-54.62499999999999
 30
0.0
  0
SEQEND
  8
Group050
  0
POLYLINE
  8
Group050
 62
0
 70
0
 66
1
 10
0.0
 20
0.0
 30
0.0
  0
VERTEX
  8
Group050
 10
197.78750000000005
 20
-54.32499999999999
 30
0.0
  0
VERTEX
  8
Group050
 10
197.78750000000005
 20
-40.92499999999999
 30
0.0
  0
SEQEND
  8
Group050
  0
ARC
  8
Group051
 62
0
 10
217.13750000000005
 20
-40.925
 30
0.0
 40
0.3
 50
90.0
 51
-180.0
  0
ARC
  8
Group051
 62
0
 10
217.13750000000005
 20
-54.32499999999999
 30
0.0
 40
0.3
 50
-180.0
 51
-90.0
  0
ARC
  8
Group051
 62
0
 10
230.53750000000005
 20
-40.92499999999999
 30
0.0
 40
0.3
 50
-0.0
 51
90.0
  0
ARC
  8
Group051
 62
0
 10
230.53750000000005
 20
-54.32499999999999
 30
0.0
 40
0.3
 50
-90.0
 51
-0.0
  0
POLYLINE
  8
Group051
 62
0
 70
0
 66
1
 10
0.0
 20
0.0
 30
0.0
  0
VERTEX
  8
Group051
 10
217.13750000000005
 20
-40.62499999999999
 30
0.0
  0
VERTEX
  8
Group051
 10
230.53750000000008
 20
-40.62499999999999
 30
0.0
  0
SEQEND
  8
Group051
  0
POLYLINE
  8
Group051
 62
0
 70
0
 66
1
 10
0.0
 20
0.0
 30
0.0
  0
VERTEX
  8
Group051
 10
230.83750000000006
 20
-40.92499999999999
 30
0.0
  0
VERTEX
  8
Group051
 10
230.83750000000006
 20
-54.32499999999999
 30
0.0
  0
SEQEND
  8
Group051
  0
POLYLINE
  8
Group051
 62
0
 70
0
 66
1
 10
0.0
 20
0.0
 30
0.0
  0
VERTEX
  8
Group051
 10
230.53750000000005
 20
-54.62499999999999
 30
0.0
  0
VERTEX
  8
Group051
 10
217.13750000000005
 20
-54.62499999999999
 30
0.0
  0
SEQEND
  8
Group051
  0
POLYLINE
  8
Group051
 62
0
 70
0
 66
1
 10
0.0
 20
0.0
 30
0.0
  0
VERTEX
  8
Group051
 10
216.83750000000006
 20
-54.32499999999999
 30
0.0
  0
VERTEX
  8
Group051
 10
216.83750000000006
 20
-40.92499999999999
 30
0.0
  0
SEQEND
  8
Group051
  0
ARC
  8
Group052
 62
0
 10
236.18750000000006
 20
-40.925
 30
0.0
 40
0.3
 50
90.0
 51
-180.0
  0
ARC
  8
Group052
 62
0
 10
236.18750000000006
 20
-54.32499999999999
 30
0.0
 40
0.3
 50
-180.0
 51
-90.0
  0
ARC
  8
Group052
 62
0
 10
249.58750000000006
 20
-40.92499999999999
 30
0.0
 40
0.3
 50
-0.0
 51
90.0
  0
ARC
  8
Group052
 62
0
 10
249.58750000000006
 20
-54.32499999999999
 30
0.0
 40
0.3
 50
-90.0
 51
-0.0
  0
POLYLINE
  8
Group052
 62
0
 70
0
 66
1
 10
0.0
 20
0.0
 30
0.0
  0
VERTEX
  8
Group052
 10
236.18750000000006
 20
-40.62499999999999
 30
0.0
  0
VERTEX
  8
Group052
 10
249.5875000000001
 20
-40.62499999999999
 30
0.0
  0
SEQEND
  8
Group052
  0
POLYLINE
  8
Group052
 62
0
 70
0
 66
1
 10
0.0
 20
0.0
 30
0.0
  0
VERTEX
  8
Group052
 10
249.88750000000007
 20
-40.92499999999999
 30
0.0
  0
VERTEX
  8
Group052
 10
249.88750000000007
 20
-54.32499999999999
 30
0.0
  0
SEQEND
  8
Group052
  0
POLYLINE
  8
Group052
 62
0
 70
0
 66
1
 10
0.0
 20
0.0
 30
0.0
  0
VERTEX
  8
Group052
 10
249.58750000000006
 20
-54.62499999999999
 30
0.0
  0
VERTEX
  8
Group052
 10
236.18750000000006
 20
-54.62499999999999
 30
0.0
  0
SEQEND
  8
Group052
  0
POLYLINE
  8
Group052
 62
0
 70
0
 66
1
 10
0.0
 20
0.0
 30
0.0
  0
VERTEX
  8
Group052
 10
235.88750000000007
 20
-54.32499999999999
 30
0.0
  0
VERTEX
  8
Group052
 10
235.88750000000007
 20
-40.92499999999999
 30
0.0
  0
SEQEND
  8
Group052
  0
ARC
  8
Group053
 62
0
 10
255.23750000000007
 20
-40.925
 30
0.0
 40
0.3
 50
90.0
 51
-180.0
  0
ARC
  8
Group053
 62
0
 10
255.23750000000007
 20
-54.32499999999999
 30
0.0
 40
0.3
 50
-180.0
 51
-90.0
  0
ARC
  8
Group053
 62
0
 10
268.63750000000005
 20
-40.92499999999999
 30
0.0
 40
0.3
 50
-0.0
 51
90.0
  0
ARC
  8
Group053
 62
0
 10
268.63750000000005
 20
-54.32499999999999
 30
0.0
 40
0.3
 50
-90.0
 51
-0.0
  0
POLYLINE
  8
Group053
 62
0
 70
0
 66
1
 10
0.0
 20
0.0
 30
0.0
  0
VERTEX
  8
Group053
 10
255.23750000000007
 20
-40.62499999999999
 30
0.0
  0
VERTEX
  8
Group053
 10
268.6375000000001
 20
-40.62499999999999
 30
0.0
  0
SEQEND
  8
Group053
  0
POLYLINE
  8
Group053
 62
0
 70
0
 66
1
 10
0.0
 20
0.0
 30
0.0
  0
VERTEX
  8
Group053
 10
268.9375000000001
 20
-40.92499999999999
 30
0.0
  0
VERTEX
  8
Group053
 10
268.9375000000001
 20
-54.32499999999999
 30
0.0
  0
SEQEND
  8
Group053
  0
POLYLINE
  8
Group053
 62
0
 70
0
 66
1
 10
0.0
 20
0.0
 30
0.0
  0
VERTEX
  8
Group053
 10
268.63750000000005
 20
-54.62499999999999
 30
0.0
  0
VERTEX
  8
Group053
 10
255.23750000000004
 20
-54.62499999999999
 30
0.0
  0
SEQEND
  8
Group053
  0
POLYLINE
  8
Group053
 62
0
 70
0
 66
1
 10
0.0
 20
0.0
 30
0.0
  0
VERTEX
  8
Group053
 10
254.93750000000009
 20
-54.32499999999999
 30
0.0
  0
VERTEX
  8
Group053
 10
254.93750000000009
 20
-40.92499999999999
 30
0.0
  0
SEQEND
  8
Group053
  0
ARC
  8
Group054
 62
0
 10
274.2875000000001
 20
-40.925
 30
0.0
 40
0.3
 50
90.0
 51
-180.0
  0
ARC
  8
Group054
 62
0
 10
274.2875000000001
 20
-54.32499999999999
 30
0.0
 40
0.3
 50
-180.0
 51
-90.0
  0
ARC
  8
Group054
 62
0
 10
287.68750000000006
 20
-40.92499999999999
 30
0.0
 40
0.3
 50
-0.0
 51
90.0
  0
ARC
  8
Group054
 62
0
 10
287.68750000000006
 20
-54.32499999999999
 30
0.0
 40
0.3
 50
-90.0
 51
-0.0
  0
POLYLINE
  8
Group054
 62
0
 70
0
 66
1
 10
0.0
 20
0.0
 30
0.0
  0
VERTEX
  8
Group054
 10
274.2875000000001
 20
-40.62499999999999
 30
0.0
  0
VERTEX
  8
Group054
 10
287.6875000000001
 20
-40.62499999999999
 30
0.0
  0
SEQEND
  8
Group054
  0
POLYLINE
  8
Group054
 62
0
 70
0
 66
1
 10
0.0
 20
0.0
 30
0.0
  0
VERTEX
  8
Group054
 10
287.9875000000001
 20
-40.92499999999999
 30
0.0
  0
VERTEX
  8
Group054
 10
287.9875000000001
 20
-54.32499999999999
 30
0.0
  0
SEQEND
  8
Group054
  0
POLYLINE
  8
Group054
 62
0
 70
0
 66
1
 10
0.0
 20
0.0
 30
0.0
  0
VERTEX
  8
Group054
 10
287.68750000000006
 20
-54.62499999999999
 30
0.0
  0
VERTEX
  8
Group054
 10
274.2875
 20
-54.62499999999999
 30
0.0
  0
SEQEND
  8
Group054
  0
POLYLINE
  8
Group054
 62
0
 70
0
 66
1
 10
0.0
 20
0.0
 30
0.0
  0
VERTEX
  8
Group054
 10
273.98750000000007
 20
-54.32499999999999
 30
0.0
  0
VERTEX
  8
Group054
 10
273.98750000000007
 20
-40.92499999999999
 30
0.0
  0
SEQEND
  8
Group054
  0
ARC
  8
enter
 62
0
 10
305.2437500000001
 20
-40.925
 30
0.0
 40
0.3
 50
90.0
 51
-180.0
  0
ARC
  8
enter
 62
0
 10
305.2437500000001
 20
-54.32499999999999
 30
0.0
 40
0.3
 50
-180.0
 51
-90.0
  0
ARC
  8
enter
 62
0
 10
318.64375000000007
 20
-40.92499999999999
 30
0.0
 40
0.3
 50
-0.0
 51
90.0
  0
ARC
  8
enter
 62
0
 10
318.64375000000007
 20
-54.32499999999999
 30
0.0
 40
0.3
 50
-90.0
 51
-0.0
  0
POLYLINE
  8
enter
 62
0
 70
0
 66
1
 10
0.0
 20
0.0
 30
0.0
  0
VERTEX
  8
enter
 10
305.2437500000001
 20
-40.62499999999999
 30
0.0
  0
VERTEX
  8
enter
 10
318.6437500000001
 20
-40.62499999999999
 30
0.0
  0
SEQEND
  8
enter
  0
POLYLINE
  8
enter
 62
0
 70
0
 66
1
 10
0.0
 20
0.0
 30
0.0
  0
VERTEX
  8
enter
 10
318.64375000000007
 20
-54.62499999999999
 30
0.0
  0
VERTEX
  8
enter
 10
305.24375000000003
 20
-54.62499999999999
 30
0.0
  0
SEQEND
  8
enter
  0
POLYLINE
  8
left
 62
0
 70
0
 66
1
 10
0.0
 20
0.0
 30
0.0
  0
VERTEX
  8
left
 10
295.8437500000001
 20
-45.32499999999999
 30
0.0
  0
VERTEX
  8
left
 10
295.8437500000001
 20
-48.124999999999986
 30
0.0
  0
SEQEND
  8
left
  0
POLYLINE
  8
left
 62
0
 70
0
 66
1
 10
0.0
 20
0.0
 30
0.0
  0
VERTEX
  8
left
 10
296.7187500000001
 20
-42.094999999999985
 30
0.0
  0
VERTEX
  8
left
 10
303.3687500000001
 20
-42.094999999999985
 30
0.0
  0
SEQEND
  8
left
  0
POLYLINE
  8
left
 62
0
 70
0
 66
1
 10
0.0
 20
0.0
 30
0.0
  0
VERTEX
  8
left
 10
298.5437500000001
 20
-55.594999999999985
 30
0.0
  0
VERTEX
  8
left
 10
301.5437500000001
 20
-55.594999999999985
 30
0.0
  0
SEQEND
  8
left
  0
POLYLINE
  8
left
 62
0
 70
0
 66
1
 10
0.0
 20
0.0
 30
0.0
  0
VERTEX
  8
left
 10
296.7187500000001
 20
-54.39499999999998
 30
0.0
  0
VERTEX
  8
left
 10
298.5437500000001
 20
-54.39499999999998
 30
0.0
  0
SEQEND
  8
left
  0
POLYLINE
  8
left
 62
0
 70
0
 66
1
 10
0.0
 20
0.0
 30
0.0
  0
VERTEX
  8
left
 10
298.5437500000001
 20
-55.594999999999985
 30
0.0
  0
VERTEX
  8
left
 10
298.5437500000001
 20
-54.39499999999998
 30
0.0
  0
SEQEND
  8
left
  0
POLYLINE
  8
left
 62
0
 70
0
 66
1
 10
0.0
 20
0.0
 30
0.0
  0
VERTEX
  8
left
 10
301.5437500000001
 20
-55.594999999999985
 30
0.0
  0
VERTEX
  8
left
 10
301.5437500000001
 20
-54.39499999999998
 30
0.0
  0
SEQEND
  8
left
  0
POLYLINE
  8
left
 62
0
 70
0
 66
1
 10
0.0
 20
0.0
 30
0.0
  0
VERTEX
  8
left
 10
301.5437500000001
 20
-54.39499999999998
 30
0.0
  0
VERTEX
  8
left
 10
303.3687500000001
 20
-54.39499999999998
 30
0.0
  0
SEQEND
  8
left
  0
POLYLINE
  8
left
 62
0
 70
0
 66
1
 10
0.0
 20
0.0
 30
0.0
  0
VERTEX
  8
left
 10
303.3687500000001
 20
-54.39499999999998
 30
0.0
  0
VERTEX
  8
left
 10
303.3687500000001
 20
-53.594999999999985
 30
0.0
  0
SEQEND
  8
left
  0
POLYLINE
  8
left
 62
0
 70
0
 66
1
 10
0.0
 20
0.0
 30
0.0
  0
VERTEX
  8
left
 10
303.3687500000001
 20
-53.594999999999985
 30
0.0
  0
VERTEX
  8
left
 10
304.9437500000001
 20
-53.594999999999985
 30
0.0
  0
SEQEND
  8
left
  0
POLYLINE
  8
left
 62
0
 70
0
 66
1
 10
0.0
 20
0.0
 30
0.0
  0
VERTEX
  8
left
 10
303.3687500000001
 20
-42.094999999999985
 30
0.0
  0
VERTEX
  8
left
 10
303.3687500000001
 20
-42.89499999999998
 30
0.0
  0
SEQEND
  8
left
  0
POLYLINE
  8
left
 62
0
 70
0
 66
1
 10
0.0
 20
0.0
 30
0.0
  0
VERTEX
  8
left
 10
303.3687500000001
 20
-42.89499999999998
 30
0.0
  0
VERTEX
  8
left
 10
304.9437500000001
 20
-42.89499999999998
 30
0.0
  0
SEQEND
  8
left
  0
POLYLINE
  8
left
 62
0
 70
0
 66
1
 10
0.0
 20
0.0
 30
0.0
  0
VERTEX
  8
left
 10
295.8437500000001
 20
-48.124999999999986
 30
0.0
  0
VERTEX
  8
left
 10
296.7187500000001
 20
-48.124999999999986
 30
0.0
  0
SEQEND
  8
left
  0
POLYLINE
  8
left
 62
0
 70
0
 66
1
 10
0.0
 20
0.0
 30
0.0
  0
VERTEX
  8
left
 10
295.8437500000001
 20
-45.32499999999999
 30
0.0
  0
VERTEX
  8
left
 10
296.7187500000001
 20
-45.32499999999999
 30
0.0
  0
SEQEND
  8
left
  0
POLYLINE
  8
left
 62
0
 70
0
 66
1
 10
0.0
 20
0.0
 30
0.0
  0
VERTEX
  8
left
 10
304.9437500000001
 20
-42.89499999999998
 30
0.0
  0
VERTEX
  8
left
 10
304.9437500000001
 20
-40.925
 30
0.0
  0
SEQEND
  8
left
  0
POLYLINE
  8
left
 62
0
 70
0
 66
1
 10
0.0
 20
0.0
 30
0.0
  0
VERTEX
  8
left
 10
304.9437500000001
 20
-53.594999999999985
 30
0.0
  0
VERTEX
  8
left
 10
304.9437500000001
 20
-54.32499999999999
 30
0.0
  0
SEQEND
  8
left
  0
POLYLINE
  8
left
 62
0
 70
0
 66
1
 10
0.0
 20
0.0
 30
0.0
  0
VERTEX
  8
left
 10
296.7187500000001
 20
-48.124999999999986
 30
0.0
  0
VERTEX
  8
left
 10
296.7187500000001
 20
-54.39499999999998
 30
0.0
  0
SEQEND
  8
left
  0
POLYLINE
  8
left
 62
0
 70
0
 66
1
 10
0.0
 20
0.0
 30
0.0
  0
VERTEX
  8
left
 10
296.7187500000001
 20
-45.32499999999999
 30
0.0
  0
VERTEX
  8
left
 10
296.7187500000001
 20
-42.094999999999985
 30
0.0
  0
SEQEND
  8
left
  0
POLYLINE
  8
right
 62
0
 70
0
 66
1
 10
0.0
 20
0.0
 30
0.0
  0
VERTEX
  8
right
 10
328.0437500000001
 20
-45.32499999999999
 30
0.0
  0
VERTEX
  8
right
 10
328.0437500000001
 20
-48.124999999999986
 30
0.0
  0
SEQEND
  8
right
  0
POLYLINE
  8
right
 62
0
 70
0
 66
1
 10
0.0
 20
0.0
 30
0.0
  0
VERTEX
  8
right
 10
320.5187500000001
 20
-42.094999999999985
 30
0.0
  0
VERTEX
  8
right
 10
327.1687500000001
 20
-42.094999999999985
 30
0.0
  0
SEQEND
  8
right
  0
POLYLINE
  8
right
 62
0
 70
0
 66
1
 10
0.0
 20
0.0
 30
0.0
  0
VERTEX
  8
right
 10
322.3437500000001
 20
-55.594999999999985
 30
0.0
  0
VERTEX
  8
right
 10
325.3437500000001
 20
-55.594999999999985
 30
0.0
  0
SEQEND
  8
right
  0
POLYLINE
  8
right
 62
0
 70
0
 66
1
 10
0.0
 20
0.0
 30
0.0
  0
VERTEX
  8
right
 10
320.5187500000001
 20
-54.39499999999998
 30
0.0
  0
VERTEX
  8
right
 10
322.3437500000001
 20
-54.39499999999998
 30
0.0
  0
SEQEND
  8
right
  0
POLYLINE
  8
right
 62
0
 70
0
 66
1
 10
0.0
 20
0.0
 30
0.0
  0
VERTEX
  8
right
 10
322.3437500000001
 20
-55.594999999999985
 30
0.0
  0
VERTEX
  8
right
 10
322.3437500000001
 20
-54.39499999999998
 30
0.0
  0
SEQEND
  8
right
  0
POLYLINE
  8
right
 62
0
 70
0
 66
1
 10
0.0
 20
0.0
 30
0.0
  0
VERTEX
  8
right
 10
325.3437500000001
 20
-55.594999999999985
 30
0.0
  0
VERTEX
  8
right
 10
325.3437500000001
 20
-54.39499999999998
 30
0.0
  0
SEQEND
  8
right
  0
POLYLINE
  8
right
 62
0
 70
0
 66
1
 10
0.0
 20
0.0
 30
0.0
  0
VERTEX
  8
right
 10
325.3437500000001
 20
-54.39499999999998
 30
0.0
  0
VERTEX
  8
right
 10
327.1687500000001
 20
-54.39499999999998
 30
0.0
  0
SEQEND
  8
right
  0
POLYLINE
  8
right
 62
0
 70
0
 66
1
 10
0.0
 20
0.0
 30
0.0
  0
VERTEX
  8
right
 10
320.51875000000007
 20
-54.394999999999975
 30
0.0
  0
VERTEX
  8
right
 10
320.51875000000007
 20
-53.59499999999998
 30
0.0
  0
SEQEND
  8
right
  0
POLYLINE
  8
right
 62
0
 70
0
 66
1
 10
0.0
 20
0.0
 30
0.0
  0
VERTEX
  8
right
 10
318.9437500000001
 20
-53.59499999999998
 30
0.0
  0
VERTEX
  8
right
 10
320.51875000000007
 20
-53.59499999999998
 30
0.0
  0
SEQEND
  8
right
  0
POLYLINE
  8
right
 62
0
 70
0
 66
1
 10
0.0
 20
0.0
 30
0.0
  0
VERTEX
  8
right
 10
320.51875000000007
 20
-42.09499999999998
 30
0.0
  0
VERTEX
  8
right
 10
320.51875000000007
 20
-42.894999999999975
 30
0.0
  0
SEQEND
  8
right
  0
POLYLINE
  8
right
 62
0
 70
0
 66
1
 10
0.0
 20
0.0
 30
0.0
  0
VERTEX
  8
right
 10
318.9437500000001
 20
-42.894999999999975
 30
0.0
  0
VERTEX
  8
right
 10
320.51875000000007
 20
-42.894999999999975
 30
0.0
  0
SEQEND
  8
right
  0
POLYLINE
  8
right
 62
0
 70
0
 66
1
 10
0.0
 20
0.0
 30
0.0
  0
VERTEX
  8
right
 10
327.1687500000001
 20
-48.124999999999986
 30
0.0
  0
VERTEX
  8
right
 10
328.0437500000001
 20
-48.124999999999986
 30
0.0
  0
SEQEND
  8
right
  0
POLYLINE
  8
right
 62
0
 70
0
 66
1
 10
0.0
 20
0.0
 30
0.0
  0
VERTEX
  8
right
 10
327.1687500000001
 20
-45.32499999999999
 30
0.0
  0
VERTEX
  8
right
 10
328.0437500000001
 20
-45.32499999999999
 30
0.0
  0
SEQEND
  8
right
  0
POLYLINE
  8
right
 62
0
 70
0
 66
1
 10
0.0
 20
0.0
 30
0.0
  0
VERTEX
  8
right
 10
318.9437500000001
 20
-42.894999999999975
 30
0.0
  0
VERTEX
  8
right
 10
318.9437500000001
 20
-40.92499999999999
 30
0.0
  0
SEQEND
  8
right
  0
POLYLINE
  8
right
 62
0
 70
0
 66
1
 10
0.0
 20
0.0
 30
0.0
  0
VERTEX
  8
right
 10
318.9437500000001
 20
-53.59499999999998
 30
0.0
  0
VERTEX
  8
right
 10
318.9437500000001
 20
-54.32499999999998
 30
0.0
  0
SEQEND
  8
right
  0
POLYLINE
  8
right
 62
0
 70
0
 66
1
 10
0.0
 20
0.0
 30
0.0
  0
VERTEX
  8
right
 10
327.1687500000001
 20
-48.124999999999986
 30
0.0
  0
VERTEX
  8
right
 10
327.1687500000001
 20
-54.39499999999998
 30
0.0
  0
SEQEND
  8
right
  0
POLYLINE
  8
right
 62
0
 70
0
 66
1
 10
0.0
 20
0.0
 30
0.0
  0
VERTEX
  8
right
 10
327.1687500000001
 20
-45.32499999999999
 30
0.0
  0
VERTEX
  8
right
 10
327.1687500000001
 20
-42.094999999999985
 30
0.0
  0
SEQEND
  8
right
  0
ARC
  8
shift
 62
0
 10
62.35624999999999
 20
-59.974999999999994
 30
0.0
 40
0.3
 50
90.0
 51
-180.0
  0
ARC
  8
shift
 62
0
 10
62.35624999999999
 20
-73.37499999999999
 30
0.0
 40
0.3
 50
-180.0
 51
-90.0
  0
ARC
  8
shift
 62
0
 10
75.75624999999997
 20
-59.97499999999999
 30
0.0
 40
0.3
 50
-0.0
 51
90.0
  0
ARC
  8
shift
 62
0
 10
75.75624999999997
 20
-73.37499999999999
 30
0.0
 40
0.3
 50
-90.0
 51
-0.0
  0
POLYLINE
  8
shift
 62
0
 70
0
 66
1
 10
0.0
 20
0.0
 30
0.0
  0
VERTEX
  8
shift
 10
62.35624999999999
 20
-59.67499999999999
 30
0.0
  0
VERTEX
  8
shift
 10
75.75625000000002
 20
-59.67499999999999
 30
0.0
  0
SEQEND
  8
shift
  0
POLYLINE
  8
shift
 62
0
 70
0
 66
1
 10
0.0
 20
0.0
 30
0.0
  0
VERTEX
  8
shift
 10
75.75624999999997
 20
-73.67499999999998
 30
0.0
  0
VERTEX
  8
shift
 10
62.35624999999993
 20
-73.67499999999998
 30
0.0
  0
SEQEND
  8
shift
  0
POLYLINE
  8
left001
 62
0
 70
0
 66
1
 10
0.0
 20
0.0
 30
0.0
  0
VERTEX
  8
left001
 10
52.95625000000004
 20
-64.37499999999997
 30
0.0
  0
VERTEX
  8
left001
 10
52.95625000000004
 20
-67.17499999999997
 30
0.0
  0
SEQEND
  8
left001
  0
POLYLINE
  8
left001
 62
0
 70
0
 66
1
 10
0.0
 20
0.0
 30
0.0
  0
VERTEX
  8
left001
 10
53.83125000000004
 20
-61.144999999999975
 30
0.0
  0
VERTEX
  8
left001
 10
60.48125000000002
 20
-61.144999999999975
 30
0.0
  0
SEQEND
  8
left001
  0
POLYLINE
  8
left001
 62
0
 70
0
 66
1
 10
0.0
 20
0.0
 30
0.0
  0
VERTEX
  8
left001
 10
55.65625000000003
 20
-74.64499999999998
 30
0.0
  0
VERTEX
  8
left001
 10
58.65625000000003
 20
-74.64499999999998
 30
0.0
  0
SEQEND
  8
left001
  0
POLYLINE
  8
left001
 62
0
 70
0
 66
1
 10
0.0
 20
0.0
 30
0.0
  0
VERTEX
  8
left001
 10
53.83125000000004
 20
-73.44499999999996
 30
0.0
  0
VERTEX
  8
left001
 10
55.65625000000003
 20
-73.44499999999996
 30
0.0
  0
SEQEND
  8
left001
  0
POLYLINE
  8
left001
 62
0
 70
0
 66
1
 10
0.0
 20
0.0
 30
0.0
  0
VERTEX
  8
left001
 10
55.65625000000003
 20
-74.64499999999998
 30
0.0
  0
VERTEX
  8
left001
 10
55.65625000000003
 20
-73.44499999999998
 30
0.0
  0
SEQEND
  8
left001
  0
POLYLINE
  8
left001
 62
0
 70
0
 66
1
 10
0.0
 20
0.0
 30
0.0
  0
VERTEX
  8
left001
 10
58.65625000000003
 20
-74.64499999999998
 30
0.0
  0
VERTEX
  8
left001
 10
58.65625000000003
 20
-73.44499999999998
 30
0.0
  0
SEQEND
  8
left001
  0
POLYLINE
  8
left001
 62
0
 70
0
 66
1
 10
0.0
 20
0.0
 30
0.0
  0
VERTEX
  8
left001
 10
58.65625000000003
 20
-73.44499999999996
 30
0.0
  0
VERTEX
  8
left001
 10
60.48125000000002
 20
-73.44499999999996
 30
0.0
  0
SEQEND
  8
left001
  0
POLYLINE
  8
left001
 62
0
 70
0
 66
1
 10
0.0
 20
0.0
 30
0.0
  0
VERTEX
  8
left001
 10
60.48125000000002
 20
-73.44499999999996
 30
0.0
  0
VERTEX
  8
left001
 10
60.48125000000002
 20
-72.64499999999997
 30
0.0
  0
SEQEND
  8
left001
  0
POLYLINE
  8
left001
 62
0
 70
0
 66
1
 10
0.0
 20
0.0
 30
0.0
  0
VERTEX
  8
left001
 10
60.48125000000002
 20
-72.64499999999998
 30
0.0
  0
VERTEX
  8
left001
 10
62.056250000000006
 20
-72.64499999999998
 30
0.0
  0
SEQEND
  8
left001
  0
POLYLINE
  8
left001
 62
0
 70
0
 66
1
 10
0.0
 20
0.0
 30
0.0
  0
VERTEX
  8
left001
 10
60.48125000000002
 20
-61.144999999999975
 30
0.0
  0
VERTEX
  8
left001
 10
60.48125000000002
 20
-61.94499999999997
 30
0.0
  0
SEQEND
  8
left001
  0
POLYLINE
  8
left001
 62
0
 70
0
 66
1
 10
0.0
 20
0.0
 30
0.0
  0
VERTEX
  8
left001
 10
60.48125000000002
 20
-61.94499999999997
 30
0.0
  0
VERTEX
  8
left001
 10
62.056250000000006
 20
-61.94499999999997
 30
0.0
  0
SEQEND
  8
left001
  0
POLYLINE
  8
left001
 62
0
 70
0
 66
1
 10
0.0
 20
0.0
 30
0.0
  0
VERTEX
  8
left001
 10
52.95625000000004
 20
-67.17499999999998
 30
0.0
  0
VERTEX
  8
left001
 10
53.83125000000004
 20
-67.17499999999998
 30
0.0
  0
SEQEND
  8
left001
  0
POLYLINE
  8
left001
 62
0
 70
0
 66
1
 10
0.0
 20
0.0
 30
0.0
  0
VERTEX
  8
left001
 10
52.95625000000004
 20
-64.37499999999997
 30
0.0
  0
VERTEX
  8
left001
 10
53.83125000000004
 20
-64.37499999999997
 30
0.0
  0
SEQEND
  8
left001
  0
POLYLINE
  8
left001
 62
0
 70
0
 66
1
 10
0.0
 20
0.0
 30
0.0
  0
VERTEX
  8
left001
 10
62.056250000000006
 20
-61.94499999999997
 30
0.0
  0
VERTEX
  8
left001
 10
62.056250000000006
 20
-59.97499999999999
 30
0.0
  0
SEQEND
  8
left001
  0
POLYLINE
  8
left001
 62
0
 70
0
 66
1
 10
0.0
 20
0.0
 30
0.0
  0
VERTEX
  8
left001
 10
62.056250000000006
 20
-72.64499999999998
 30
0.0
  0
VERTEX
  8
left001
 10
62.056250000000006
 20
-73.37499999999999
 30
0.0
  0
SEQEND
  8
left001
  0
POLYLINE
  8
left001
 62
0
 70
0
 66
1
 10
0.0
 20
0.0
 30
0.0
  0
VERTEX
  8
left001
 10
53.83125000000004
 20
-67.17499999999998
 30
0.0
  0
VERTEX
  8
left001
 10
53.83125000000004
 20
-73.44499999999998
 30
0.0
  0
SEQEND
  8
left001
  0
POLYLINE
  8
left001
 62
0
 70
0
 66
1
 10
0.0
 20
0.0
 30
0.0
  0
VERTEX
  8
left001
 10
53.83125000000004
 20
-64.37499999999997
 30
0.0
  0
VERTEX
  8
left001
 10
53.83125000000004
 20
-61.14499999999997
 30
0.0
  0
SEQEND
  8
left001
  0
POLYLINE
  8
right001
 62
0
 70
0
 66
1
 10
0.0
 20
0.0
 30
0.0
  0
VERTEX
  8
right001
 10
85.15625000000003
 20
-64.37499999999997
 30
0.0
  0
VERTEX
  8
right001
 10
85.15625000000003
 20
-67.17499999999997
 30
0.0
  0
SEQEND
  8
right001
  0
POLYLINE
  8
right001
 62
0
 70
0
 66
1
 10
0.0
 20
0.0
 30
0.0
  0
VERTEX
  8
right001
 10
77.63125000000005
 20
-61.144999999999975
 30
0.0
  0
VERTEX
  8
right001
 10
84.28125000000003
 20
-61.144999999999975
 30
0.0
  0
SEQEND
  8
right001
  0
POLYLINE
  8
right001
 62
0
 70
0
 66
1
 10
0.0
 20
0.0
 30
0.0
  0
VERTEX
  8
right001
 10
79.45625000000004
 20
-74.64499999999998
 30
0.0
  0
VERTEX
  8
right001
 10
82.45625000000004
 20
-74.64499999999998
 30
0.0
  0
SEQEND
  8
right001
  0
POLYLINE
  8
right001
 62
0
 70
0
 66
1
 10
0.0
 20
0.0
 30
0.0
  0
VERTEX
  8
right001
 10
77.63125000000005
 20
-73.44499999999996
 30
0.0
  0
VERTEX
  8
right001
 10
79.45625000000004
 20
-73.44499999999996
 30
0.0
  0
SEQEND
  8
right001
  0
POLYLINE
  8
right001
 62
0
 70
0
 66
1
 10
0.0
 20
0.0
 30
0.0
  0
VERTEX
  8
right001
 10
79.45625000000004
 20
-74.64499999999998
 30
0.0
  0
VERTEX
  8
right001
 10
79.45625000000004
 20
-73.44499999999998
 30
0.0
  0
SEQEND
  8
right001
  0
POLYLINE
  8
right001
 62
0
 70
0
 66
1
 10
0.0
 20
0.0
 30
0.0
  0
VERTEX
  8
right001
 10
82.45625000000004
 20
-74.64499999999998
 30
0.0
  0
VERTEX
  8
right001
 10
82.45625000000004
 20
-73.44499999999998
 30
0.0
  0
SEQEND
  8
right001
  0
POLYLINE
  8
right001
 62
0
 70
0
 66
1
 10
0.0
 20
0.0
 30
0.0
  0
VERTEX
  8
right001
 10
82.45625000000004
 20
-73.44499999999996
 30
0.0
  0
VERTEX
  8
right001
 10
84.28125000000003
 20
-73.44499999999996
 30
0.0
  0
SEQEND
  8
right001
  0
POLYLINE
  8
right001
 62
0
 70
0
 66
1
 10
0.0
 20
0.0
 30
0.0
  0
VERTEX
  8
right001
 10
77.63125
 20
-73.44499999999996
 30
0.0
  0
VERTEX
  8
right001
 10
77.63125
 20
-72.64499999999997
 30
0.0
  0
SEQEND
  8
right001
  0
POLYLINE
  8
right001
 62
0
 70
0
 66
1
 10
0.0
 20
0.0
 30
0.0
  0
VERTEX
  8
right001
 10
76.05625
 20
-72.64499999999997
 30
0.0
  0
VERTEX
  8
right001
 10
77.63125
 20
-72.64499999999997
 30
0.0
  0
SEQEND
  8
right001
  0
POLYLINE
  8
right001
 62
0
 70
0
 66
1
 10
0.0
 20
0.0
 30
0.0
  0
VERTEX
  8
right001
 10
77.63125
 20
-61.14499999999997
 30
0.0
  0
VERTEX
  8
right001
 10
77.63125
 20
-61.944999999999965
 30
0.0
  0
SEQEND
  8
right001
  0
POLYLINE
  8
right001
 62
0
 70
0
 66
1
 10
0.0
 20
0.0
 30
0.0
  0
VERTEX
  8
right001
 10
76.05625
 20
-61.944999999999965
 30
0.0
  0
VERTEX
  8
right001
 10
77.63125
 20
-61.944999999999965
 30
0.0
  0
SEQEND
  8
right001
  0
POLYLINE
  8
right001
 62
0
 70
0
 66
1
 10
0.0
 20
0.0
 30
0.0
  0
VERTEX
  8
right001
 10
84.28125000000003
 20
-67.17499999999998
 30
0.0
  0
VERTEX
  8
right001
 10
85.15625000000003
 20
-67.17499999999998
 30
0.0
  0
SEQEND
  8
right001
  0
POLYLINE
  8
right001
 62
0
 70
0
 66
1
 10
0.0
 20
0.0
 30
0.0
  0
VERTEX
  8
right001
 10
84.28125000000003
 20
-64.37499999999997
 30
0.0
  0
VERTEX
  8
right001
 10
85.15625000000003
 20
-64.37499999999997
 30
0.0
  0
SEQEND
  8
right001
  0
POLYLINE
  8
right001
 62
0
 70
0
 66
1
 10
0.0
 20
0.0
 30
0.0
  0
VERTEX
  8
right001
 10
76.05625
 20
-61.944999999999965
 30
0.0
  0
VERTEX
  8
right001
 10
76.05625
 20
-59.97499999999998
 30
0.0
  0
SEQEND
  8
right001
  0
POLYLINE
  8
right001
 62
0
 70
0
 66
1
 10
0.0
 20
0.0
 30
0.0
  0
VERTEX
  8
right001
 10
76.05625
 20
-72.64499999999997
 30
0.0
  0
VERTEX
  8
right001
 10
76.05625
 20
-73.37499999999997
 30
0.0
  0
SEQEND
  8
right001
  0
POLYLINE
  8
right001
 62
0
 70
0
 66
1
 10
0.0
 20
0.0
 30
0.0
  0
VERTEX
  8
right001
 10
84.28125000000003
 20
-67.17499999999998
 30
0.0
  0
VERTEX
  8
right001
 10
84.28125000000003
 20
-73.44499999999998
 30
0.0
  0
SEQEND
  8
right001
  0
POLYLINE
  8
right001
 62
0
 70
0
 66
1
 10
0.0
 20
0.0
 30
0.0
  0
VERTEX
  8
right001
 10
84.28125000000003
 20
-64.37499999999997
 30
0.0
  0
VERTEX
  8
right001
 10
84.28125000000003
 20
-61.14499999999997
 30
0.0
  0
SEQEND
  8
right001
  0
ARC
  8
Group058
 62
0
 10
93.31250000000001
 20
-59.974999999999994
 30
0.0
 40
0.3
 50
90.0
 51
-180.0
  0
ARC
  8
Group058
 62
0
 10
93.3125
 20
-73.37499999999999
 30
0.0
 40
0.3
 50
-180.0
 51
-90.0
  0
ARC
  8
Group058
 62
0
 10
106.7125
 20
-59.97499999999999
 30
0.0
 40
0.3
 50
-0.0
 51
90.0
  0
ARC
  8
Group058
 62
0
 10
106.7125
 20
-73.37499999999999
 30
0.0
 40
0.3
 50
-90.0
 51
-0.0
  0
POLYLINE
  8
Group058
 62
0
 70
0
 66
1
 10
0.0
 20
0.0
 30
0.0
  0
VERTEX
  8
Group058
 10
93.31250000000001
 20
-59.67499999999999
 30
0.0
  0
VERTEX
  8
Group058
 10
106.71250000000002
 20
-59.67499999999999
 30
0.0
  0
SEQEND
  8
Group058
  0
POLYLINE
  8
Group058
 62
0
 70
0
 66
1
 10
0.0
 20
0.0
 30
0.0
  0
VERTEX
  8
Group058
 10
107.01250000000002
 20
-59.97499999999999
 30
0.0
  0
VERTEX
  8
Group058
 10
107.01250000000002
 20
-73.37499999999999
 30
0.0
  0
SEQEND
  8
Group058
  0
POLYLINE
  8
Group058
 62
0
 70
0
 66
1
 10
0.0
 20
0.0
 30
0.0
  0
VERTEX
  8
Group058
 10
106.7125
 20
-73.67499999999998
 30
0.0
  0
VERTEX
  8
Group058
 10
93.3125
 20
-73.67499999999998
 30
0.0
  0
SEQEND
  8
Group058
  0
POLYLINE
  8
Group058
 62
0
 70
0
 66
1
 10
0.0
 20
0.0
 30
0.0
  0
VERTEX
  8
Group058
 10
93.01250000000002
 20
-73.37499999999999
 30
0.0
  0
VERTEX
  8
Group058
 10
93.01250000000002
 20
-59.97499999999999
 30
0.0
  0
SEQEND
  8
Group058
  0
ARC
  8
Group059
 62
0
 10
112.36250000000001
 20
-59.974999999999994
 30
0.0
 40
0.3
 50
90.0
 51
-180.0
  0
ARC
  8
Group059
 62
0
 10
112.3625
 20
-73.37499999999999
 30
0.0
 40
0.3
 50
-180.0
 51
-90.0
  0
ARC
  8
Group059
 62
0
 10
125.7625
 20
-59.97499999999999
 30
0.0
 40
0.3
 50
-0.0
 51
90.0
  0
ARC
  8
Group059
 62
0
 10
125.7625
 20
-73.37499999999999
 30
0.0
 40
0.3
 50
-90.0
 51
-0.0
  0
POLYLINE
  8
Group059
 62
0
 70
0
 66
1
 10
0.0
 20
0.0
 30
0.0
  0
VERTEX
  8
Group059
 10
112.36250000000001
 20
-59.67499999999999
 30
0.0
  0
VERTEX
  8
Group059
 10
125.76250000000002
 20
-59.67499999999999
 30
0.0
  0
SEQEND
  8
Group059
  0
POLYLINE
  8
Group059
 62
0
 70
0
 66
1
 10
0.0
 20
0.0
 30
0.0
  0
VERTEX
  8
Group059
 10
126.06250000000001
 20
-59.97499999999999
 30
0.0
  0
VERTEX
  8
Group059
 10
126.06250000000001
 20
-73.37499999999999
 30
0.0
  0
SEQEND
  8
Group059
  0
POLYLINE
  8
Group059
 62
0
 70
0
 66
1
 10
0.0
 20
0.0
 30
0.0
  0
VERTEX
  8
Group059
 10
125.7625
 20
-73.67499999999998
 30
0.0
  0
VERTEX
  8
Group059
 10
112.3625
 20
-73.67499999999998
 30
0.0
  0
SEQEND
  8
Group059
  0
POLYLINE
  8
Group059
 62
0
 70
0
 66
1
 10
0.0
 20
0.0
 30
0.0
  0
VERTEX
  8
Group059
 10
112.06250000000001
 20
-73.37499999999999
 30
0.0
  0
VERTEX
  8
Group059
 10
112.06250000000001
 20
-59.97499999999999
 30
0.0
  0
SEQEND
  8
Group059
  0
ARC
  8
Group060
 62
0
 10
131.41250000000002
 20
-59.974999999999994
 30
0.0
 40
0.3
 50
90.0
 51
-180.0
  0
ARC
  8
Group060
 62
0
 10
131.4125
 20
-73.37499999999999
 30
0.0
 40
0.3
 50
-180.0
 51
-90.0
  0
ARC
  8
Group060
 62
0
 10
144.8125
 20
-59.97499999999999
 30
0.0
 40
0.3
 50
-0.0
 51
90.0
  0
ARC
  8
Group060
 62
0
 10
144.8125
 20
-73.37499999999999
 30
0.0
 40
0.3
 50
-90.0
 51
-0.0
  0
POLYLINE
  8
Group060
 62
0
 70
0
 66
1
 10
0.0
 20
0.0
 30
0.0
  0
VERTEX
  8
Group060
 10
131.41250000000002
 20
-59.67499999999999
 30
0.0
  0
VERTEX
  8
Group060
 10
144.81250000000003
 20
-59.67499999999999
 30
0.0
  0
SEQEND
  8
Group060
  0
POLYLINE
  8
Group060
 62
0
 70
0
 66
1
 10
0.0
 20
0.0
 30
0.0
  0
VERTEX
  8
Group060
 10
145.1125
 20
-59.97499999999999
 30
0.0
  0
VERTEX
  8
Group060
 10
145.1125
 20
-73.37499999999999
 30
0.0
  0
SEQEND
  8
Group060
  0
POLYLINE
  8
Group060
 62
0
 70
0
 66
1
 10
0.0
 20
0.0
 30
0.0
  0
VERTEX
  8
Group060
 10
144.8125
 20
-73.67499999999998
 30
0.0
  0
VERTEX
  8
Group060
 10
131.4125
 20
-73.67499999999998
 30
0.0
  0
SEQEND
  8
Group060
  0
POLYLINE
  8
Group060
 62
0
 70
0
 66
1
 10
0.0
 20
0.0
 30
0.0
  0
VERTEX
  8
Group060
 10
131.1125
 20
-73.37499999999999
 30
0.0
  0
VERTEX
  8
Group060
 10
131.1125
 20
-59.97499999999999
 30
0.0
  0
SEQEND
  8
Group060
  0
ARC
  8
Group061
 62
0
 10
150.4625
 20
-59.974999999999994
 30
0.0
 40
0.3
 50
90.0
 51
-180.0
  0
ARC
  8
Group061
 62
0
 10
150.46249999999998
 20
-73.37499999999999
 30
0.0
 40
0.3
 50
-180.0
 51
-90.0
  0
ARC
  8
Group061
 62
0
 10
163.86249999999998
 20
-59.97499999999999
 30
0.0
 40
0.3
 50
-0.0
 51
90.0
  0
ARC
  8
Group061
 62
0
 10
163.86249999999998
 20
-73.37499999999999
 30
0.0
 40
0.3
 50
-90.0
 51
-0.0
  0
POLYLINE
  8
Group061
 62
0
 70
0
 66
1
 10
0.0
 20
0.0
 30
0.0
  0
VERTEX
  8
Group061
 10
150.4625
 20
-59.67499999999999
 30
0.0
  0
VERTEX
  8
Group061
 10
163.8625
 20
-59.67499999999999
 30
0.0
  0
SEQEND
  8
Group061
  0
POLYLINE
  8
Group061
 62
0
 70
0
 66
1
 10
0.0
 20
0.0
 30
0.0
  0
VERTEX
  8
Group061
 10
164.1625
 20
-59.97499999999999
 30
0.0
  0
VERTEX
  8
Group061
 10
164.1625
 20
-73.37499999999999
 30
0.0
  0
SEQEND
  8
Group061
  0
POLYLINE
  8
Group061
 62
0
 70
0
 66
1
 10
0.0
 20
0.0
 30
0.0
  0
VERTEX
  8
Group061
 10
163.86249999999998
 20
-73.67499999999998
 30
0.0
  0
VERTEX
  8
Group061
 10
150.46249999999998
 20
-73.67499999999998
 30
0.0
  0
SEQEND
  8
Group061
  0
POLYLINE
  8
Group061
 62
0
 70
0
 66
1
 10
0.0
 20
0.0
 30
0.0
  0
VERTEX
  8
Group061
 10
150.1625
 20
-73.37499999999999
 30
0.0
  0
VERTEX
  8
Group061
 10
150.1625
 20
-59.97499999999999
 30
0.0
  0
SEQEND
  8
Group061
  0
ARC
  8
Group062
 62
0
 10
169.5125
 20
-59.974999999999994
 30
0.0
 40
0.3
 50
90.0
 51
-180.0
  0
ARC
  8
Group062
 62
0
 10
169.51249999999996
 20
-73.37499999999999
 30
0.0
 40
0.3
 50
-180.0
 51
-90.0
  0
ARC
  8
Group062
 62
0
 10
182.91249999999997
 20
-59.97499999999999
 30
0.0
 40
0.3
 50
-0.0
 51
90.0
  0
ARC
  8
Group062
 62
0
 10
182.91249999999997
 20
-73.37499999999999
 30
0.0
 40
0.3
 50
-90.0
 51
-0.0
  0
POLYLINE
  8
Group062
 62
0
 70
0
 66
1
 10
0.0
 20
0.0
 30
0.0
  0
VERTEX
  8
Group062
 10
169.5125
 20
-59.67499999999999
 30
0.0
  0
VERTEX
  8
Group062
 10
182.9125
 20
-59.67499999999999
 30
0.0
  0
SEQEND
  8
Group062
  0
POLYLINE
  8
Group062
 62
0
 70
0
 66
1
 10
0.0
 20
0.0
 30
0.0
  0
VERTEX
  8
Group062
 10
183.21249999999998
 20
-59.97499999999999
 30
0.0
  0
VERTEX
  8
Group062
 10
183.21249999999998
 20
-73.37499999999999
 30
0.0
  0
SEQEND
  8
Group062
  0
POLYLINE
  8
Group062
 62
0
 70
0
 66
1
 10
0.0
 20
0.0
 30
0.0
  0
VERTEX
  8
Group062
 10
182.91249999999997
 20
-73.67499999999998
 30
0.0
  0
VERTEX
  8
Group062
 10
169.51249999999996
 20
-73.67499999999998
 30
0.0
  0
SEQEND
  8
Group062
  0
POLYLINE
  8
Group062
 62
0
 70
0
 66
1
 10
0.0
 20
0.0
 30
0.0
  0
VERTEX
  8
Group062
 10
169.21249999999998
 20
-73.37499999999999
 30
0.0
  0
VERTEX
  8
Group062
 10
169.21249999999998
 20
-59.97499999999999
 30
0.0
  0
SEQEND
  8
Group062
  0
ARC
  8
Group063
 62
0
 10
188.56249999999997
 20
-59.974999999999994
 30
0.0
 40
0.3
 50
90.0
 51
-180.0
  0
ARC
  8
Group063
 62
0
 10
188.56249999999994
 20
-73.37499999999999
 30
0.0
 40
0.3
 50
-180.0
 51
-90.0
  0
ARC
  8
Group063
 62
0
 10
201.96249999999995
 20
-59.97499999999999
 30
0.0
 40
0.3
 50
-0.0
 51
90.0
  0
ARC
  8
Group063
 62
0
 10
201.96249999999995
 20
-73.37499999999999
 30
0.0
 40
0.3
 50
-90.0
 51
-0.0
  0
POLYLINE
  8
Group063
 62
0
 70
0
 66
1
 10
0.0
 20
0.0
 30
0.0
  0
VERTEX
  8
Group063
 10
188.56249999999997
 20
-59.67499999999999
 30
0.0
  0
VERTEX
  8
Group063
 10
201.96249999999998
 20
-59.67499999999999
 30
0.0
  0
SEQEND
  8
Group063
  0
POLYLINE
  8
Group063
 62
0
 70
0
 66
1
 10
0.0
 20
0.0
 30
0.0
  0
VERTEX
  8
Group063
 10
202.26249999999996
 20
-59.97499999999999
 30
0.0
  0
VERTEX
  8
Group063
 10
202.26249999999996
 20
-73.37499999999999
 30
0.0
  0
SEQEND
  8
Group063
  0
POLYLINE
  8
Group063
 62
0
 70
0
 66
1
 10
0.0
 20
0.0
 30
0.0
  0
VERTEX
  8
Group063
 10
201.96249999999995
 20
-73.67499999999998
 30
0.0
  0
VERTEX
  8
Group063
 10
188.56249999999994
 20
-73.67499999999998
 30
0.0
  0
SEQEND
  8
Group063
  0
POLYLINE
  8
Group063
 62
0
 70
0
 66
1
 10
0.0
 20
0.0
 30
0.0
  0
VERTEX
  8
Group063
 10
188.26249999999996
 20
-73.37499999999999
 30
0.0
  0
VERTEX
  8
Group063
 10
188.26249999999996
 20
-59.97499999999999
 30
0.0
  0
SEQEND
  8
Group063
  0
ARC
  8
Group064
 62
0
 10
207.61249999999995
 20
-59.974999999999994
 30
0.0
 40
0.3
 50
90.0
 51
-180.0
  0
ARC
  8
Group064
 62
0
 10
207.61249999999993
 20
-73.37499999999999
 30
0.0
 40
0.3
 50
-180.0
 51
-90.0
  0
ARC
  8
Group064
 62
0
 10
221.01249999999993
 20
-59.97499999999999
 30
0.0
 40
0.3
 50
-0.0
 51
90.0
  0
ARC
  8
Group064
 62
0
 10
221.01249999999993
 20
-73.37499999999999
 30
0.0
 40
0.3
 50
-90.0
 51
-0.0
  0
POLYLINE
  8
Group064
 62
0
 70
0
 66
1
 10
0.0
 20
0.0
 30
0.0
  0
VERTEX
  8
Group064
 10
207.61249999999995
 20
-59.67499999999999
 30
0.0
  0
VERTEX
  8
Group064
 10
221.01249999999996
 20
-59.67499999999999
 30
0.0
  0
SEQEND
  8
Group064
  0
POLYLINE
  8
Group064
 62
0
 70
0
 66
1
 10
0.0
 20
0.0
 30
0.0
  0
VERTEX
  8
Group064
 10
221.31249999999994
 20
-59.97499999999999
 30
0.0
  0
VERTEX
  8
Group064
 10
221.31249999999994
 20
-73.37499999999999
 30
0.0
  0
SEQEND
  8
Group064
  0
POLYLINE
  8
Group064
 62
0
 70
0
 66
1
 10
0.0
 20
0.0
 30
0.0
  0
VERTEX
  8
Group064
 10
221.01249999999993
 20
-73.67499999999998
 30
0.0
  0
VERTEX
  8
Group064
 10
207.61249999999993
 20
-73.67499999999998
 30
0.0
  0
SEQEND
  8
Group064
  0
POLYLINE
  8
Group064
 62
0
 70
0
 66
1
 10
0.0
 20
0.0
 30
0.0
  0
VERTEX
  8
Group064
 10
207.31249999999994
 20
-73.37499999999999
 30
0.0
  0
VERTEX
  8
Group064
 10
207.31249999999994
 20
-59.97499999999999
 30
0.0
  0
SEQEND
  8
Group064
  0
ARC
  8
Group065
 62
0
 10
226.66249999999994
 20
-59.974999999999994
 30
0.0
 40
0.3
 50
90.0
 51
-180.0
  0
ARC
  8
Group065
 62
0
 10
226.6624999999999
 20
-73.37499999999999
 30
0.0
 40
0.3
 50
-180.0
 51
-90.0
  0
ARC
  8
Group065
 62
0
 10
240.06249999999991
 20
-59.97499999999999
 30
0.0
 40
0.3
 50
-0.0
 51
90.0
  0
ARC
  8
Group065
 62
0
 10
240.06249999999991
 20
-73.37499999999999
 30
0.0
 40
0.3
 50
-90.0
 51
-0.0
  0
POLYLINE
  8
Group065
 62
0
 70
0
 66
1
 10
0.0
 20
0.0
 30
0.0
  0
VERTEX
  8
Group065
 10
226.66249999999994
 20
-59.67499999999999
 30
0.0
  0
VERTEX
  8
Group065
 10
240.06249999999994
 20
-59.67499999999999
 30
0.0
  0
SEQEND
  8
Group065
  0
POLYLINE
  8
Group065
 62
0
 70
0
 66
1
 10
0.0
 20
0.0
 30
0.0
  0
VERTEX
  8
Group065
 10
240.36249999999993
 20
-59.97499999999999
 30
0.0
  0
VERTEX
  8
Group065
 10
240.36249999999993
 20
-73.37499999999999
 30
0.0
  0
SEQEND
  8
Group065
  0
POLYLINE
  8
Group065
 62
0
 70
0
 66
1
 10
0.0
 20
0.0
 30
0.0
  0
VERTEX
  8
Group065
 10
240.06249999999991
 20
-73.67499999999998
 30
0.0
  0
VERTEX
  8
Group065
 10
226.6624999999999
 20
-73.67499999999998
 30
0.0
  0
SEQEND
  8
Group065
  0
POLYLINE
  8
Group065
 62
0
 70
0
 66
1
 10
0.0
 20
0.0
 30
0.0
  0
VERTEX
  8
Group065
 10
226.36249999999993
 20
-73.37499999999999
 30
0.0
  0
VERTEX
  8
Group065
 10
226.36249999999993
 20
-59.97499999999999
 30
0.0
  0
SEQEND
  8
Group065
  0
ARC
  8
Group066
 62
0
 10
245.71249999999992
 20
-59.974999999999994
 30
0.0
 40
0.3
 50
90.0
 51
-180.0
  0
ARC
  8
Group066
 62
0
 10
245.7124999999999
 20
-73.37499999999999
 30
0.0
 40
0.3
 50
-180.0
 51
-90.0
  0
ARC
  8
Group066
 62
0
 10
259.1124999999999
 20
-59.97499999999999
 30
0.0
 40
0.3
 50
-0.0
 51
90.0
  0
ARC
  8
Group066
 62
0
 10
259.1124999999999
 20
-73.37499999999999
 30
0.0
 40
0.3
 50
-90.0
 51
-0.0
  0
POLYLINE
  8
Group066
 62
0
 70
0
 66
1
 10
0.0
 20
0.0
 30
0.0
  0
VERTEX
  8
Group066
 10
245.71249999999992
 20
-59.67499999999999
 30
0.0
  0
VERTEX
  8
Group066
 10
259.11249999999995
 20
-59.67499999999999
 30
0.0
  0
SEQEND
  8
Group066
  0
POLYLINE
  8
Group066
 62
0
 70
0
 66
1
 10
0.0
 20
0.0
 30
0.0
  0
VERTEX
  8
Group066
 10
259.4124999999999
 20
-59.97499999999999
 30
0.0
  0
VERTEX
  8
Group066
 10
259.4124999999999
 20
-73.37499999999999
 30
0.0
  0
SEQEND
  8
Group066
  0
POLYLINE
  8
Group066
 62
0
 70
0
 66
1
 10
0.0
 20
0.0
 30
0.0
  0
VERTEX
  8
Group066
 10
259.1124999999999
 20
-73.67499999999998
 30
0.0
  0
VERTEX
  8
Group066
 10
245.7124999999999
 20
-73.67499999999998
 30
0.0
  0
SEQEND
  8
Group066
  0
POLYLINE
  8
Group066
 62
0
 70
0
 66
1
 10
0.0
 20
0.0
 30
0.0
  0
VERTEX
  8
Group066
 10
245.4124999999999
 20
-73.37499999999999
 30
0.0
  0
VERTEX
  8
Group066
 10
245.4124999999999
 20
-59.97499999999999
 30
0.0
  0
SEQEND
  8
Group066
  0
ARC
  8
Group067
 62
0
 10
264.76249999999993
 20
-59.974999999999994
 30
0.0
 40
0.3
 50
90.0
 51
-180.0
  0
ARC
  8
Group067
 62
0
 10
264.7624999999999
 20
-73.37499999999999
 30
0.0
 40
0.3
 50
-180.0
 51
-90.0
  0
ARC
  8
Group067
 62
0
 10
278.1624999999999
 20
-59.97499999999999
 30
0.0
 40
0.3
 50
-0.0
 51
90.0
  0
ARC
  8
Group067
 62
0
 10
278.1624999999999
 20
-73.37499999999999
 30
0.0
 40
0.3
 50
-90.0
 51
-0.0
  0
POLYLINE
  8
Group067
 62
0
 70
0
 66
1
 10
0.0
 20
0.0
 30
0.0
  0
VERTEX
  8
Group067
 10
264.76249999999993
 20
-59.67499999999999
 30
0.0
  0
VERTEX
  8
Group067
 10
278.16249999999997
 20
-59.67499999999999
 30
0.0
  0
SEQEND
  8
Group067
  0
POLYLINE
  8
Group067
 62
0
 70
0
 66
1
 10
0.0
 20
0.0
 30
0.0
  0
VERTEX
  8
Group067
 10
278.46249999999986
 20
-59.97499999999999
 30
0.0
  0
VERTEX
  8
Group067
 10
278.46249999999986
 20
-73.37499999999999
 30
0.0
  0
SEQEND
  8
Group067
  0
POLYLINE
  8
Group067
 62
0
 70
0
 66
1
 10
0.0
 20
0.0
 30
0.0
  0
VERTEX
  8
Group067
 10
278.1624999999999
 20
-73.67499999999998
 30
0.0
  0
VERTEX
  8
Group067
 10
264.76249999999993
 20
-73.67499999999998
 30
0.0
  0
SEQEND
  8
Group067
  0
POLYLINE
  8
Group067
 62
0
 70
0
 66
1
 10
0.0
 20
0.0
 30
0.0
  0
VERTEX
  8
Group067
 10
264.46249999999986
 20
-73.37499999999999
 30
0.0
  0
VERTEX
  8
Group067
 10
264.46249999999986
 20
-59.97499999999999
 30
0.0
  0
SEQEND
  8
Group067
  0
ARC
  8
rshift
 62
0
 10
300.48124999999993
 20
-59.974999999999994
 30
0.0
 40
0.3
 50
90.0
 51
-180.0
  0
ARC
  8
rshift
 62
0
 10
300.4812499999999
 20
-73.37499999999999
 30
0.0
 40
0.3
 50
-180.0
 51
-90.0
  0
ARC
  8
rshift
 62
0
 10
313.8812499999999
 20
-59.97499999999998
 30
0.0
 40
0.3
 50
-0.0
 51
90.0
  0
ARC
  8
rshift
 62
0
 10
313.8812499999999
 20
-73.37499999999999
 30
0.0
 40
0.3
 50
-90.0
 51
-0.0
  0
POLYLINE
  8
rshift
 62
0
 70
0
 66
1
 10
0.0
 20
0.0
 30
0.0
  0
VERTEX
  8
rshift
 10
300.48124999999993
 20
-59.675
 30
0.0
  0
VERTEX
  8
rshift
 10
313.88124999999997
 20
-59.675
 30
0.0
  0
SEQEND
  8
rshift
  0
POLYLINE
  8
rshift
 62
0
 70
0
 66
1
 10
0.0
 20
0.0
 30
0.0
  0
VERTEX
  8
rshift
 10
313.8812499999999
 20
-73.67499999999998
 30
0.0
  0
VERTEX
  8
rshift
 10
300.48124999999993
 20
-73.67499999999998
 30
0.0
  0
SEQEND
  8
rshift
  0
POLYLINE
  8
left003
 62
0
 70
0
 66
1
 10
0.0
 20
0.0
 30
0.0
  0
VERTEX
  8
left003
 10
291.08125
 20
-64.37499999999997
 30
0.0
  0
VERTEX
  8
left003
 10
291.08125
 20
-67.17499999999997
 30
0.0
  0
SEQEND
  8
left003
  0
POLYLINE
  8
left003
 62
0
 70
0
 66
1
 10
0.0
 20
0.0
 30
0.0
  0
VERTEX
  8
left003
 10
291.95625
 20
-61.144999999999975
 30
0.0
  0
VERTEX
  8
left003
 10
298.60625
 20
-61.144999999999975
 30
0.0
  0
SEQEND
  8
left003
  0
POLYLINE
  8
left003
 62
0
 70
0
 66
1
 10
0.0
 20
0.0
 30
0.0
  0
VERTEX
  8
left003
 10
293.78125
 20
-74.64499999999998
 30
0.0
  0
VERTEX
  8
left003
 10
296.78125
 20
-74.64499999999998
 30
0.0
  0
SEQEND
  8
left003
  0
POLYLINE
  8
left003
 62
0
 70
0
 66
1
 10
0.0
 20
0.0
 30
0.0
  0
VERTEX
  8
left003
 10
291.95625
 20
-73.44499999999996
 30
0.0
  0
VERTEX
  8
left003
 10
293.78125
 20
-73.44499999999996
 30
0.0
  0
SEQEND
  8
left003
  0
POLYLINE
  8
left003
 62
0
 70
0
 66
1
 10
0.0
 20
0.0
 30
0.0
  0
VERTEX
  8
left003
 10
293.78125
 20
-74.64499999999998
 30
0.0
  0
VERTEX
  8
left003
 10
293.78125
 20
-73.44499999999998
 30
0.0
  0
SEQEND
  8
left003
  0
POLYLINE
  8
left003
 62
0
 70
0
 66
1
 10
0.0
 20
0.0
 30
0.0
  0
VERTEX
  8
left003
 10
296.78125
 20
-74.64499999999998
 30
0.0
  0
VERTEX
  8
left003
 10
296.78125
 20
-73.44499999999998
 30
0.0
  0
SEQEND
  8
left003
  0
POLYLINE
  8
left003
 62
0
 70
0
 66
1
 10
0.0
 20
0.0
 30
0.0
  0
VERTEX
  8
left003
 10
296.78125
 20
-73.44499999999996
 30
0.0
  0
VERTEX
  8
left003
 10
298.60625
 20
-73.44499999999996
 30
0.0
  0
SEQEND
  8
left003
  0
POLYLINE
  8
left003
 62
0
 70
0
 66
1
 10
0.0
 20
0.0
 30
0.0
  0
VERTEX
  8
left003
 10
298.60625
 20
-73.44499999999996
 30
0.0
  0
VERTEX
  8
left003
 10
298.60625
 20
-72.64499999999997
 30
0.0
  0
SEQEND
  8
left003
  0
POLYLINE
  8
left003
 62
0
 70
0
 66
1
 10
0.0
 20
0.0
 30
0.0
  0
VERTEX
  8
left003
 10
298.60625
 20
-72.64499999999998
 30
0.0
  0
VERTEX
  8
left003
 10
300.18125
 20
-72.64499999999998
 30
0.0
  0
SEQEND
  8
left003
  0
POLYLINE
  8
left003
 62
0
 70
0
 66
1
 10
0.0
 20
0.0
 30
0.0
  0
VERTEX
  8
left003
 10
298.60625
 20
-61.144999999999975
 30
0.0
  0
VERTEX
  8
left003
 10
298.60625
 20
-61.94499999999997
 30
0.0
  0
SEQEND
  8
left003
  0
POLYLINE
  8
left003
 62
0
 70
0
 66
1
 10
0.0
 20
0.0
 30
0.0
  0
VERTEX
  8
left003
 10
298.60625
 20
-61.94499999999997
 30
0.0
  0
VERTEX
  8
left003
 10
300.18125
 20
-61.94499999999997
 30
0.0
  0
SEQEND
  8
left003
  0
POLYLINE
  8
left003
 62
0
 70
0
 66
1
 10
0.0
 20
0.0
 30
0.0
  0
VERTEX
  8
left003
 10
291.08125
 20
-67.17499999999998
 30
0.0
  0
VERTEX
  8
left003
 10
291.95625
 20
-67.17499999999998
 30
0.0
  0
SEQEND
  8
left003
  0
POLYLINE
  8
left003
 62
0
 70
0
 66
1
 10
0.0
 20
0.0
 30
0.0
  0
VERTEX
  8
left003
 10
291.08125
 20
-64.37499999999997
 30
0.0
  0
VERTEX
  8
left003
 10
291.95625
 20
-64.37499999999997
 30
0.0
  0
SEQEND
  8
left003
  0
POLYLINE
  8
left003
 62
0
 70
0
 66
1
 10
0.0
 20
0.0
 30
0.0
  0
VERTEX
  8
left003
 10
300.18125
 20
-61.94499999999997
 30
0.0
  0
VERTEX
  8
left003
 10
300.18125
 20
-59.97499999999999
 30
0.0
  0
SEQEND
  8
left003
  0
POLYLINE
  8
left003
 62
0
 70
0
 66
1
 10
0.0
 20
0.0
 30
0.0
  0
VERTEX
  8
left003
 10
300.18125
 20
-72.64499999999998
 30
0.0
  0
VERTEX
  8
left003
 10
300.18125
 20
-73.37499999999999
 30
0.0
  0
SEQEND
  8
left003
  0
POLYLINE
  8
left003
 62
0
 70
0
 66
1
 10
0.0
 20
0.0
 30
0.0
  0
VERTEX
  8
left003
 10
291.95625
 20
-67.17499999999998
 30
0.0
  0
VERTEX
  8
left003
 10
291.95625
 20
-73.44499999999998
 30
0.0
  0
SEQEND
  8
left003
  0
POLYLINE
  8
left003
 62
0
 70
0
 66
1
 10
0.0
 20
0.0
 30
0.0
  0
VERTEX
  8
left003
 10
291.95625
 20
-64.37499999999997
 30
0.0
  0
VERTEX
  8
left003
 10
291.95625
 20
-61.14499999999997
 30
0.0
  0
SEQEND
  8
left003
  0
POLYLINE
  8
right003
 62
0
 70
0
 66
1
 10
0.0
 20
0.0
 30
0.0
  0
VERTEX
  8
right003
 10
323.28125
 20
-64.37499999999997
 30
0.0
  0
VERTEX
  8
right003
 10
323.28125
 20
-67.17499999999997
 30
0.0
  0
SEQEND
  8
right003
  0
POLYLINE
  8
right003
 62
0
 70
0
 66
1
 10
0.0
 20
0.0
 30
0.0
  0
VERTEX
  8
right003
 10
315.75625
 20
-61.144999999999975
 30
0.0
  0
VERTEX
  8
right003
 10
322.40625
 20
-61.144999999999975
 30
0.0
  0
SEQEND
  8
right003
  0
POLYLINE
  8
right003
 62
0
 70
0
 66
1
 10
0.0
 20
0.0
 30
0.0
  0
VERTEX
  8
right003
 10
317.58125
 20
-74.64499999999998
 30
0.0
  0
VERTEX
  8
right003
 10
320.58125
 20
-74.64499999999998
 30
0.0
  0
SEQEND
  8
right003
  0
POLYLINE
  8
right003
 62
0
 70
0
 66
1
 10
0.0
 20
0.0
 30
0.0
  0
VERTEX
  8
right003
 10
315.75625
 20
-73.44499999999996
 30
0.0
  0
VERTEX
  8
right003
 10
317.58125
 20
-73.44499999999996
 30
0.0
  0
SEQEND
  8
right003
  0
POLYLINE
  8
right003
 62
0
 70
0
 66
1
 10
0.0
 20
0.0
 30
0.0
  0
VERTEX
  8
right003
 10
317.58125
 20
-74.64499999999998
 30
0.0
  0
VERTEX
  8
right003
 10
317.58125
 20
-73.44499999999998
 30
0.0
  0
SEQEND
  8
right003
  0
POLYLINE
  8
right003
 62
0
 70
0
 66
1
 10
0.0
 20
0.0
 30
0.0
  0
VERTEX
  8
right003
 10
320.58125
 20
-74.64499999999998
 30
0.0
  0
VERTEX
  8
right003
 10
320.58125
 20
-73.44499999999998
 30
0.0
  0
SEQEND
  8
right003
  0
POLYLINE
  8
right003
 62
0
 70
0
 66
1
 10
0.0
 20
0.0
 30
0.0
  0
VERTEX
  8
right003
 10
320.58125
 20
-73.44499999999996
 30
0.0
  0
VERTEX
  8
right003
 10
322.40625
 20
-73.44499999999996
 30
0.0
  0
SEQEND
  8
right003
  0
POLYLINE
  8
right003
 62
0
 70
0
 66
1
 10
0.0
 20
0.0
 30
0.0
  0
VERTEX
  8
right003
 10
315.75624999999997
 20
-73.44499999999996
 30
0.0
  0
VERTEX
  8
right003
 10
315.75624999999997
 20
-72.64499999999997
 30
0.0
  0
SEQEND
  8
right003
  0
POLYLINE
  8
right003
 62
0
 70
0
 66
1
 10
0.0
 20
0.0
 30
0.0
  0
VERTEX
  8
right003
 10
314.18125
 20
-72.64499999999997
 30
0.0
  0
VERTEX
  8
right003
 10
315.75624999999997
 20
-72.64499999999997
 30
0.0
  0
SEQEND
  8
right003
  0
POLYLINE
  8
right003
 62
0
 70
0
 66
1
 10
0.0
 20
0.0
 30
0.0
  0
VERTEX
  8
right003
 10
315.75624999999997
 20
-61.14499999999997
 30
0.0
  0
VERTEX
  8
right003
 10
315.75624999999997
 20
-61.944999999999965
 30
0.0
  0
SEQEND
  8
right003
  0
POLYLINE
  8
right003
 62
0
 70
0
 66
1
 10
0.0
 20
0.0
 30
0.0
  0
VERTEX
  8
right003
 10
314.18125
 20
-61.944999999999965
 30
0.0
  0
VERTEX
  8
right003
 10
315.75624999999997
 20
-61.944999999999965
 30
0.0
  0
SEQEND
  8
right003
  0
POLYLINE
  8
right003
 62
0
 70
0
 66
1
 10
0.0
 20
0.0
 30
0.0
  0
VERTEX
  8
right003
 10
322.40625
 20
-67.17499999999998
 30
0.0
  0
VERTEX
  8
right003
 10
323.28125
 20
-67.17499999999998
 30
0.0
  0
SEQEND
  8
right003
  0
POLYLINE
  8
right003
 62
0
 70
0
 66
1
 10
0.0
 20
0.0
 30
0.0
  0
VERTEX
  8
right003
 10
322.40625
 20
-64.37499999999997
 30
0.0
  0
VERTEX
  8
right003
 10
323.28125
 20
-64.37499999999997
 30
0.0
  0
SEQEND
  8
right003
  0
POLYLINE
  8
right003
 62
0
 70
0
 66
1
 10
0.0
 20
0.0
 30
0.0
  0
VERTEX
  8
right003
 10
314.18125
 20
-61.944999999999965
 30
0.0
  0
VERTEX
  8
right003
 10
314.18125
 20
-59.97499999999998
 30
0.0
  0
SEQEND
  8
right003
  0
POLYLINE
  8
right003
 62
0
 70
0
 66
1
 10
0.0
 20
0.0
 30
0.0
  0
VERTEX
  8
right003
 10
314.18125
 20
-72.64499999999997
 30
0.0
  0
VERTEX
  8
right003
 10
314.18125
 20
-73.37499999999997
 30
0.0
  0
SEQEND
  8
right003
  0
POLYLINE
  8
right003
 62
0
 70
0
 66
1
 10
0.0
 20
0.0
 30
0.0
  0
VERTEX
  8
right003
 10
322.40625
 20
-67.17499999999998
 30
0.0
  0
VERTEX
  8
right003
 10
322.40625
 20
-73.44499999999998
 30
0.0
  0
SEQEND
  8
right003
  0
POLYLINE
  8
right003
 62
0
 70
0
 66
1
 10
0.0
 20
0.0
 30
0.0
  0
VERTEX
  8
right003
 10
322.40625
 20
-64.37499999999997
 30
0.0
  0
VERTEX
  8
right003
 10
322.40625
 20
-61.14499999999997
 30
0.0
  0
SEQEND
  8
right003
  0
POLYLINE
  8
Group070
 62
0
 70
0
 66
1
 10
0.0
 20
0.0
 30
0.0
  0
VERTEX
  8
Group070
 10
55.212500000000006
 20
-78.72499999999998
 30
0.0
  0
VERTEX
  8
Group070
 10
68.61250000000001
 20
-78.72499999999998
 30
0.0
  0
SEQEND
  8
Group070
  0
POLYLINE
  8
Group070
 62
0
 70
0
 66
1
 10
0.0
 20
0.0
 30
0.0
  0
VERTEX
  8
Group070
 10
68.6125
 20
-92.72499999999998
 30
0.0
  0
VERTEX
  8
Group070
 10
55.2125
 20
-92.72499999999998
 30
0.0
  0
SEQEND
  8
Group070
  0
POLYLINE
  8
Group070
 62
0
 70
0
 66
1
 10
0.0
 20
0.0
 30
0.0
  0
VERTEX
  8
Group070
 10
68.91250000000001
 20
-79.02499999999998
 30
0.0
  0
VERTEX
  8
Group070
 10
68.91250000000001
 20
-92.42499999999998
 30
0.0
  0
SEQEND
  8
Group070
  0
ARC
  8
Group070
 62
0
 10
55.2125
 20
-92.42499999999998
 30
0.0
 40
0.3
 50
-180.0
 51
-90.0
  0
ARC
  8
Group070
 62
0
 10
68.6125
 20
-92.42499999999998
 30
0.0
 40
0.3
 50
-90.0
 51
-0.0
  0
ARC
  8
Group070
 62
0
 10
68.61250000000001
 20
-79.02499999999998
 30
0.0
 40
0.3
 50
-0.0
 51
90.0
  0
ARC
  8
Group070
 62
0
 10
55.212500000000006
 20
-79.02499999999998
 30
0.0
 40
0.3
 50
90.0
 51
-180.0
  0
POLYLINE
  8
Group070
 62
0
 70
0
 66
1
 10
0.0
 20
0.0
 30
0.0
  0
VERTEX
  8
Group070
 10
54.9125
 20
-92.42499999999998
 30
0.0
  0
VERTEX
  8
Group070
 10
54.9125
 20
-79.02499999999998
 30
0.0
  0
SEQEND
  8
Group070
  0
POLYLINE
  8
Group071
 62
0
 70
0
 66
1
 10
0.0
 20
0.0
 30
0.0
  0
VERTEX
  8
Group071
 10
102.8375
 20
-78.72499999999998
 30
0.0
  0
VERTEX
  8
Group071
 10
116.23750000000001
 20
-78.72499999999998
 30
0.0
  0
SEQEND
  8
Group071
  0
POLYLINE
  8
Group071
 62
0
 70
0
 66
1
 10
0.0
 20
0.0
 30
0.0
  0
VERTEX
  8
Group071
 10
116.2375
 20
-92.72499999999998
 30
0.0
  0
VERTEX
  8
Group071
 10
102.8375
 20
-92.72499999999998
 30
0.0
  0
SEQEND
  8
Group071
  0
POLYLINE
  8
Group071
 62
0
 70
0
 66
1
 10
0.0
 20
0.0
 30
0.0
  0
VERTEX
  8
Group071
 10
116.53750000000001
 20
-79.02499999999998
 30
0.0
  0
VERTEX
  8
Group071
 10
116.53750000000001
 20
-92.42499999999998
 30
0.0
  0
SEQEND
  8
Group071
  0
ARC
  8
Group071
 62
0
 10
102.8375
 20
-92.42499999999998
 30
0.0
 40
0.3
 50
-180.0
 51
-90.0
  0
ARC
  8
Group071
 62
0
 10
116.2375
 20
-92.42499999999998
 30
0.0
 40
0.3
 50
-90.0
 51
-0.0
  0
ARC
  8
Group071
 62
0
 10
116.23750000000001
 20
-79.02499999999998
 30
0.0
 40
0.3
 50
-0.0
 51
90.0
  0
ARC
  8
Group071
 62
0
 10
102.8375
 20
-79.02499999999998
 30
0.0
 40
0.3
 50
90.0
 51
-180.0
  0
POLYLINE
  8
Group071
 62
0
 70
0
 66
1
 10
0.0
 20
0.0
 30
0.0
  0
VERTEX
  8
Group071
 10
102.5375
 20
-92.42499999999998
 30
0.0
  0
VERTEX
  8
Group071
 10
102.5375
 20
-79.02499999999998
 30
0.0
  0
SEQEND
  8
Group071
  0
ARC
  8
space
 62
0
 10
197.20000000000005
 20
-79.02499999999998
 30
0.0
 40
0.3
 50
-0.0
 51
90.0
  0
ARC
  8
space
 62
0
 10
197.2
 20
-92.42499999999998
 30
0.0
 40
0.3
 50
-90.0
 51
-0.0
  0
POLYLINE
  8
space
 62
0
 70
0
 66
1
 10
0.0
 20
0.0
 30
0.0
  0
VERTEX
  8
space
 10
197.2
 20
-92.72499999999998
 30
0.0
  0
VERTEX
  8
space
 10
183.8
 20
-92.72499999999998
 30
0.0
  0
SEQEND
  8
space
  0
ARC
  8
space
 62
0
 10
183.8
 20
-79.02499999999998
 30
0.0
 40
0.3
 50
90.0
 51
-180.0
  0
POLYLINE
  8
space
 62
0
 70
0
 66
1
 10
0.0
 20
0.0
 30
0.0
  0
VERTEX
  8
space
 10
183.8
 20
-78.72499999999998
 30
0.0
  0
VERTEX
  8
space
 10
197.20000000000002
 20
-78.72499999999998
 30
0.0
  0
SEQEND
  8
space
  0
ARC
  8
space
 62
0
 10
183.8
 20
-92.42499999999998
 30
0.0
 40
0.3
 50
-180.0
 51
-90.0
  0
POLYLINE
  8
right007
 62
0
 70
0
 66
1
 10
0.0
 20
0.0
 30
0.0
  0
VERTEX
  8
right007
 10
251.85
 20
-88.02500000000002
 30
0.0
  0
VERTEX
  8
right007
 10
251.85
 20
-85.22500000000002
 30
0.0
  0
SEQEND
  8
right007
  0
POLYLINE
  8
right007
 62
0
 70
0
 66
1
 10
0.0
 20
0.0
 30
0.0
  0
VERTEX
  8
right007
 10
250.975
 20
-91.25500000000001
 30
0.0
  0
VERTEX
  8
right007
 10
244.32500000000002
 20
-91.25500000000001
 30
0.0
  0
SEQEND
  8
right007
  0
POLYLINE
  8
right007
 62
0
 70
0
 66
1
 10
0.0
 20
0.0
 30
0.0
  0
VERTEX
  8
right007
 10
249.15
 20
-77.75500000000001
 30
0.0
  0
VERTEX
  8
right007
 10
246.15
 20
-77.75500000000001
 30
0.0
  0
SEQEND
  8
right007
  0
POLYLINE
  8
right007
 62
0
 70
0
 66
1
 10
0.0
 20
0.0
 30
0.0
  0
VERTEX
  8
right007
 10
250.975
 20
-78.95500000000003
 30
0.0
  0
VERTEX
  8
right007
 10
249.15
 20
-78.95500000000003
 30
0.0
  0
SEQEND
  8
right007
  0
POLYLINE
  8
right007
 62
0
 70
0
 66
1
 10
0.0
 20
0.0
 30
0.0
  0
VERTEX
  8
right007
 10
249.15
 20
-77.75500000000001
 30
0.0
  0
VERTEX
  8
right007
 10
249.15
 20
-78.95500000000001
 30
0.0
  0
SEQEND
  8
right007
  0
POLYLINE
  8
right007
 62
0
 70
0
 66
1
 10
0.0
 20
0.0
 30
0.0
  0
VERTEX
  8
right007
 10
246.15
 20
-77.75500000000001
 30
0.0
  0
VERTEX
  8
right007
 10
246.15
 20
-78.95500000000001
 30
0.0
  0
SEQEND
  8
right007
  0
POLYLINE
  8
right007
 62
0
 70
0
 66
1
 10
0.0
 20
0.0
 30
0.0
  0
VERTEX
  8
right007
 10
246.15
 20
-78.95500000000003
 30
0.0
  0
VERTEX
  8
right007
 10
244.32500000000002
 20
-78.95500000000003
 30
0.0
  0
SEQEND
  8
right007
  0
POLYLINE
  8
right007
 62
0
 70
0
 66
1
 10
0.0
 20
0.0
 30
0.0
  0
VERTEX
  8
right007
 10
251.85
 20
-85.22500000000001
 30
0.0
  0
VERTEX
  8
right007
 10
250.975
 20
-85.22500000000001
 30
0.0
  0
SEQEND
  8
right007
  0
POLYLINE
  8
right007
 62
0
 70
0
 66
1
 10
0.0
 20
0.0
 30
0.0
  0
VERTEX
  8
right007
 10
251.85
 20
-88.02500000000002
 30
0.0
  0
VERTEX
  8
right007
 10
250.975
 20
-88.02500000000002
 30
0.0
  0
SEQEND
  8
right007
  0
POLYLINE
  8
right007
 62
0
 70
0
 66
1
 10
0.0
 20
0.0
 30
0.0
  0
VERTEX
  8
right007
 10
250.975
 20
-85.22500000000001
 30
0.0
  0
VERTEX
  8
right007
 10
250.975
 20
-78.95500000000001
 30
0.0
  0
SEQEND
  8
right007
  0
POLYLINE
  8
right007
 62
0
 70
0
 66
1
 10
0.0
 20
0.0
 30
0.0
  0
VERTEX
  8
right007
 10
250.975
 20
-88.02500000000002
 30
0.0
  0
VERTEX
  8
right007
 10
250.975
 20
-91.25500000000002
 30
0.0
  0
SEQEND
  8
right007
  0
POLYLINE
  8
left007
 62
0
 70
0
 66
1
 10
0.0
 20
0.0
 30
0.0
  0
VERTEX
  8
left007
 10
129.15
 20
-88.02500000000002
 30
0.0
  0
VERTEX
  8
left007
 10
129.15
 20
-85.22500000000002
 30
0.0
  0
SEQEND
  8
left007
  0
POLYLINE
  8
left007
 62
0
 70
0
 66
1
 10
0.0
 20
0.0
 30
0.0
  0
VERTEX
  8
left007
 10
136.67499999999998
 20
-91.25500000000001
 30
0.0
  0
VERTEX
  8
left007
 10
130.025
 20
-91.25500000000001
 30
0.0
  0
SEQEND
  8
left007
  0
POLYLINE
  8
left007
 62
0
 70
0
 66
1
 10
0.0
 20
0.0
 30
0.0
  0
VERTEX
  8
left007
 10
134.85
 20
-77.75500000000001
 30
0.0
  0
VERTEX
  8
left007
 10
131.85
 20
-77.75500000000001
 30
0.0
  0
SEQEND
  8
left007
  0
POLYLINE
  8
left007
 62
0
 70
0
 66
1
 10
0.0
 20
0.0
 30
0.0
  0
VERTEX
  8
left007
 10
136.67499999999998
 20
-78.95500000000003
 30
0.0
  0
VERTEX
  8
left007
 10
134.85
 20
-78.95500000000003
 30
0.0
  0
SEQEND
  8
left007
  0
POLYLINE
  8
left007
 62
0
 70
0
 66
1
 10
0.0
 20
0.0
 30
0.0
  0
VERTEX
  8
left007
 10
134.85
 20
-77.75500000000001
 30
0.0
  0
VERTEX
  8
left007
 10
134.85
 20
-78.95500000000001
 30
0.0
  0
SEQEND
  8
left007
  0
POLYLINE
  8
left007
 62
0
 70
0
 66
1
 10
0.0
 20
0.0
 30
0.0
  0
VERTEX
  8
left007
 10
131.85
 20
-77.75500000000001
 30
0.0
  0
VERTEX
  8
left007
 10
131.85
 20
-78.95500000000001
 30
0.0
  0
SEQEND
  8
left007
  0
POLYLINE
  8
left007
 62
0
 70
0
 66
1
 10
0.0
 20
0.0
 30
0.0
  0
VERTEX
  8
left007
 10
131.85
 20
-78.95500000000003
 30
0.0
  0
VERTEX
  8
left007
 10
130.025
 20
-78.95500000000003
 30
0.0
  0
SEQEND
  8
left007
  0
POLYLINE
  8
left007
 62
0
 70
0
 66
1
 10
0.0
 20
0.0
 30
0.0
  0
VERTEX
  8
left007
 10
130.025
 20
-85.22500000000001
 30
0.0
  0
VERTEX
  8
left007
 10
129.15
 20
-85.22500000000001
 30
0.0
  0
SEQEND
  8
left007
  0
POLYLINE
  8
left007
 62
0
 70
0
 66
1
 10
0.0
 20
0.0
 30
0.0
  0
VERTEX
  8
left007
 10
130.025
 20
-88.02500000000002
 30
0.0
  0
VERTEX
  8
left007
 10
129.15
 20
-88.02500000000002
 30
0.0
  0
SEQEND
  8
left007
  0
POLYLINE
  8
left007
 62
0
 70
0
 66
1
 10
0.0
 20
0.0
 30
0.0
  0
VERTEX
  8
left007
 10
130.025
 20
-85.22500000000001
 30
0.0
  0
VERTEX
  8
left007
 10
130.025
 20
-78.95500000000001
 30
0.0
  0
SEQEND
  8
left007
  0
POLYLINE
  8
left007
 62
0
 70
0
 66
1
 10
0.0
 20
0.0
 30
0.0
  0
VERTEX
  8
left007
 10
130.025
 20
-88.02500000000002
 30
0.0
  0
VERTEX
  8
left007
 10
130.025
 20
-91.25500000000002
 30
0.0
  0
SEQEND
  8
left007
  0
POLYLINE
  8
space
 62
0
 70
0
 66
1
 10
0.0
 20
0.0
 30
0.0
  0
VERTEX
  8
space
 10
183.5
 20
-83.42499999999998
 30
0.0
  0
VERTEX
  8
space
 10
183.5
 20
-79.02499999999998
 30
0.0
  0
SEQEND
  8
space
  0
POLYLINE
  8
space
 62
0
 70
0
 66
1
 10
0.0
 20
0.0
 30
0.0
  0
VERTEX
  8
space
 10
183.5
 20
-88.02499999999998
 30
0.0
  0
VERTEX
  8
space
 10
183.5
 20
-92.42499999999998
 30
0.0
  0
SEQEND
  8
space
  0
POLYLINE
  8
space
 62
0
 70
0
 66
1
 10
0.0
 20
0.0
 30
0.0
  0
VERTEX
  8
space
 10
183.5
 20
-83.42499999999998
 30
0.0
  0
VERTEX
  8
space
 10
136.67500000000004
 20
-83.42499999999998
 30
0.0
  0
SEQEND
  8
space
  0
POLYLINE
  8
space
 62
0
 70
0
 66
1
 10
0.0
 20
0.0
 30
0.0
  0
VERTEX
  8
space
 10
183.5
 20
-88.02499999999998
 30
0.0
  0
VERTEX
  8
space
 10
136.67499999999998
 20
-88.02499999999998
 30
0.0
  0
SEQEND
  8
space
  0
POLYLINE
  8
space
 62
0
 70
0
 66
1
 10
0.0
 20
0.0
 30
0.0
  0
VERTEX
  8
space
 10
136.67499999999998
 20
-91.25500000000001
 30
0.0
  0
VERTEX
  8
space
 10
136.67499999999998
 20
-88.02499999999998
 30
0.0
  0
SEQEND
  8
space
  0
POLYLINE
  8
space
 62
0
 70
0
 66
1
 10
0.0
 20
0.0
 30
0.0
  0
VERTEX
  8
space
 10
136.67500000000004
 20
-83.42499999999998
 30
0.0
  0
VERTEX
  8
space
 10
136.67499999999998
 20
-78.95500000000003
 30
0.0
  0
SEQEND
  8
space
  0
POLYLINE
  8
space
 62
0
 70
0
 66
1
 10
0.0
 20
0.0
 30
0.0
  0
VERTEX
  8
space
 10
244.32500000000002
 20
-88.02499999999998
 30
0.0
  0
VERTEX
  8
space
 10
197.50000000000006
 20
-88.02499999999998
 30
0.0
  0
SEQEND
  8
space
  0
POLYLINE
  8
space
 62
0
 70
0
 66
1
 10
0.0
 20
0.0
 30
0.0
  0
VERTEX
  8
space
 10
197.50000000000006
 20
-79.02499999999998
 30
0.0
  0
VERTEX
  8
space
 10
197.50000000000006
 20
-83.42499999999998
 30
0.0
  0
SEQEND
  8
space
  0
POLYLINE
  8
space
 62
0
 70
0
 66
1
 10
0.0
 20
0.0
 30
0.0
  0
VERTEX
  8
space
 10
197.5
 20
-92.42499999999998
 30
0.0
  0
VERTEX
  8
space
 10
197.5
 20
-88.02499999999998
 30
0.0
  0
SEQEND
  8
space
  0
POLYLINE
  8
space
 62
0
 70
0
 66
1
 10
0.0
 20
0.0
 30
0.0
  0
VERTEX
  8
space
 10
197.50000000000006
 20
-83.42499999999998
 30
0.0
  0
VERTEX
  8
space
 10
244.32500000000002
 20
-83.42499999999998
 30
0.0
  0
SEQEND
  8
space
  0
POLYLINE
  8
space
 62
0
 70
0
 66
1
 10
0.0
 20
0.0
 30
0.0
  0
VERTEX
  8
space
 10
244.32500000000002
 20
-83.42499999999998
 30
0.0
  0
VERTEX
  8
space
 10
244.32500000000002
 20
-78.95500000000003
 30
0.0
  0
SEQEND
  8
space
  0
POLYLINE
  8
space
 62
0
 70
0
 66
1
 10
0.0
 20
0.0
 30
0.0
  0
VERTEX
  8
space
 10
244.32500000000002
 20
-91.25500000000001
 30
0.0
  0
VERTEX
  8
space
 10
244.32500000000002
 20
-88.02499999999998
 30
0.0
  0
SEQEND
  8
space
  0
POLYLINE
  8
Group073
 62
0
 70
0
 66
1
 10
0.0
 20
0.0
 30
0.0
  0
VERTEX
  8
Group073
 10
264.76250000000005
 20
-78.72499999999998
 30
0.0
  0
VERTEX
  8
Group073
 10
278.1625
 20
-78.72499999999998
 30
0.0
  0
SEQEND
  8
Group073
  0
POLYLINE
  8
Group073
 62
0
 70
0
 66
1
 10
0.0
 20
0.0
 30
0.0
  0
VERTEX
  8
Group073
 10
278.1625
 20
-92.72499999999998
 30
0.0
  0
VERTEX
  8
Group073
 10
264.76250000000005
 20
-92.72499999999998
 30
0.0
  0
SEQEND
  8
Group073
  0
POLYLINE
  8
Group073
 62
0
 70
0
 66
1
 10
0.0
 20
0.0
 30
0.0
  0
VERTEX
  8
Group073
 10
278.46250000000003
 20
-79.02499999999998
 30
0.0
  0
VERTEX
  8
Group073
 10
278.46250000000003
 20
-92.42499999999998
 30
0.0
  0
SEQEND
  8
Group073
  0
ARC
  8
Group073
 62
0
 10
264.76250000000005
 20
-92.42499999999998
 30
0.0
 40
0.3
 50
-180.0
 51
-90.0
  0
ARC
  8
Group073
 62
0
 10
278.1625
 20
-92.42499999999998
 30
0.0
 40
0.3
 50
-90.0
 51
-0.0
  0
ARC
  8
Group073
 62
0
 10
278.1625
 20
-79.02499999999998
 30
0.0
 40
0.3
 50
-0.0
 51
90.0
  0
ARC
  8
Group073
 62
0
 10
264.76250000000005
 20
-79.02499999999998
 30
0.0
 40
0.3
 50
90.0
 51
-180.0
  0
POLYLINE
  8
Group073
 62
0
 70
0
 66
1
 10
0.0
 20
0.0
 30
0.0
  0
VERTEX
  8
Group073
 10
264.4625
 20
-92.42499999999998
 30
0.0
  0
VERTEX
  8
Group073
 10
264.4625
 20
-79.02499999999998
 30
0.0
  0
SEQEND
  8
Group073
  0
POLYLINE
  8
Group074
 62
0
 70
0
 66
1
 10
0.0
 20
0.0
 30
0.0
  0
VERTEX
  8
Group074
 10
312.3874999999998
 20
-78.72499999999998
 30
0.0
  0
VERTEX
  8
Group074
 10
325.7874999999998
 20
-78.72499999999998
 30
0.0
  0
SEQEND
  8
Group074
  0
POLYLINE
  8
Group074
 62
0
 70
0
 66
1
 10
0.0
 20
0.0
 30
0.0
  0
VERTEX
  8
Group074
 10
325.78749999999985
 20
-92.72499999999998
 30
0.0
  0
VERTEX
  8
Group074
 10
312.3874999999999
 20
-92.72499999999998
 30
0.0
  0
SEQEND
  8
Group074
  0
POLYLINE
  8
Group074
 62
0
 70
0
 66
1
 10
0.0
 20
0.0
 30
0.0
  0
VERTEX
  8
Group074
 10
326.08749999999986
 20
-79.02499999999998
 30
0.0
  0
VERTEX
  8
Group074
 10
326.08749999999986
 20
-92.42499999999998
 30
0.0
  0
SEQEND
  8
Group074
  0
ARC
  8
Group074
 62
0
 10
312.3874999999998
 20
-92.42499999999998
 30
0.0
 40
0.3
 50
-180.0
 51
-90.0
  0
ARC
  8
Group074
 62
0
 10
325.78749999999985
 20
-92.42499999999998
 30
0.0
 40
0.3
 50
-90.0
 51
-0.0
  0
ARC
  8
Group074
 62
0
 10
325.78749999999985
 20
-79.02499999999998
 30
0.0
 40
0.3
 50
-0.0
 51
90.0
  0
ARC
  8
Group074
 62
0
 10
312.3874999999998
 20
-79.02499999999998
 30
0.0
 40
0.3
 50
90.0
 51
-180.0
  0
POLYLINE
  8
Group074
 62
0
 70
0
 66
1
 10
0.0
 20
0.0
 30
0.0
  0
VERTEX
  8
Group074
 10
312.08749999999986
 20
-92.42499999999998
 30
0.0
  0
VERTEX
  8
Group074
 10
312.08749999999986
 20
-79.02499999999998
 30
0.0
  0
SEQEND
  8
Group074
  0
ARC
  8
Group076
 62
0
 10
345.72499999999997
 20
-2.825
 30
0.0
 40
0.3
 50
90.0
 51
-180.0
  0
ARC
  8
Group076
 62
0
 10
345.72499999999997
 20
-16.224999999999998
 30
0.0
 40
0.3
 50
-180.0
 51
-90.0
  0
ARC
  8
Group076
 62
0
 10
359.125
 20
-2.824999999999999
 30
0.0
 40
0.3
 50
-0.0
 51
90.0
  0
ARC
  8
Group076
 62
0
 10
359.125
 20
-16.224999999999998
 30
0.0
 40
0.3
 50
-90.0
 51
-0.0
  0
POLYLINE
  8
Group076
 62
0
 70
0
 66
1
 10
0.0
 20
0.0
 30
0.0
  0
VERTEX
  8
Group076
 10
345.72499999999997
 20
-2.525
 30
0.0
  0
VERTEX
  8
Group076
 10
359.125
 20
-2.524999999999999
 30
0.0
  0
SEQEND
  8
Group076
  0
POLYLINE
  8
Group076
 62
0
 70
0
 66
1
 10
0.0
 20
0.0
 30
0.0
  0
VERTEX
  8
Group076
 10
359.42499999999995
 20
-2.824999999999999
 30
0.0
  0
VERTEX
  8
Group076
 10
359.42499999999995
 20
-16.224999999999998
 30
0.0
  0
SEQEND
  8
Group076
  0
POLYLINE
  8
Group076
 62
0
 70
0
 66
1
 10
0.0
 20
0.0
 30
0.0
  0
VERTEX
  8
Group076
 10
359.125
 20
-16.525
 30
0.0
  0
VERTEX
  8
Group076
 10
345.725
 20
-16.525
 30
0.0
  0
SEQEND
  8
Group076
  0
POLYLINE
  8
Group076
 62
0
 70
0
 66
1
 10
0.0
 20
0.0
 30
0.0
  0
VERTEX
  8
Group076
 10
345.42499999999995
 20
-16.224999999999998
 30
0.0
  0
VERTEX
  8
Group076
 10
345.42499999999995
 20
-2.8249999999999993
 30
0.0
  0
SEQEND
  8
Group076
  0
ARC
  8
Group077
 62
0
 10
364.775
 20
-2.825
 30
0.0
 40
0.3
 50
90.0
 51
-180.0
  0
ARC
  8
Group077
 62
0
 10
364.775
 20
-16.224999999999998
 30
0.0
 40
0.3
 50
-180.0
 51
-90.0
  0
ARC
  8
Group077
 62
0
 10
378.175
 20
-2.824999999999999
 30
0.0
 40
0.3
 50
-0.0
 51
90.0
  0
ARC
  8
Group077
 62
0
 10
378.175
 20
-16.224999999999998
 30
0.0
 40
0.3
 50
-90.0
 51
-0.0
  0
POLYLINE
  8
Group077
 62
0
 70
0
 66
1
 10
0.0
 20
0.0
 30
0.0
  0
VERTEX
  8
Group077
 10
364.775
 20
-2.525
 30
0.0
  0
VERTEX
  8
Group077
 10
378.175
 20
-2.524999999999999
 30
0.0
  0
SEQEND
  8
Group077
  0
POLYLINE
  8
Group077
 62
0
 70
0
 66
1
 10
0.0
 20
0.0
 30
0.0
  0
VERTEX
  8
Group077
 10
378.47499999999997
 20
-2.824999999999999
 30
0.0
  0
VERTEX
  8
Group077
 10
378.47499999999997
 20
-16.224999999999998
 30
0.0
  0
SEQEND
  8
Group077
  0
POLYLINE
  8
Group077
 62
0
 70
0
 66
1
 10
0.0
 20
0.0
 30
0.0
  0
VERTEX
  8
Group077
 10
378.175
 20
-16.525
 30
0.0
  0
VERTEX
  8
Group077
 10
364.77500000000003
 20
-16.525
 30
0.0
  0
SEQEND
  8
Group077
  0
POLYLINE
  8
Group077
 62
0
 70
0
 66
1
 10
0.0
 20
0.0
 30
0.0
  0
VERTEX
  8
Group077
 10
364.47499999999997
 20
-16.224999999999998
 30
0.0
  0
VERTEX
  8
Group077
 10
364.47499999999997
 20
-2.8249999999999993
 30
0.0
  0
SEQEND
  8
Group077
  0
ARC
  8
Group078
 62
0
 10
383.825
 20
-2.825
 30
0.0
 40
0.3
 50
90.0
 51
-180.0
  0
ARC
  8
Group078
 62
0
 10
383.825
 20
-16.224999999999998
 30
0.0
 40
0.3
 50
-180.0
 51
-90.0
  0
ARC
  8
Group078
 62
0
 10
397.225
 20
-2.824999999999999
 30
0.0
 40
0.3
 50
-0.0
 51
90.0
  0
ARC
  8
Group078
 62
0
 10
397.225
 20
-16.224999999999998
 30
0.0
 40
0.3
 50
-90.0
 51
-0.0
  0
POLYLINE
  8
Group078
 62
0
 70
0
 66
1
 10
0.0
 20
0.0
 30
0.0
  0
VERTEX
  8
Group078
 10
383.825
 20
-2.525
 30
0.0
  0
VERTEX
  8
Group078
 10
397.225
 20
-2.524999999999999
 30
0.0
  0
SEQEND
  8
Group078
  0
POLYLINE
  8
Group078
 62
0
 70
0
 66
1
 10
0.0
 20
0.0
 30
0.0
  0
VERTEX
  8
Group078
 10
397.525
 20
-2.824999999999999
 30
0.0
  0
VERTEX
  8
Group078
 10
397.525
 20
-16.224999999999998
 30
0.0
  0
SEQEND
  8
Group078
  0
POLYLINE
  8
Group078
 62
0
 70
0
 66
1
 10
0.0
 20
0.0
 30
0.0
  0
VERTEX
  8
Group078
 10
397.225
 20
-16.525
 30
0.0
  0
VERTEX
  8
Group078
 10
383.82500000000005
 20
-16.525
 30
0.0
  0
SEQEND
  8
Group078
  0
POLYLINE
  8
Group078
 62
0
 70
0
 66
1
 10
0.0
 20
0.0
 30
0.0
  0
VERTEX
  8
Group078
 10
383.525
 20
-16.224999999999998
 30
0.0
  0
VERTEX
  8
Group078
 10
383.525
 20
-2.8249999999999993
 30
0.0
  0
SEQEND
  8
Group078
  0
ARC
  8
Group079
 62
0
 10
402.875
 20
-2.825
 30
0.0
 40
0.3
 50
90.0
 51
-180.0
  0
ARC
  8
Group079
 62
0
 10
402.875
 20
-16.224999999999998
 30
0.0
 40
0.3
 50
-180.0
 51
-90.0
  0
ARC
  8
Group079
 62
0
 10
416.27500000000003
 20
-2.824999999999999
 30
0.0
 40
0.3
 50
-0.0
 51
90.0
  0
ARC
  8
Group079
 62
0
 10
416.27500000000003
 20
-16.224999999999998
 30
0.0
 40
0.3
 50
-90.0
 51
-0.0
  0
POLYLINE
  8
Group079
 62
0
 70
0
 66
1
 10
0.0
 20
0.0
 30
0.0
  0
VERTEX
  8
Group079
 10
402.875
 20
-2.525
 30
0.0
  0
VERTEX
  8
Group079
 10
416.27500000000003
 20
-2.524999999999999
 30
0.0
  0
SEQEND
  8
Group079
  0
POLYLINE
  8
Group079
 62
0
 70
0
 66
1
 10
0.0
 20
0.0
 30
0.0
  0
VERTEX
  8
Group079
 10
416.575
 20
-2.824999999999999
 30
0.0
  0
VERTEX
  8
Group079
 10
416.575
 20
-16.224999999999998
 30
0.0
  0
SEQEND
  8
Group079
  0
POLYLINE
  8
Group079
 62
0
 70
0
 66
1
 10
0.0
 20
0.0
 30
0.0
  0
VERTEX
  8
Group079
 10
416.27500000000003
 20
-16.525
 30
0.0
  0
VERTEX
  8
Group079
 10
402.87500000000006
 20
-16.525
 30
0.0
  0
SEQEND
  8
Group079
  0
POLYLINE
  8
Group079
 62
0
 70
0
 66
1
 10
0.0
 20
0.0
 30
0.0
  0
VERTEX
  8
Group079
 10
402.575
 20
-16.224999999999998
 30
0.0
  0
VERTEX
  8
Group079
 10
402.575
 20
-2.8249999999999993
 30
0.0
  0
SEQEND
  8
Group079
  0
ARC
  8
Group081
 62
0
 10
345.72499999999997
 20
-21.875
 30
0.0
 40
0.3
 50
90.0
 51
-180.0
  0
ARC
  8
Group081
 62
0
 10
345.72499999999997
 20
-35.275
 30
0.0
 40
0.3
 50
-180.0
 51
-90.0
  0
ARC
  8
Group081
 62
0
 10
359.125
 20
-21.875
 30
0.0
 40
0.3
 50
-0.0
 51
90.0
  0
ARC
  8
Group081
 62
0
 10
359.125
 20
-35.275
 30
0.0
 40
0.3
 50
-90.0
 51
-0.0
  0
POLYLINE
  8
Group081
 62
0
 70
0
 66
1
 10
0.0
 20
0.0
 30
0.0
  0
VERTEX
  8
Group081
 10
345.72499999999997
 20
-21.575
 30
0.0
  0
VERTEX
  8
Group081
 10
359.125
 20
-21.575
 30
0.0
  0
SEQEND
  8
Group081
  0
POLYLINE
  8
Group081
 62
0
 70
0
 66
1
 10
0.0
 20
0.0
 30
0.0
  0
VERTEX
  8
Group081
 10
359.42499999999995
 20
-21.875
 30
0.0
  0
VERTEX
  8
Group081
 10
359.42499999999995
 20
-35.275
 30
0.0
  0
SEQEND
  8
Group081
  0
POLYLINE
  8
Group081
 62
0
 70
0
 66
1
 10
0.0
 20
0.0
 30
0.0
  0
VERTEX
  8
Group081
 10
359.125
 20
-35.575
 30
0.0
  0
VERTEX
  8
Group081
 10
345.725
 20
-35.575
 30
0.0
  0
SEQEND
  8
Group081
  0
POLYLINE
  8
Group081
 62
0
 70
0
 66
1
 10
0.0
 20
0.0
 30
0.0
  0
VERTEX
  8
Group081
 10
345.42499999999995
 20
-35.275
 30
0.0
  0
VERTEX
  8
Group081
 10
345.42499999999995
 20
-21.875
 30
0.0
  0
SEQEND
  8
Group081
  0
ARC
  8
Group082
 62
0
 10
364.775
 20
-21.875
 30
0.0
 40
0.3
 50
90.0
 51
-180.0
  0
ARC
  8
Group082
 62
0
 10
364.775
 20
-35.275
 30
0.0
 40
0.3
 50
-180.0
 51
-90.0
  0
ARC
  8
Group082
 62
0
 10
378.175
 20
-21.875
 30
0.0
 40
0.3
 50
-0.0
 51
90.0
  0
ARC
  8
Group082
 62
0
 10
378.175
 20
-35.275
 30
0.0
 40
0.3
 50
-90.0
 51
-0.0
  0
POLYLINE
  8
Group082
 62
0
 70
0
 66
1
 10
0.0
 20
0.0
 30
0.0
  0
VERTEX
  8
Group082
 10
364.775
 20
-21.575
 30
0.0
  0
VERTEX
  8
Group082
 10
378.175
 20
-21.575
 30
0.0
  0
SEQEND
  8
Group082
  0
POLYLINE
  8
Group082
 62
0
 70
0
 66
1
 10
0.0
 20
0.0
 30
0.0
  0
VERTEX
  8
Group082
 10
378.47499999999997
 20
-21.875
 30
0.0
  0
VERTEX
  8
Group082
 10
378.47499999999997
 20
-35.275
 30
0.0
  0
SEQEND
  8
Group082
  0
POLYLINE
  8
Group082
 62
0
 70
0
 66
1
 10
0.0
 20
0.0
 30
0.0
  0
VERTEX
  8
Group082
 10
378.175
 20
-35.575
 30
0.0
  0
VERTEX
  8
Group082
 10
364.77500000000003
 20
-35.575
 30
0.0
  0
SEQEND
  8
Group082
  0
POLYLINE
  8
Group082
 62
0
 70
0
 66
1
 10
0.0
 20
0.0
 30
0.0
  0
VERTEX
  8
Group082
 10
364.47499999999997
 20
-35.275
 30
0.0
  0
VERTEX
  8
Group082
 10
364.47499999999997
 20
-21.875
 30
0.0
  0
SEQEND
  8
Group082
  0
ARC
  8
Group083
 62
0
 10
383.825
 20
-21.875
 30
0.0
 40
0.3
 50
90.0
 51
-180.0
  0
ARC
  8
Group083
 62
0
 10
383.825
 20
-35.275
 30
0.0
 40
0.3
 50
-180.0
 51
-90.0
  0
ARC
  8
Group083
 62
0
 10
397.225
 20
-21.875
 30
0.0
 40
0.3
 50
-0.0
 51
90.0
  0
ARC
  8
Group083
 62
0
 10
397.225
 20
-35.275
 30
0.0
 40
0.3
 50
-90.0
 51
-0.0
  0
POLYLINE
  8
Group083
 62
0
 70
0
 66
1
 10
0.0
 20
0.0
 30
0.0
  0
VERTEX
  8
Group083
 10
383.825
 20
-21.575
 30
0.0
  0
VERTEX
  8
Group083
 10
397.225
 20
-21.575
 30
0.0
  0
SEQEND
  8
Group083
  0
POLYLINE
  8
Group083
 62
0
 70
0
 66
1
 10
0.0
 20
0.0
 30
0.0
  0
VERTEX
  8
Group083
 10
397.525
 20
-21.875
 30
0.0
  0
VERTEX
  8
Group083
 10
397.525
 20
-35.275
 30
0.0
  0
SEQEND
  8
Group083
  0
POLYLINE
  8
Group083
 62
0
 70
0
 66
1
 10
0.0
 20
0.0
 30
0.0
  0
VERTEX
  8
Group083
 10
397.225
 20
-35.575
 30
0.0
  0
VERTEX
  8
Group083
 10
383.82500000000005
 20
-35.575
 30
0.0
  0
SEQEND
  8
Group083
  0
POLYLINE
  8
Group083
 62
0
 70
0
 66
1
 10
0.0
 20
0.0
 30
0.0
  0
VERTEX
  8
Group083
 10
383.525
 20
-35.275
 30
0.0
  0
VERTEX
  8
Group083
 10
383.525
 20
-21.875
 30
0.0
  0
SEQEND
  8
Group083
  0
ARC
  8
Group086
 62
0
 10
345.72499999999997
 20
-40.925
 30
0.0
 40
0.3
 50
90.0
 51
-180.0
  0
ARC
  8
Group086
 62
0
 10
345.72499999999997
 20
-54.325
 30
0.0
 40
0.3
 50
-180.0
 51
-90.0
  0
ARC
  8
Group086
 62
0
 10
359.125
 20
-40.925
 30
0.0
 40
0.3
 50
-0.0
 51
90.0
  0
ARC
  8
Group086
 62
0
 10
359.125
 20
-54.325
 30
0.0
 40
0.3
 50
-90.0
 51
-0.0
  0
POLYLINE
  8
Group086
 62
0
 70
0
 66
1
 10
0.0
 20
0.0
 30
0.0
  0
VERTEX
  8
Group086
 10
345.72499999999997
 20
-40.625
 30
0.0
  0
VERTEX
  8
Group086
 10
359.125
 20
-40.625
 30
0.0
  0
SEQEND
  8
Group086
  0
POLYLINE
  8
Group086
 62
0
 70
0
 66
1
 10
0.0
 20
0.0
 30
0.0
  0
VERTEX
  8
Group086
 10
359.42499999999995
 20
-40.925
 30
0.0
  0
VERTEX
  8
Group086
 10
359.42499999999995
 20
-54.324999999999996
 30
0.0
  0
SEQEND
  8
Group086
  0
POLYLINE
  8
Group086
 62
0
 70
0
 66
1
 10
0.0
 20
0.0
 30
0.0
  0
VERTEX
  8
Group086
 10
359.125
 20
-54.625
 30
0.0
  0
VERTEX
  8
Group086
 10
345.725
 20
-54.625
 30
0.0
  0
SEQEND
  8
Group086
  0
POLYLINE
  8
Group086
 62
0
 70
0
 66
1
 10
0.0
 20
0.0
 30
0.0
  0
VERTEX
  8
Group086
 10
345.42499999999995
 20
-54.325
 30
0.0
  0
VERTEX
  8
Group086
 10
345.42499999999995
 20
-40.925000000000004
 30
0.0
  0
SEQEND
  8
Group086
  0
ARC
  8
Group089
 62
0
 10
364.775
 20
-40.925
 30
0.0
 40
0.3
 50
90.0
 51
-180.0
  0
ARC
  8
Group089
 62
0
 10
364.775
 20
-54.325
 30
0.0
 40
0.3
 50
-180.0
 51
-90.0
  0
ARC
  8
Group089
 62
0
 10
378.175
 20
-40.925
 30
0.0
 40
0.3
 50
-0.0
 51
90.0
  0
ARC
  8
Group089
 62
0
 10
378.175
 20
-54.325
 30
0.0
 40
0.3
 50
-90.0
 51
-0.0
  0
POLYLINE
  8
Group089
 62
0
 70
0
 66
1
 10
0.0
 20
0.0
 30
0.0
  0
VERTEX
  8
Group089
 10
364.775
 20
-40.625
 30
0.0
  0
VERTEX
  8
Group089
 10
378.175
 20
-40.625
 30
0.0
  0
SEQEND
  8
Group089
  0
POLYLINE
  8
Group089
 62
0
 70
0
 66
1
 10
0.0
 20
0.0
 30
0.0
  0
VERTEX
  8
Group089
 10
378.47499999999997
 20
-40.925
 30
0.0
  0
VERTEX
  8
Group089
 10
378.47499999999997
 20
-54.324999999999996
 30
0.0
  0
SEQEND
  8
Group089
  0
POLYLINE
  8
Group089
 62
0
 70
0
 66
1
 10
0.0
 20
0.0
 30
0.0
  0
VERTEX
  8
Group089
 10
378.175
 20
-54.625
 30
0.0
  0
VERTEX
  8
Group089
 10
364.77500000000003
 20
-54.625
 30
0.0
  0
SEQEND
  8
Group089
  0
POLYLINE
  8
Group089
 62
0
 70
0
 66
1
 10
0.0
 20
0.0
 30
0.0
  0
VERTEX
  8
Group089
 10
364.47499999999997
 20
-54.325
 30
0.0
  0
VERTEX
  8
Group089
 10
364.47499999999997
 20
-40.925000000000004
 30
0.0
  0
SEQEND
  8
Group089
  0
ARC
  8
Group090
 62
0
 10
383.825
 20
-40.925
 30
0.0
 40
0.3
 50
90.0
 51
-180.0
  0
ARC
  8
Group090
 62
0
 10
383.825
 20
-54.325
 30
0.0
 40
0.3
 50
-180.0
 51
-90.0
  0
ARC
  8
Group090
 62
0
 10
397.225
 20
-40.925
 30
0.0
 40
0.3
 50
-0.0
 51
90.0
  0
ARC
  8
Group090
 62
0
 10
397.225
 20
-54.325
 30
0.0
 40
0.3
 50
-90.0
 51
-0.0
  0
POLYLINE
  8
Group090
 62
0
 70
0
 66
1
 10
0.0
 20
0.0
 30
0.0
  0
VERTEX
  8
Group090
 10
383.825
 20
-40.625
 30
0.0
  0
VERTEX
  8
Group090
 10
397.225
 20
-40.625
 30
0.0
  0
SEQEND
  8
Group090
  0
POLYLINE
  8
Group090
 62
0
 70
0
 66
1
 10
0.0
 20
0.0
 30
0.0
  0
VERTEX
  8
Group090
 10
397.525
 20
-40.925
 30
0.0
  0
VERTEX
  8
Group090
 10
397.525
 20
-54.324999999999996
 30
0.0
  0
SEQEND
  8
Group090
  0
POLYLINE
  8
Group090
 62
0
 70
0
 66
1
 10
0.0
 20
0.0
 30
0.0
  0
VERTEX
  8
Group090
 10
397.225
 20
-54.625
 30
0.0
  0
VERTEX
  8
Group090
 10
383.82500000000005
 20
-54.625
 30
0.0
  0
SEQEND
  8
Group090
  0
POLYLINE
  8
Group090
 62
0
 70
0
 66
1
 10
0.0
 20
0.0
 30
0.0
  0
VERTEX
  8
Group090
 10
383.525
 20
-54.325
 30
0.0
  0
VERTEX
  8
Group090
 10
383.525
 20
-40.925000000000004
 30
0.0
  0
SEQEND
  8
Group090
  0
ARC
  8
Group091
 62
0
 10
345.72499999999997
 20
-59.975
 30
0.0
 40
0.3
 50
90.0
 51
-180.0
  0
ARC
  8
Group091
 62
0
 10
345.72499999999997
 20
-73.375
 30
0.0
 40
0.3
 50
-180.0
 51
-90.0
  0
ARC
  8
Group091
 62
0
 10
359.125
 20
-59.975
 30
0.0
 40
0.3
 50
-0.0
 51
90.0
  0
ARC
  8
Group091
 62
0
 10
359.125
 20
-73.375
 30
0.0
 40
0.3
 50
-90.0
 51
-0.0
  0
POLYLINE
  8
Group091
 62
0
 70
0
 66
1
 10
0.0
 20
0.0
 30
0.0
  0
VERTEX
  8
Group091
 10
345.72499999999997
 20
-59.675000000000004
 30
0.0
  0
VERTEX
  8
Group091
 10
359.125
 20
-59.675000000000004
 30
0.0
  0
SEQEND
  8
Group091
  0
POLYLINE
  8
Group091
 62
0
 70
0
 66
1
 10
0.0
 20
0.0
 30
0.0
  0
VERTEX
  8
Group091
 10
359.42499999999995
 20
-59.975
 30
0.0
  0
VERTEX
  8
Group091
 10
359.42499999999995
 20
-73.375
 30
0.0
  0
SEQEND
  8
Group091
  0
POLYLINE
  8
Group091
 62
0
 70
0
 66
1
 10
0.0
 20
0.0
 30
0.0
  0
VERTEX
  8
Group091
 10
359.125
 20
-73.67500000000001
 30
0.0
  0
VERTEX
  8
Group091
 10
345.725
 20
-73.67500000000001
 30
0.0
  0
SEQEND
  8
Group091
  0
POLYLINE
  8
Group091
 62
0
 70
0
 66
1
 10
0.0
 20
0.0
 30
0.0
  0
VERTEX
  8
Group091
 10
345.42499999999995
 20
-73.375
 30
0.0
  0
VERTEX
  8
Group091
 10
345.42499999999995
 20
-59.975
 30
0.0
  0
SEQEND
  8
Group091
  0
ARC
  8
Group095
 62
0
 10
364.775
 20
-59.975
 30
0.0
 40
0.3
 50
90.0
 51
-180.0
  0
ARC
  8
Group095
 62
0
 10
364.775
 20
-73.375
 30
0.0
 40
0.3
 50
-180.0
 51
-90.0
  0
ARC
  8
Group095
 62
0
 10
378.175
 20
-59.975
 30
0.0
 40
0.3
 50
-0.0
 51
90.0
  0
ARC
  8
Group095
 62
0
 10
378.175
 20
-73.375
 30
0.0
 40
0.3
 50
-90.0
 51
-0.0
  0
POLYLINE
  8
Group095
 62
0
 70
0
 66
1
 10
0.0
 20
0.0
 30
0.0
  0
VERTEX
  8
Group095
 10
364.775
 20
-59.675000000000004
 30
0.0
  0
VERTEX
  8
Group095
 10
378.175
 20
-59.675000000000004
 30
0.0
  0
SEQEND
  8
Group095
  0
POLYLINE
  8
Group095
 62
0
 70
0
 66
1
 10
0.0
 20
0.0
 30
0.0
  0
VERTEX
  8
Group095
 10
378.47499999999997
 20
-59.975
 30
0.0
  0
VERTEX
  8
Group095
 10
378.47499999999997
 20
-73.375
 30
0.0
  0
SEQEND
  8
Group095
  0
POLYLINE
  8
Group095
 62
0
 70
0
 66
1
 10
0.0
 20
0.0
 30
0.0
  0
VERTEX
  8
Group095
 10
378.175
 20
-73.67500000000001
 30
0.0
  0
VERTEX
  8
Group095
 10
364.77500000000003
 20
-73.67500000000001
 30
0.0
  0
SEQEND
  8
Group095
  0
POLYLINE
  8
Group095
 62
0
 70
0
 66
1
 10
0.0
 20
0.0
 30
0.0
  0
VERTEX
  8
Group095
 10
364.47499999999997
 20
-73.375
 30
0.0
  0
VERTEX
  8
Group095
 10
364.47499999999997
 20
-59.975
 30
0.0
  0
SEQEND
  8
Group095
  0
ARC
  8
Group092
 62
0
 10
383.825
 20
-59.975
 30
0.0
 40
0.3
 50
90.0
 51
-180.0
  0
ARC
  8
Group092
 62
0
 10
383.825
 20
-73.375
 30
0.0
 40
0.3
 50
-180.0
 51
-90.0
  0
ARC
  8
Group092
 62
0
 10
397.225
 20
-59.975
 30
0.0
 40
0.3
 50
-0.0
 51
90.0
  0
ARC
  8
Group092
 62
0
 10
397.225
 20
-73.375
 30
0.0
 40
0.3
 50
-90.0
 51
-0.0
  0
POLYLINE
  8
Group092
 62
0
 70
0
 66
1
 10
0.0
 20
0.0
 30
0.0
  0
VERTEX
  8
Group092
 10
383.825
 20
-59.675000000000004
 30
0.0
  0
VERTEX
  8
Group092
 10
397.225
 20
-59.675000000000004
 30
0.0
  0
SEQEND
  8
Group092
  0
POLYLINE
  8
Group092
 62
0
 70
0
 66
1
 10
0.0
 20
0.0
 30
0.0
  0
VERTEX
  8
Group092
 10
397.525
 20
-59.975
 30
0.0
  0
VERTEX
  8
Group092
 10
397.525
 20
-73.375
 30
0.0
  0
SEQEND
  8
Group092
  0
POLYLINE
  8
Group092
 62
0
 70
0
 66
1
 10
0.0
 20
0.0
 30
0.0
  0
VERTEX
  8
Group092
 10
397.225
 20
-73.67500000000001
 30
0.0
  0
VERTEX
  8
Group092
 10
383.82500000000005
 20
-73.67500000000001
 30
0.0
  0
SEQEND
  8
Group092
  0
POLYLINE
  8
Group092
 62
0
 70
0
 66
1
 10
0.0
 20
0.0
 30
0.0
  0
VERTEX
  8
Group092
 10
383.525
 20
-73.375
 30
0.0
  0
VERTEX
  8
Group092
 10
383.525
 20
-59.975
 30
0.0
  0
SEQEND
  8
Group092
  0
ARC
  8
Group099
 62
0
 10
355.25
 20
-79.025
 30
0.0
 40
0.3
 50
90.0
 51
-180.0
  0
ARC
  8
Group099
 62
0
 10
355.25
 20
-92.42500000000001
 30
0.0
 40
0.3
 50
-180.0
 51
-90.0
  0
ARC
  8
Group099
 62
0
 10
368.65000000000003
 20
-79.025
 30
0.0
 40
0.3
 50
-0.0
 51
90.0
  0
ARC
  8
Group099
 62
0
 10
368.65000000000003
 20
-92.42500000000001
 30
0.0
 40
0.3
 50
-90.0
 51
-0.0
  0
POLYLINE
  8
Group099
 62
0
 70
0
 66
1
 10
0.0
 20
0.0
 30
0.0
  0
VERTEX
  8
Group099
 10
355.25
 20
-78.72500000000002
 30
0.0
  0
VERTEX
  8
Group099
 10
368.65000000000003
 20
-78.72500000000002
 30
0.0
  0
SEQEND
  8
Group099
  0
POLYLINE
  8
Group099
 62
0
 70
0
 66
1
 10
0.0
 20
0.0
 30
0.0
  0
VERTEX
  8
Group099
 10
368.65000000000003
 20
-92.72500000000002
 30
0.0
  0
VERTEX
  8
Group099
 10
355.25000000000006
 20
-92.72500000000002
 30
0.0
  0
SEQEND
  8
Group099
  0
POLYLINE
  8
right004
 62
0
 70
0
 66
1
 10
0.0
 20
0.0
 30
0.0
  0
VERTEX
  8
right004
 10
378.05000000000007
 20
-88.02500000000006
 30
0.0
  0
VERTEX
  8
right004
 10
378.05000000000007
 20
-85.22500000000007
 30
0.0
  0
SEQEND
  8
right004
  0
POLYLINE
  8
right004
 62
0
 70
0
 66
1
 10
0.0
 20
0.0
 30
0.0
  0
VERTEX
  8
right004
 10
377.17500000000007
 20
-91.25500000000005
 30
0.0
  0
VERTEX
  8
right004
 10
370.5250000000001
 20
-91.25500000000005
 30
0.0
  0
SEQEND
  8
right004
  0
POLYLINE
  8
right004
 62
0
 70
0
 66
1
 10
0.0
 20
0.0
 30
0.0
  0
VERTEX
  8
right004
 10
375.3500000000001
 20
-77.75500000000005
 30
0.0
  0
VERTEX
  8
right004
 10
372.3500000000001
 20
-77.75500000000005
 30
0.0
  0
SEQEND
  8
right004
  0
POLYLINE
  8
right004
 62
0
 70
0
 66
1
 10
0.0
 20
0.0
 30
0.0
  0
VERTEX
  8
right004
 10
377.17500000000007
 20
-78.95500000000007
 30
0.0
  0
VERTEX
  8
right004
 10
375.3500000000001
 20
-78.95500000000007
 30
0.0
  0
SEQEND
  8
right004
  0
POLYLINE
  8
right004
 62
0
 70
0
 66
1
 10
0.0
 20
0.0
 30
0.0
  0
VERTEX
  8
right004
 10
375.3500000000001
 20
-77.75500000000005
 30
0.0
  0
VERTEX
  8
right004
 10
375.3500000000001
 20
-78.95500000000006
 30
0.0
  0
SEQEND
  8
right004
  0
POLYLINE
  8
right004
 62
0
 70
0
 66
1
 10
0.0
 20
0.0
 30
0.0
  0
VERTEX
  8
right004
 10
372.3500000000001
 20
-77.75500000000005
 30
0.0
  0
VERTEX
  8
right004
 10
372.3500000000001
 20
-78.95500000000006
 30
0.0
  0
SEQEND
  8
right004
  0
POLYLINE
  8
right004
 62
0
 70
0
 66
1
 10
0.0
 20
0.0
 30
0.0
  0
VERTEX
  8
right004
 10
372.3500000000001
 20
-78.95500000000007
 30
0.0
  0
VERTEX
  8
right004
 10
370.5250000000001
 20
-78.95500000000007
 30
0.0
  0
SEQEND
  8
right004
  0
POLYLINE
  8
right004
 62
0
 70
0
 66
1
 10
0.0
 20
0.0
 30
0.0
  0
VERTEX
  8
right004
 10
370.5250000000001
 20
-78.95500000000007
 30
0.0
  0
VERTEX
  8
right004
 10
370.5250000000001
 20
-79.75500000000007
 30
0.0
  0
SEQEND
  8
right004
  0
POLYLINE
  8
right004
 62
0
 70
0
 66
1
 10
0.0
 20
0.0
 30
0.0
  0
VERTEX
  8
right004
 10
370.5250000000001
 20
-79.75500000000005
 30
0.0
  0
VERTEX
  8
right004
 10
368.9500000000001
 20
-79.75500000000005
 30
0.0
  0
SEQEND
  8
right004
  0
POLYLINE
  8
right004
 62
0
 70
0
 66
1
 10
0.0
 20
0.0
 30
0.0
  0
VERTEX
  8
right004
 10
370.5250000000001
 20
-91.25500000000005
 30
0.0
  0
VERTEX
  8
right004
 10
370.5250000000001
 20
-90.45500000000006
 30
0.0
  0
SEQEND
  8
right004
  0
POLYLINE
  8
right004
 62
0
 70
0
 66
1
 10
0.0
 20
0.0
 30
0.0
  0
VERTEX
  8
right004
 10
370.5250000000001
 20
-90.45500000000007
 30
0.0
  0
VERTEX
  8
right004
 10
368.9500000000001
 20
-90.45500000000007
 30
0.0
  0
SEQEND
  8
right004
  0
POLYLINE
  8
right004
 62
0
 70
0
 66
1
 10
0.0
 20
0.0
 30
0.0
  0
VERTEX
  8
right004
 10
378.05000000000007
 20
-85.22500000000005
 30
0.0
  0
VERTEX
  8
right004
 10
377.17500000000007
 20
-85.22500000000005
 30
0.0
  0
SEQEND
  8
right004
  0
POLYLINE
  8
right004
 62
0
 70
0
 66
1
 10
0.0
 20
0.0
 30
0.0
  0
VERTEX
  8
right004
 10
378.05000000000007
 20
-88.02500000000006
 30
0.0
  0
VERTEX
  8
right004
 10
377.17500000000007
 20
-88.02500000000006
 30
0.0
  0
SEQEND
  8
right004
  0
POLYLINE
  8
right004
 62
0
 70
0
 66
1
 10
0.0
 20
0.0
 30
0.0
  0
VERTEX
  8
right004
 10
368.9500000000001
 20
-90.45500000000007
 30
0.0
  0
VERTEX
  8
right004
 10
368.9500000000001
 20
-92.42500000000005
 30
0.0
  0
SEQEND
  8
right004
  0
POLYLINE
  8
right004
 62
0
 70
0
 66
1
 10
0.0
 20
0.0
 30
0.0
  0
VERTEX
  8
right004
 10
368.9500000000001
 20
-79.75500000000005
 30
0.0
  0
VERTEX
  8
right004
 10
368.9500000000001
 20
-79.02500000000005
 30
0.0
  0
SEQEND
  8
right004
  0
POLYLINE
  8
right004
 62
0
 70
0
 66
1
 10
0.0
 20
0.0
 30
0.0
  0
VERTEX
  8
right004
 10
377.17500000000007
 20
-85.22500000000005
 30
0.0
  0
VERTEX
  8
right004
 10
377.17500000000007
 20
-78.95500000000006
 30
0.0
  0
SEQEND
  8
right004
  0
POLYLINE
  8
right004
 62
0
 70
0
 66
1
 10
0.0
 20
0.0
 30
0.0
  0
VERTEX
  8
right004
 10
377.17500000000007
 20
-88.02500000000006
 30
0.0
  0
VERTEX
  8
right004
 10
377.17500000000007
 20
-91.25500000000007
 30
0.0
  0
SEQEND
  8
right004
  0
POLYLINE
  8
left004
 62
0
 70
0
 66
1
 10
0.0
 20
0.0
 30
0.0
  0
VERTEX
  8
left004
 10
345.8500000000001
 20
-88.02500000000006
 30
0.0
  0
VERTEX
  8
left004
 10
345.8500000000001
 20
-85.22500000000007
 30
0.0
  0
SEQEND
  8
left004
  0
POLYLINE
  8
left004
 62
0
 70
0
 66
1
 10
0.0
 20
0.0
 30
0.0
  0
VERTEX
  8
left004
 10
353.37500000000006
 20
-91.25500000000005
 30
0.0
  0
VERTEX
  8
left004
 10
346.7250000000001
 20
-91.25500000000005
 30
0.0
  0
SEQEND
  8
left004
  0
POLYLINE
  8
left004
 62
0
 70
0
 66
1
 10
0.0
 20
0.0
 30
0.0
  0
VERTEX
  8
left004
 10
351.55000000000007
 20
-77.75500000000005
 30
0.0
  0
VERTEX
  8
left004
 10
348.55000000000007
 20
-77.75500000000005
 30
0.0
  0
SEQEND
  8
left004
  0
POLYLINE
  8
left004
 62
0
 70
0
 66
1
 10
0.0
 20
0.0
 30
0.0
  0
VERTEX
  8
left004
 10
353.37500000000006
 20
-78.95500000000007
 30
0.0
  0
VERTEX
  8
left004
 10
351.55000000000007
 20
-78.95500000000007
 30
0.0
  0
SEQEND
  8
left004
  0
POLYLINE
  8
left004
 62
0
 70
0
 66
1
 10
0.0
 20
0.0
 30
0.0
  0
VERTEX
  8
left004
 10
351.55000000000007
 20
-77.75500000000005
 30
0.0
  0
VERTEX
  8
left004
 10
351.55000000000007
 20
-78.95500000000006
 30
0.0
  0
SEQEND
  8
left004
  0
POLYLINE
  8
left004
 62
0
 70
0
 66
1
 10
0.0
 20
0.0
 30
0.0
  0
VERTEX
  8
left004
 10
348.55000000000007
 20
-77.75500000000005
 30
0.0
  0
VERTEX
  8
left004
 10
348.55000000000007
 20
-78.95500000000006
 30
0.0
  0
SEQEND
  8
left004
  0
POLYLINE
  8
left004
 62
0
 70
0
 66
1
 10
0.0
 20
0.0
 30
0.0
  0
VERTEX
  8
left004
 10
348.55000000000007
 20
-78.95500000000007
 30
0.0
  0
VERTEX
  8
left004
 10
346.7250000000001
 20
-78.95500000000007
 30
0.0
  0
SEQEND
  8
left004
  0
POLYLINE
  8
left004
 62
0
 70
0
 66
1
 10
0.0
 20
0.0
 30
0.0
  0
VERTEX
  8
left004
 10
353.3750000000001
 20
-78.95500000000007
 30
0.0
  0
VERTEX
  8
left004
 10
353.3750000000001
 20
-79.75500000000007
 30
0.0
  0
SEQEND
  8
left004
  0
POLYLINE
  8
left004
 62
0
 70
0
 66
1
 10
0.0
 20
0.0
 30
0.0
  0
VERTEX
  8
left004
 10
354.9500000000001
 20
-79.75500000000007
 30
0.0
  0
VERTEX
  8
left004
 10
353.3750000000001
 20
-79.75500000000007
 30
0.0
  0
SEQEND
  8
left004
  0
POLYLINE
  8
left004
 62
0
 70
0
 66
1
 10
0.0
 20
0.0
 30
0.0
  0
VERTEX
  8
left004
 10
353.3750000000001
 20
-91.25500000000007
 30
0.0
  0
VERTEX
  8
left004
 10
353.3750000000001
 20
-90.45500000000007
 30
0.0
  0
SEQEND
  8
left004
  0
POLYLINE
  8
left004
 62
0
 70
0
 66
1
 10
0.0
 20
0.0
 30
0.0
  0
VERTEX
  8
left004
 10
354.9500000000001
 20
-90.45500000000007
 30
0.0
  0
VERTEX
  8
left004
 10
353.3750000000001
 20
-90.45500000000007
 30
0.0
  0
SEQEND
  8
left004
  0
POLYLINE
  8
left004
 62
0
 70
0
 66
1
 10
0.0
 20
0.0
 30
0.0
  0
VERTEX
  8
left004
 10
346.7250000000001
 20
-85.22500000000005
 30
0.0
  0
VERTEX
  8
left004
 10
345.8500000000001
 20
-85.22500000000005
 30
0.0
  0
SEQEND
  8
left004
  0
POLYLINE
  8
left004
 62
0
 70
0
 66
1
 10
0.0
 20
0.0
 30
0.0
  0
VERTEX
  8
left004
 10
346.7250000000001
 20
-88.02500000000006
 30
0.0
  0
VERTEX
  8
left004
 10
345.8500000000001
 20
-88.02500000000006
 30
0.0
  0
SEQEND
  8
left004
  0
POLYLINE
  8
left004
 62
0
 70
0
 66
1
 10
0.0
 20
0.0
 30
0.0
  0
VERTEX
  8
left004
 10
354.9500000000001
 20
-90.45500000000007
 30
0.0
  0
VERTEX
  8
left004
 10
354.9500000000001
 20
-92.42500000000005
 30
0.0
  0
SEQEND
  8
left004
  0
POLYLINE
  8
left004
 62
0
 70
0
 66
1
 10
0.0
 20
0.0
 30
0.0
  0
VERTEX
  8
left004
 10
354.9500000000001
 20
-79.75500000000007
 30
0.0
  0
VERTEX
  8
left004
 10
354.9500000000001
 20
-79.02500000000006
 30
0.0
  0
SEQEND
  8
left004
  0
POLYLINE
  8
left004
 62
0
 70
0
 66
1
 10
0.0
 20
0.0
 30
0.0
  0
VERTEX
  8
left004
 10
346.7250000000001
 20
-85.22500000000005
 30
0.0
  0
VERTEX
  8
left004
 10
346.7250000000001
 20
-78.95500000000006
 30
0.0
  0
SEQEND
  8
left004
  0
POLYLINE
  8
left004
 62
0
 70
0
 66
1
 10
0.0
 20
0.0
 30
0.0
  0
VERTEX
  8
left004
 10
346.7250000000001
 20
-88.02500000000006
 30
0.0
  0
VERTEX
  8
left004
 10
346.7250000000001
 20
-91.25500000000007
 30
0.0
  0
SEQEND
  8
left004
  0
ARC
  8
Group100
 62
0
 10
383.825
 20
-79.025
 30
0.0
 40
0.3
 50
90.0
 51
-180.0
  0
ARC
  8
Group100
 62
0
 10
383.825
 20
-92.42500000000001
 30
0.0
 40
0.3
 50
-180.0
 51
-90.0
  0
ARC
  8
Group100
 62
0
 10
397.225
 20
-79.025
 30
0.0
 40
0.3
 50
-0.0
 51
90.0
  0
ARC
  8
Group100
 62
0
 10
397.225
 20
-92.42500000000001
 30
0.0
 40
0.3
 50
-90.0
 51
-0.0
  0
POLYLINE
  8
Group100
 62
0
 70
0
 66
1
 10
0.0
 20
0.0
 30
0.0
  0
VERTEX
  8
Group100
 10
383.825
 20
-78.72500000000002
 30
0.0
  0
VERTEX
  8
Group100
 10
397.225
 20
-78.72500000000002
 30
0.0
  0
SEQEND
  8
Group100
  0
POLYLINE
  8
Group100
 62
0
 70
0
 66
1
 10
0.0
 20
0.0
 30
0.0
  0
VERTEX
  8
Group100
 10
397.525
 20
-79.025
 30
0.0
  0
VERTEX
  8
Group100
 10
397.525
 20
-92.42500000000001
 30
0.0
  0
SEQEND
  8
Group100
  0
POLYLINE
  8
Group100
 62
0
 70
0
 66
1
 10
0.0
 20
0.0
 30
0.0
  0
VERTEX
  8
Group100
 10
397.225
 20
-92.72500000000002
 30
0.0
  0
VERTEX
  8
Group100
 10
383.82500000000005
 20
-92.72500000000002
 30
0.0
  0
SEQEND
  8
Group100
  0
POLYLINE
  8
Group100
 62
0
 70
0
 66
1
 10
0.0
 20
0.0
 30
0.0
  0
VERTEX
  8
Group100
 10
383.525
 20
-92.42500000000001
 30
0.0
  0
VERTEX
  8
Group100
 10
383.525
 20
-79.025
 30
0.0
  0
SEQEND
  8
Group100
  0
ARC
  8
plus
 62
0
 10
402.875
 20
-44.800000000000026
 30
0.0
 40
0.3
 50
-180.0
 51
-90.0
  0
ARC
  8
plus
 62
0
 10
416.27500000000003
 20
-44.800000000000026
 30
0.0
 40
0.3
 50
-90.0
 51
-0.0
  0
ARC
  8
plus
 62
0
 10
402.875
 20
-31.39999999999999
 30
0.0
 40
0.3
 50
90.0
 51
-180.0
  0
ARC
  8
plus
 62
0
 10
416.27500000000003
 20
-31.39999999999999
 30
0.0
 40
0.3
 50
-0.0
 51
90.0
  0
POLYLINE
  8
plus
 62
0
 70
0
 66
1
 10
0.0
 20
0.0
 30
0.0
  0
VERTEX
  8
plus
 10
402.57500000000005
 20
-44.800000000000026
 30
0.0
  0
VERTEX
  8
plus
 10
402.57500000000005
 20
-31.399999999999995
 30
0.0
  0
SEQEND
  8
plus
  0
POLYLINE
  8
plus
 62
0
 70
0
 66
1
 10
0.0
 20
0.0
 30
0.0
  0
VERTEX
  8
plus
 10
416.57500000000005
 20
-31.39999999999999
 30
0.0
  0
VERTEX
  8
plus
 10
416.57500000000005
 20
-44.79999999999997
 30
0.0
  0
SEQEND
  8
plus
  0
POLYLINE
  8
right005
 62
0
 70
0
 66
1
 10
0.0
 20
0.0
 30
0.0
  0
VERTEX
  8
right005
 10
411.8750000000001
 20
-22.0
 30
0.0
  0
VERTEX
  8
right005
 10
409.0750000000001
 20
-22.0
 30
0.0
  0
SEQEND
  8
right005
  0
POLYLINE
  8
right005
 62
0
 70
0
 66
1
 10
0.0
 20
0.0
 30
0.0
  0
VERTEX
  8
right005
 10
415.10500000000013
 20
-22.875
 30
0.0
  0
VERTEX
  8
right005
 10
415.10500000000013
 20
-29.524999999999977
 30
0.0
  0
SEQEND
  8
right005
  0
POLYLINE
  8
right005
 62
0
 70
0
 66
1
 10
0.0
 20
0.0
 30
0.0
  0
VERTEX
  8
right005
 10
401.60500000000013
 20
-24.69999999999999
 30
0.0
  0
VERTEX
  8
right005
 10
401.60500000000013
 20
-27.69999999999999
 30
0.0
  0
SEQEND
  8
right005
  0
POLYLINE
  8
right005
 62
0
 70
0
 66
1
 10
0.0
 20
0.0
 30
0.0
  0
VERTEX
  8
right005
 10
402.8050000000001
 20
-22.875
 30
0.0
  0
VERTEX
  8
right005
 10
402.8050000000001
 20
-24.69999999999999
 30
0.0
  0
SEQEND
  8
right005
  0
POLYLINE
  8
right005
 62
0
 70
0
 66
1
 10
0.0
 20
0.0
 30
0.0
  0
VERTEX
  8
right005
 10
401.60500000000013
 20
-24.69999999999999
 30
0.0
  0
VERTEX
  8
right005
 10
402.8050000000001
 20
-24.69999999999999
 30
0.0
  0
SEQEND
  8
right005
  0
POLYLINE
  8
right005
 62
0
 70
0
 66
1
 10
0.0
 20
0.0
 30
0.0
  0
VERTEX
  8
right005
 10
401.60500000000013
 20
-27.69999999999999
 30
0.0
  0
VERTEX
  8
right005
 10
402.8050000000001
 20
-27.69999999999999
 30
0.0
  0
SEQEND
  8
right005
  0
POLYLINE
  8
right005
 62
0
 70
0
 66
1
 10
0.0
 20
0.0
 30
0.0
  0
VERTEX
  8
right005
 10
402.8050000000001
 20
-27.69999999999999
 30
0.0
  0
VERTEX
  8
right005
 10
402.8050000000001
 20
-29.524999999999977
 30
0.0
  0
SEQEND
  8
right005
  0
POLYLINE
  8
right005
 62
0
 70
0
 66
1
 10
0.0
 20
0.0
 30
0.0
  0
VERTEX
  8
right005
 10
402.8050000000001
 20
-29.524999999999977
 30
0.0
  0
VERTEX
  8
right005
 10
403.60500000000013
 20
-29.524999999999977
 30
0.0
  0
SEQEND
  8
right005
  0
POLYLINE
  8
right005
 62
0
 70
0
 66
1
 10
0.0
 20
0.0
 30
0.0
  0
VERTEX
  8
right005
 10
403.60500000000013
 20
-29.524999999999977
 30
0.0
  0
VERTEX
  8
right005
 10
403.60500000000013
 20
-31.099999999999966
 30
0.0
  0
SEQEND
  8
right005
  0
POLYLINE
  8
right005
 62
0
 70
0
 66
1
 10
0.0
 20
0.0
 30
0.0
  0
VERTEX
  8
right005
 10
415.10500000000013
 20
-29.524999999999977
 30
0.0
  0
VERTEX
  8
right005
 10
414.3050000000001
 20
-29.524999999999977
 30
0.0
  0
SEQEND
  8
right005
  0
POLYLINE
  8
right005
 62
0
 70
0
 66
1
 10
0.0
 20
0.0
 30
0.0
  0
VERTEX
  8
right005
 10
414.3050000000001
 20
-29.524999999999977
 30
0.0
  0
VERTEX
  8
right005
 10
414.3050000000001
 20
-31.099999999999966
 30
0.0
  0
SEQEND
  8
right005
  0
POLYLINE
  8
right005
 62
0
 70
0
 66
1
 10
0.0
 20
0.0
 30
0.0
  0
VERTEX
  8
right005
 10
409.0750000000001
 20
-22.0
 30
0.0
  0
VERTEX
  8
right005
 10
409.0750000000001
 20
-22.875
 30
0.0
  0
SEQEND
  8
right005
  0
POLYLINE
  8
right005
 62
0
 70
0
 66
1
 10
0.0
 20
0.0
 30
0.0
  0
VERTEX
  8
right005
 10
411.8750000000001
 20
-22.0
 30
0.0
  0
VERTEX
  8
right005
 10
411.8750000000001
 20
-22.875
 30
0.0
  0
SEQEND
  8
right005
  0
POLYLINE
  8
right005
 62
0
 70
0
 66
1
 10
0.0
 20
0.0
 30
0.0
  0
VERTEX
  8
right005
 10
414.3050000000001
 20
-31.099999999999966
 30
0.0
  0
VERTEX
  8
right005
 10
416.2750000000001
 20
-31.099999999999966
 30
0.0
  0
SEQEND
  8
right005
  0
POLYLINE
  8
right005
 62
0
 70
0
 66
1
 10
0.0
 20
0.0
 30
0.0
  0
VERTEX
  8
right005
 10
403.60500000000013
 20
-31.099999999999966
 30
0.0
  0
VERTEX
  8
right005
 10
402.8750000000001
 20
-31.099999999999966
 30
0.0
  0
SEQEND
  8
right005
  0
POLYLINE
  8
right005
 62
0
 70
0
 66
1
 10
0.0
 20
0.0
 30
0.0
  0
VERTEX
  8
right005
 10
409.0750000000001
 20
-22.875
 30
0.0
  0
VERTEX
  8
right005
 10
402.8050000000001
 20
-22.875000000000004
 30
0.0
  0
SEQEND
  8
right005
  0
POLYLINE
  8
right005
 62
0
 70
0
 66
1
 10
0.0
 20
0.0
 30
0.0
  0
VERTEX
  8
right005
 10
411.8750000000001
 20
-22.875
 30
0.0
  0
VERTEX
  8
right005
 10
415.10500000000013
 20
-22.875
 30
0.0
  0
SEQEND
  8
right005
  0
POLYLINE
  8
left005
 62
0
 70
0
 66
1
 10
0.0
 20
0.0
 30
0.0
  0
VERTEX
  8
left005
 10
411.8750000000001
 20
-54.19999999999999
 30
0.0
  0
VERTEX
  8
left005
 10
409.0750000000001
 20
-54.19999999999999
 30
0.0
  0
SEQEND
  8
left005
  0
POLYLINE
  8
left005
 62
0
 70
0
 66
1
 10
0.0
 20
0.0
 30
0.0
  0
VERTEX
  8
left005
 10
415.10500000000013
 20
-46.67500000000001
 30
0.0
  0
VERTEX
  8
left005
 10
415.10500000000013
 20
-53.32499999999999
 30
0.0
  0
SEQEND
  8
left005
  0
POLYLINE
  8
left005
 62
0
 70
0
 66
1
 10
0.0
 20
0.0
 30
0.0
  0
VERTEX
  8
left005
 10
401.60500000000013
 20
-48.5
 30
0.0
  0
VERTEX
  8
left005
 10
401.60500000000013
 20
-51.5
 30
0.0
  0
SEQEND
  8
left005
  0
POLYLINE
  8
left005
 62
0
 70
0
 66
1
 10
0.0
 20
0.0
 30
0.0
  0
VERTEX
  8
left005
 10
402.8050000000001
 20
-46.67500000000001
 30
0.0
  0
VERTEX
  8
left005
 10
402.8050000000001
 20
-48.5
 30
0.0
  0
SEQEND
  8
left005
  0
POLYLINE
  8
left005
 62
0
 70
0
 66
1
 10
0.0
 20
0.0
 30
0.0
  0
VERTEX
  8
left005
 10
401.60500000000013
 20
-48.5
 30
0.0
  0
VERTEX
  8
left005
 10
402.8050000000001
 20
-48.5
 30
0.0
  0
SEQEND
  8
left005
  0
POLYLINE
  8
left005
 62
0
 70
0
 66
1
 10
0.0
 20
0.0
 30
0.0
  0
VERTEX
  8
left005
 10
401.60500000000013
 20
-51.5
 30
0.0
  0
VERTEX
  8
left005
 10
402.8050000000001
 20
-51.5
 30
0.0
  0
SEQEND
  8
left005
  0
POLYLINE
  8
left005
 62
0
 70
0
 66
1
 10
0.0
 20
0.0
 30
0.0
  0
VERTEX
  8
left005
 10
402.8050000000001
 20
-51.5
 30
0.0
  0
VERTEX
  8
left005
 10
402.8050000000001
 20
-53.32499999999999
 30
0.0
  0
SEQEND
  8
left005
  0
POLYLINE
  8
left005
 62
0
 70
0
 66
1
 10
0.0
 20
0.0
 30
0.0
  0
VERTEX
  8
left005
 10
402.8050000000001
 20
-46.674999999999955
 30
0.0
  0
VERTEX
  8
left005
 10
403.60500000000013
 20
-46.674999999999955
 30
0.0
  0
SEQEND
  8
left005
  0
POLYLINE
  8
left005
 62
0
 70
0
 66
1
 10
0.0
 20
0.0
 30
0.0
  0
VERTEX
  8
left005
 10
403.60500000000013
 20
-45.099999999999966
 30
0.0
  0
VERTEX
  8
left005
 10
403.60500000000013
 20
-46.674999999999955
 30
0.0
  0
SEQEND
  8
left005
  0
POLYLINE
  8
left005
 62
0
 70
0
 66
1
 10
0.0
 20
0.0
 30
0.0
  0
VERTEX
  8
left005
 10
415.10500000000013
 20
-46.674999999999955
 30
0.0
  0
VERTEX
  8
left005
 10
414.3050000000001
 20
-46.674999999999955
 30
0.0
  0
SEQEND
  8
left005
  0
POLYLINE
  8
left005
 62
0
 70
0
 66
1
 10
0.0
 20
0.0
 30
0.0
  0
VERTEX
  8
left005
 10
414.3050000000001
 20
-45.099999999999966
 30
0.0
  0
VERTEX
  8
left005
 10
414.3050000000001
 20
-46.674999999999955
 30
0.0
  0
SEQEND
  8
left005
  0
POLYLINE
  8
left005
 62
0
 70
0
 66
1
 10
0.0
 20
0.0
 30
0.0
  0
VERTEX
  8
left005
 10
409.0750000000001
 20
-53.32499999999999
 30
0.0
  0
VERTEX
  8
left005
 10
409.0750000000001
 20
-54.19999999999999
 30
0.0
  0
SEQEND
  8
left005
  0
POLYLINE
  8
left005
 62
0
 70
0
 66
1
 10
0.0
 20
0.0
 30
0.0
  0
VERTEX
  8
left005
 10
411.8750000000001
 20
-53.32499999999999
 30
0.0
  0
VERTEX
  8
left005
 10
411.8750000000001
 20
-54.19999999999999
 30
0.0
  0
SEQEND
  8
left005
  0
POLYLINE
  8
left005
 62
0
 70
0
 66
1
 10
0.0
 20
0.0
 30
0.0
  0
VERTEX
  8
left005
 10
414.3050000000001
 20
-45.099999999999966
 30
0.0
  0
VERTEX
  8
left005
 10
416.2750000000001
 20
-45.099999999999966
 30
0.0
  0
SEQEND
  8
left005
  0
POLYLINE
  8
left005
 62
0
 70
0
 66
1
 10
0.0
 20
0.0
 30
0.0
  0
VERTEX
  8
left005
 10
403.60500000000013
 20
-45.099999999999966
 30
0.0
  0
VERTEX
  8
left005
 10
402.8750000000001
 20
-45.099999999999966
 30
0.0
  0
SEQEND
  8
left005
  0
POLYLINE
  8
left005
 62
0
 70
0
 66
1
 10
0.0
 20
0.0
 30
0.0
  0
VERTEX
  8
left005
 10
409.0750000000001
 20
-53.32499999999999
 30
0.0
  0
VERTEX
  8
left005
 10
402.8050000000001
 20
-53.32499999999999
 30
0.0
  0
SEQEND
  8
left005
  0
POLYLINE
  8
left005
 62
0
 70
0
 66
1
 10
0.0
 20
0.0
 30
0.0
  0
VERTEX
  8
left005
 10
411.8750000000001
 20
-53.32499999999999
 30
0.0
  0
VERTEX
  8
left005
 10
415.10500000000013
 20
-53.32499999999999
 30
0.0
  0
SEQEND
  8
left005
  0
ARC
  8
enter001
 62
0
 10
402.875
 20
-82.90000000000008
 30
0.0
 40
0.3
 50
-180.0
 51
-90.0
  0
ARC
  8
enter001
 62
0
 10
416.27500000000003
 20
-82.90000000000008
 30
0.0
 40
0.3
 50
-90.0
 51
-0.0
  0
ARC
  8
enter001
 62
0
 10
402.875
 20
-69.50000000000004
 30
0.0
 40
0.3
 50
90.0
 51
-180.0
  0
ARC
  8
enter001
 62
0
 10
416.27500000000003
 20
-69.50000000000004
 30
0.0
 40
0.3
 50
-0.0
 51
90.0
  0
POLYLINE
  8
enter001
 62
0
 70
0
 66
1
 10
0.0
 20
0.0
 30
0.0
  0
VERTEX
  8
enter001
 10
402.57500000000005
 20
-82.90000000000008
 30
0.0
  0
VERTEX
  8
enter001
 10
402.57500000000005
 20
-69.50000000000004
 30
0.0
  0
SEQEND
  8
enter001
  0
POLYLINE
  8
enter001
 62
0
 70
0
 66
1
 10
0.0
 20
0.0
 30
0.0
  0
VERTEX
  8
enter001
 10
416.57500000000005
 20
-69.50000000000004
 30
0.0
  0
VERTEX
  8
enter001
 10
416.57500000000005
 20
-82.90000000000002
 30
0.0
  0
SEQEND
  8
enter001
  0
POLYLINE
  8
right006
 62
0
 70
0
 66
1
 10
0.0
 20
0.0
 30
0.0
  0
VERTEX
  8
right006
 10
411.8750000000001
 20
-60.10000000000005
 30
0.0
  0
VERTEX
  8
right006
 10
409.0750000000001
 20
-60.10000000000005
 30
0.0
  0
SEQEND
  8
right006
  0
POLYLINE
  8
right006
 62
0
 70
0
 66
1
 10
0.0
 20
0.0
 30
0.0
  0
VERTEX
  8
right006
 10
415.10500000000013
 20
-60.97500000000005
 30
0.0
  0
VERTEX
  8
right006
 10
415.10500000000013
 20
-67.62500000000003
 30
0.0
  0
SEQEND
  8
right006
  0
POLYLINE
  8
right006
 62
0
 70
0
 66
1
 10
0.0
 20
0.0
 30
0.0
  0
VERTEX
  8
right006
 10
401.60500000000013
 20
-62.80000000000004
 30
0.0
  0
VERTEX
  8
right006
 10
401.60500000000013
 20
-65.80000000000004
 30
0.0
  0
SEQEND
  8
right006
  0
POLYLINE
  8
right006
 62
0
 70
0
 66
1
 10
0.0
 20
0.0
 30
0.0
  0
VERTEX
  8
right006
 10
402.8050000000001
 20
-60.97500000000005
 30
0.0
  0
VERTEX
  8
right006
 10
402.8050000000001
 20
-62.80000000000004
 30
0.0
  0
SEQEND
  8
right006
  0
POLYLINE
  8
right006
 62
0
 70
0
 66
1
 10
0.0
 20
0.0
 30
0.0
  0
VERTEX
  8
right006
 10
401.60500000000013
 20
-62.80000000000004
 30
0.0
  0
VERTEX
  8
right006
 10
402.8050000000001
 20
-62.80000000000004
 30
0.0
  0
SEQEND
  8
right006
  0
POLYLINE
  8
right006
 62
0
 70
0
 66
1
 10
0.0
 20
0.0
 30
0.0
  0
VERTEX
  8
right006
 10
401.60500000000013
 20
-65.80000000000004
 30
0.0
  0
VERTEX
  8
right006
 10
402.8050000000001
 20
-65.80000000000004
 30
0.0
  0
SEQEND
  8
right006
  0
POLYLINE
  8
right006
 62
0
 70
0
 66
1
 10
0.0
 20
0.0
 30
0.0
  0
VERTEX
  8
right006
 10
402.8050000000001
 20
-65.80000000000004
 30
0.0
  0
VERTEX
  8
right006
 10
402.8050000000001
 20
-67.62500000000003
 30
0.0
  0
SEQEND
  8
right006
  0
POLYLINE
  8
right006
 62
0
 70
0
 66
1
 10
0.0
 20
0.0
 30
0.0
  0
VERTEX
  8
right006
 10
402.8050000000001
 20
-67.62500000000003
 30
0.0
  0
VERTEX
  8
right006
 10
403.60500000000013
 20
-67.62500000000003
 30
0.0
  0
SEQEND
  8
right006
  0
POLYLINE
  8
right006
 62
0
 70
0
 66
1
 10
0.0
 20
0.0
 30
0.0
  0
VERTEX
  8
right006
 10
403.60500000000013
 20
-67.62500000000003
 30
0.0
  0
VERTEX
  8
right006
 10
403.60500000000013
 20
-69.20000000000002
 30
0.0
  0
SEQEND
  8
right006
  0
POLYLINE
  8
right006
 62
0
 70
0
 66
1
 10
0.0
 20
0.0
 30
0.0
  0
VERTEX
  8
right006
 10
415.10500000000013
 20
-67.62500000000003
 30
0.0
  0
VERTEX
  8
right006
 10
414.3050000000001
 20
-67.62500000000003
 30
0.0
  0
SEQEND
  8
right006
  0
POLYLINE
  8
right006
 62
0
 70
0
 66
1
 10
0.0
 20
0.0
 30
0.0
  0
VERTEX
  8
right006
 10
414.3050000000001
 20
-67.62500000000003
 30
0.0
  0
VERTEX
  8
right006
 10
414.3050000000001
 20
-69.20000000000002
 30
0.0
  0
SEQEND
  8
right006
  0
POLYLINE
  8
right006
 62
0
 70
0
 66
1
 10
0.0
 20
0.0
 30
0.0
  0
VERTEX
  8
right006
 10
409.0750000000001
 20
-60.10000000000005
 30
0.0
  0
VERTEX
  8
right006
 10
409.0750000000001
 20
-60.97500000000005
 30
0.0
  0
SEQEND
  8
right006
  0
POLYLINE
  8
right006
 62
0
 70
0
 66
1
 10
0.0
 20
0.0
 30
0.0
  0
VERTEX
  8
right006
 10
411.8750000000001
 20
-60.10000000000005
 30
0.0
  0
VERTEX
  8
right006
 10
411.8750000000001
 20
-60.97500000000005
 30
0.0
  0
SEQEND
  8
right006
  0
POLYLINE
  8
right006
 62
0
 70
0
 66
1
 10
0.0
 20
0.0
 30
0.0
  0
VERTEX
  8
right006
 10
414.3050000000001
 20
-69.20000000000002
 30
0.0
  0
VERTEX
  8
right006
 10
416.2750000000001
 20
-69.20000000000003
 30
0.0
  0
SEQEND
  8
right006
  0
POLYLINE
  8
right006
 62
0
 70
0
 66
1
 10
0.0
 20
0.0
 30
0.0
  0
VERTEX
  8
right006
 10
403.60500000000013
 20
-69.20000000000002
 30
0.0
  0
VERTEX
  8
right006
 10
402.8750000000001
 20
-69.20000000000002
 30
0.0
  0
SEQEND
  8
right006
  0
POLYLINE
  8
right006
 62
0
 70
0
 66
1
 10
0.0
 20
0.0
 30
0.0
  0
VERTEX
  8
right006
 10
409.0750000000001
 20
-60.97500000000005
 30
0.0
  0
VERTEX
  8
right006
 10
402.8050000000001
 20
-60.97500000000006
 30
0.0
  0
SEQEND
  8
right006
  0
POLYLINE
  8
right006
 62
0
 70
0
 66
1
 10
0.0
 20
0.0
 30
0.0
  0
VERTEX
  8
right006
 10
411.8750000000001
 20
-60.97500000000005
 30
0.0
  0
VERTEX
  8
right006
 10
415.10500000000013
 20
-60.97500000000005
 30
0.0
  0
SEQEND
  8
right006
  0
POLYLINE
  8
left006
 62
0
 70
0
 66
1
 10
0.0
 20
0.0
 30
0.0
  0
VERTEX
  8
left006
 10
411.8750000000001
 20
-92.30000000000004
 30
0.0
  0
VERTEX
  8
left006
 10
409.0750000000001
 20
-92.30000000000004
 30
0.0
  0
SEQEND
  8
left006
  0
POLYLINE
  8
left006
 62
0
 70
0
 66
1
 10
0.0
 20
0.0
 30
0.0
  0
VERTEX
  8
left006
 10
415.10500000000013
 20
-84.77500000000006
 30
0.0
  0
VERTEX
  8
left006
 10
415.10500000000013
 20
-91.42500000000004
 30
0.0
  0
SEQEND
  8
left006
  0
POLYLINE
  8
left006
 62
0
 70
0
 66
1
 10
0.0
 20
0.0
 30
0.0
  0
VERTEX
  8
left006
 10
401.60500000000013
 20
-86.60000000000005
 30
0.0
  0
VERTEX
  8
left006
 10
401.60500000000013
 20
-89.60000000000005
 30
0.0
  0
SEQEND
  8
left006
  0
POLYLINE
  8
left006
 62
0
 70
0
 66
1
 10
0.0
 20
0.0
 30
0.0
  0
VERTEX
  8
left006
 10
402.8050000000001
 20
-84.77500000000006
 30
0.0
  0
VERTEX
  8
left006
 10
402.8050000000001
 20
-86.60000000000005
 30
0.0
  0
SEQEND
  8
left006
  0
POLYLINE
  8
left006
 62
0
 70
0
 66
1
 10
0.0
 20
0.0
 30
0.0
  0
VERTEX
  8
left006
 10
401.60500000000013
 20
-86.60000000000005
 30
0.0
  0
VERTEX
  8
left006
 10
402.8050000000001
 20
-86.60000000000005
 30
0.0
  0
SEQEND
  8
left006
  0
POLYLINE
  8
left006
 62
0
 70
0
 66
1
 10
0.0
 20
0.0
 30
0.0
  0
VERTEX
  8
left006
 10
401.60500000000013
 20
-89.60000000000005
 30
0.0
  0
VERTEX
  8
left006
 10
402.8050000000001
 20
-89.60000000000005
 30
0.0
  0
SEQEND
  8
left006
  0
POLYLINE
  8
left006
 62
0
 70
0
 66
1
 10
0.0
 20
0.0
 30
0.0
  0
VERTEX
  8
left006
 10
402.8050000000001
 20
-89.60000000000005
 30
0.0
  0
VERTEX
  8
left006
 10
402.8050000000001
 20
-91.42500000000004
 30
0.0
  0
SEQEND
  8
left006
  0
POLYLINE
  8
left006
 62
0
 70
0
 66
1
 10
0.0
 20
0.0
 30
0.0
  0
VERTEX
  8
left006
 10
402.8050000000001
 20
-84.775
 30
0.0
  0
VERTEX
  8
left006
 10
403.60500000000013
 20
-84.775
 30
0.0
  0
SEQEND
  8
left006
  0
POLYLINE
  8
left006
 62
0
 70
0
 66
1
 10
0.0
 20
0.0
 30
0.0
  0
VERTEX
  8
left006
 10
403.60500000000013
 20
-83.20000000000002
 30
0.0
  0
VERTEX
  8
left006
 10
403.60500000000013
 20
-84.775
 30
0.0
  0
SEQEND
  8
left006
  0
POLYLINE
  8
left006
 62
0
 70
0
 66
1
 10
0.0
 20
0.0
 30
0.0
  0
VERTEX
  8
left006
 10
415.10500000000013
 20
-84.775
 30
0.0
  0
VERTEX
  8
left006
 10
414.3050000000001
 20
-84.775
 30
0.0
  0
SEQEND
  8
left006
  0
POLYLINE
  8
left006
 62
0
 70
0
 66
1
 10
0.0
 20
0.0
 30
0.0
  0
VERTEX
  8
left006
 10
414.3050000000001
 20
-83.20000000000002
 30
0.0
  0
VERTEX
  8
left006
 10
414.3050000000001
 20
-84.775
 30
0.0
  0
SEQEND
  8
left006
  0
POLYLINE
  8
left006
 62
0
 70
0
 66
1
 10
0.0
 20
0.0
 30
0.0
  0
VERTEX
  8
left006
 10
409.0750000000001
 20
-91.42500000000004
 30
0.0
  0
VERTEX
  8
left006
 10
409.0750000000001
 20
-92.30000000000004
 30
0.0
  0
SEQEND
  8
left006
  0
POLYLINE
  8
left006
 62
0
 70
0
 66
1
 10
0.0
 20
0.0
 30
0.0
  0
VERTEX
  8
left006
 10
411.8750000000001
 20
-91.42500000000004
 30
0.0
  0
VERTEX
  8
left006
 10
411.8750000000001
 20
-92.30000000000004
 30
0.0
  0
SEQEND
  8
left006
  0
POLYLINE
  8
left006
 62
0
 70
0
 66
1
 10
0.0
 20
0.0
 30
0.0
  0
VERTEX
  8
left006
 10
414.3050000000001
 20
-83.20000000000002
 30
0.0
  0
VERTEX
  8
left006
 10
416.2750000000001
 20
-83.20000000000003
 30
0.0
  0
SEQEND
  8
left006
  0
POLYLINE
  8
left006
 62
0
 70
0
 66
1
 10
0.0
 20
0.0
 30
0.0
  0
VERTEX
  8
left006
 10
403.60500000000013
 20
-83.20000000000002
 30
0.0
  0
VERTEX
  8
left006
 10
402.8750000000001
 20
-83.20000000000002
 30
0.0
  0
SEQEND
  8
left006
  0
POLYLINE
  8
left006
 62
0
 70
0
 66
1
 10
0.0
 20
0.0
 30
0.0
  0
VERTEX
  8
left006
 10
409.0750000000001
 20
-91.42500000000004
 30
0.0
  0
VERTEX
  8
left006
 10
402.8050000000001
 20
-91.42500000000004
 30
0.0
  0
SEQEND
  8
left006
  0
POLYLINE
  8
left006
 62
0
 70
0
 66
1
 10
0.0
 20
0.0
 30
0.0
  0
VERTEX
  8
left006
 10
411.8750000000001
 20
-91.42500000000004
 30
0.0
  0
VERTEX
  8
left006
 10
415.10500000000013
 20
-91.42500000000004
 30
0.0
  0
SEQEND
  8
left006
  0
CIRCLE
  8
Border
 62
0
 10
-11.3
 20
-9.524999999999997
 30
0.0
 40
2.4
  0
CIRCLE
  8
Border
 62
0
 10
-11.3
 20
-85.72499999999998
 30
0.0
 40
2.4
  0
CIRCLE
  8
Border
 62
0
 10
430.40000000000003
 20
-9.52500000000012
 30
0.0
 40
2.4
  0
CIRCLE
  8
Border
 62
0
 10
430.40000000000003
 20
-85.72500000000011
 30
0.0
 40
2.4
  0
ARC
  8
Border
 62
0
 10
-15.5
 20
3.0
 30
0.0
 40
1.0
 50
90.0
 51
-180.0
  0
ARC
  8
Border
 62
0
 10
-15.5
 20
-98.2500000000001
 30
0.0
 40
1.0
 50
-180.0
 51
-90.0
  0
ARC
  8
Border
 62
0
 10
434.6
 20
-98.2500000000001
 30
0.0
 40
1.0
 50
-90.0
 51
-0.0
  0
ARC
  8
Border
 62
0
 10
434.6
 20
3.0
 30
0.0
 40
1.0
 50
-0.0
 51
90.0
  0
POLYLINE
  8
Border
 62
0
 70
0
 66
1
 10
0.0
 20
0.0
 30
0.0
  0
VERTEX
  8
Border
 10
-15.5
 20
4.0
 30
0.0
  0
VERTEX
  8
Border
 10
434.6
 20
4.0
 30
0.0
  0
SEQEND
  8
Border
  0
POLYLINE
  8
Border
 62
0
 70
0
 66
1
 10
0.0
 20
0.0
 30
0.0
  0
VERTEX
  8
Border
 10
435.6
 20
2.9999999999999996
 30
0.0
  0
VERTEX
  8
Border
 10
435.6
 20
-98.2500000000001
 30
0.0
  0
SEQEND
  8
Border
  0
POLYLINE
  8
Border
 62
0
 70
0
 66
1
 10
0.0
 20
0.0
 30
0.0
  0
VERTEX
  8
Border
 10
434.6
 20
-99.2500000000001
 30
0.0
  0
VERTEX
  8
Border
 10
-15.5
 20
-99.2500000000001
 30
0.0
  0
SEQEND
  8
Border
  0
POLYLINE
  8
Border
 62
0
 70
0
 66
1
 10
0.0
 20
0.0
 30
0.0
  0
VERTEX
  8
Border
 10
-16.5
 20
-98.2500000000001
 30
0.0
  0
VERTEX
  8
Border
 10
-16.5
 20
3.0
 30
0.0
  0
SEQEND
  8
Border
  0
ENDSEC
  0
EOF
