  0
SECTION
  2
HEADER
  9
$ACADVER
  1
AC1009
  9
$INSBASE
 10
0.0
 20
0.0
 30
0.0
  9
$EXTMIN
 10
0.0
 20
0.0
 30
0.0
  9
$EXTMAX
 10
0.0
 20
0.0
 30
0.0
  0
ENDSEC
  0
SECTION
  2
TABLES
  0
TABLE
  2
VPORT
 70
0
  0
ENDTAB
  0
TABLE
  2
LTYPE
 70
1
  0
LTYPE
  2
CONTINUOUS
 70
0
  3
Solid line
 72
65
 73
0
 40
0.0
  0
ENDTAB
  0
TABLE
  2
LAYER
 70
1
  0
LAYER
  2
0
 70
64
 62
7
  6
continuous
  0
ENDTAB
  0
TABLE
  2
STYLE
 70
1
  0
STYLE
  2
STANDARD
 70
0
 40
0
 41
1.0
 50
0.0
 71
0
 42
1
 3
ARIAL.TTF
 4

  0
ENDTAB
  0
TABLE
  2
VIEW
 70
0
  0
ENDTAB
  0
ENDSEC
  0
SECTION
  2
BLOCKS
  0
ENDSEC
  0
SECTION
  2
ENTITIES
  0
ARC
  8
5mm switch top
 62
0
 10
0.014222006914129
 20
-8.233118266e-06
 30
0.0
 40
1.0
 50
90.0
 51
-180.0
  0
ARC
  8
5mm switch top
 62
0
 10
419.0900502660467
 20
-8.107448748e-06
 30
0.0
 40
1.0
 50
0.0
 51
90.0
  0
ARC
  8
5mm switch top
 62
0
 10
0.014285759740744
 20
-95.23892194647371
 30
0.0
 40
1.0
 50
-180.0
 51
-90.00000000000001
  0
ARC
  8
5mm switch top
 62
0
 10
419.09011401887335
 20
-95.23892182080425
 30
0.0
 40
1.0
 50
-90.0
 51
-0.0
  0
ARC
  8
5mm switch top
 62
0
 10
4.764286063144739
 20
37.21067021237001
 30
0.0
 40
15.75
 50
90.0
 51
-180.0
  0
ARC
  8
5mm switch top
 62
0
 10
414.3400444696202
 20
37.21067021237002
 30
0.0
 40
15.75
 50
-0.0
 51
90.0
  0
ARC
  8
5mm switch top
 62
0
 10
4.761355857206198
 20
-90.4889300539225
 30
0.0
 40
15.75
 50
-180.0
 51
-90.00000000000001
  0
POLYLINE
  8
5mm switch top
 62
0
 70
0
 66
1
 10
0.0
 20
0.0
 30
0.0
  0
VERTEX
  8
5mm switch top
 10
-10.988644142793802
 20
-90.4889300539225
 30
0.0
  0
VERTEX
  8
5mm switch top
 10
-10.98571393685526
 20
37.21067021237002
 30
0.0
  0
SEQEND
  8
5mm switch top
  0
ARC
  8
5mm switch top
 62
0
 10
414.3371142636816
 20
-90.48893005392253
 30
0.0
 40
15.75
 50
-90.0
 51
-0.0
  0
POLYLINE
  8
5mm switch top
 62
0
 70
0
 66
1
 10
0.0
 20
0.0
 30
0.0
  0
VERTEX
  8
5mm switch top
 10
430.0871142636816
 20
-90.48893005392253
 30
0.0
  0
VERTEX
  8
5mm switch top
 10
430.0900444696202
 20
37.21067021237002
 30
0.0
  0
SEQEND
  8
5mm switch top
  0
POLYLINE
  8
5mm switch top
 62
0
 70
0
 66
1
 10
0.0
 20
0.0
 30
0.0
  0
VERTEX
  8
5mm switch top
 10
414.3371142636816
 20
-106.23893005392253
 30
0.0
  0
VERTEX
  8
5mm switch top
 10
4.761355857206183
 20
-106.2389300539225
 30
0.0
  0
SEQEND
  8
5mm switch top
  0
POLYLINE
  8
5mm switch top
 62
0
 70
0
 66
1
 10
0.0
 20
0.0
 30
0.0
  0
VERTEX
  8
5mm switch top
 10
4.76428606314474
 20
52.96067021237001
 30
0.0
  0
VERTEX
  8
5mm switch top
 10
414.3400444696202
 20
52.96067021237002
 30
0.0
  0
SEQEND
  8
5mm switch top
  0
POLYLINE
  8
5mm switch top
 62
0
 70
0
 66
1
 10
0.0
 20
0.0
 30
0.0
  0
VERTEX
  8
5mm switch top
 10
420.0900502660467
 20
-8.107448748e-06
 30
0.0
  0
VERTEX
  8
5mm switch top
 10
420.09011401887335
 20
-95.23892182080425
 30
0.0
  0
SEQEND
  8
5mm switch top
  0
POLYLINE
  8
5mm switch top
 62
0
 70
0
 66
1
 10
0.0
 20
0.0
 30
0.0
  0
VERTEX
  8
5mm switch top
 10
-0.985777993085871
 20
-8.233118266e-06
 30
0.0
  0
VERTEX
  8
5mm switch top
 10
-0.985714240259256
 20
-95.23892194647371
 30
0.0
  0
SEQEND
  8
5mm switch top
  0
ARC
  8
5mm switch top
 62
0
 10
38.085777993085856
 20
-8.107448748e-06
 30
0.0
 40
1.0
 50
0.0
 51
90.0
  0
POLYLINE
  8
5mm switch top
 62
0
 70
0
 66
1
 10
0.0
 20
0.0
 30
0.0
  0
VERTEX
  8
5mm switch top
 10
39.085777993085856
 20
-8.107448748e-06
 30
0.0
  0
VERTEX
  8
5mm switch top
 10
39.08584174591249
 20
-95.23892182080425
 30
0.0
  0
SEQEND
  8
5mm switch top
  0
ARC
  8
5mm switch top
 62
0
 10
38.08584174591249
 20
-95.23892182080425
 30
0.0
 40
1.0
 50
-90.0
 51
-0.0
  0
POLYLINE
  8
5mm switch top
 62
0
 70
0
 66
1
 10
0.0
 20
0.0
 30
0.0
  0
VERTEX
  8
5mm switch top
 10
46.63922200691413
 20
-8.233118266e-06
 30
0.0
  0
VERTEX
  8
5mm switch top
 10
46.639285759740744
 20
-95.23892194647371
 30
0.0
  0
SEQEND
  8
5mm switch top
  0
ARC
  8
5mm switch top
 62
0
 10
47.63922200691413
 20
-8.233118266e-06
 30
0.0
 40
1.0
 50
90.0
 51
-180.0
  0
ARC
  8
5mm switch top
 62
0
 10
47.639285759740744
 20
-95.23892194647371
 30
0.0
 40
1.0
 50
-180.0
 51
-90.0
  0
ARC
  8
5mm switch top
 62
0
 10
342.9142857597407
 20
-95.23892194647371
 30
0.0
 40
1.0
 50
-180.0
 51
-90.0
  0
POLYLINE
  8
5mm switch top
 62
0
 70
0
 66
1
 10
0.0
 20
0.0
 30
0.0
  0
VERTEX
  8
5mm switch top
 10
341.9142220069141
 20
-8.233118266e-06
 30
0.0
  0
VERTEX
  8
5mm switch top
 10
341.9142857597407
 20
-95.23892194647371
 30
0.0
  0
SEQEND
  8
5mm switch top
  0
ARC
  8
5mm switch top
 62
0
 10
342.9142220069141
 20
-8.233118266e-06
 30
0.0
 40
1.0
 50
90.0
 51
-180.0
  0
POLYLINE
  8
5mm switch top
 62
0
 70
0
 66
1
 10
0.0
 20
0.0
 30
0.0
  0
VERTEX
  8
5mm switch top
 10
334.36077799308583
 20
-8.107448748e-06
 30
0.0
  0
VERTEX
  8
5mm switch top
 10
334.36084174591247
 20
-95.23892182080425
 30
0.0
  0
SEQEND
  8
5mm switch top
  0
ARC
  8
5mm switch top
 62
0
 10
333.36084174591247
 20
-95.23892182080425
 30
0.0
 40
1.0
 50
-90.0
 51
-0.0
  0
ARC
  8
5mm switch top
 62
0
 10
333.36077799308583
 20
-8.107448748e-06
 30
0.0
 40
1.0
 50
0.0
 51
90.0
  0
POLYLINE
  8
5mm switch top
 62
0
 70
0
 66
1
 10
0.0
 20
0.0
 30
0.0
  0
VERTEX
  8
5mm switch top
 10
342.9142220069141
 20
0.999991766881734
 30
0.0
  0
VERTEX
  8
5mm switch top
 10
419.0900502660467
 20
0.999991892551252
 30
0.0
  0
SEQEND
  8
5mm switch top
  0
POLYLINE
  8
5mm switch top
 62
0
 70
0
 66
1
 10
0.0
 20
0.0
 30
0.0
  0
VERTEX
  8
5mm switch top
 10
333.36077799308583
 20
0.999991892551252
 30
0.0
  0
VERTEX
  8
5mm switch top
 10
47.63922200691411
 20
0.999991766881734
 30
0.0
  0
SEQEND
  8
5mm switch top
  0
POLYLINE
  8
5mm switch top
 62
0
 70
0
 66
1
 10
0.0
 20
0.0
 30
0.0
  0
VERTEX
  8
5mm switch top
 10
38.085777993085856
 20
0.999991892551252
 30
0.0
  0
VERTEX
  8
5mm switch top
 10
0.014222006914131669
 20
0.999991766881734
 30
0.0
  0
SEQEND
  8
5mm switch top
  0
POLYLINE
  8
5mm switch top
 62
0
 70
0
 66
1
 10
0.0
 20
0.0
 30
0.0
  0
VERTEX
  8
5mm switch top
 10
0.014285759740744
 20
-96.23892194647371
 30
0.0
  0
VERTEX
  8
5mm switch top
 10
38.08584174591249
 20
-96.23892182080425
 30
0.0
  0
SEQEND
  8
5mm switch top
  0
POLYLINE
  8
5mm switch top
 62
0
 70
0
 66
1
 10
0.0
 20
0.0
 30
0.0
  0
VERTEX
  8
5mm switch top
 10
342.9142857597407
 20
-96.23892194647371
 30
0.0
  0
VERTEX
  8
5mm switch top
 10
419.09011401887335
 20
-96.23892182080425
 30
0.0
  0
SEQEND
  8
5mm switch top
  0
POLYLINE
  8
5mm switch top
 62
0
 70
0
 66
1
 10
0.0
 20
0.0
 30
0.0
  0
VERTEX
  8
5mm switch top
 10
47.639285759740744
 20
-96.23892194647371
 30
0.0
  0
VERTEX
  8
5mm switch top
 10
76.18572061724188
 20
-96.23892193391808
 30
0.0
  0
SEQEND
  8
5mm switch top
  0
POLYLINE
  8
5mm switch top
 62
0
 70
0
 66
1
 10
0.0
 20
0.0
 30
0.0
  0
VERTEX
  8
5mm switch top
 10
95.2642793957564
 20
-96.23892194647371
 30
0.0
  0
VERTEX
  8
5mm switch top
 10
285.7357206172419
 20
-96.23892193391808
 30
0.0
  0
SEQEND
  8
5mm switch top
  0
POLYLINE
  8
5mm switch top
 62
0
 70
0
 66
1
 10
0.0
 20
0.0
 30
0.0
  0
VERTEX
  8
5mm switch top
 10
304.81427939575644
 20
-96.23892194647371
 30
0.0
  0
VERTEX
  8
5mm switch top
 10
333.36084174591247
 20
-96.23892182080425
 30
0.0
  0
SEQEND
  8
5mm switch top
  0
ARC
  8
Group247
 62
0
 10
285.7357206172419
 20
-95.23892193391808
 30
0.0
 40
1.0
 50
-90.0
 51
-0.0
  0
ARC
  8
Group247
 62
0
 10
304.81427939575644
 20
-95.23892194647371
 30
0.0
 40
1.0
 50
-180.0
 51
-90.0
  0
POLYLINE
  8
Group247
 62
0
 70
0
 66
1
 10
0.0
 20
0.0
 30
0.0
  0
VERTEX
  8
Group247
 10
303.8142793911321
 20
-77.18892193391808
 30
0.0
  0
VERTEX
  8
Group247
 10
303.81427939575644
 20
-95.23892194647371
 30
0.0
  0
SEQEND
  8
Group247
  0
POLYLINE
  8
Group247
 62
0
 70
0
 66
1
 10
0.0
 20
0.0
 30
0.0
  0
VERTEX
  8
Group247
 10
286.735720608868
 20
-77.18892193391808
 30
0.0
  0
VERTEX
  8
Group247
 10
303.8142793911321
 20
-77.18892193391808
 30
0.0
  0
SEQEND
  8
Group247
  0
POLYLINE
  8
Group247
 62
0
 70
0
 66
1
 10
0.0
 20
0.0
 30
0.0
  0
VERTEX
  8
Group247
 10
286.7357206172419
 20
-95.23892193391808
 30
0.0
  0
VERTEX
  8
Group247
 10
286.73572060886795
 20
-77.18892193391808
 30
0.0
  0
SEQEND
  8
Group247
  0
POLYLINE
  8
Group246
 62
0
 70
0
 66
1
 10
0.0
 20
0.0
 30
0.0
  0
VERTEX
  8
Group246
 10
77.18572060886795
 20
-77.18892193391808
 30
0.0
  0
VERTEX
  8
Group246
 10
94.26427939113205
 20
-77.18892193391808
 30
0.0
  0
SEQEND
  8
Group246
  0
ARC
  8
Group246
 62
0
 10
76.18572061724188
 20
-95.23892193391808
 30
0.0
 40
1.0
 50
-90.0
 51
-0.0
  0
ARC
  8
Group246
 62
0
 10
95.2642793957564
 20
-95.23892194647371
 30
0.0
 40
1.0
 50
-180.0
 51
-90.0
  0
POLYLINE
  8
Group246
 62
0
 70
0
 66
1
 10
0.0
 20
0.0
 30
0.0
  0
VERTEX
  8
Group246
 10
94.26427939113205
 20
-77.18892193391808
 30
0.0
  0
VERTEX
  8
Group246
 10
94.2642793957564
 20
-95.23892194647371
 30
0.0
  0
SEQEND
  8
Group246
  0
POLYLINE
  8
Group246
 62
0
 70
0
 66
1
 10
0.0
 20
0.0
 30
0.0
  0
VERTEX
  8
Group246
 10
77.18572061724188
 20
-95.23892193391808
 30
0.0
  0
VERTEX
  8
Group246
 10
77.18572060886795
 20
-77.18892193391808
 30
0.0
  0
SEQEND
  8
Group246
  0
CIRCLE
  8
Screw holes
 62
0
 10
127.99401161230702
 20
46.460666158645616
 30
0.0
 40
1.6
  0
CIRCLE
  8
Screw holes
 62
0
 10
4.764286063144754
 20
46.460666158645616
 30
0.0
 40
1.6
  0
CIRCLE
  8
Screw holes
 62
0
 10
414.3400444696201
 20
46.46066615864562
 30
0.0
 40
1.6
  0
CIRCLE
  8
Screw holes
 62
0
 10
152.99401161230702
 20
46.46066615864566
 30
0.0
 40
1.6
  0
CIRCLE
  8
Screw holes
 62
0
 10
283.6670280409636
 20
46.46066615864564
 30
0.0
 40
1.6
  0
CIRCLE
  8
Screw holes
 62
0
 10
-4.210938424685637
 20
-47.619465026961244
 30
0.0
 40
1.6
  0
CIRCLE
  8
Screw holes
 62
0
 10
423.31137589832736
 20
-47.619465026961244
 30
0.0
 40
1.6
  0
CIRCLE
  8
Screw holes
 62
0
 10
209.55216526638245
 20
-99.73892599236336
 30
0.0
 40
1.6
  0
CIRCLE
  8
Screw holes
 62
0
 10
107.15822566476359
 20
-99.73892599236336
 30
0.0
 40
1.6
  0
CIRCLE
  8
Screw holes
 62
0
 10
311.94610486800127
 20
-99.73892599236336
 30
0.0
 40
1.6
  0
CIRCLE
  8
Screw holes
 62
0
 10
414.3400444696201
 20
-99.73892599236335
 30
0.0
 40
1.6
  0
CIRCLE
  8
Screw holes
 62
0
 10
4.764286063144754
 20
-99.73892599236336
 30
0.0
 40
1.6
  0
ENDSEC
  0
EOF
