  0
SECTION
  2
HEADER
  9
$ACADVER
  1
AC1009
  9
$INSBASE
 10
0.0
 20
0.0
 30
0.0
  9
$EXTMIN
 10
0.0
 20
0.0
 30
0.0
  9
$EXTMAX
 10
0.0
 20
0.0
 30
0.0
  0
ENDSEC
  0
SECTION
  2
TABLES
  0
TABLE
  2
VPORT
 70
0
  0
ENDTAB
  0
TABLE
  2
LTYPE
 70
1
  0
LTYPE
  2
CONTINUOUS
 70
0
  3
Solid line
 72
65
 73
0
 40
0.0
  0
ENDTAB
  0
TABLE
  2
LAYER
 70
1
  0
LAYER
  2
0
 70
64
 62
7
  6
continuous
  0
ENDTAB
  0
TABLE
  2
STYLE
 70
1
  0
STYLE
  2
STANDARD
 70
0
 40
0
 41
1.0
 50
0.0
 71
0
 42
1
 3
ARIAL.TTF
 4

  0
ENDTAB
  0
TABLE
  2
VIEW
 70
0
  0
ENDTAB
  0
ENDSEC
  0
SECTION
  2
BLOCKS
  0
ENDSEC
  0
SECTION
  2
ENTITIES
  0
ARC
  8
Group
 62
0
 10
2.825
 20
-2.825
 30
0.0
 40
0.3
 50
90.0
 51
-180.0
  0
ARC
  8
Group
 62
0
 10
2.824999999999999
 20
-16.224999999999998
 30
0.0
 40
0.3
 50
-180.0
 51
-90.0
  0
ARC
  8
Group
 62
0
 10
16.225
 20
-2.824999999999999
 30
0.0
 40
0.3
 50
-0.0
 51
90.0
  0
ARC
  8
Group
 62
0
 10
16.224999999999998
 20
-16.224999999999998
 30
0.0
 40
0.3
 50
-90.0
 51
-0.0
  0
POLYLINE
  8
Group
 62
0
 70
0
 66
1
 10
0.0
 20
0.0
 30
0.0
  0
VERTEX
  8
Group
 10
2.825
 20
-2.525
 30
0.0
  0
VERTEX
  8
Group
 10
16.225
 20
-2.524999999999999
 30
0.0
  0
SEQEND
  8
Group
  0
POLYLINE
  8
Group
 62
0
 70
0
 66
1
 10
0.0
 20
0.0
 30
0.0
  0
VERTEX
  8
Group
 10
16.525000000000002
 20
-2.824999999999999
 30
0.0
  0
VERTEX
  8
Group
 10
16.525
 20
-16.224999999999998
 30
0.0
  0
SEQEND
  8
Group
  0
POLYLINE
  8
Group
 62
0
 70
0
 66
1
 10
0.0
 20
0.0
 30
0.0
  0
VERTEX
  8
Group
 10
16.224999999999998
 20
-16.525
 30
0.0
  0
VERTEX
  8
Group
 10
2.8249999999999993
 20
-16.525
 30
0.0
  0
SEQEND
  8
Group
  0
POLYLINE
  8
Group
 62
0
 70
0
 66
1
 10
0.0
 20
0.0
 30
0.0
  0
VERTEX
  8
Group
 10
2.524999999999999
 20
-16.224999999999998
 30
0.0
  0
VERTEX
  8
Group
 10
2.525
 20
-2.8249999999999993
 30
0.0
  0
SEQEND
  8
Group
  0
ARC
  8
Group002
 62
0
 10
21.875
 20
-2.825
 30
0.0
 40
0.3
 50
90.0
 51
-180.0
  0
ARC
  8
Group002
 62
0
 10
21.875
 20
-16.224999999999998
 30
0.0
 40
0.3
 50
-180.0
 51
-90.0
  0
ARC
  8
Group002
 62
0
 10
35.275000000000006
 20
-2.824999999999999
 30
0.0
 40
0.3
 50
-0.0
 51
90.0
  0
ARC
  8
Group002
 62
0
 10
35.275
 20
-16.224999999999998
 30
0.0
 40
0.3
 50
-90.0
 51
-0.0
  0
POLYLINE
  8
Group002
 62
0
 70
0
 66
1
 10
0.0
 20
0.0
 30
0.0
  0
VERTEX
  8
Group002
 10
21.875
 20
-2.525
 30
0.0
  0
VERTEX
  8
Group002
 10
35.275000000000006
 20
-2.524999999999999
 30
0.0
  0
SEQEND
  8
Group002
  0
POLYLINE
  8
Group002
 62
0
 70
0
 66
1
 10
0.0
 20
0.0
 30
0.0
  0
VERTEX
  8
Group002
 10
35.575
 20
-2.824999999999999
 30
0.0
  0
VERTEX
  8
Group002
 10
35.575
 20
-16.224999999999998
 30
0.0
  0
SEQEND
  8
Group002
  0
POLYLINE
  8
Group002
 62
0
 70
0
 66
1
 10
0.0
 20
0.0
 30
0.0
  0
VERTEX
  8
Group002
 10
35.275
 20
-16.525
 30
0.0
  0
VERTEX
  8
Group002
 10
21.875
 20
-16.525
 30
0.0
  0
SEQEND
  8
Group002
  0
POLYLINE
  8
Group002
 62
0
 70
0
 66
1
 10
0.0
 20
0.0
 30
0.0
  0
VERTEX
  8
Group002
 10
21.575
 20
-16.224999999999998
 30
0.0
  0
VERTEX
  8
Group002
 10
21.575
 20
-2.8249999999999993
 30
0.0
  0
SEQEND
  8
Group002
  0
ARC
  8
Group003
 62
0
 10
2.825
 20
-21.875
 30
0.0
 40
0.3
 50
90.0
 51
-180.0
  0
ARC
  8
Group003
 62
0
 10
2.824999999999999
 20
-35.275
 30
0.0
 40
0.3
 50
-180.0
 51
-90.0
  0
ARC
  8
Group003
 62
0
 10
16.225
 20
-21.875
 30
0.0
 40
0.3
 50
-0.0
 51
90.0
  0
ARC
  8
Group003
 62
0
 10
16.224999999999998
 20
-35.275
 30
0.0
 40
0.3
 50
-90.0
 51
-0.0
  0
POLYLINE
  8
Group003
 62
0
 70
0
 66
1
 10
0.0
 20
0.0
 30
0.0
  0
VERTEX
  8
Group003
 10
2.825
 20
-21.575
 30
0.0
  0
VERTEX
  8
Group003
 10
16.225
 20
-21.575
 30
0.0
  0
SEQEND
  8
Group003
  0
POLYLINE
  8
Group003
 62
0
 70
0
 66
1
 10
0.0
 20
0.0
 30
0.0
  0
VERTEX
  8
Group003
 10
16.525000000000002
 20
-21.875
 30
0.0
  0
VERTEX
  8
Group003
 10
16.525
 20
-35.275
 30
0.0
  0
SEQEND
  8
Group003
  0
POLYLINE
  8
Group003
 62
0
 70
0
 66
1
 10
0.0
 20
0.0
 30
0.0
  0
VERTEX
  8
Group003
 10
16.224999999999998
 20
-35.575
 30
0.0
  0
VERTEX
  8
Group003
 10
2.8249999999999993
 20
-35.575
 30
0.0
  0
SEQEND
  8
Group003
  0
POLYLINE
  8
Group003
 62
0
 70
0
 66
1
 10
0.0
 20
0.0
 30
0.0
  0
VERTEX
  8
Group003
 10
2.524999999999999
 20
-35.275
 30
0.0
  0
VERTEX
  8
Group003
 10
2.525
 20
-21.875
 30
0.0
  0
SEQEND
  8
Group003
  0
ARC
  8
Group004
 62
0
 10
21.875
 20
-21.875
 30
0.0
 40
0.3
 50
90.0
 51
-180.0
  0
ARC
  8
Group004
 62
0
 10
21.875
 20
-35.275
 30
0.0
 40
0.3
 50
-180.0
 51
-90.0
  0
ARC
  8
Group004
 62
0
 10
35.275000000000006
 20
-21.875
 30
0.0
 40
0.3
 50
-0.0
 51
90.0
  0
ARC
  8
Group004
 62
0
 10
35.275
 20
-35.275
 30
0.0
 40
0.3
 50
-90.0
 51
-0.0
  0
POLYLINE
  8
Group004
 62
0
 70
0
 66
1
 10
0.0
 20
0.0
 30
0.0
  0
VERTEX
  8
Group004
 10
21.875
 20
-21.575
 30
0.0
  0
VERTEX
  8
Group004
 10
35.275000000000006
 20
-21.575
 30
0.0
  0
SEQEND
  8
Group004
  0
POLYLINE
  8
Group004
 62
0
 70
0
 66
1
 10
0.0
 20
0.0
 30
0.0
  0
VERTEX
  8
Group004
 10
35.575
 20
-21.875
 30
0.0
  0
VERTEX
  8
Group004
 10
35.575
 20
-35.275
 30
0.0
  0
SEQEND
  8
Group004
  0
POLYLINE
  8
Group004
 62
0
 70
0
 66
1
 10
0.0
 20
0.0
 30
0.0
  0
VERTEX
  8
Group004
 10
35.275
 20
-35.575
 30
0.0
  0
VERTEX
  8
Group004
 10
21.875
 20
-35.575
 30
0.0
  0
SEQEND
  8
Group004
  0
POLYLINE
  8
Group004
 62
0
 70
0
 66
1
 10
0.0
 20
0.0
 30
0.0
  0
VERTEX
  8
Group004
 10
21.575
 20
-35.275
 30
0.0
  0
VERTEX
  8
Group004
 10
21.575
 20
-21.875
 30
0.0
  0
SEQEND
  8
Group004
  0
ARC
  8
Group005
 62
0
 10
2.825
 20
-40.925000000000004
 30
0.0
 40
0.3
 50
90.0
 51
-180.0
  0
ARC
  8
Group005
 62
0
 10
2.824999999999999
 20
-54.325
 30
0.0
 40
0.3
 50
-180.0
 51
-90.0
  0
ARC
  8
Group005
 62
0
 10
16.225
 20
-40.925
 30
0.0
 40
0.3
 50
-0.0
 51
90.0
  0
ARC
  8
Group005
 62
0
 10
16.224999999999998
 20
-54.325
 30
0.0
 40
0.3
 50
-90.0
 51
-0.0
  0
POLYLINE
  8
Group005
 62
0
 70
0
 66
1
 10
0.0
 20
0.0
 30
0.0
  0
VERTEX
  8
Group005
 10
2.825
 20
-40.625
 30
0.0
  0
VERTEX
  8
Group005
 10
16.225
 20
-40.625
 30
0.0
  0
SEQEND
  8
Group005
  0
POLYLINE
  8
Group005
 62
0
 70
0
 66
1
 10
0.0
 20
0.0
 30
0.0
  0
VERTEX
  8
Group005
 10
16.525000000000002
 20
-40.925
 30
0.0
  0
VERTEX
  8
Group005
 10
16.525
 20
-54.324999999999996
 30
0.0
  0
SEQEND
  8
Group005
  0
POLYLINE
  8
Group005
 62
0
 70
0
 66
1
 10
0.0
 20
0.0
 30
0.0
  0
VERTEX
  8
Group005
 10
16.224999999999998
 20
-54.625
 30
0.0
  0
VERTEX
  8
Group005
 10
2.8249999999999993
 20
-54.625
 30
0.0
  0
SEQEND
  8
Group005
  0
POLYLINE
  8
Group005
 62
0
 70
0
 66
1
 10
0.0
 20
0.0
 30
0.0
  0
VERTEX
  8
Group005
 10
2.524999999999999
 20
-54.325
 30
0.0
  0
VERTEX
  8
Group005
 10
2.525
 20
-40.925000000000004
 30
0.0
  0
SEQEND
  8
Group005
  0
ARC
  8
Group006
 62
0
 10
21.875
 20
-40.925000000000004
 30
0.0
 40
0.3
 50
90.0
 51
-180.0
  0
ARC
  8
Group006
 62
0
 10
21.875
 20
-54.325
 30
0.0
 40
0.3
 50
-180.0
 51
-90.0
  0
ARC
  8
Group006
 62
0
 10
35.275000000000006
 20
-40.925
 30
0.0
 40
0.3
 50
-0.0
 51
90.0
  0
ARC
  8
Group006
 62
0
 10
35.275
 20
-54.325
 30
0.0
 40
0.3
 50
-90.0
 51
-0.0
  0
POLYLINE
  8
Group006
 62
0
 70
0
 66
1
 10
0.0
 20
0.0
 30
0.0
  0
VERTEX
  8
Group006
 10
21.875
 20
-40.625
 30
0.0
  0
VERTEX
  8
Group006
 10
35.275000000000006
 20
-40.625
 30
0.0
  0
SEQEND
  8
Group006
  0
POLYLINE
  8
Group006
 62
0
 70
0
 66
1
 10
0.0
 20
0.0
 30
0.0
  0
VERTEX
  8
Group006
 10
35.575
 20
-40.925
 30
0.0
  0
VERTEX
  8
Group006
 10
35.575
 20
-54.324999999999996
 30
0.0
  0
SEQEND
  8
Group006
  0
POLYLINE
  8
Group006
 62
0
 70
0
 66
1
 10
0.0
 20
0.0
 30
0.0
  0
VERTEX
  8
Group006
 10
35.275
 20
-54.625
 30
0.0
  0
VERTEX
  8
Group006
 10
21.875
 20
-54.625
 30
0.0
  0
SEQEND
  8
Group006
  0
POLYLINE
  8
Group006
 62
0
 70
0
 66
1
 10
0.0
 20
0.0
 30
0.0
  0
VERTEX
  8
Group006
 10
21.575
 20
-54.325
 30
0.0
  0
VERTEX
  8
Group006
 10
21.575
 20
-40.925000000000004
 30
0.0
  0
SEQEND
  8
Group006
  0
ARC
  8
Group007
 62
0
 10
2.825
 20
-59.975
 30
0.0
 40
0.3
 50
90.0
 51
-180.0
  0
ARC
  8
Group007
 62
0
 10
2.824999999999999
 20
-73.375
 30
0.0
 40
0.3
 50
-180.0
 51
-90.0
  0
ARC
  8
Group007
 62
0
 10
16.225
 20
-59.975
 30
0.0
 40
0.3
 50
-0.0
 51
90.0
  0
ARC
  8
Group007
 62
0
 10
16.224999999999998
 20
-73.375
 30
0.0
 40
0.3
 50
-90.0
 51
-0.0
  0
POLYLINE
  8
Group007
 62
0
 70
0
 66
1
 10
0.0
 20
0.0
 30
0.0
  0
VERTEX
  8
Group007
 10
2.825
 20
-59.675
 30
0.0
  0
VERTEX
  8
Group007
 10
16.225
 20
-59.675
 30
0.0
  0
SEQEND
  8
Group007
  0
POLYLINE
  8
Group007
 62
0
 70
0
 66
1
 10
0.0
 20
0.0
 30
0.0
  0
VERTEX
  8
Group007
 10
16.525000000000002
 20
-59.975
 30
0.0
  0
VERTEX
  8
Group007
 10
16.525
 20
-73.375
 30
0.0
  0
SEQEND
  8
Group007
  0
POLYLINE
  8
Group007
 62
0
 70
0
 66
1
 10
0.0
 20
0.0
 30
0.0
  0
VERTEX
  8
Group007
 10
16.224999999999998
 20
-73.67500000000001
 30
0.0
  0
VERTEX
  8
Group007
 10
2.8249999999999993
 20
-73.67500000000001
 30
0.0
  0
SEQEND
  8
Group007
  0
POLYLINE
  8
Group007
 62
0
 70
0
 66
1
 10
0.0
 20
0.0
 30
0.0
  0
VERTEX
  8
Group007
 10
2.524999999999999
 20
-73.375
 30
0.0
  0
VERTEX
  8
Group007
 10
2.525
 20
-59.975
 30
0.0
  0
SEQEND
  8
Group007
  0
ARC
  8
Group008
 62
0
 10
21.875
 20
-59.975
 30
0.0
 40
0.3
 50
90.0
 51
-180.0
  0
ARC
  8
Group008
 62
0
 10
21.875
 20
-73.375
 30
0.0
 40
0.3
 50
-180.0
 51
-90.0
  0
ARC
  8
Group008
 62
0
 10
35.275000000000006
 20
-59.975
 30
0.0
 40
0.3
 50
-0.0
 51
90.0
  0
ARC
  8
Group008
 62
0
 10
35.275
 20
-73.375
 30
0.0
 40
0.3
 50
-90.0
 51
-0.0
  0
POLYLINE
  8
Group008
 62
0
 70
0
 66
1
 10
0.0
 20
0.0
 30
0.0
  0
VERTEX
  8
Group008
 10
21.875
 20
-59.675
 30
0.0
  0
VERTEX
  8
Group008
 10
35.275000000000006
 20
-59.675
 30
0.0
  0
SEQEND
  8
Group008
  0
POLYLINE
  8
Group008
 62
0
 70
0
 66
1
 10
0.0
 20
0.0
 30
0.0
  0
VERTEX
  8
Group008
 10
35.575
 20
-59.975
 30
0.0
  0
VERTEX
  8
Group008
 10
35.575
 20
-73.375
 30
0.0
  0
SEQEND
  8
Group008
  0
POLYLINE
  8
Group008
 62
0
 70
0
 66
1
 10
0.0
 20
0.0
 30
0.0
  0
VERTEX
  8
Group008
 10
35.275
 20
-73.67500000000001
 30
0.0
  0
VERTEX
  8
Group008
 10
21.875
 20
-73.67500000000001
 30
0.0
  0
SEQEND
  8
Group008
  0
POLYLINE
  8
Group008
 62
0
 70
0
 66
1
 10
0.0
 20
0.0
 30
0.0
  0
VERTEX
  8
Group008
 10
21.575
 20
-73.375
 30
0.0
  0
VERTEX
  8
Group008
 10
21.575
 20
-59.975
 30
0.0
  0
SEQEND
  8
Group008
  0
ARC
  8
Group009
 62
0
 10
2.825
 20
-79.025
 30
0.0
 40
0.3
 50
90.0
 51
-180.0
  0
ARC
  8
Group009
 62
0
 10
2.824999999999999
 20
-92.425
 30
0.0
 40
0.3
 50
-180.0
 51
-90.0
  0
ARC
  8
Group009
 62
0
 10
16.225
 20
-79.025
 30
0.0
 40
0.3
 50
-0.0
 51
90.0
  0
ARC
  8
Group009
 62
0
 10
16.224999999999998
 20
-92.425
 30
0.0
 40
0.3
 50
-90.0
 51
-0.0
  0
POLYLINE
  8
Group009
 62
0
 70
0
 66
1
 10
0.0
 20
0.0
 30
0.0
  0
VERTEX
  8
Group009
 10
2.825
 20
-78.72500000000001
 30
0.0
  0
VERTEX
  8
Group009
 10
16.225
 20
-78.72500000000001
 30
0.0
  0
SEQEND
  8
Group009
  0
POLYLINE
  8
Group009
 62
0
 70
0
 66
1
 10
0.0
 20
0.0
 30
0.0
  0
VERTEX
  8
Group009
 10
16.525000000000002
 20
-79.025
 30
0.0
  0
VERTEX
  8
Group009
 10
16.525
 20
-92.42500000000001
 30
0.0
  0
SEQEND
  8
Group009
  0
POLYLINE
  8
Group009
 62
0
 70
0
 66
1
 10
0.0
 20
0.0
 30
0.0
  0
VERTEX
  8
Group009
 10
16.224999999999998
 20
-92.725
 30
0.0
  0
VERTEX
  8
Group009
 10
2.8249999999999993
 20
-92.725
 30
0.0
  0
SEQEND
  8
Group009
  0
POLYLINE
  8
Group009
 62
0
 70
0
 66
1
 10
0.0
 20
0.0
 30
0.0
  0
VERTEX
  8
Group009
 10
2.524999999999999
 20
-92.425
 30
0.0
  0
VERTEX
  8
Group009
 10
2.525
 20
-79.025
 30
0.0
  0
SEQEND
  8
Group009
  0
ARC
  8
Group010
 62
0
 10
21.875
 20
-79.025
 30
0.0
 40
0.3
 50
90.0
 51
-180.0
  0
ARC
  8
Group010
 62
0
 10
21.875
 20
-92.425
 30
0.0
 40
0.3
 50
-180.0
 51
-90.0
  0
ARC
  8
Group010
 62
0
 10
35.275000000000006
 20
-79.025
 30
0.0
 40
0.3
 50
-0.0
 51
90.0
  0
ARC
  8
Group010
 62
0
 10
35.275
 20
-92.425
 30
0.0
 40
0.3
 50
-90.0
 51
-0.0
  0
POLYLINE
  8
Group010
 62
0
 70
0
 66
1
 10
0.0
 20
0.0
 30
0.0
  0
VERTEX
  8
Group010
 10
21.875
 20
-78.72500000000001
 30
0.0
  0
VERTEX
  8
Group010
 10
35.275000000000006
 20
-78.72500000000001
 30
0.0
  0
SEQEND
  8
Group010
  0
POLYLINE
  8
Group010
 62
0
 70
0
 66
1
 10
0.0
 20
0.0
 30
0.0
  0
VERTEX
  8
Group010
 10
35.575
 20
-79.025
 30
0.0
  0
VERTEX
  8
Group010
 10
35.575
 20
-92.42500000000001
 30
0.0
  0
SEQEND
  8
Group010
  0
POLYLINE
  8
Group010
 62
0
 70
0
 66
1
 10
0.0
 20
0.0
 30
0.0
  0
VERTEX
  8
Group010
 10
35.275
 20
-92.725
 30
0.0
  0
VERTEX
  8
Group010
 10
21.875
 20
-92.725
 30
0.0
  0
SEQEND
  8
Group010
  0
POLYLINE
  8
Group010
 62
0
 70
0
 66
1
 10
0.0
 20
0.0
 30
0.0
  0
VERTEX
  8
Group010
 10
21.575
 20
-92.425
 30
0.0
  0
VERTEX
  8
Group010
 10
21.575
 20
-79.025
 30
0.0
  0
SEQEND
  8
Group010
  0
ARC
  8
Group012
 62
0
 10
50.45
 20
-2.825
 30
0.0
 40
0.3
 50
90.0
 51
-180.0
  0
ARC
  8
Group012
 62
0
 10
50.449999999999996
 20
-16.224999999999998
 30
0.0
 40
0.3
 50
-180.0
 51
-90.0
  0
ARC
  8
Group012
 62
0
 10
63.85
 20
-2.824999999999999
 30
0.0
 40
0.3
 50
-0.0
 51
90.0
  0
ARC
  8
Group012
 62
0
 10
63.849999999999994
 20
-16.224999999999998
 30
0.0
 40
0.3
 50
-90.0
 51
-0.0
  0
POLYLINE
  8
Group012
 62
0
 70
0
 66
1
 10
0.0
 20
0.0
 30
0.0
  0
VERTEX
  8
Group012
 10
50.45
 20
-2.525
 30
0.0
  0
VERTEX
  8
Group012
 10
63.85000000000001
 20
-2.524999999999999
 30
0.0
  0
SEQEND
  8
Group012
  0
POLYLINE
  8
Group012
 62
0
 70
0
 66
1
 10
0.0
 20
0.0
 30
0.0
  0
VERTEX
  8
Group012
 10
64.15
 20
-2.824999999999999
 30
0.0
  0
VERTEX
  8
Group012
 10
64.15
 20
-16.224999999999998
 30
0.0
  0
SEQEND
  8
Group012
  0
POLYLINE
  8
Group012
 62
0
 70
0
 66
1
 10
0.0
 20
0.0
 30
0.0
  0
VERTEX
  8
Group012
 10
63.849999999999994
 20
-16.525
 30
0.0
  0
VERTEX
  8
Group012
 10
50.449999999999996
 20
-16.525
 30
0.0
  0
SEQEND
  8
Group012
  0
POLYLINE
  8
Group012
 62
0
 70
0
 66
1
 10
0.0
 20
0.0
 30
0.0
  0
VERTEX
  8
Group012
 10
50.15
 20
-16.224999999999998
 30
0.0
  0
VERTEX
  8
Group012
 10
50.15
 20
-2.8249999999999993
 30
0.0
  0
SEQEND
  8
Group012
  0
ARC
  8
Group013
 62
0
 10
69.5
 20
-2.825
 30
0.0
 40
0.3
 50
90.0
 51
-180.0
  0
ARC
  8
Group013
 62
0
 10
69.5
 20
-16.224999999999998
 30
0.0
 40
0.3
 50
-180.0
 51
-90.0
  0
ARC
  8
Group013
 62
0
 10
82.9
 20
-2.824999999999999
 30
0.0
 40
0.3
 50
-0.0
 51
90.0
  0
ARC
  8
Group013
 62
0
 10
82.89999999999999
 20
-16.224999999999998
 30
0.0
 40
0.3
 50
-90.0
 51
-0.0
  0
POLYLINE
  8
Group013
 62
0
 70
0
 66
1
 10
0.0
 20
0.0
 30
0.0
  0
VERTEX
  8
Group013
 10
69.5
 20
-2.525
 30
0.0
  0
VERTEX
  8
Group013
 10
82.9
 20
-2.524999999999999
 30
0.0
  0
SEQEND
  8
Group013
  0
POLYLINE
  8
Group013
 62
0
 70
0
 66
1
 10
0.0
 20
0.0
 30
0.0
  0
VERTEX
  8
Group013
 10
83.2
 20
-2.824999999999999
 30
0.0
  0
VERTEX
  8
Group013
 10
83.2
 20
-16.224999999999998
 30
0.0
  0
SEQEND
  8
Group013
  0
POLYLINE
  8
Group013
 62
0
 70
0
 66
1
 10
0.0
 20
0.0
 30
0.0
  0
VERTEX
  8
Group013
 10
82.89999999999999
 20
-16.525
 30
0.0
  0
VERTEX
  8
Group013
 10
69.5
 20
-16.525
 30
0.0
  0
SEQEND
  8
Group013
  0
POLYLINE
  8
Group013
 62
0
 70
0
 66
1
 10
0.0
 20
0.0
 30
0.0
  0
VERTEX
  8
Group013
 10
69.19999999999999
 20
-16.224999999999998
 30
0.0
  0
VERTEX
  8
Group013
 10
69.19999999999999
 20
-2.8249999999999993
 30
0.0
  0
SEQEND
  8
Group013
  0
ARC
  8
Group014
 62
0
 10
88.55
 20
-2.825
 30
0.0
 40
0.3
 50
90.0
 51
-180.0
  0
ARC
  8
Group014
 62
0
 10
88.55
 20
-16.224999999999998
 30
0.0
 40
0.3
 50
-180.0
 51
-90.0
  0
ARC
  8
Group014
 62
0
 10
101.95
 20
-2.824999999999999
 30
0.0
 40
0.3
 50
-0.0
 51
90.0
  0
ARC
  8
Group014
 62
0
 10
101.94999999999999
 20
-16.224999999999998
 30
0.0
 40
0.3
 50
-90.0
 51
-0.0
  0
POLYLINE
  8
Group014
 62
0
 70
0
 66
1
 10
0.0
 20
0.0
 30
0.0
  0
VERTEX
  8
Group014
 10
88.55
 20
-2.525
 30
0.0
  0
VERTEX
  8
Group014
 10
101.95
 20
-2.524999999999999
 30
0.0
  0
SEQEND
  8
Group014
  0
POLYLINE
  8
Group014
 62
0
 70
0
 66
1
 10
0.0
 20
0.0
 30
0.0
  0
VERTEX
  8
Group014
 10
102.25
 20
-2.824999999999999
 30
0.0
  0
VERTEX
  8
Group014
 10
102.25
 20
-16.224999999999998
 30
0.0
  0
SEQEND
  8
Group014
  0
POLYLINE
  8
Group014
 62
0
 70
0
 66
1
 10
0.0
 20
0.0
 30
0.0
  0
VERTEX
  8
Group014
 10
101.94999999999999
 20
-16.525
 30
0.0
  0
VERTEX
  8
Group014
 10
88.55
 20
-16.525
 30
0.0
  0
SEQEND
  8
Group014
  0
POLYLINE
  8
Group014
 62
0
 70
0
 66
1
 10
0.0
 20
0.0
 30
0.0
  0
VERTEX
  8
Group014
 10
88.24999999999999
 20
-16.224999999999998
 30
0.0
  0
VERTEX
  8
Group014
 10
88.24999999999999
 20
-2.8249999999999993
 30
0.0
  0
SEQEND
  8
Group014
  0
ARC
  8
Group015
 62
0
 10
107.6
 20
-2.825
 30
0.0
 40
0.3
 50
90.0
 51
-180.0
  0
ARC
  8
Group015
 62
0
 10
107.6
 20
-16.224999999999998
 30
0.0
 40
0.3
 50
-180.0
 51
-90.0
  0
ARC
  8
Group015
 62
0
 10
121.0
 20
-2.824999999999999
 30
0.0
 40
0.3
 50
-0.0
 51
90.0
  0
ARC
  8
Group015
 62
0
 10
120.99999999999999
 20
-16.224999999999998
 30
0.0
 40
0.3
 50
-90.0
 51
-0.0
  0
POLYLINE
  8
Group015
 62
0
 70
0
 66
1
 10
0.0
 20
0.0
 30
0.0
  0
VERTEX
  8
Group015
 10
107.6
 20
-2.525
 30
0.0
  0
VERTEX
  8
Group015
 10
121.0
 20
-2.524999999999999
 30
0.0
  0
SEQEND
  8
Group015
  0
POLYLINE
  8
Group015
 62
0
 70
0
 66
1
 10
0.0
 20
0.0
 30
0.0
  0
VERTEX
  8
Group015
 10
121.3
 20
-2.824999999999999
 30
0.0
  0
VERTEX
  8
Group015
 10
121.3
 20
-16.224999999999998
 30
0.0
  0
SEQEND
  8
Group015
  0
POLYLINE
  8
Group015
 62
0
 70
0
 66
1
 10
0.0
 20
0.0
 30
0.0
  0
VERTEX
  8
Group015
 10
120.99999999999999
 20
-16.525
 30
0.0
  0
VERTEX
  8
Group015
 10
107.6
 20
-16.525
 30
0.0
  0
SEQEND
  8
Group015
  0
POLYLINE
  8
Group015
 62
0
 70
0
 66
1
 10
0.0
 20
0.0
 30
0.0
  0
VERTEX
  8
Group015
 10
107.29999999999998
 20
-16.224999999999998
 30
0.0
  0
VERTEX
  8
Group015
 10
107.29999999999998
 20
-2.8249999999999993
 30
0.0
  0
SEQEND
  8
Group015
  0
ARC
  8
Group016
 62
0
 10
126.64999999999999
 20
-2.825
 30
0.0
 40
0.3
 50
90.0
 51
-180.0
  0
ARC
  8
Group016
 62
0
 10
126.64999999999998
 20
-16.224999999999998
 30
0.0
 40
0.3
 50
-180.0
 51
-90.0
  0
ARC
  8
Group016
 62
0
 10
140.04999999999998
 20
-2.824999999999999
 30
0.0
 40
0.3
 50
-0.0
 51
90.0
  0
ARC
  8
Group016
 62
0
 10
140.04999999999998
 20
-16.224999999999998
 30
0.0
 40
0.3
 50
-90.0
 51
-0.0
  0
POLYLINE
  8
Group016
 62
0
 70
0
 66
1
 10
0.0
 20
0.0
 30
0.0
  0
VERTEX
  8
Group016
 10
126.64999999999999
 20
-2.525
 30
0.0
  0
VERTEX
  8
Group016
 10
140.05
 20
-2.524999999999999
 30
0.0
  0
SEQEND
  8
Group016
  0
POLYLINE
  8
Group016
 62
0
 70
0
 66
1
 10
0.0
 20
0.0
 30
0.0
  0
VERTEX
  8
Group016
 10
140.35
 20
-2.824999999999999
 30
0.0
  0
VERTEX
  8
Group016
 10
140.35
 20
-16.224999999999998
 30
0.0
  0
SEQEND
  8
Group016
  0
POLYLINE
  8
Group016
 62
0
 70
0
 66
1
 10
0.0
 20
0.0
 30
0.0
  0
VERTEX
  8
Group016
 10
140.04999999999998
 20
-16.525
 30
0.0
  0
VERTEX
  8
Group016
 10
126.64999999999998
 20
-16.525
 30
0.0
  0
SEQEND
  8
Group016
  0
POLYLINE
  8
Group016
 62
0
 70
0
 66
1
 10
0.0
 20
0.0
 30
0.0
  0
VERTEX
  8
Group016
 10
126.35
 20
-16.224999999999998
 30
0.0
  0
VERTEX
  8
Group016
 10
126.35
 20
-2.8249999999999993
 30
0.0
  0
SEQEND
  8
Group016
  0
ARC
  8
Group017
 62
0
 10
145.7
 20
-2.825
 30
0.0
 40
0.3
 50
90.0
 51
-180.0
  0
ARC
  8
Group017
 62
0
 10
145.7
 20
-16.224999999999998
 30
0.0
 40
0.3
 50
-180.0
 51
-90.0
  0
ARC
  8
Group017
 62
0
 10
159.1
 20
-2.824999999999999
 30
0.0
 40
0.3
 50
-0.0
 51
90.0
  0
ARC
  8
Group017
 62
0
 10
159.1
 20
-16.224999999999998
 30
0.0
 40
0.3
 50
-90.0
 51
-0.0
  0
POLYLINE
  8
Group017
 62
0
 70
0
 66
1
 10
0.0
 20
0.0
 30
0.0
  0
VERTEX
  8
Group017
 10
145.7
 20
-2.525
 30
0.0
  0
VERTEX
  8
Group017
 10
159.1
 20
-2.524999999999999
 30
0.0
  0
SEQEND
  8
Group017
  0
POLYLINE
  8
Group017
 62
0
 70
0
 66
1
 10
0.0
 20
0.0
 30
0.0
  0
VERTEX
  8
Group017
 10
159.4
 20
-2.824999999999999
 30
0.0
  0
VERTEX
  8
Group017
 10
159.4
 20
-16.224999999999998
 30
0.0
  0
SEQEND
  8
Group017
  0
POLYLINE
  8
Group017
 62
0
 70
0
 66
1
 10
0.0
 20
0.0
 30
0.0
  0
VERTEX
  8
Group017
 10
159.1
 20
-16.525
 30
0.0
  0
VERTEX
  8
Group017
 10
145.7
 20
-16.525
 30
0.0
  0
SEQEND
  8
Group017
  0
POLYLINE
  8
Group017
 62
0
 70
0
 66
1
 10
0.0
 20
0.0
 30
0.0
  0
VERTEX
  8
Group017
 10
145.4
 20
-16.224999999999998
 30
0.0
  0
VERTEX
  8
Group017
 10
145.4
 20
-2.8249999999999993
 30
0.0
  0
SEQEND
  8
Group017
  0
ARC
  8
Group018
 62
0
 10
164.75
 20
-2.825
 30
0.0
 40
0.3
 50
90.0
 51
-180.0
  0
ARC
  8
Group018
 62
0
 10
164.75
 20
-16.224999999999998
 30
0.0
 40
0.3
 50
-180.0
 51
-90.0
  0
ARC
  8
Group018
 62
0
 10
178.15
 20
-2.824999999999999
 30
0.0
 40
0.3
 50
-0.0
 51
90.0
  0
ARC
  8
Group018
 62
0
 10
178.15
 20
-16.224999999999998
 30
0.0
 40
0.3
 50
-90.0
 51
-0.0
  0
POLYLINE
  8
Group018
 62
0
 70
0
 66
1
 10
0.0
 20
0.0
 30
0.0
  0
VERTEX
  8
Group018
 10
164.75
 20
-2.525
 30
0.0
  0
VERTEX
  8
Group018
 10
178.15
 20
-2.524999999999999
 30
0.0
  0
SEQEND
  8
Group018
  0
POLYLINE
  8
Group018
 62
0
 70
0
 66
1
 10
0.0
 20
0.0
 30
0.0
  0
VERTEX
  8
Group018
 10
178.45000000000002
 20
-2.824999999999999
 30
0.0
  0
VERTEX
  8
Group018
 10
178.45000000000002
 20
-16.224999999999998
 30
0.0
  0
SEQEND
  8
Group018
  0
POLYLINE
  8
Group018
 62
0
 70
0
 66
1
 10
0.0
 20
0.0
 30
0.0
  0
VERTEX
  8
Group018
 10
178.15
 20
-16.525
 30
0.0
  0
VERTEX
  8
Group018
 10
164.75
 20
-16.525
 30
0.0
  0
SEQEND
  8
Group018
  0
POLYLINE
  8
Group018
 62
0
 70
0
 66
1
 10
0.0
 20
0.0
 30
0.0
  0
VERTEX
  8
Group018
 10
164.45000000000002
 20
-16.224999999999998
 30
0.0
  0
VERTEX
  8
Group018
 10
164.45000000000002
 20
-2.8249999999999993
 30
0.0
  0
SEQEND
  8
Group018
  0
ARC
  8
Group019
 62
0
 10
183.8
 20
-2.825
 30
0.0
 40
0.3
 50
90.0
 51
-180.0
  0
ARC
  8
Group019
 62
0
 10
183.8
 20
-16.224999999999998
 30
0.0
 40
0.3
 50
-180.0
 51
-90.0
  0
ARC
  8
Group019
 62
0
 10
197.20000000000002
 20
-2.824999999999999
 30
0.0
 40
0.3
 50
-0.0
 51
90.0
  0
ARC
  8
Group019
 62
0
 10
197.20000000000002
 20
-16.224999999999998
 30
0.0
 40
0.3
 50
-90.0
 51
-0.0
  0
POLYLINE
  8
Group019
 62
0
 70
0
 66
1
 10
0.0
 20
0.0
 30
0.0
  0
VERTEX
  8
Group019
 10
183.8
 20
-2.525
 30
0.0
  0
VERTEX
  8
Group019
 10
197.20000000000002
 20
-2.524999999999999
 30
0.0
  0
SEQEND
  8
Group019
  0
POLYLINE
  8
Group019
 62
0
 70
0
 66
1
 10
0.0
 20
0.0
 30
0.0
  0
VERTEX
  8
Group019
 10
197.50000000000003
 20
-2.824999999999999
 30
0.0
  0
VERTEX
  8
Group019
 10
197.50000000000003
 20
-16.224999999999998
 30
0.0
  0
SEQEND
  8
Group019
  0
POLYLINE
  8
Group019
 62
0
 70
0
 66
1
 10
0.0
 20
0.0
 30
0.0
  0
VERTEX
  8
Group019
 10
197.20000000000002
 20
-16.525
 30
0.0
  0
VERTEX
  8
Group019
 10
183.8
 20
-16.525
 30
0.0
  0
SEQEND
  8
Group019
  0
POLYLINE
  8
Group019
 62
0
 70
0
 66
1
 10
0.0
 20
0.0
 30
0.0
  0
VERTEX
  8
Group019
 10
183.50000000000003
 20
-16.224999999999998
 30
0.0
  0
VERTEX
  8
Group019
 10
183.50000000000003
 20
-2.8249999999999993
 30
0.0
  0
SEQEND
  8
Group019
  0
ARC
  8
Group020
 62
0
 10
202.85000000000002
 20
-2.825
 30
0.0
 40
0.3
 50
90.0
 51
-180.0
  0
ARC
  8
Group020
 62
0
 10
202.85000000000002
 20
-16.224999999999998
 30
0.0
 40
0.3
 50
-180.0
 51
-90.0
  0
ARC
  8
Group020
 62
0
 10
216.25
 20
-2.824999999999999
 30
0.0
 40
0.3
 50
-0.0
 51
90.0
  0
ARC
  8
Group020
 62
0
 10
216.25
 20
-16.224999999999998
 30
0.0
 40
0.3
 50
-90.0
 51
-0.0
  0
POLYLINE
  8
Group020
 62
0
 70
0
 66
1
 10
0.0
 20
0.0
 30
0.0
  0
VERTEX
  8
Group020
 10
202.85000000000002
 20
-2.525
 30
0.0
  0
VERTEX
  8
Group020
 10
216.25000000000003
 20
-2.524999999999999
 30
0.0
  0
SEQEND
  8
Group020
  0
POLYLINE
  8
Group020
 62
0
 70
0
 66
1
 10
0.0
 20
0.0
 30
0.0
  0
VERTEX
  8
Group020
 10
216.55
 20
-2.824999999999999
 30
0.0
  0
VERTEX
  8
Group020
 10
216.55
 20
-16.224999999999998
 30
0.0
  0
SEQEND
  8
Group020
  0
POLYLINE
  8
Group020
 62
0
 70
0
 66
1
 10
0.0
 20
0.0
 30
0.0
  0
VERTEX
  8
Group020
 10
216.25
 20
-16.525
 30
0.0
  0
VERTEX
  8
Group020
 10
202.85
 20
-16.525
 30
0.0
  0
SEQEND
  8
Group020
  0
POLYLINE
  8
Group020
 62
0
 70
0
 66
1
 10
0.0
 20
0.0
 30
0.0
  0
VERTEX
  8
Group020
 10
202.55
 20
-16.224999999999998
 30
0.0
  0
VERTEX
  8
Group020
 10
202.55
 20
-2.8249999999999993
 30
0.0
  0
SEQEND
  8
Group020
  0
ARC
  8
Group021
 62
0
 10
221.90000000000003
 20
-2.825000000000001
 30
0.0
 40
0.3
 50
90.0
 51
-180.0
  0
ARC
  8
Group021
 62
0
 10
221.90000000000003
 20
-16.225
 30
0.0
 40
0.3
 50
-180.0
 51
-90.0
  0
ARC
  8
Group021
 62
0
 10
235.30000000000004
 20
-2.824999999999999
 30
0.0
 40
0.3
 50
-0.0
 51
90.0
  0
ARC
  8
Group021
 62
0
 10
235.30000000000004
 20
-16.225
 30
0.0
 40
0.3
 50
-90.0
 51
-0.0
  0
POLYLINE
  8
Group021
 62
0
 70
0
 66
1
 10
0.0
 20
0.0
 30
0.0
  0
VERTEX
  8
Group021
 10
221.90000000000003
 20
-2.525
 30
0.0
  0
VERTEX
  8
Group021
 10
235.30000000000004
 20
-2.525
 30
0.0
  0
SEQEND
  8
Group021
  0
POLYLINE
  8
Group021
 62
0
 70
0
 66
1
 10
0.0
 20
0.0
 30
0.0
  0
VERTEX
  8
Group021
 10
235.60000000000005
 20
-2.824999999999999
 30
0.0
  0
VERTEX
  8
Group021
 10
235.60000000000005
 20
-16.225
 30
0.0
  0
SEQEND
  8
Group021
  0
POLYLINE
  8
Group021
 62
0
 70
0
 66
1
 10
0.0
 20
0.0
 30
0.0
  0
VERTEX
  8
Group021
 10
235.30000000000004
 20
-16.525
 30
0.0
  0
VERTEX
  8
Group021
 10
221.90000000000003
 20
-16.525
 30
0.0
  0
SEQEND
  8
Group021
  0
POLYLINE
  8
Group021
 62
0
 70
0
 66
1
 10
0.0
 20
0.0
 30
0.0
  0
VERTEX
  8
Group021
 10
221.60000000000005
 20
-16.225
 30
0.0
  0
VERTEX
  8
Group021
 10
221.60000000000005
 20
-2.825000000000003
 30
0.0
  0
SEQEND
  8
Group021
  0
ARC
  8
Group022
 62
0
 10
240.95000000000005
 20
-2.825000000000004
 30
0.0
 40
0.3
 50
90.0
 51
-180.0
  0
ARC
  8
Group022
 62
0
 10
240.95000000000005
 20
-16.225
 30
0.0
 40
0.3
 50
-180.0
 51
-90.0
  0
ARC
  8
Group022
 62
0
 10
254.35000000000005
 20
-2.825000000000002
 30
0.0
 40
0.3
 50
-0.0
 51
90.0
  0
ARC
  8
Group022
 62
0
 10
254.35000000000005
 20
-16.225
 30
0.0
 40
0.3
 50
-90.0
 51
-0.0
  0
POLYLINE
  8
Group022
 62
0
 70
0
 66
1
 10
0.0
 20
0.0
 30
0.0
  0
VERTEX
  8
Group022
 10
240.95000000000005
 20
-2.525000000000003
 30
0.0
  0
VERTEX
  8
Group022
 10
254.35000000000005
 20
-2.525000000000002
 30
0.0
  0
SEQEND
  8
Group022
  0
POLYLINE
  8
Group022
 62
0
 70
0
 66
1
 10
0.0
 20
0.0
 30
0.0
  0
VERTEX
  8
Group022
 10
254.65000000000006
 20
-2.825000000000002
 30
0.0
  0
VERTEX
  8
Group022
 10
254.65000000000006
 20
-16.225
 30
0.0
  0
SEQEND
  8
Group022
  0
POLYLINE
  8
Group022
 62
0
 70
0
 66
1
 10
0.0
 20
0.0
 30
0.0
  0
VERTEX
  8
Group022
 10
254.35000000000005
 20
-16.525000000000002
 30
0.0
  0
VERTEX
  8
Group022
 10
240.95000000000005
 20
-16.525000000000002
 30
0.0
  0
SEQEND
  8
Group022
  0
POLYLINE
  8
Group022
 62
0
 70
0
 66
1
 10
0.0
 20
0.0
 30
0.0
  0
VERTEX
  8
Group022
 10
240.65000000000006
 20
-16.225
 30
0.0
  0
VERTEX
  8
Group022
 10
240.65000000000006
 20
-2.825000000000003
 30
0.0
  0
SEQEND
  8
Group022
  0
ARC
  8
Group023
 62
0
 10
260.00000000000006
 20
-2.825000000000004
 30
0.0
 40
0.3
 50
90.0
 51
-180.0
  0
ARC
  8
Group023
 62
0
 10
260.00000000000006
 20
-16.225
 30
0.0
 40
0.3
 50
-180.0
 51
-90.0
  0
ARC
  8
Group023
 62
0
 10
273.4000000000001
 20
-2.825000000000002
 30
0.0
 40
0.3
 50
-0.0
 51
90.0
  0
ARC
  8
Group023
 62
0
 10
273.4000000000001
 20
-16.225
 30
0.0
 40
0.3
 50
-90.0
 51
-0.0
  0
POLYLINE
  8
Group023
 62
0
 70
0
 66
1
 10
0.0
 20
0.0
 30
0.0
  0
VERTEX
  8
Group023
 10
260.00000000000006
 20
-2.525000000000003
 30
0.0
  0
VERTEX
  8
Group023
 10
273.4000000000001
 20
-2.525000000000002
 30
0.0
  0
SEQEND
  8
Group023
  0
POLYLINE
  8
Group023
 62
0
 70
0
 66
1
 10
0.0
 20
0.0
 30
0.0
  0
VERTEX
  8
Group023
 10
273.70000000000005
 20
-2.825000000000002
 30
0.0
  0
VERTEX
  8
Group023
 10
273.70000000000005
 20
-16.225
 30
0.0
  0
SEQEND
  8
Group023
  0
POLYLINE
  8
Group023
 62
0
 70
0
 66
1
 10
0.0
 20
0.0
 30
0.0
  0
VERTEX
  8
Group023
 10
273.4000000000001
 20
-16.525000000000002
 30
0.0
  0
VERTEX
  8
Group023
 10
260.0000000000001
 20
-16.525000000000002
 30
0.0
  0
SEQEND
  8
Group023
  0
POLYLINE
  8
Group023
 62
0
 70
0
 66
1
 10
0.0
 20
0.0
 30
0.0
  0
VERTEX
  8
Group023
 10
259.70000000000005
 20
-16.225
 30
0.0
  0
VERTEX
  8
Group023
 10
259.70000000000005
 20
-2.825000000000003
 30
0.0
  0
SEQEND
  8
Group023
  0
ARC
  8
Group024
 62
0
 10
279.05000000000007
 20
-2.825000000000004
 30
0.0
 40
0.3
 50
90.0
 51
-180.0
  0
ARC
  8
Group024
 62
0
 10
279.05000000000007
 20
-16.225
 30
0.0
 40
0.3
 50
-180.0
 51
-90.0
  0
ARC
  8
Group024
 62
0
 10
292.4500000000001
 20
-2.825000000000002
 30
0.0
 40
0.3
 50
-0.0
 51
90.0
  0
ARC
  8
Group024
 62
0
 10
292.4500000000001
 20
-16.225
 30
0.0
 40
0.3
 50
-90.0
 51
-0.0
  0
POLYLINE
  8
Group024
 62
0
 70
0
 66
1
 10
0.0
 20
0.0
 30
0.0
  0
VERTEX
  8
Group024
 10
279.05000000000007
 20
-2.525000000000003
 30
0.0
  0
VERTEX
  8
Group024
 10
292.4500000000001
 20
-2.525000000000002
 30
0.0
  0
SEQEND
  8
Group024
  0
POLYLINE
  8
Group024
 62
0
 70
0
 66
1
 10
0.0
 20
0.0
 30
0.0
  0
VERTEX
  8
Group024
 10
292.75000000000006
 20
-2.825000000000002
 30
0.0
  0
VERTEX
  8
Group024
 10
292.75000000000006
 20
-16.225
 30
0.0
  0
SEQEND
  8
Group024
  0
POLYLINE
  8
Group024
 62
0
 70
0
 66
1
 10
0.0
 20
0.0
 30
0.0
  0
VERTEX
  8
Group024
 10
292.4500000000001
 20
-16.525000000000002
 30
0.0
  0
VERTEX
  8
Group024
 10
279.0500000000001
 20
-16.525000000000002
 30
0.0
  0
SEQEND
  8
Group024
  0
POLYLINE
  8
Group024
 62
0
 70
0
 66
1
 10
0.0
 20
0.0
 30
0.0
  0
VERTEX
  8
Group024
 10
278.75000000000006
 20
-16.225
 30
0.0
  0
VERTEX
  8
Group024
 10
278.75000000000006
 20
-2.825000000000003
 30
0.0
  0
SEQEND
  8
Group024
  0
POLYLINE
  8
right008
 62
0
 70
0
 66
1
 10
0.0
 20
0.0
 30
0.0
  0
VERTEX
  8
right008
 10
329.9750000000002
 20
-19.525000000000006
 30
0.0
  0
VERTEX
  8
right008
 10
329.9750000000002
 20
-0.3250000000000135
 30
0.0
  0
SEQEND
  8
right008
  0
ARC
  8
right008
 62
0
 10
329.4750000000002
 20
-19.525000000000006
 30
0.0
 40
0.5
 50
-90.0
 51
-0.0
  0
ARC
  8
right008
 62
0
 10
321.9750000000002
 20
-2.024999999999997
 30
0.0
 40
0.5
 50
-90.0
 51
-0.0
  0
ARC
  8
right008
 62
0
 10
322.9750000000002
 20
-0.325000000000014
 30
0.0
 40
0.5
 50
90.0
 51
-180.0
  0
POLYLINE
  8
right008
 62
0
 70
0
 66
1
 10
0.0
 20
0.0
 30
0.0
  0
VERTEX
  8
right008
 10
329.4750000000002
 20
0.174999999999986
 30
0.0
  0
VERTEX
  8
right008
 10
322.9750000000002
 20
0.174999999999984
 30
0.0
  0
SEQEND
  8
right008
  0
ARC
  8
right008
 62
0
 10
329.4750000000002
 20
-0.325000000000014
 30
0.0
 40
0.5
 50
-0.0
 51
90.0
  0
POLYLINE
  8
left008
 62
0
 70
0
 66
1
 10
0.0
 20
0.0
 30
0.0
  0
VERTEX
  8
left008
 10
298.6750000000001
 20
-19.52499999999999
 30
0.0
  0
VERTEX
  8
left008
 10
298.6750000000001
 20
-0.32500000000000284
 30
0.0
  0
SEQEND
  8
left008
  0
ARC
  8
left008
 62
0
 10
299.1750000000001
 20
-19.52499999999999
 30
0.0
 40
0.5
 50
-180.0
 51
-90.0
  0
ARC
  8
left008
 62
0
 10
306.6750000000001
 20
-2.024999999999995
 30
0.0
 40
0.5
 50
-180.0
 51
-90.0
  0
ARC
  8
left008
 62
0
 10
305.6750000000001
 20
-0.324999999999999
 30
0.0
 40
0.5
 50
-0.0
 51
90.0
  0
POLYLINE
  8
left008
 62
0
 70
0
 66
1
 10
0.0
 20
0.0
 30
0.0
  0
VERTEX
  8
left008
 10
305.6750000000001
 20
0.175000000000001
 30
0.0
  0
VERTEX
  8
left008
 10
299.1750000000001
 20
0.175000000000001
 30
0.0
  0
SEQEND
  8
left008
  0
ARC
  8
left008
 62
0
 10
299.1750000000001
 20
-0.324999999999999
 30
0.0
 40
0.5
 50
90.0
 51
-180.0
  0
POLYLINE
  8
backspace
 62
0
 70
0
 66
1
 10
0.0
 20
0.0
 30
0.0
  0
VERTEX
  8
backspace
 10
299.1750000000001
 20
-20.02499999999999
 30
0.0
  0
VERTEX
  8
backspace
 10
329.4750000000002
 20
-20.025000000000006
 30
0.0
  0
SEQEND
  8
backspace
  0
POLYLINE
  8
backspace
 62
0
 70
0
 66
1
 10
0.0
 20
0.0
 30
0.0
  0
VERTEX
  8
backspace
 10
306.1750000000001
 20
-2.024999999999995
 30
0.0
  0
VERTEX
  8
backspace
 10
306.1750000000001
 20
-0.32499999999999907
 30
0.0
  0
SEQEND
  8
backspace
  0
POLYLINE
  8
backspace
 62
0
 70
0
 66
1
 10
0.0
 20
0.0
 30
0.0
  0
VERTEX
  8
backspace
 10
306.6750000000001
 20
-2.524999999999995
 30
0.0
  0
VERTEX
  8
backspace
 10
321.9750000000002
 20
-2.5249999999999972
 30
0.0
  0
SEQEND
  8
backspace
  0
POLYLINE
  8
backspace
 62
0
 70
0
 66
1
 10
0.0
 20
0.0
 30
0.0
  0
VERTEX
  8
backspace
 10
322.4750000000002
 20
-2.024999999999997
 30
0.0
  0
VERTEX
  8
backspace
 10
322.4750000000002
 20
-0.32500000000001283
 30
0.0
  0
SEQEND
  8
backspace
  0
POLYLINE
  8
Group028
 62
0
 70
0
 66
1
 10
0.0
 20
0.0
 30
0.0
  0
VERTEX
  8
Group028
 10
55.212500000000006
 20
-21.574999999999992
 30
0.0
  0
VERTEX
  8
Group028
 10
68.61250000000001
 20
-21.574999999999992
 30
0.0
  0
SEQEND
  8
Group028
  0
POLYLINE
  8
Group028
 62
0
 70
0
 66
1
 10
0.0
 20
0.0
 30
0.0
  0
VERTEX
  8
Group028
 10
68.6125
 20
-35.57499999999999
 30
0.0
  0
VERTEX
  8
Group028
 10
55.2125
 20
-35.57499999999999
 30
0.0
  0
SEQEND
  8
Group028
  0
POLYLINE
  8
Group028
 62
0
 70
0
 66
1
 10
0.0
 20
0.0
 30
0.0
  0
VERTEX
  8
Group028
 10
68.91250000000001
 20
-21.874999999999993
 30
0.0
  0
VERTEX
  8
Group028
 10
68.91250000000001
 20
-35.27499999999999
 30
0.0
  0
SEQEND
  8
Group028
  0
ARC
  8
Group028
 62
0
 10
55.2125
 20
-35.27499999999999
 30
0.0
 40
0.3
 50
-180.0
 51
-90.0
  0
ARC
  8
Group028
 62
0
 10
68.6125
 20
-35.27499999999999
 30
0.0
 40
0.3
 50
-90.0
 51
-0.0
  0
ARC
  8
Group028
 62
0
 10
68.61250000000001
 20
-21.874999999999993
 30
0.0
 40
0.3
 50
-0.0
 51
90.0
  0
ARC
  8
Group028
 62
0
 10
55.212500000000006
 20
-21.874999999999993
 30
0.0
 40
0.3
 50
90.0
 51
-180.0
  0
POLYLINE
  8
Group028
 62
0
 70
0
 66
1
 10
0.0
 20
0.0
 30
0.0
  0
VERTEX
  8
Group028
 10
54.9125
 20
-35.27499999999999
 30
0.0
  0
VERTEX
  8
Group028
 10
54.9125
 20
-21.874999999999993
 30
0.0
  0
SEQEND
  8
Group028
  0
ARC
  8
Group029
 62
0
 10
79.025
 20
-21.874999999999996
 30
0.0
 40
0.3
 50
90.0
 51
-180.0
  0
ARC
  8
Group029
 62
0
 10
79.025
 20
-35.27499999999999
 30
0.0
 40
0.3
 50
-180.0
 51
-90.0
  0
ARC
  8
Group029
 62
0
 10
92.42500000000001
 20
-21.874999999999996
 30
0.0
 40
0.3
 50
-0.0
 51
90.0
  0
ARC
  8
Group029
 62
0
 10
92.425
 20
-35.27499999999999
 30
0.0
 40
0.3
 50
-90.0
 51
-0.0
  0
POLYLINE
  8
Group029
 62
0
 70
0
 66
1
 10
0.0
 20
0.0
 30
0.0
  0
VERTEX
  8
Group029
 10
79.025
 20
-21.574999999999996
 30
0.0
  0
VERTEX
  8
Group029
 10
92.42500000000001
 20
-21.574999999999996
 30
0.0
  0
SEQEND
  8
Group029
  0
POLYLINE
  8
Group029
 62
0
 70
0
 66
1
 10
0.0
 20
0.0
 30
0.0
  0
VERTEX
  8
Group029
 10
92.72500000000001
 20
-21.874999999999996
 30
0.0
  0
VERTEX
  8
Group029
 10
92.72500000000001
 20
-35.27499999999999
 30
0.0
  0
SEQEND
  8
Group029
  0
POLYLINE
  8
Group029
 62
0
 70
0
 66
1
 10
0.0
 20
0.0
 30
0.0
  0
VERTEX
  8
Group029
 10
92.425
 20
-35.574999999999996
 30
0.0
  0
VERTEX
  8
Group029
 10
79.025
 20
-35.574999999999996
 30
0.0
  0
SEQEND
  8
Group029
  0
POLYLINE
  8
Group029
 62
0
 70
0
 66
1
 10
0.0
 20
0.0
 30
0.0
  0
VERTEX
  8
Group029
 10
78.725
 20
-35.27499999999999
 30
0.0
  0
VERTEX
  8
Group029
 10
78.725
 20
-21.874999999999993
 30
0.0
  0
SEQEND
  8
Group029
  0
ARC
  8
Group030
 62
0
 10
98.075
 20
-21.874999999999993
 30
0.0
 40
0.3
 50
90.0
 51
-180.0
  0
ARC
  8
Group030
 62
0
 10
98.075
 20
-35.27499999999999
 30
0.0
 40
0.3
 50
-180.0
 51
-90.0
  0
ARC
  8
Group030
 62
0
 10
111.47500000000001
 20
-21.874999999999993
 30
0.0
 40
0.3
 50
-0.0
 51
90.0
  0
ARC
  8
Group030
 62
0
 10
111.475
 20
-35.27499999999999
 30
0.0
 40
0.3
 50
-90.0
 51
-0.0
  0
POLYLINE
  8
Group030
 62
0
 70
0
 66
1
 10
0.0
 20
0.0
 30
0.0
  0
VERTEX
  8
Group030
 10
98.075
 20
-21.574999999999992
 30
0.0
  0
VERTEX
  8
Group030
 10
111.47500000000001
 20
-21.574999999999992
 30
0.0
  0
SEQEND
  8
Group030
  0
POLYLINE
  8
Group030
 62
0
 70
0
 66
1
 10
0.0
 20
0.0
 30
0.0
  0
VERTEX
  8
Group030
 10
111.775
 20
-21.874999999999993
 30
0.0
  0
VERTEX
  8
Group030
 10
111.775
 20
-35.27499999999999
 30
0.0
  0
SEQEND
  8
Group030
  0
POLYLINE
  8
Group030
 62
0
 70
0
 66
1
 10
0.0
 20
0.0
 30
0.0
  0
VERTEX
  8
Group030
 10
111.475
 20
-35.57499999999999
 30
0.0
  0
VERTEX
  8
Group030
 10
98.075
 20
-35.57499999999999
 30
0.0
  0
SEQEND
  8
Group030
  0
POLYLINE
  8
Group030
 62
0
 70
0
 66
1
 10
0.0
 20
0.0
 30
0.0
  0
VERTEX
  8
Group030
 10
97.77499999999999
 20
-35.27499999999999
 30
0.0
  0
VERTEX
  8
Group030
 10
97.77499999999999
 20
-21.874999999999993
 30
0.0
  0
SEQEND
  8
Group030
  0
ARC
  8
Group031
 62
0
 10
117.125
 20
-21.874999999999993
 30
0.0
 40
0.3
 50
90.0
 51
-180.0
  0
ARC
  8
Group031
 62
0
 10
117.125
 20
-35.27499999999999
 30
0.0
 40
0.3
 50
-180.0
 51
-90.0
  0
ARC
  8
Group031
 62
0
 10
130.525
 20
-21.874999999999993
 30
0.0
 40
0.3
 50
-0.0
 51
90.0
  0
ARC
  8
Group031
 62
0
 10
130.52499999999998
 20
-35.27499999999999
 30
0.0
 40
0.3
 50
-90.0
 51
-0.0
  0
POLYLINE
  8
Group031
 62
0
 70
0
 66
1
 10
0.0
 20
0.0
 30
0.0
  0
VERTEX
  8
Group031
 10
117.125
 20
-21.574999999999992
 30
0.0
  0
VERTEX
  8
Group031
 10
130.525
 20
-21.574999999999992
 30
0.0
  0
SEQEND
  8
Group031
  0
POLYLINE
  8
Group031
 62
0
 70
0
 66
1
 10
0.0
 20
0.0
 30
0.0
  0
VERTEX
  8
Group031
 10
130.825
 20
-21.874999999999993
 30
0.0
  0
VERTEX
  8
Group031
 10
130.825
 20
-35.27499999999999
 30
0.0
  0
SEQEND
  8
Group031
  0
POLYLINE
  8
Group031
 62
0
 70
0
 66
1
 10
0.0
 20
0.0
 30
0.0
  0
VERTEX
  8
Group031
 10
130.52499999999998
 20
-35.57499999999999
 30
0.0
  0
VERTEX
  8
Group031
 10
117.12499999999999
 20
-35.57499999999999
 30
0.0
  0
SEQEND
  8
Group031
  0
POLYLINE
  8
Group031
 62
0
 70
0
 66
1
 10
0.0
 20
0.0
 30
0.0
  0
VERTEX
  8
Group031
 10
116.82499999999999
 20
-35.27499999999999
 30
0.0
  0
VERTEX
  8
Group031
 10
116.82499999999999
 20
-21.874999999999993
 30
0.0
  0
SEQEND
  8
Group031
  0
ARC
  8
Group032
 62
0
 10
136.175
 20
-21.874999999999993
 30
0.0
 40
0.3
 50
90.0
 51
-180.0
  0
ARC
  8
Group032
 62
0
 10
136.175
 20
-35.27499999999999
 30
0.0
 40
0.3
 50
-180.0
 51
-90.0
  0
ARC
  8
Group032
 62
0
 10
149.575
 20
-21.874999999999993
 30
0.0
 40
0.3
 50
-0.0
 51
90.0
  0
ARC
  8
Group032
 62
0
 10
149.575
 20
-35.27499999999999
 30
0.0
 40
0.3
 50
-90.0
 51
-0.0
  0
POLYLINE
  8
Group032
 62
0
 70
0
 66
1
 10
0.0
 20
0.0
 30
0.0
  0
VERTEX
  8
Group032
 10
136.175
 20
-21.574999999999992
 30
0.0
  0
VERTEX
  8
Group032
 10
149.57500000000002
 20
-21.574999999999992
 30
0.0
  0
SEQEND
  8
Group032
  0
POLYLINE
  8
Group032
 62
0
 70
0
 66
1
 10
0.0
 20
0.0
 30
0.0
  0
VERTEX
  8
Group032
 10
149.875
 20
-21.874999999999993
 30
0.0
  0
VERTEX
  8
Group032
 10
149.875
 20
-35.27499999999999
 30
0.0
  0
SEQEND
  8
Group032
  0
POLYLINE
  8
Group032
 62
0
 70
0
 66
1
 10
0.0
 20
0.0
 30
0.0
  0
VERTEX
  8
Group032
 10
149.575
 20
-35.57499999999999
 30
0.0
  0
VERTEX
  8
Group032
 10
136.175
 20
-35.57499999999999
 30
0.0
  0
SEQEND
  8
Group032
  0
POLYLINE
  8
Group032
 62
0
 70
0
 66
1
 10
0.0
 20
0.0
 30
0.0
  0
VERTEX
  8
Group032
 10
135.875
 20
-35.27499999999999
 30
0.0
  0
VERTEX
  8
Group032
 10
135.875
 20
-21.874999999999993
 30
0.0
  0
SEQEND
  8
Group032
  0
ARC
  8
Group033
 62
0
 10
155.225
 20
-21.874999999999993
 30
0.0
 40
0.3
 50
90.0
 51
-180.0
  0
ARC
  8
Group033
 62
0
 10
155.225
 20
-35.27499999999999
 30
0.0
 40
0.3
 50
-180.0
 51
-90.0
  0
ARC
  8
Group033
 62
0
 10
168.62499999999997
 20
-21.874999999999993
 30
0.0
 40
0.3
 50
-0.0
 51
90.0
  0
ARC
  8
Group033
 62
0
 10
168.62499999999997
 20
-35.27499999999999
 30
0.0
 40
0.3
 50
-90.0
 51
-0.0
  0
POLYLINE
  8
Group033
 62
0
 70
0
 66
1
 10
0.0
 20
0.0
 30
0.0
  0
VERTEX
  8
Group033
 10
155.225
 20
-21.574999999999992
 30
0.0
  0
VERTEX
  8
Group033
 10
168.625
 20
-21.574999999999992
 30
0.0
  0
SEQEND
  8
Group033
  0
POLYLINE
  8
Group033
 62
0
 70
0
 66
1
 10
0.0
 20
0.0
 30
0.0
  0
VERTEX
  8
Group033
 10
168.92499999999998
 20
-21.874999999999993
 30
0.0
  0
VERTEX
  8
Group033
 10
168.92499999999998
 20
-35.27499999999999
 30
0.0
  0
SEQEND
  8
Group033
  0
POLYLINE
  8
Group033
 62
0
 70
0
 66
1
 10
0.0
 20
0.0
 30
0.0
  0
VERTEX
  8
Group033
 10
168.62499999999997
 20
-35.57499999999999
 30
0.0
  0
VERTEX
  8
Group033
 10
155.225
 20
-35.57499999999999
 30
0.0
  0
SEQEND
  8
Group033
  0
POLYLINE
  8
Group033
 62
0
 70
0
 66
1
 10
0.0
 20
0.0
 30
0.0
  0
VERTEX
  8
Group033
 10
154.92499999999998
 20
-35.27499999999999
 30
0.0
  0
VERTEX
  8
Group033
 10
154.92499999999998
 20
-21.874999999999993
 30
0.0
  0
SEQEND
  8
Group033
  0
ARC
  8
Group034
 62
0
 10
174.27499999999998
 20
-21.874999999999993
 30
0.0
 40
0.3
 50
90.0
 51
-180.0
  0
ARC
  8
Group034
 62
0
 10
174.27499999999998
 20
-35.27499999999999
 30
0.0
 40
0.3
 50
-180.0
 51
-90.0
  0
ARC
  8
Group034
 62
0
 10
187.67499999999995
 20
-21.874999999999993
 30
0.0
 40
0.3
 50
-0.0
 51
90.0
  0
ARC
  8
Group034
 62
0
 10
187.67499999999995
 20
-35.27499999999999
 30
0.0
 40
0.3
 50
-90.0
 51
-0.0
  0
POLYLINE
  8
Group034
 62
0
 70
0
 66
1
 10
0.0
 20
0.0
 30
0.0
  0
VERTEX
  8
Group034
 10
174.27499999999998
 20
-21.574999999999992
 30
0.0
  0
VERTEX
  8
Group034
 10
187.67499999999998
 20
-21.574999999999992
 30
0.0
  0
SEQEND
  8
Group034
  0
POLYLINE
  8
Group034
 62
0
 70
0
 66
1
 10
0.0
 20
0.0
 30
0.0
  0
VERTEX
  8
Group034
 10
187.97499999999997
 20
-21.874999999999993
 30
0.0
  0
VERTEX
  8
Group034
 10
187.97499999999997
 20
-35.27499999999999
 30
0.0
  0
SEQEND
  8
Group034
  0
POLYLINE
  8
Group034
 62
0
 70
0
 66
1
 10
0.0
 20
0.0
 30
0.0
  0
VERTEX
  8
Group034
 10
187.67499999999995
 20
-35.57499999999999
 30
0.0
  0
VERTEX
  8
Group034
 10
174.27499999999998
 20
-35.57499999999999
 30
0.0
  0
SEQEND
  8
Group034
  0
POLYLINE
  8
Group034
 62
0
 70
0
 66
1
 10
0.0
 20
0.0
 30
0.0
  0
VERTEX
  8
Group034
 10
173.97499999999997
 20
-35.27499999999999
 30
0.0
  0
VERTEX
  8
Group034
 10
173.97499999999997
 20
-21.874999999999993
 30
0.0
  0
SEQEND
  8
Group034
  0
ARC
  8
Group035
 62
0
 10
193.32499999999996
 20
-21.874999999999993
 30
0.0
 40
0.3
 50
90.0
 51
-180.0
  0
ARC
  8
Group035
 62
0
 10
193.32499999999996
 20
-35.27499999999999
 30
0.0
 40
0.3
 50
-180.0
 51
-90.0
  0
ARC
  8
Group035
 62
0
 10
206.72499999999994
 20
-21.874999999999993
 30
0.0
 40
0.3
 50
-0.0
 51
90.0
  0
ARC
  8
Group035
 62
0
 10
206.72499999999994
 20
-35.27499999999999
 30
0.0
 40
0.3
 50
-90.0
 51
-0.0
  0
POLYLINE
  8
Group035
 62
0
 70
0
 66
1
 10
0.0
 20
0.0
 30
0.0
  0
VERTEX
  8
Group035
 10
193.32499999999996
 20
-21.574999999999992
 30
0.0
  0
VERTEX
  8
Group035
 10
206.72499999999997
 20
-21.574999999999992
 30
0.0
  0
SEQEND
  8
Group035
  0
POLYLINE
  8
Group035
 62
0
 70
0
 66
1
 10
0.0
 20
0.0
 30
0.0
  0
VERTEX
  8
Group035
 10
207.02499999999995
 20
-21.874999999999993
 30
0.0
  0
VERTEX
  8
Group035
 10
207.02499999999995
 20
-35.27499999999999
 30
0.0
  0
SEQEND
  8
Group035
  0
POLYLINE
  8
Group035
 62
0
 70
0
 66
1
 10
0.0
 20
0.0
 30
0.0
  0
VERTEX
  8
Group035
 10
206.72499999999994
 20
-35.57499999999999
 30
0.0
  0
VERTEX
  8
Group035
 10
193.32499999999996
 20
-35.57499999999999
 30
0.0
  0
SEQEND
  8
Group035
  0
POLYLINE
  8
Group035
 62
0
 70
0
 66
1
 10
0.0
 20
0.0
 30
0.0
  0
VERTEX
  8
Group035
 10
193.02499999999995
 20
-35.27499999999999
 30
0.0
  0
VERTEX
  8
Group035
 10
193.02499999999995
 20
-21.874999999999993
 30
0.0
  0
SEQEND
  8
Group035
  0
ARC
  8
Group036
 62
0
 10
212.37499999999994
 20
-21.874999999999993
 30
0.0
 40
0.3
 50
90.0
 51
-180.0
  0
ARC
  8
Group036
 62
0
 10
212.37499999999994
 20
-35.27499999999999
 30
0.0
 40
0.3
 50
-180.0
 51
-90.0
  0
ARC
  8
Group036
 62
0
 10
225.77499999999992
 20
-21.874999999999993
 30
0.0
 40
0.3
 50
-0.0
 51
90.0
  0
ARC
  8
Group036
 62
0
 10
225.77499999999992
 20
-35.27499999999999
 30
0.0
 40
0.3
 50
-90.0
 51
-0.0
  0
POLYLINE
  8
Group036
 62
0
 70
0
 66
1
 10
0.0
 20
0.0
 30
0.0
  0
VERTEX
  8
Group036
 10
212.37499999999994
 20
-21.574999999999992
 30
0.0
  0
VERTEX
  8
Group036
 10
225.77499999999995
 20
-21.574999999999992
 30
0.0
  0
SEQEND
  8
Group036
  0
POLYLINE
  8
Group036
 62
0
 70
0
 66
1
 10
0.0
 20
0.0
 30
0.0
  0
VERTEX
  8
Group036
 10
226.07499999999993
 20
-21.874999999999993
 30
0.0
  0
VERTEX
  8
Group036
 10
226.07499999999993
 20
-35.27499999999999
 30
0.0
  0
SEQEND
  8
Group036
  0
POLYLINE
  8
Group036
 62
0
 70
0
 66
1
 10
0.0
 20
0.0
 30
0.0
  0
VERTEX
  8
Group036
 10
225.77499999999992
 20
-35.57499999999999
 30
0.0
  0
VERTEX
  8
Group036
 10
212.37499999999994
 20
-35.57499999999999
 30
0.0
  0
SEQEND
  8
Group036
  0
POLYLINE
  8
Group036
 62
0
 70
0
 66
1
 10
0.0
 20
0.0
 30
0.0
  0
VERTEX
  8
Group036
 10
212.07499999999993
 20
-35.27499999999999
 30
0.0
  0
VERTEX
  8
Group036
 10
212.07499999999993
 20
-21.874999999999993
 30
0.0
  0
SEQEND
  8
Group036
  0
ARC
  8
Group037
 62
0
 10
231.42499999999993
 20
-21.874999999999993
 30
0.0
 40
0.3
 50
90.0
 51
-180.0
  0
ARC
  8
Group037
 62
0
 10
231.42499999999993
 20
-35.27499999999999
 30
0.0
 40
0.3
 50
-180.0
 51
-90.0
  0
ARC
  8
Group037
 62
0
 10
244.8249999999999
 20
-21.874999999999993
 30
0.0
 40
0.3
 50
-0.0
 51
90.0
  0
ARC
  8
Group037
 62
0
 10
244.8249999999999
 20
-35.27499999999999
 30
0.0
 40
0.3
 50
-90.0
 51
-0.0
  0
POLYLINE
  8
Group037
 62
0
 70
0
 66
1
 10
0.0
 20
0.0
 30
0.0
  0
VERTEX
  8
Group037
 10
231.42499999999993
 20
-21.574999999999992
 30
0.0
  0
VERTEX
  8
Group037
 10
244.82499999999993
 20
-21.574999999999992
 30
0.0
  0
SEQEND
  8
Group037
  0
POLYLINE
  8
Group037
 62
0
 70
0
 66
1
 10
0.0
 20
0.0
 30
0.0
  0
VERTEX
  8
Group037
 10
245.12499999999991
 20
-21.874999999999993
 30
0.0
  0
VERTEX
  8
Group037
 10
245.12499999999991
 20
-35.27499999999999
 30
0.0
  0
SEQEND
  8
Group037
  0
POLYLINE
  8
Group037
 62
0
 70
0
 66
1
 10
0.0
 20
0.0
 30
0.0
  0
VERTEX
  8
Group037
 10
244.8249999999999
 20
-35.57499999999999
 30
0.0
  0
VERTEX
  8
Group037
 10
231.42499999999993
 20
-35.57499999999999
 30
0.0
  0
SEQEND
  8
Group037
  0
POLYLINE
  8
Group037
 62
0
 70
0
 66
1
 10
0.0
 20
0.0
 30
0.0
  0
VERTEX
  8
Group037
 10
231.12499999999991
 20
-35.27499999999999
 30
0.0
  0
VERTEX
  8
Group037
 10
231.12499999999991
 20
-21.874999999999993
 30
0.0
  0
SEQEND
  8
Group037
  0
ARC
  8
Group038
 62
0
 10
250.4749999999999
 20
-21.874999999999993
 30
0.0
 40
0.3
 50
90.0
 51
-180.0
  0
ARC
  8
Group038
 62
0
 10
250.4749999999999
 20
-35.27499999999999
 30
0.0
 40
0.3
 50
-180.0
 51
-90.0
  0
ARC
  8
Group038
 62
0
 10
263.8749999999999
 20
-21.874999999999993
 30
0.0
 40
0.3
 50
-0.0
 51
90.0
  0
ARC
  8
Group038
 62
0
 10
263.8749999999999
 20
-35.27499999999999
 30
0.0
 40
0.3
 50
-90.0
 51
-0.0
  0
POLYLINE
  8
Group038
 62
0
 70
0
 66
1
 10
0.0
 20
0.0
 30
0.0
  0
VERTEX
  8
Group038
 10
250.4749999999999
 20
-21.574999999999992
 30
0.0
  0
VERTEX
  8
Group038
 10
263.8749999999999
 20
-21.574999999999992
 30
0.0
  0
SEQEND
  8
Group038
  0
POLYLINE
  8
Group038
 62
0
 70
0
 66
1
 10
0.0
 20
0.0
 30
0.0
  0
VERTEX
  8
Group038
 10
264.17499999999984
 20
-21.874999999999993
 30
0.0
  0
VERTEX
  8
Group038
 10
264.17499999999984
 20
-35.27499999999999
 30
0.0
  0
SEQEND
  8
Group038
  0
POLYLINE
  8
Group038
 62
0
 70
0
 66
1
 10
0.0
 20
0.0
 30
0.0
  0
VERTEX
  8
Group038
 10
263.8749999999999
 20
-35.57499999999999
 30
0.0
  0
VERTEX
  8
Group038
 10
250.4749999999999
 20
-35.57499999999999
 30
0.0
  0
SEQEND
  8
Group038
  0
POLYLINE
  8
Group038
 62
0
 70
0
 66
1
 10
0.0
 20
0.0
 30
0.0
  0
VERTEX
  8
Group038
 10
250.1749999999999
 20
-35.27499999999999
 30
0.0
  0
VERTEX
  8
Group038
 10
250.1749999999999
 20
-21.874999999999993
 30
0.0
  0
SEQEND
  8
Group038
  0
ARC
  8
Group039
 62
0
 10
269.52499999999986
 20
-21.874999999999993
 30
0.0
 40
0.3
 50
90.0
 51
-180.0
  0
ARC
  8
Group039
 62
0
 10
269.52499999999986
 20
-35.27499999999999
 30
0.0
 40
0.3
 50
-180.0
 51
-90.0
  0
ARC
  8
Group039
 62
0
 10
282.92499999999984
 20
-21.874999999999993
 30
0.0
 40
0.3
 50
-0.0
 51
90.0
  0
ARC
  8
Group039
 62
0
 10
282.92499999999984
 20
-35.27499999999999
 30
0.0
 40
0.3
 50
-90.0
 51
-0.0
  0
POLYLINE
  8
Group039
 62
0
 70
0
 66
1
 10
0.0
 20
0.0
 30
0.0
  0
VERTEX
  8
Group039
 10
269.52499999999986
 20
-21.574999999999992
 30
0.0
  0
VERTEX
  8
Group039
 10
282.92499999999984
 20
-21.574999999999992
 30
0.0
  0
SEQEND
  8
Group039
  0
POLYLINE
  8
Group039
 62
0
 70
0
 66
1
 10
0.0
 20
0.0
 30
0.0
  0
VERTEX
  8
Group039
 10
283.2249999999998
 20
-21.874999999999993
 30
0.0
  0
VERTEX
  8
Group039
 10
283.2249999999998
 20
-35.27499999999999
 30
0.0
  0
SEQEND
  8
Group039
  0
POLYLINE
  8
Group039
 62
0
 70
0
 66
1
 10
0.0
 20
0.0
 30
0.0
  0
VERTEX
  8
Group039
 10
282.92499999999984
 20
-35.57499999999999
 30
0.0
  0
VERTEX
  8
Group039
 10
269.52499999999986
 20
-35.57499999999999
 30
0.0
  0
SEQEND
  8
Group039
  0
POLYLINE
  8
Group039
 62
0
 70
0
 66
1
 10
0.0
 20
0.0
 30
0.0
  0
VERTEX
  8
Group039
 10
269.2249999999998
 20
-35.27499999999999
 30
0.0
  0
VERTEX
  8
Group039
 10
269.2249999999998
 20
-21.874999999999993
 30
0.0
  0
SEQEND
  8
Group039
  0
ARC
  8
Group040
 62
0
 10
288.5749999999998
 20
-21.874999999999993
 30
0.0
 40
0.3
 50
90.0
 51
-180.0
  0
ARC
  8
Group040
 62
0
 10
288.5749999999998
 20
-35.27499999999999
 30
0.0
 40
0.3
 50
-180.0
 51
-90.0
  0
ARC
  8
Group040
 62
0
 10
301.9749999999998
 20
-21.874999999999993
 30
0.0
 40
0.3
 50
-0.0
 51
90.0
  0
ARC
  8
Group040
 62
0
 10
301.9749999999998
 20
-35.27499999999999
 30
0.0
 40
0.3
 50
-90.0
 51
-0.0
  0
POLYLINE
  8
Group040
 62
0
 70
0
 66
1
 10
0.0
 20
0.0
 30
0.0
  0
VERTEX
  8
Group040
 10
288.5749999999998
 20
-21.574999999999992
 30
0.0
  0
VERTEX
  8
Group040
 10
301.9749999999998
 20
-21.574999999999992
 30
0.0
  0
SEQEND
  8
Group040
  0
POLYLINE
  8
Group040
 62
0
 70
0
 66
1
 10
0.0
 20
0.0
 30
0.0
  0
VERTEX
  8
Group040
 10
302.27499999999975
 20
-21.874999999999993
 30
0.0
  0
VERTEX
  8
Group040
 10
302.27499999999975
 20
-35.27499999999999
 30
0.0
  0
SEQEND
  8
Group040
  0
POLYLINE
  8
Group040
 62
0
 70
0
 66
1
 10
0.0
 20
0.0
 30
0.0
  0
VERTEX
  8
Group040
 10
301.9749999999998
 20
-35.57499999999999
 30
0.0
  0
VERTEX
  8
Group040
 10
288.5749999999998
 20
-35.57499999999999
 30
0.0
  0
SEQEND
  8
Group040
  0
POLYLINE
  8
Group040
 62
0
 70
0
 66
1
 10
0.0
 20
0.0
 30
0.0
  0
VERTEX
  8
Group040
 10
288.27499999999975
 20
-35.27499999999999
 30
0.0
  0
VERTEX
  8
Group040
 10
288.27499999999975
 20
-21.874999999999993
 30
0.0
  0
SEQEND
  8
Group040
  0
POLYLINE
  8
Group041
 62
0
 70
0
 66
1
 10
0.0
 20
0.0
 30
0.0
  0
VERTEX
  8
Group041
 10
293.3375
 20
-40.624999999999986
 30
0.0
  0
VERTEX
  8
Group041
 10
306.73749999999995
 20
-40.624999999999986
 30
0.0
  0
SEQEND
  8
Group041
  0
POLYLINE
  8
Group041
 62
0
 70
0
 66
1
 10
0.0
 20
0.0
 30
0.0
  0
VERTEX
  8
Group041
 10
306.73750000000007
 20
-54.624999999999986
 30
0.0
  0
VERTEX
  8
Group041
 10
293.3375000000001
 20
-54.624999999999986
 30
0.0
  0
SEQEND
  8
Group041
  0
POLYLINE
  8
Group041
 62
0
 70
0
 66
1
 10
0.0
 20
0.0
 30
0.0
  0
VERTEX
  8
Group041
 10
307.0375
 20
-40.92499999999998
 30
0.0
  0
VERTEX
  8
Group041
 10
307.0375
 20
-54.32499999999998
 30
0.0
  0
SEQEND
  8
Group041
  0
ARC
  8
Group041
 62
0
 10
293.3375
 20
-54.32499999999999
 30
0.0
 40
0.3
 50
-180.0
 51
-90.0
  0
ARC
  8
Group041
 62
0
 10
306.73750000000007
 20
-54.32499999999999
 30
0.0
 40
0.3
 50
-90.0
 51
-0.0
  0
ARC
  8
Group041
 62
0
 10
306.73750000000007
 20
-40.92499999999998
 30
0.0
 40
0.3
 50
-0.0
 51
90.0
  0
ARC
  8
Group041
 62
0
 10
293.3375
 20
-40.92499999999998
 30
0.0
 40
0.3
 50
90.0
 51
-180.0
  0
POLYLINE
  8
Group041
 62
0
 70
0
 66
1
 10
0.0
 20
0.0
 30
0.0
  0
VERTEX
  8
Group041
 10
293.0375
 20
-54.32499999999999
 30
0.0
  0
VERTEX
  8
Group041
 10
293.0375
 20
-40.92499999999999
 30
0.0
  0
SEQEND
  8
Group041
  0
POLYLINE
  8
capslock
 62
0
 70
0
 66
1
 10
0.0
 20
0.0
 30
0.0
  0
VERTEX
  8
capslock
 10
71.29375000000002
 20
-40.92499999999999
 30
0.0
  0
VERTEX
  8
capslock
 10
71.29375000000002
 20
-54.32499999999999
 30
0.0
  0
SEQEND
  8
capslock
  0
ARC
  8
capslock
 62
0
 10
70.99375
 20
-40.92499999999999
 30
0.0
 40
0.3
 50
-0.0
 51
90.0
  0
ARC
  8
capslock
 62
0
 10
70.99375
 20
-54.32499999999999
 30
0.0
 40
0.3
 50
-90.0
 51
-0.0
  0
ARC
  8
capslock
 62
0
 10
52.831250000000004
 20
-40.92499999999999
 30
0.0
 40
0.3
 50
90.0
 51
-180.0
  0
ARC
  8
capslock
 62
0
 10
52.83125
 20
-54.32499999999999
 30
0.0
 40
0.3
 50
-180.0
 51
-90.0
  0
POLYLINE
  8
capslock
 62
0
 70
0
 66
1
 10
0.0
 20
0.0
 30
0.0
  0
VERTEX
  8
capslock
 10
52.53125
 20
-54.32499999999999
 30
0.0
  0
VERTEX
  8
capslock
 10
52.53125
 20
-40.92499999999999
 30
0.0
  0
SEQEND
  8
capslock
  0
POLYLINE
  8
capslock
 62
0
 70
0
 66
1
 10
0.0
 20
0.0
 30
0.0
  0
VERTEX
  8
capslock
 10
52.831250000000004
 20
-40.62499999999999
 30
0.0
  0
VERTEX
  8
capslock
 10
70.99375
 20
-40.62499999999999
 30
0.0
  0
SEQEND
  8
capslock
  0
POLYLINE
  8
capslock
 62
0
 70
0
 66
1
 10
0.0
 20
0.0
 30
0.0
  0
VERTEX
  8
capslock
 10
70.99375
 20
-54.624999999999986
 30
0.0
  0
VERTEX
  8
capslock
 10
52.83125
 20
-54.624999999999986
 30
0.0
  0
SEQEND
  8
capslock
  0
ARC
  8
Group044
 62
0
 10
83.78750000000001
 20
-40.925
 30
0.0
 40
0.3
 50
90.0
 51
-180.0
  0
ARC
  8
Group044
 62
0
 10
83.7875
 20
-54.32499999999999
 30
0.0
 40
0.3
 50
-180.0
 51
-90.0
  0
ARC
  8
Group044
 62
0
 10
97.1875
 20
-40.92499999999999
 30
0.0
 40
0.3
 50
-0.0
 51
90.0
  0
ARC
  8
Group044
 62
0
 10
97.1875
 20
-54.32499999999999
 30
0.0
 40
0.3
 50
-90.0
 51
-0.0
  0
POLYLINE
  8
Group044
 62
0
 70
0
 66
1
 10
0.0
 20
0.0
 30
0.0
  0
VERTEX
  8
Group044
 10
83.78750000000001
 20
-40.62499999999999
 30
0.0
  0
VERTEX
  8
Group044
 10
97.18750000000001
 20
-40.62499999999999
 30
0.0
  0
SEQEND
  8
Group044
  0
POLYLINE
  8
Group044
 62
0
 70
0
 66
1
 10
0.0
 20
0.0
 30
0.0
  0
VERTEX
  8
Group044
 10
97.48750000000001
 20
-40.92499999999999
 30
0.0
  0
VERTEX
  8
Group044
 10
97.48750000000001
 20
-54.32499999999999
 30
0.0
  0
SEQEND
  8
Group044
  0
POLYLINE
  8
Group044
 62
0
 70
0
 66
1
 10
0.0
 20
0.0
 30
0.0
  0
VERTEX
  8
Group044
 10
97.1875
 20
-54.62499999999999
 30
0.0
  0
VERTEX
  8
Group044
 10
83.7875
 20
-54.62499999999999
 30
0.0
  0
SEQEND
  8
Group044
  0
POLYLINE
  8
Group044
 62
0
 70
0
 66
1
 10
0.0
 20
0.0
 30
0.0
  0
VERTEX
  8
Group044
 10
83.48750000000001
 20
-54.32499999999999
 30
0.0
  0
VERTEX
  8
Group044
 10
83.48750000000001
 20
-40.92499999999999
 30
0.0
  0
SEQEND
  8
Group044
  0
ARC
  8
Group045
 62
0
 10
102.8375
 20
-40.925
 30
0.0
 40
0.3
 50
90.0
 51
-180.0
  0
ARC
  8
Group045
 62
0
 10
102.83749999999999
 20
-54.32499999999999
 30
0.0
 40
0.3
 50
-180.0
 51
-90.0
  0
ARC
  8
Group045
 62
0
 10
116.2375
 20
-40.92499999999999
 30
0.0
 40
0.3
 50
-0.0
 51
90.0
  0
ARC
  8
Group045
 62
0
 10
116.2375
 20
-54.32499999999999
 30
0.0
 40
0.3
 50
-90.0
 51
-0.0
  0
POLYLINE
  8
Group045
 62
0
 70
0
 66
1
 10
0.0
 20
0.0
 30
0.0
  0
VERTEX
  8
Group045
 10
102.8375
 20
-40.62499999999999
 30
0.0
  0
VERTEX
  8
Group045
 10
116.23750000000001
 20
-40.62499999999999
 30
0.0
  0
SEQEND
  8
Group045
  0
POLYLINE
  8
Group045
 62
0
 70
0
 66
1
 10
0.0
 20
0.0
 30
0.0
  0
VERTEX
  8
Group045
 10
116.53750000000001
 20
-40.92499999999999
 30
0.0
  0
VERTEX
  8
Group045
 10
116.53750000000001
 20
-54.32499999999999
 30
0.0
  0
SEQEND
  8
Group045
  0
POLYLINE
  8
Group045
 62
0
 70
0
 66
1
 10
0.0
 20
0.0
 30
0.0
  0
VERTEX
  8
Group045
 10
116.2375
 20
-54.62499999999999
 30
0.0
  0
VERTEX
  8
Group045
 10
102.83749999999999
 20
-54.62499999999999
 30
0.0
  0
SEQEND
  8
Group045
  0
POLYLINE
  8
Group045
 62
0
 70
0
 66
1
 10
0.0
 20
0.0
 30
0.0
  0
VERTEX
  8
Group045
 10
102.53750000000001
 20
-54.32499999999999
 30
0.0
  0
VERTEX
  8
Group045
 10
102.53750000000001
 20
-40.92499999999999
 30
0.0
  0
SEQEND
  8
Group045
  0
ARC
  8
Group046
 62
0
 10
121.8875
 20
-40.925
 30
0.0
 40
0.3
 50
90.0
 51
-180.0
  0
ARC
  8
Group046
 62
0
 10
121.88749999999999
 20
-54.32499999999999
 30
0.0
 40
0.3
 50
-180.0
 51
-90.0
  0
ARC
  8
Group046
 62
0
 10
135.2875
 20
-40.92499999999999
 30
0.0
 40
0.3
 50
-0.0
 51
90.0
  0
ARC
  8
Group046
 62
0
 10
135.2875
 20
-54.32499999999999
 30
0.0
 40
0.3
 50
-90.0
 51
-0.0
  0
POLYLINE
  8
Group046
 62
0
 70
0
 66
1
 10
0.0
 20
0.0
 30
0.0
  0
VERTEX
  8
Group046
 10
121.8875
 20
-40.62499999999999
 30
0.0
  0
VERTEX
  8
Group046
 10
135.28750000000002
 20
-40.62499999999999
 30
0.0
  0
SEQEND
  8
Group046
  0
POLYLINE
  8
Group046
 62
0
 70
0
 66
1
 10
0.0
 20
0.0
 30
0.0
  0
VERTEX
  8
Group046
 10
135.5875
 20
-40.92499999999999
 30
0.0
  0
VERTEX
  8
Group046
 10
135.5875
 20
-54.32499999999999
 30
0.0
  0
SEQEND
  8
Group046
  0
POLYLINE
  8
Group046
 62
0
 70
0
 66
1
 10
0.0
 20
0.0
 30
0.0
  0
VERTEX
  8
Group046
 10
135.2875
 20
-54.62499999999999
 30
0.0
  0
VERTEX
  8
Group046
 10
121.88749999999999
 20
-54.62499999999999
 30
0.0
  0
SEQEND
  8
Group046
  0
POLYLINE
  8
Group046
 62
0
 70
0
 66
1
 10
0.0
 20
0.0
 30
0.0
  0
VERTEX
  8
Group046
 10
121.5875
 20
-54.32499999999999
 30
0.0
  0
VERTEX
  8
Group046
 10
121.5875
 20
-40.92499999999999
 30
0.0
  0
SEQEND
  8
Group046
  0
ARC
  8
Group047
 62
0
 10
140.9375
 20
-40.925
 30
0.0
 40
0.3
 50
90.0
 51
-180.0
  0
ARC
  8
Group047
 62
0
 10
140.9375
 20
-54.32499999999999
 30
0.0
 40
0.3
 50
-180.0
 51
-90.0
  0
ARC
  8
Group047
 62
0
 10
154.3375
 20
-40.92499999999999
 30
0.0
 40
0.3
 50
-0.0
 51
90.0
  0
ARC
  8
Group047
 62
0
 10
154.3375
 20
-54.32499999999999
 30
0.0
 40
0.3
 50
-90.0
 51
-0.0
  0
POLYLINE
  8
Group047
 62
0
 70
0
 66
1
 10
0.0
 20
0.0
 30
0.0
  0
VERTEX
  8
Group047
 10
140.9375
 20
-40.62499999999999
 30
0.0
  0
VERTEX
  8
Group047
 10
154.33750000000003
 20
-40.62499999999999
 30
0.0
  0
SEQEND
  8
Group047
  0
POLYLINE
  8
Group047
 62
0
 70
0
 66
1
 10
0.0
 20
0.0
 30
0.0
  0
VERTEX
  8
Group047
 10
154.63750000000002
 20
-40.92499999999999
 30
0.0
  0
VERTEX
  8
Group047
 10
154.63750000000002
 20
-54.32499999999999
 30
0.0
  0
SEQEND
  8
Group047
  0
POLYLINE
  8
Group047
 62
0
 70
0
 66
1
 10
0.0
 20
0.0
 30
0.0
  0
VERTEX
  8
Group047
 10
154.3375
 20
-54.62499999999999
 30
0.0
  0
VERTEX
  8
Group047
 10
140.9375
 20
-54.62499999999999
 30
0.0
  0
SEQEND
  8
Group047
  0
POLYLINE
  8
Group047
 62
0
 70
0
 66
1
 10
0.0
 20
0.0
 30
0.0
  0
VERTEX
  8
Group047
 10
140.63750000000002
 20
-54.32499999999999
 30
0.0
  0
VERTEX
  8
Group047
 10
140.63750000000002
 20
-40.92499999999999
 30
0.0
  0
SEQEND
  8
Group047
  0
ARC
  8
Group048
 62
0
 10
159.9875
 20
-40.925
 30
0.0
 40
0.3
 50
90.0
 51
-180.0
  0
ARC
  8
Group048
 62
0
 10
159.9875
 20
-54.32499999999999
 30
0.0
 40
0.3
 50
-180.0
 51
-90.0
  0
ARC
  8
Group048
 62
0
 10
173.38750000000002
 20
-40.92499999999999
 30
0.0
 40
0.3
 50
-0.0
 51
90.0
  0
ARC
  8
Group048
 62
0
 10
173.38750000000002
 20
-54.32499999999999
 30
0.0
 40
0.3
 50
-90.0
 51
-0.0
  0
POLYLINE
  8
Group048
 62
0
 70
0
 66
1
 10
0.0
 20
0.0
 30
0.0
  0
VERTEX
  8
Group048
 10
159.9875
 20
-40.62499999999999
 30
0.0
  0
VERTEX
  8
Group048
 10
173.38750000000005
 20
-40.62499999999999
 30
0.0
  0
SEQEND
  8
Group048
  0
POLYLINE
  8
Group048
 62
0
 70
0
 66
1
 10
0.0
 20
0.0
 30
0.0
  0
VERTEX
  8
Group048
 10
173.68750000000003
 20
-40.92499999999999
 30
0.0
  0
VERTEX
  8
Group048
 10
173.68750000000003
 20
-54.32499999999999
 30
0.0
  0
SEQEND
  8
Group048
  0
POLYLINE
  8
Group048
 62
0
 70
0
 66
1
 10
0.0
 20
0.0
 30
0.0
  0
VERTEX
  8
Group048
 10
173.38750000000002
 20
-54.62499999999999
 30
0.0
  0
VERTEX
  8
Group048
 10
159.9875
 20
-54.62499999999999
 30
0.0
  0
SEQEND
  8
Group048
  0
POLYLINE
  8
Group048
 62
0
 70
0
 66
1
 10
0.0
 20
0.0
 30
0.0
  0
VERTEX
  8
Group048
 10
159.68750000000003
 20
-54.32499999999999
 30
0.0
  0
VERTEX
  8
Group048
 10
159.68750000000003
 20
-40.92499999999999
 30
0.0
  0
SEQEND
  8
Group048
  0
ARC
  8
Group049
 62
0
 10
179.03750000000002
 20
-40.925
 30
0.0
 40
0.3
 50
90.0
 51
-180.0
  0
ARC
  8
Group049
 62
0
 10
179.03750000000002
 20
-54.32499999999999
 30
0.0
 40
0.3
 50
-180.0
 51
-90.0
  0
ARC
  8
Group049
 62
0
 10
192.43750000000003
 20
-40.92499999999999
 30
0.0
 40
0.3
 50
-0.0
 51
90.0
  0
ARC
  8
Group049
 62
0
 10
192.43750000000003
 20
-54.32499999999999
 30
0.0
 40
0.3
 50
-90.0
 51
-0.0
  0
POLYLINE
  8
Group049
 62
0
 70
0
 66
1
 10
0.0
 20
0.0
 30
0.0
  0
VERTEX
  8
Group049
 10
179.03750000000002
 20
-40.62499999999999
 30
0.0
  0
VERTEX
  8
Group049
 10
192.43750000000006
 20
-40.62499999999999
 30
0.0
  0
SEQEND
  8
Group049
  0
POLYLINE
  8
Group049
 62
0
 70
0
 66
1
 10
0.0
 20
0.0
 30
0.0
  0
VERTEX
  8
Group049
 10
192.73750000000004
 20
-40.92499999999999
 30
0.0
  0
VERTEX
  8
Group049
 10
192.73750000000004
 20
-54.32499999999999
 30
0.0
  0
SEQEND
  8
Group049
  0
POLYLINE
  8
Group049
 62
0
 70
0
 66
1
 10
0.0
 20
0.0
 30
0.0
  0
VERTEX
  8
Group049
 10
192.43750000000003
 20
-54.62499999999999
 30
0.0
  0
VERTEX
  8
Group049
 10
179.03750000000002
 20
-54.62499999999999
 30
0.0
  0
SEQEND
  8
Group049
  0
POLYLINE
  8
Group049
 62
0
 70
0
 66
1
 10
0.0
 20
0.0
 30
0.0
  0
VERTEX
  8
Group049
 10
178.73750000000004
 20
-54.32499999999999
 30
0.0
  0
VERTEX
  8
Group049
 10
178.73750000000004
 20
-40.92499999999999
 30
0.0
  0
SEQEND
  8
Group049
  0
ARC
  8
Group050
 62
0
 10
198.08750000000003
 20
-40.925
 30
0.0
 40
0.3
 50
90.0
 51
-180.0
  0
ARC
  8
Group050
 62
0
 10
198.08750000000003
 20
-54.32499999999999
 30
0.0
 40
0.3
 50
-180.0
 51
-90.0
  0
ARC
  8
Group050
 62
0
 10
211.48750000000004
 20
-40.92499999999999
 30
0.0
 40
0.3
 50
-0.0
 51
90.0
  0
ARC
  8
Group050
 62
0
 10
211.48750000000004
 20
-54.32499999999999
 30
0.0
 40
0.3
 50
-90.0
 51
-0.0
  0
POLYLINE
  8
Group050
 62
0
 70
0
 66
1
 10
0.0
 20
0.0
 30
0.0
  0
VERTEX
  8
Group050
 10
198.08750000000003
 20
-40.62499999999999
 30
0.0
  0
VERTEX
  8
Group050
 10
211.48750000000007
 20
-40.62499999999999
 30
0.0
  0
SEQEND
  8
Group050
  0
POLYLINE
  8
Group050
 62
0
 70
0
 66
1
 10
0.0
 20
0.0
 30
0.0
  0
VERTEX
  8
Group050
 10
211.78750000000005
 20
-40.92499999999999
 30
0.0
  0
VERTEX
  8
Group050
 10
211.78750000000005
 20
-54.32499999999999
 30
0.0
  0
SEQEND
  8
Group050
  0
POLYLINE
  8
Group050
 62
0
 70
0
 66
1
 10
0.0
 20
0.0
 30
0.0
  0
VERTEX
  8
Group050
 10
211.48750000000004
 20
-54.62499999999999
 30
0.0
  0
VERTEX
  8
Group050
 10
198.08750000000003
 20
-54.62499999999999
 30
0.0
  0
SEQEND
  8
Group050
  0
POLYLINE
  8
Group050
 62
0
 70
0
 66
1
 10
0.0
 20
0.0
 30
0.0
  0
VERTEX
  8
Group050
 10
197.78750000000005
 20
-54.32499999999999
 30
0.0
  0
VERTEX
  8
Group050
 10
197.78750000000005
 20
-40.92499999999999
 30
0.0
  0
SEQEND
  8
Group050
  0
ARC
  8
Group051
 62
0
 10
217.13750000000005
 20
-40.925
 30
0.0
 40
0.3
 50
90.0
 51
-180.0
  0
ARC
  8
Group051
 62
0
 10
217.13750000000005
 20
-54.32499999999999
 30
0.0
 40
0.3
 50
-180.0
 51
-90.0
  0
ARC
  8
Group051
 62
0
 10
230.53750000000005
 20
-40.92499999999999
 30
0.0
 40
0.3
 50
-0.0
 51
90.0
  0
ARC
  8
Group051
 62
0
 10
230.53750000000005
 20
-54.32499999999999
 30
0.0
 40
0.3
 50
-90.0
 51
-0.0
  0
POLYLINE
  8
Group051
 62
0
 70
0
 66
1
 10
0.0
 20
0.0
 30
0.0
  0
VERTEX
  8
Group051
 10
217.13750000000005
 20
-40.62499999999999
 30
0.0
  0
VERTEX
  8
Group051
 10
230.53750000000008
 20
-40.62499999999999
 30
0.0
  0
SEQEND
  8
Group051
  0
POLYLINE
  8
Group051
 62
0
 70
0
 66
1
 10
0.0
 20
0.0
 30
0.0
  0
VERTEX
  8
Group051
 10
230.83750000000006
 20
-40.92499999999999
 30
0.0
  0
VERTEX
  8
Group051
 10
230.83750000000006
 20
-54.32499999999999
 30
0.0
  0
SEQEND
  8
Group051
  0
POLYLINE
  8
Group051
 62
0
 70
0
 66
1
 10
0.0
 20
0.0
 30
0.0
  0
VERTEX
  8
Group051
 10
230.53750000000005
 20
-54.62499999999999
 30
0.0
  0
VERTEX
  8
Group051
 10
217.13750000000005
 20
-54.62499999999999
 30
0.0
  0
SEQEND
  8
Group051
  0
POLYLINE
  8
Group051
 62
0
 70
0
 66
1
 10
0.0
 20
0.0
 30
0.0
  0
VERTEX
  8
Group051
 10
216.83750000000006
 20
-54.32499999999999
 30
0.0
  0
VERTEX
  8
Group051
 10
216.83750000000006
 20
-40.92499999999999
 30
0.0
  0
SEQEND
  8
Group051
  0
ARC
  8
Group052
 62
0
 10
236.18750000000006
 20
-40.925
 30
0.0
 40
0.3
 50
90.0
 51
-180.0
  0
ARC
  8
Group052
 62
0
 10
236.18750000000006
 20
-54.32499999999999
 30
0.0
 40
0.3
 50
-180.0
 51
-90.0
  0
ARC
  8
Group052
 62
0
 10
249.58750000000006
 20
-40.92499999999999
 30
0.0
 40
0.3
 50
-0.0
 51
90.0
  0
ARC
  8
Group052
 62
0
 10
249.58750000000006
 20
-54.32499999999999
 30
0.0
 40
0.3
 50
-90.0
 51
-0.0
  0
POLYLINE
  8
Group052
 62
0
 70
0
 66
1
 10
0.0
 20
0.0
 30
0.0
  0
VERTEX
  8
Group052
 10
236.18750000000006
 20
-40.62499999999999
 30
0.0
  0
VERTEX
  8
Group052
 10
249.5875000000001
 20
-40.62499999999999
 30
0.0
  0
SEQEND
  8
Group052
  0
POLYLINE
  8
Group052
 62
0
 70
0
 66
1
 10
0.0
 20
0.0
 30
0.0
  0
VERTEX
  8
Group052
 10
249.88750000000007
 20
-40.92499999999999
 30
0.0
  0
VERTEX
  8
Group052
 10
249.88750000000007
 20
-54.32499999999999
 30
0.0
  0
SEQEND
  8
Group052
  0
POLYLINE
  8
Group052
 62
0
 70
0
 66
1
 10
0.0
 20
0.0
 30
0.0
  0
VERTEX
  8
Group052
 10
249.58750000000006
 20
-54.62499999999999
 30
0.0
  0
VERTEX
  8
Group052
 10
236.18750000000006
 20
-54.62499999999999
 30
0.0
  0
SEQEND
  8
Group052
  0
POLYLINE
  8
Group052
 62
0
 70
0
 66
1
 10
0.0
 20
0.0
 30
0.0
  0
VERTEX
  8
Group052
 10
235.88750000000007
 20
-54.32499999999999
 30
0.0
  0
VERTEX
  8
Group052
 10
235.88750000000007
 20
-40.92499999999999
 30
0.0
  0
SEQEND
  8
Group052
  0
ARC
  8
Group053
 62
0
 10
255.23750000000007
 20
-40.925
 30
0.0
 40
0.3
 50
90.0
 51
-180.0
  0
ARC
  8
Group053
 62
0
 10
255.23750000000007
 20
-54.32499999999999
 30
0.0
 40
0.3
 50
-180.0
 51
-90.0
  0
ARC
  8
Group053
 62
0
 10
268.63750000000005
 20
-40.92499999999999
 30
0.0
 40
0.3
 50
-0.0
 51
90.0
  0
ARC
  8
Group053
 62
0
 10
268.63750000000005
 20
-54.32499999999999
 30
0.0
 40
0.3
 50
-90.0
 51
-0.0
  0
POLYLINE
  8
Group053
 62
0
 70
0
 66
1
 10
0.0
 20
0.0
 30
0.0
  0
VERTEX
  8
Group053
 10
255.23750000000007
 20
-40.62499999999999
 30
0.0
  0
VERTEX
  8
Group053
 10
268.6375000000001
 20
-40.62499999999999
 30
0.0
  0
SEQEND
  8
Group053
  0
POLYLINE
  8
Group053
 62
0
 70
0
 66
1
 10
0.0
 20
0.0
 30
0.0
  0
VERTEX
  8
Group053
 10
268.9375000000001
 20
-40.92499999999999
 30
0.0
  0
VERTEX
  8
Group053
 10
268.9375000000001
 20
-54.32499999999999
 30
0.0
  0
SEQEND
  8
Group053
  0
POLYLINE
  8
Group053
 62
0
 70
0
 66
1
 10
0.0
 20
0.0
 30
0.0
  0
VERTEX
  8
Group053
 10
268.63750000000005
 20
-54.62499999999999
 30
0.0
  0
VERTEX
  8
Group053
 10
255.23750000000004
 20
-54.62499999999999
 30
0.0
  0
SEQEND
  8
Group053
  0
POLYLINE
  8
Group053
 62
0
 70
0
 66
1
 10
0.0
 20
0.0
 30
0.0
  0
VERTEX
  8
Group053
 10
254.93750000000009
 20
-54.32499999999999
 30
0.0
  0
VERTEX
  8
Group053
 10
254.93750000000009
 20
-40.92499999999999
 30
0.0
  0
SEQEND
  8
Group053
  0
ARC
  8
Group054
 62
0
 10
274.2875000000001
 20
-40.925
 30
0.0
 40
0.3
 50
90.0
 51
-180.0
  0
ARC
  8
Group054
 62
0
 10
274.2875000000001
 20
-54.32499999999999
 30
0.0
 40
0.3
 50
-180.0
 51
-90.0
  0
ARC
  8
Group054
 62
0
 10
287.68750000000006
 20
-40.92499999999999
 30
0.0
 40
0.3
 50
-0.0
 51
90.0
  0
ARC
  8
Group054
 62
0
 10
287.68750000000006
 20
-54.32499999999999
 30
0.0
 40
0.3
 50
-90.0
 51
-0.0
  0
POLYLINE
  8
Group054
 62
0
 70
0
 66
1
 10
0.0
 20
0.0
 30
0.0
  0
VERTEX
  8
Group054
 10
274.2875000000001
 20
-40.62499999999999
 30
0.0
  0
VERTEX
  8
Group054
 10
287.6875000000001
 20
-40.62499999999999
 30
0.0
  0
SEQEND
  8
Group054
  0
POLYLINE
  8
Group054
 62
0
 70
0
 66
1
 10
0.0
 20
0.0
 30
0.0
  0
VERTEX
  8
Group054
 10
287.9875000000001
 20
-40.92499999999999
 30
0.0
  0
VERTEX
  8
Group054
 10
287.9875000000001
 20
-54.32499999999999
 30
0.0
  0
SEQEND
  8
Group054
  0
POLYLINE
  8
Group054
 62
0
 70
0
 66
1
 10
0.0
 20
0.0
 30
0.0
  0
VERTEX
  8
Group054
 10
287.68750000000006
 20
-54.62499999999999
 30
0.0
  0
VERTEX
  8
Group054
 10
274.2875
 20
-54.62499999999999
 30
0.0
  0
SEQEND
  8
Group054
  0
POLYLINE
  8
Group054
 62
0
 70
0
 66
1
 10
0.0
 20
0.0
 30
0.0
  0
VERTEX
  8
Group054
 10
273.98750000000007
 20
-54.32499999999999
 30
0.0
  0
VERTEX
  8
Group054
 10
273.98750000000007
 20
-40.92499999999999
 30
0.0
  0
SEQEND
  8
Group054
  0
POLYLINE
  8
enter
 62
0
 70
0
 66
1
 10
0.0
 20
0.0
 30
0.0
  0
VERTEX
  8
enter
 10
328.96875
 20
-46.25000000000006
 30
0.0
  0
VERTEX
  8
enter
 10
330.66875
 20
-46.25000000000006
 30
0.0
  0
SEQEND
  8
enter
  0
POLYLINE
  8
enter
 62
0
 70
0
 66
1
 10
0.0
 20
0.0
 30
0.0
  0
VERTEX
  8
enter
 10
310.96875
 20
-22.94999999999999
 30
0.0
  0
VERTEX
  8
enter
 10
310.96875
 20
-53.25000000000006
 30
0.0
  0
SEQEND
  8
enter
  0
POLYLINE
  8
left009
 62
0
 70
0
 66
1
 10
0.0
 20
0.0
 30
0.0
  0
VERTEX
  8
left009
 10
311.46875
 20
-22.44999999999999
 30
0.0
  0
VERTEX
  8
left009
 10
330.66875
 20
-22.44999999999999
 30
0.0
  0
SEQEND
  8
left009
  0
ARC
  8
left009
 62
0
 10
311.46875
 20
-22.94999999999999
 30
0.0
 40
0.5
 50
90.0
 51
-180.0
  0
ARC
  8
left009
 62
0
 10
328.96875
 20
-30.44999999999999
 30
0.0
 40
0.5
 50
90.0
 51
-180.0
  0
ARC
  8
left009
 62
0
 10
330.66875000000005
 20
-29.44999999999999
 30
0.0
 40
0.5
 50
-90.0
 51
-0.0
  0
POLYLINE
  8
left009
 62
0
 70
0
 66
1
 10
0.0
 20
0.0
 30
0.0
  0
VERTEX
  8
left009
 10
331.16875000000005
 20
-29.44999999999999
 30
0.0
  0
VERTEX
  8
left009
 10
331.16875000000005
 20
-22.94999999999999
 30
0.0
  0
SEQEND
  8
left009
  0
ARC
  8
left009
 62
0
 10
330.66875000000005
 20
-22.94999999999999
 30
0.0
 40
0.5
 50
-0.0
 51
90.0
  0
POLYLINE
  8
right009
 62
0
 70
0
 66
1
 10
0.0
 20
0.0
 30
0.0
  0
VERTEX
  8
right009
 10
311.46875
 20
-53.75000000000006
 30
0.0
  0
VERTEX
  8
right009
 10
330.66875
 20
-53.75000000000007
 30
0.0
  0
SEQEND
  8
right009
  0
ARC
  8
right009
 62
0
 10
311.46875
 20
-53.25000000000006
 30
0.0
 40
0.5
 50
-180.0
 51
-90.0
  0
ARC
  8
right009
 62
0
 10
328.96875
 20
-45.75000000000006
 30
0.0
 40
0.5
 50
-180.0
 51
-90.0
  0
ARC
  8
right009
 62
0
 10
330.66875
 20
-46.75000000000006
 30
0.0
 40
0.5
 50
-0.0
 51
90.0
  0
POLYLINE
  8
right009
 62
0
 70
0
 66
1
 10
0.0
 20
0.0
 30
0.0
  0
VERTEX
  8
right009
 10
331.16875
 20
-53.25000000000006
 30
0.0
  0
VERTEX
  8
right009
 10
331.16875
 20
-46.75000000000006
 30
0.0
  0
SEQEND
  8
right009
  0
ARC
  8
right009
 62
0
 10
330.66875
 20
-53.25000000000006
 30
0.0
 40
0.5
 50
-90.0
 51
-0.0
  0
POLYLINE
  8
enter
 62
0
 70
0
 66
1
 10
0.0
 20
0.0
 30
0.0
  0
VERTEX
  8
enter
 10
328.96875
 20
-29.94999999999999
 30
0.0
  0
VERTEX
  8
enter
 10
330.66875
 20
-29.94999999999999
 30
0.0
  0
SEQEND
  8
enter
  0
POLYLINE
  8
enter
 62
0
 70
0
 66
1
 10
0.0
 20
0.0
 30
0.0
  0
VERTEX
  8
enter
 10
328.46875
 20
-30.44999999999999
 30
0.0
  0
VERTEX
  8
enter
 10
328.46875
 20
-45.75000000000006
 30
0.0
  0
SEQEND
  8
enter
  0
POLYLINE
  8
right011
 62
0
 70
0
 66
1
 10
0.0
 20
0.0
 30
0.0
  0
VERTEX
  8
right011
 10
84.70625000000004
 20
-76.67500000000001
 30
0.0
  0
VERTEX
  8
right011
 10
84.70625000000004
 20
-57.47500000000002
 30
0.0
  0
SEQEND
  8
right011
  0
ARC
  8
right011
 62
0
 10
84.20625000000004
 20
-76.67500000000001
 30
0.0
 40
0.5
 50
-90.0
 51
-0.0
  0
ARC
  8
right011
 62
0
 10
76.70625000000004
 20
-59.17499999999999
 30
0.0
 40
0.5
 50
-90.0
 51
-0.0
  0
ARC
  8
right011
 62
0
 10
77.70625000000004
 20
-57.47500000000001
 30
0.0
 40
0.5
 50
90.0
 51
-180.0
  0
POLYLINE
  8
right011
 62
0
 70
0
 66
1
 10
0.0
 20
0.0
 30
0.0
  0
VERTEX
  8
right011
 10
84.20625000000004
 20
-56.97500000000001
 30
0.0
  0
VERTEX
  8
right011
 10
77.70625000000004
 20
-56.97500000000001
 30
0.0
  0
SEQEND
  8
right011
  0
ARC
  8
right011
 62
0
 10
84.20625000000004
 20
-57.47500000000001
 30
0.0
 40
0.5
 50
-0.0
 51
90.0
  0
POLYLINE
  8
left011
 62
0
 70
0
 66
1
 10
0.0
 20
0.0
 30
0.0
  0
VERTEX
  8
left011
 10
53.40624999999997
 20
-76.67499999999998
 30
0.0
  0
VERTEX
  8
left011
 10
53.40624999999997
 20
-57.474999999999994
 30
0.0
  0
SEQEND
  8
left011
  0
ARC
  8
left011
 62
0
 10
53.90624999999997
 20
-76.67499999999998
 30
0.0
 40
0.5
 50
-180.0
 51
-90.0
  0
ARC
  8
left011
 62
0
 10
61.40624999999997
 20
-59.17499999999999
 30
0.0
 40
0.5
 50
-180.0
 51
-90.0
  0
ARC
  8
left011
 62
0
 10
60.40624999999997
 20
-57.47499999999999
 30
0.0
 40
0.5
 50
-0.0
 51
90.0
  0
POLYLINE
  8
left011
 62
0
 70
0
 66
1
 10
0.0
 20
0.0
 30
0.0
  0
VERTEX
  8
left011
 10
60.40624999999997
 20
-56.97499999999999
 30
0.0
  0
VERTEX
  8
left011
 10
53.90624999999997
 20
-56.97499999999999
 30
0.0
  0
SEQEND
  8
left011
  0
ARC
  8
left011
 62
0
 10
53.90624999999997
 20
-57.47499999999999
 30
0.0
 40
0.5
 50
90.0
 51
-180.0
  0
POLYLINE
  8
shift
 62
0
 70
0
 66
1
 10
0.0
 20
0.0
 30
0.0
  0
VERTEX
  8
shift
 10
53.90624999999997
 20
-77.17499999999998
 30
0.0
  0
VERTEX
  8
shift
 10
84.20625000000004
 20
-77.175
 30
0.0
  0
SEQEND
  8
shift
  0
POLYLINE
  8
shift
 62
0
 70
0
 66
1
 10
0.0
 20
0.0
 30
0.0
  0
VERTEX
  8
shift
 10
77.20625000000004
 20
-59.17499999999999
 30
0.0
  0
VERTEX
  8
shift
 10
77.20625000000004
 20
-57.47500000000001
 30
0.0
  0
SEQEND
  8
shift
  0
POLYLINE
  8
shift
 62
0
 70
0
 66
1
 10
0.0
 20
0.0
 30
0.0
  0
VERTEX
  8
shift
 10
60.90624999999997
 20
-59.17499999999999
 30
0.0
  0
VERTEX
  8
shift
 10
60.90624999999997
 20
-57.474999999999994
 30
0.0
  0
SEQEND
  8
shift
  0
POLYLINE
  8
shift
 62
0
 70
0
 66
1
 10
0.0
 20
0.0
 30
0.0
  0
VERTEX
  8
shift
 10
61.40624999999997
 20
-59.67499999999999
 30
0.0
  0
VERTEX
  8
shift
 10
76.70625000000004
 20
-59.67499999999999
 30
0.0
  0
SEQEND
  8
shift
  0
ARC
  8
Group058
 62
0
 10
93.31250000000001
 20
-59.974999999999994
 30
0.0
 40
0.3
 50
90.0
 51
-180.0
  0
ARC
  8
Group058
 62
0
 10
93.3125
 20
-73.37499999999999
 30
0.0
 40
0.3
 50
-180.0
 51
-90.0
  0
ARC
  8
Group058
 62
0
 10
106.7125
 20
-59.97499999999999
 30
0.0
 40
0.3
 50
-0.0
 51
90.0
  0
ARC
  8
Group058
 62
0
 10
106.7125
 20
-73.37499999999999
 30
0.0
 40
0.3
 50
-90.0
 51
-0.0
  0
POLYLINE
  8
Group058
 62
0
 70
0
 66
1
 10
0.0
 20
0.0
 30
0.0
  0
VERTEX
  8
Group058
 10
93.31250000000001
 20
-59.67499999999999
 30
0.0
  0
VERTEX
  8
Group058
 10
106.71250000000002
 20
-59.67499999999999
 30
0.0
  0
SEQEND
  8
Group058
  0
POLYLINE
  8
Group058
 62
0
 70
0
 66
1
 10
0.0
 20
0.0
 30
0.0
  0
VERTEX
  8
Group058
 10
107.01250000000002
 20
-59.97499999999999
 30
0.0
  0
VERTEX
  8
Group058
 10
107.01250000000002
 20
-73.37499999999999
 30
0.0
  0
SEQEND
  8
Group058
  0
POLYLINE
  8
Group058
 62
0
 70
0
 66
1
 10
0.0
 20
0.0
 30
0.0
  0
VERTEX
  8
Group058
 10
106.7125
 20
-73.67499999999998
 30
0.0
  0
VERTEX
  8
Group058
 10
93.3125
 20
-73.67499999999998
 30
0.0
  0
SEQEND
  8
Group058
  0
POLYLINE
  8
Group058
 62
0
 70
0
 66
1
 10
0.0
 20
0.0
 30
0.0
  0
VERTEX
  8
Group058
 10
93.01250000000002
 20
-73.37499999999999
 30
0.0
  0
VERTEX
  8
Group058
 10
93.01250000000002
 20
-59.97499999999999
 30
0.0
  0
SEQEND
  8
Group058
  0
ARC
  8
Group059
 62
0
 10
112.36250000000001
 20
-59.974999999999994
 30
0.0
 40
0.3
 50
90.0
 51
-180.0
  0
ARC
  8
Group059
 62
0
 10
112.3625
 20
-73.37499999999999
 30
0.0
 40
0.3
 50
-180.0
 51
-90.0
  0
ARC
  8
Group059
 62
0
 10
125.7625
 20
-59.97499999999999
 30
0.0
 40
0.3
 50
-0.0
 51
90.0
  0
ARC
  8
Group059
 62
0
 10
125.7625
 20
-73.37499999999999
 30
0.0
 40
0.3
 50
-90.0
 51
-0.0
  0
POLYLINE
  8
Group059
 62
0
 70
0
 66
1
 10
0.0
 20
0.0
 30
0.0
  0
VERTEX
  8
Group059
 10
112.36250000000001
 20
-59.67499999999999
 30
0.0
  0
VERTEX
  8
Group059
 10
125.76250000000002
 20
-59.67499999999999
 30
0.0
  0
SEQEND
  8
Group059
  0
POLYLINE
  8
Group059
 62
0
 70
0
 66
1
 10
0.0
 20
0.0
 30
0.0
  0
VERTEX
  8
Group059
 10
126.06250000000001
 20
-59.97499999999999
 30
0.0
  0
VERTEX
  8
Group059
 10
126.06250000000001
 20
-73.37499999999999
 30
0.0
  0
SEQEND
  8
Group059
  0
POLYLINE
  8
Group059
 62
0
 70
0
 66
1
 10
0.0
 20
0.0
 30
0.0
  0
VERTEX
  8
Group059
 10
125.7625
 20
-73.67499999999998
 30
0.0
  0
VERTEX
  8
Group059
 10
112.3625
 20
-73.67499999999998
 30
0.0
  0
SEQEND
  8
Group059
  0
POLYLINE
  8
Group059
 62
0
 70
0
 66
1
 10
0.0
 20
0.0
 30
0.0
  0
VERTEX
  8
Group059
 10
112.06250000000001
 20
-73.37499999999999
 30
0.0
  0
VERTEX
  8
Group059
 10
112.06250000000001
 20
-59.97499999999999
 30
0.0
  0
SEQEND
  8
Group059
  0
ARC
  8
Group060
 62
0
 10
131.41250000000002
 20
-59.974999999999994
 30
0.0
 40
0.3
 50
90.0
 51
-180.0
  0
ARC
  8
Group060
 62
0
 10
131.4125
 20
-73.37499999999999
 30
0.0
 40
0.3
 50
-180.0
 51
-90.0
  0
ARC
  8
Group060
 62
0
 10
144.8125
 20
-59.97499999999999
 30
0.0
 40
0.3
 50
-0.0
 51
90.0
  0
ARC
  8
Group060
 62
0
 10
144.8125
 20
-73.37499999999999
 30
0.0
 40
0.3
 50
-90.0
 51
-0.0
  0
POLYLINE
  8
Group060
 62
0
 70
0
 66
1
 10
0.0
 20
0.0
 30
0.0
  0
VERTEX
  8
Group060
 10
131.41250000000002
 20
-59.67499999999999
 30
0.0
  0
VERTEX
  8
Group060
 10
144.81250000000003
 20
-59.67499999999999
 30
0.0
  0
SEQEND
  8
Group060
  0
POLYLINE
  8
Group060
 62
0
 70
0
 66
1
 10
0.0
 20
0.0
 30
0.0
  0
VERTEX
  8
Group060
 10
145.1125
 20
-59.97499999999999
 30
0.0
  0
VERTEX
  8
Group060
 10
145.1125
 20
-73.37499999999999
 30
0.0
  0
SEQEND
  8
Group060
  0
POLYLINE
  8
Group060
 62
0
 70
0
 66
1
 10
0.0
 20
0.0
 30
0.0
  0
VERTEX
  8
Group060
 10
144.8125
 20
-73.67499999999998
 30
0.0
  0
VERTEX
  8
Group060
 10
131.4125
 20
-73.67499999999998
 30
0.0
  0
SEQEND
  8
Group060
  0
POLYLINE
  8
Group060
 62
0
 70
0
 66
1
 10
0.0
 20
0.0
 30
0.0
  0
VERTEX
  8
Group060
 10
131.1125
 20
-73.37499999999999
 30
0.0
  0
VERTEX
  8
Group060
 10
131.1125
 20
-59.97499999999999
 30
0.0
  0
SEQEND
  8
Group060
  0
ARC
  8
Group061
 62
0
 10
150.4625
 20
-59.974999999999994
 30
0.0
 40
0.3
 50
90.0
 51
-180.0
  0
ARC
  8
Group061
 62
0
 10
150.46249999999998
 20
-73.37499999999999
 30
0.0
 40
0.3
 50
-180.0
 51
-90.0
  0
ARC
  8
Group061
 62
0
 10
163.86249999999998
 20
-59.97499999999999
 30
0.0
 40
0.3
 50
-0.0
 51
90.0
  0
ARC
  8
Group061
 62
0
 10
163.86249999999998
 20
-73.37499999999999
 30
0.0
 40
0.3
 50
-90.0
 51
-0.0
  0
POLYLINE
  8
Group061
 62
0
 70
0
 66
1
 10
0.0
 20
0.0
 30
0.0
  0
VERTEX
  8
Group061
 10
150.4625
 20
-59.67499999999999
 30
0.0
  0
VERTEX
  8
Group061
 10
163.8625
 20
-59.67499999999999
 30
0.0
  0
SEQEND
  8
Group061
  0
POLYLINE
  8
Group061
 62
0
 70
0
 66
1
 10
0.0
 20
0.0
 30
0.0
  0
VERTEX
  8
Group061
 10
164.1625
 20
-59.97499999999999
 30
0.0
  0
VERTEX
  8
Group061
 10
164.1625
 20
-73.37499999999999
 30
0.0
  0
SEQEND
  8
Group061
  0
POLYLINE
  8
Group061
 62
0
 70
0
 66
1
 10
0.0
 20
0.0
 30
0.0
  0
VERTEX
  8
Group061
 10
163.86249999999998
 20
-73.67499999999998
 30
0.0
  0
VERTEX
  8
Group061
 10
150.46249999999998
 20
-73.67499999999998
 30
0.0
  0
SEQEND
  8
Group061
  0
POLYLINE
  8
Group061
 62
0
 70
0
 66
1
 10
0.0
 20
0.0
 30
0.0
  0
VERTEX
  8
Group061
 10
150.1625
 20
-73.37499999999999
 30
0.0
  0
VERTEX
  8
Group061
 10
150.1625
 20
-59.97499999999999
 30
0.0
  0
SEQEND
  8
Group061
  0
ARC
  8
Group062
 62
0
 10
169.5125
 20
-59.974999999999994
 30
0.0
 40
0.3
 50
90.0
 51
-180.0
  0
ARC
  8
Group062
 62
0
 10
169.51249999999996
 20
-73.37499999999999
 30
0.0
 40
0.3
 50
-180.0
 51
-90.0
  0
ARC
  8
Group062
 62
0
 10
182.91249999999997
 20
-59.97499999999999
 30
0.0
 40
0.3
 50
-0.0
 51
90.0
  0
ARC
  8
Group062
 62
0
 10
182.91249999999997
 20
-73.37499999999999
 30
0.0
 40
0.3
 50
-90.0
 51
-0.0
  0
POLYLINE
  8
Group062
 62
0
 70
0
 66
1
 10
0.0
 20
0.0
 30
0.0
  0
VERTEX
  8
Group062
 10
169.5125
 20
-59.67499999999999
 30
0.0
  0
VERTEX
  8
Group062
 10
182.9125
 20
-59.67499999999999
 30
0.0
  0
SEQEND
  8
Group062
  0
POLYLINE
  8
Group062
 62
0
 70
0
 66
1
 10
0.0
 20
0.0
 30
0.0
  0
VERTEX
  8
Group062
 10
183.21249999999998
 20
-59.97499999999999
 30
0.0
  0
VERTEX
  8
Group062
 10
183.21249999999998
 20
-73.37499999999999
 30
0.0
  0
SEQEND
  8
Group062
  0
POLYLINE
  8
Group062
 62
0
 70
0
 66
1
 10
0.0
 20
0.0
 30
0.0
  0
VERTEX
  8
Group062
 10
182.91249999999997
 20
-73.67499999999998
 30
0.0
  0
VERTEX
  8
Group062
 10
169.51249999999996
 20
-73.67499999999998
 30
0.0
  0
SEQEND
  8
Group062
  0
POLYLINE
  8
Group062
 62
0
 70
0
 66
1
 10
0.0
 20
0.0
 30
0.0
  0
VERTEX
  8
Group062
 10
169.21249999999998
 20
-73.37499999999999
 30
0.0
  0
VERTEX
  8
Group062
 10
169.21249999999998
 20
-59.97499999999999
 30
0.0
  0
SEQEND
  8
Group062
  0
ARC
  8
Group063
 62
0
 10
188.56249999999997
 20
-59.974999999999994
 30
0.0
 40
0.3
 50
90.0
 51
-180.0
  0
ARC
  8
Group063
 62
0
 10
188.56249999999994
 20
-73.37499999999999
 30
0.0
 40
0.3
 50
-180.0
 51
-90.0
  0
ARC
  8
Group063
 62
0
 10
201.96249999999995
 20
-59.97499999999999
 30
0.0
 40
0.3
 50
-0.0
 51
90.0
  0
ARC
  8
Group063
 62
0
 10
201.96249999999995
 20
-73.37499999999999
 30
0.0
 40
0.3
 50
-90.0
 51
-0.0
  0
POLYLINE
  8
Group063
 62
0
 70
0
 66
1
 10
0.0
 20
0.0
 30
0.0
  0
VERTEX
  8
Group063
 10
188.56249999999997
 20
-59.67499999999999
 30
0.0
  0
VERTEX
  8
Group063
 10
201.96249999999998
 20
-59.67499999999999
 30
0.0
  0
SEQEND
  8
Group063
  0
POLYLINE
  8
Group063
 62
0
 70
0
 66
1
 10
0.0
 20
0.0
 30
0.0
  0
VERTEX
  8
Group063
 10
202.26249999999996
 20
-59.97499999999999
 30
0.0
  0
VERTEX
  8
Group063
 10
202.26249999999996
 20
-73.37499999999999
 30
0.0
  0
SEQEND
  8
Group063
  0
POLYLINE
  8
Group063
 62
0
 70
0
 66
1
 10
0.0
 20
0.0
 30
0.0
  0
VERTEX
  8
Group063
 10
201.96249999999995
 20
-73.67499999999998
 30
0.0
  0
VERTEX
  8
Group063
 10
188.56249999999994
 20
-73.67499999999998
 30
0.0
  0
SEQEND
  8
Group063
  0
POLYLINE
  8
Group063
 62
0
 70
0
 66
1
 10
0.0
 20
0.0
 30
0.0
  0
VERTEX
  8
Group063
 10
188.26249999999996
 20
-73.37499999999999
 30
0.0
  0
VERTEX
  8
Group063
 10
188.26249999999996
 20
-59.97499999999999
 30
0.0
  0
SEQEND
  8
Group063
  0
ARC
  8
Group064
 62
0
 10
207.61249999999995
 20
-59.974999999999994
 30
0.0
 40
0.3
 50
90.0
 51
-180.0
  0
ARC
  8
Group064
 62
0
 10
207.61249999999993
 20
-73.37499999999999
 30
0.0
 40
0.3
 50
-180.0
 51
-90.0
  0
ARC
  8
Group064
 62
0
 10
221.01249999999993
 20
-59.97499999999999
 30
0.0
 40
0.3
 50
-0.0
 51
90.0
  0
ARC
  8
Group064
 62
0
 10
221.01249999999993
 20
-73.37499999999999
 30
0.0
 40
0.3
 50
-90.0
 51
-0.0
  0
POLYLINE
  8
Group064
 62
0
 70
0
 66
1
 10
0.0
 20
0.0
 30
0.0
  0
VERTEX
  8
Group064
 10
207.61249999999995
 20
-59.67499999999999
 30
0.0
  0
VERTEX
  8
Group064
 10
221.01249999999996
 20
-59.67499999999999
 30
0.0
  0
SEQEND
  8
Group064
  0
POLYLINE
  8
Group064
 62
0
 70
0
 66
1
 10
0.0
 20
0.0
 30
0.0
  0
VERTEX
  8
Group064
 10
221.31249999999994
 20
-59.97499999999999
 30
0.0
  0
VERTEX
  8
Group064
 10
221.31249999999994
 20
-73.37499999999999
 30
0.0
  0
SEQEND
  8
Group064
  0
POLYLINE
  8
Group064
 62
0
 70
0
 66
1
 10
0.0
 20
0.0
 30
0.0
  0
VERTEX
  8
Group064
 10
221.01249999999993
 20
-73.67499999999998
 30
0.0
  0
VERTEX
  8
Group064
 10
207.61249999999993
 20
-73.67499999999998
 30
0.0
  0
SEQEND
  8
Group064
  0
POLYLINE
  8
Group064
 62
0
 70
0
 66
1
 10
0.0
 20
0.0
 30
0.0
  0
VERTEX
  8
Group064
 10
207.31249999999994
 20
-73.37499999999999
 30
0.0
  0
VERTEX
  8
Group064
 10
207.31249999999994
 20
-59.97499999999999
 30
0.0
  0
SEQEND
  8
Group064
  0
ARC
  8
Group065
 62
0
 10
226.66249999999994
 20
-59.974999999999994
 30
0.0
 40
0.3
 50
90.0
 51
-180.0
  0
ARC
  8
Group065
 62
0
 10
226.6624999999999
 20
-73.37499999999999
 30
0.0
 40
0.3
 50
-180.0
 51
-90.0
  0
ARC
  8
Group065
 62
0
 10
240.06249999999991
 20
-59.97499999999999
 30
0.0
 40
0.3
 50
-0.0
 51
90.0
  0
ARC
  8
Group065
 62
0
 10
240.06249999999991
 20
-73.37499999999999
 30
0.0
 40
0.3
 50
-90.0
 51
-0.0
  0
POLYLINE
  8
Group065
 62
0
 70
0
 66
1
 10
0.0
 20
0.0
 30
0.0
  0
VERTEX
  8
Group065
 10
226.66249999999994
 20
-59.67499999999999
 30
0.0
  0
VERTEX
  8
Group065
 10
240.06249999999994
 20
-59.67499999999999
 30
0.0
  0
SEQEND
  8
Group065
  0
POLYLINE
  8
Group065
 62
0
 70
0
 66
1
 10
0.0
 20
0.0
 30
0.0
  0
VERTEX
  8
Group065
 10
240.36249999999993
 20
-59.97499999999999
 30
0.0
  0
VERTEX
  8
Group065
 10
240.36249999999993
 20
-73.37499999999999
 30
0.0
  0
SEQEND
  8
Group065
  0
POLYLINE
  8
Group065
 62
0
 70
0
 66
1
 10
0.0
 20
0.0
 30
0.0
  0
VERTEX
  8
Group065
 10
240.06249999999991
 20
-73.67499999999998
 30
0.0
  0
VERTEX
  8
Group065
 10
226.6624999999999
 20
-73.67499999999998
 30
0.0
  0
SEQEND
  8
Group065
  0
POLYLINE
  8
Group065
 62
0
 70
0
 66
1
 10
0.0
 20
0.0
 30
0.0
  0
VERTEX
  8
Group065
 10
226.36249999999993
 20
-73.37499999999999
 30
0.0
  0
VERTEX
  8
Group065
 10
226.36249999999993
 20
-59.97499999999999
 30
0.0
  0
SEQEND
  8
Group065
  0
ARC
  8
Group066
 62
0
 10
245.71249999999992
 20
-59.974999999999994
 30
0.0
 40
0.3
 50
90.0
 51
-180.0
  0
ARC
  8
Group066
 62
0
 10
245.7124999999999
 20
-73.37499999999999
 30
0.0
 40
0.3
 50
-180.0
 51
-90.0
  0
ARC
  8
Group066
 62
0
 10
259.1124999999999
 20
-59.97499999999999
 30
0.0
 40
0.3
 50
-0.0
 51
90.0
  0
ARC
  8
Group066
 62
0
 10
259.1124999999999
 20
-73.37499999999999
 30
0.0
 40
0.3
 50
-90.0
 51
-0.0
  0
POLYLINE
  8
Group066
 62
0
 70
0
 66
1
 10
0.0
 20
0.0
 30
0.0
  0
VERTEX
  8
Group066
 10
245.71249999999992
 20
-59.67499999999999
 30
0.0
  0
VERTEX
  8
Group066
 10
259.11249999999995
 20
-59.67499999999999
 30
0.0
  0
SEQEND
  8
Group066
  0
POLYLINE
  8
Group066
 62
0
 70
0
 66
1
 10
0.0
 20
0.0
 30
0.0
  0
VERTEX
  8
Group066
 10
259.4124999999999
 20
-59.97499999999999
 30
0.0
  0
VERTEX
  8
Group066
 10
259.4124999999999
 20
-73.37499999999999
 30
0.0
  0
SEQEND
  8
Group066
  0
POLYLINE
  8
Group066
 62
0
 70
0
 66
1
 10
0.0
 20
0.0
 30
0.0
  0
VERTEX
  8
Group066
 10
259.1124999999999
 20
-73.67499999999998
 30
0.0
  0
VERTEX
  8
Group066
 10
245.7124999999999
 20
-73.67499999999998
 30
0.0
  0
SEQEND
  8
Group066
  0
POLYLINE
  8
Group066
 62
0
 70
0
 66
1
 10
0.0
 20
0.0
 30
0.0
  0
VERTEX
  8
Group066
 10
245.4124999999999
 20
-73.37499999999999
 30
0.0
  0
VERTEX
  8
Group066
 10
245.4124999999999
 20
-59.97499999999999
 30
0.0
  0
SEQEND
  8
Group066
  0
ARC
  8
Group067
 62
0
 10
264.76249999999993
 20
-59.974999999999994
 30
0.0
 40
0.3
 50
90.0
 51
-180.0
  0
ARC
  8
Group067
 62
0
 10
264.7624999999999
 20
-73.37499999999999
 30
0.0
 40
0.3
 50
-180.0
 51
-90.0
  0
ARC
  8
Group067
 62
0
 10
278.1624999999999
 20
-59.97499999999999
 30
0.0
 40
0.3
 50
-0.0
 51
90.0
  0
ARC
  8
Group067
 62
0
 10
278.1624999999999
 20
-73.37499999999999
 30
0.0
 40
0.3
 50
-90.0
 51
-0.0
  0
POLYLINE
  8
Group067
 62
0
 70
0
 66
1
 10
0.0
 20
0.0
 30
0.0
  0
VERTEX
  8
Group067
 10
264.76249999999993
 20
-59.67499999999999
 30
0.0
  0
VERTEX
  8
Group067
 10
278.16249999999997
 20
-59.67499999999999
 30
0.0
  0
SEQEND
  8
Group067
  0
POLYLINE
  8
Group067
 62
0
 70
0
 66
1
 10
0.0
 20
0.0
 30
0.0
  0
VERTEX
  8
Group067
 10
278.46249999999986
 20
-59.97499999999999
 30
0.0
  0
VERTEX
  8
Group067
 10
278.46249999999986
 20
-73.37499999999999
 30
0.0
  0
SEQEND
  8
Group067
  0
POLYLINE
  8
Group067
 62
0
 70
0
 66
1
 10
0.0
 20
0.0
 30
0.0
  0
VERTEX
  8
Group067
 10
278.1624999999999
 20
-73.67499999999998
 30
0.0
  0
VERTEX
  8
Group067
 10
264.76249999999993
 20
-73.67499999999998
 30
0.0
  0
SEQEND
  8
Group067
  0
POLYLINE
  8
Group067
 62
0
 70
0
 66
1
 10
0.0
 20
0.0
 30
0.0
  0
VERTEX
  8
Group067
 10
264.46249999999986
 20
-73.37499999999999
 30
0.0
  0
VERTEX
  8
Group067
 10
264.46249999999986
 20
-59.97499999999999
 30
0.0
  0
SEQEND
  8
Group067
  0
POLYLINE
  8
right010
 62
0
 70
0
 66
1
 10
0.0
 20
0.0
 30
0.0
  0
VERTEX
  8
right010
 10
322.83125
 20
-76.67500000000001
 30
0.0
  0
VERTEX
  8
right010
 10
322.83125
 20
-57.47500000000002
 30
0.0
  0
SEQEND
  8
right010
  0
ARC
  8
right010
 62
0
 10
322.33125
 20
-76.67500000000001
 30
0.0
 40
0.5
 50
-90.0
 51
-0.0
  0
ARC
  8
right010
 62
0
 10
314.83125
 20
-59.175
 30
0.0
 40
0.5
 50
-90.0
 51
-0.0
  0
ARC
  8
right010
 62
0
 10
315.83125
 20
-57.475000000000016
 30
0.0
 40
0.5
 50
90.0
 51
-180.0
  0
POLYLINE
  8
right010
 62
0
 70
0
 66
1
 10
0.0
 20
0.0
 30
0.0
  0
VERTEX
  8
right010
 10
322.33125
 20
-56.975000000000016
 30
0.0
  0
VERTEX
  8
right010
 10
315.83125
 20
-56.975000000000016
 30
0.0
  0
SEQEND
  8
right010
  0
ARC
  8
right010
 62
0
 10
322.33125
 20
-57.475000000000016
 30
0.0
 40
0.5
 50
-0.0
 51
90.0
  0
POLYLINE
  8
left010
 62
0
 70
0
 66
1
 10
0.0
 20
0.0
 30
0.0
  0
VERTEX
  8
left010
 10
291.53124999999994
 20
-76.67499999999998
 30
0.0
  0
VERTEX
  8
left010
 10
291.53124999999994
 20
-57.474999999999994
 30
0.0
  0
SEQEND
  8
left010
  0
ARC
  8
left010
 62
0
 10
292.03124999999994
 20
-76.67499999999998
 30
0.0
 40
0.5
 50
-180.0
 51
-90.0
  0
ARC
  8
left010
 62
0
 10
299.53124999999994
 20
-59.175
 30
0.0
 40
0.5
 50
-180.0
 51
-90.0
  0
ARC
  8
left010
 62
0
 10
298.53124999999994
 20
-57.474999999999994
 30
0.0
 40
0.5
 50
-0.0
 51
90.0
  0
POLYLINE
  8
left010
 62
0
 70
0
 66
1
 10
0.0
 20
0.0
 30
0.0
  0
VERTEX
  8
left010
 10
298.53124999999994
 20
-56.974999999999994
 30
0.0
  0
VERTEX
  8
left010
 10
292.03124999999994
 20
-56.974999999999994
 30
0.0
  0
SEQEND
  8
left010
  0
ARC
  8
left010
 62
0
 10
292.03124999999994
 20
-57.474999999999994
 30
0.0
 40
0.5
 50
90.0
 51
-180.0
  0
POLYLINE
  8
rshift
 62
0
 70
0
 66
1
 10
0.0
 20
0.0
 30
0.0
  0
VERTEX
  8
rshift
 10
299.03124999999994
 20
-59.175
 30
0.0
  0
VERTEX
  8
rshift
 10
299.03124999999994
 20
-57.475
 30
0.0
  0
SEQEND
  8
rshift
  0
POLYLINE
  8
rshift
 62
0
 70
0
 66
1
 10
0.0
 20
0.0
 30
0.0
  0
VERTEX
  8
rshift
 10
315.33125
 20
-59.175
 30
0.0
  0
VERTEX
  8
rshift
 10
315.33125
 20
-57.475000000000016
 30
0.0
  0
SEQEND
  8
rshift
  0
POLYLINE
  8
rshift
 62
0
 70
0
 66
1
 10
0.0
 20
0.0
 30
0.0
  0
VERTEX
  8
rshift
 10
292.03124999999994
 20
-77.17499999999998
 30
0.0
  0
VERTEX
  8
rshift
 10
322.33125
 20
-77.175
 30
0.0
  0
SEQEND
  8
rshift
  0
POLYLINE
  8
rshift
 62
0
 70
0
 66
1
 10
0.0
 20
0.0
 30
0.0
  0
VERTEX
  8
rshift
 10
299.53124999999994
 20
-59.675
 30
0.0
  0
VERTEX
  8
rshift
 10
314.83125
 20
-59.675
 30
0.0
  0
SEQEND
  8
rshift
  0
POLYLINE
  8
Group070
 62
0
 70
0
 66
1
 10
0.0
 20
0.0
 30
0.0
  0
VERTEX
  8
Group070
 10
55.212500000000006
 20
-78.72499999999998
 30
0.0
  0
VERTEX
  8
Group070
 10
68.61250000000001
 20
-78.72499999999998
 30
0.0
  0
SEQEND
  8
Group070
  0
POLYLINE
  8
Group070
 62
0
 70
0
 66
1
 10
0.0
 20
0.0
 30
0.0
  0
VERTEX
  8
Group070
 10
68.6125
 20
-92.72499999999998
 30
0.0
  0
VERTEX
  8
Group070
 10
55.2125
 20
-92.72499999999998
 30
0.0
  0
SEQEND
  8
Group070
  0
POLYLINE
  8
Group070
 62
0
 70
0
 66
1
 10
0.0
 20
0.0
 30
0.0
  0
VERTEX
  8
Group070
 10
68.91250000000001
 20
-79.02499999999998
 30
0.0
  0
VERTEX
  8
Group070
 10
68.91250000000001
 20
-92.42499999999998
 30
0.0
  0
SEQEND
  8
Group070
  0
ARC
  8
Group070
 62
0
 10
55.2125
 20
-92.42499999999998
 30
0.0
 40
0.3
 50
-180.0
 51
-90.0
  0
ARC
  8
Group070
 62
0
 10
68.6125
 20
-92.42499999999998
 30
0.0
 40
0.3
 50
-90.0
 51
-0.0
  0
ARC
  8
Group070
 62
0
 10
68.61250000000001
 20
-79.02499999999998
 30
0.0
 40
0.3
 50
-0.0
 51
90.0
  0
ARC
  8
Group070
 62
0
 10
55.212500000000006
 20
-79.02499999999998
 30
0.0
 40
0.3
 50
90.0
 51
-180.0
  0
POLYLINE
  8
Group070
 62
0
 70
0
 66
1
 10
0.0
 20
0.0
 30
0.0
  0
VERTEX
  8
Group070
 10
54.9125
 20
-92.42499999999998
 30
0.0
  0
VERTEX
  8
Group070
 10
54.9125
 20
-79.02499999999998
 30
0.0
  0
SEQEND
  8
Group070
  0
POLYLINE
  8
Group071
 62
0
 70
0
 66
1
 10
0.0
 20
0.0
 30
0.0
  0
VERTEX
  8
Group071
 10
102.8375
 20
-78.72499999999998
 30
0.0
  0
VERTEX
  8
Group071
 10
116.23750000000001
 20
-78.72499999999998
 30
0.0
  0
SEQEND
  8
Group071
  0
POLYLINE
  8
Group071
 62
0
 70
0
 66
1
 10
0.0
 20
0.0
 30
0.0
  0
VERTEX
  8
Group071
 10
116.2375
 20
-92.72499999999998
 30
0.0
  0
VERTEX
  8
Group071
 10
102.8375
 20
-92.72499999999998
 30
0.0
  0
SEQEND
  8
Group071
  0
POLYLINE
  8
Group071
 62
0
 70
0
 66
1
 10
0.0
 20
0.0
 30
0.0
  0
VERTEX
  8
Group071
 10
116.53750000000001
 20
-79.02499999999998
 30
0.0
  0
VERTEX
  8
Group071
 10
116.53750000000001
 20
-92.42499999999998
 30
0.0
  0
SEQEND
  8
Group071
  0
ARC
  8
Group071
 62
0
 10
102.8375
 20
-92.42499999999998
 30
0.0
 40
0.3
 50
-180.0
 51
-90.0
  0
ARC
  8
Group071
 62
0
 10
116.2375
 20
-92.42499999999998
 30
0.0
 40
0.3
 50
-90.0
 51
-0.0
  0
ARC
  8
Group071
 62
0
 10
116.23750000000001
 20
-79.02499999999998
 30
0.0
 40
0.3
 50
-0.0
 51
90.0
  0
ARC
  8
Group071
 62
0
 10
102.8375
 20
-79.02499999999998
 30
0.0
 40
0.3
 50
90.0
 51
-180.0
  0
POLYLINE
  8
Group071
 62
0
 70
0
 66
1
 10
0.0
 20
0.0
 30
0.0
  0
VERTEX
  8
Group071
 10
102.5375
 20
-92.42499999999998
 30
0.0
  0
VERTEX
  8
Group071
 10
102.5375
 20
-79.02499999999998
 30
0.0
  0
SEQEND
  8
Group071
  0
POLYLINE
  8
space
 62
0
 70
0
 66
1
 10
0.0
 20
0.0
 30
0.0
  0
VERTEX
  8
space
 10
197.5
 20
-79.02499999999996
 30
0.0
  0
VERTEX
  8
space
 10
197.5
 20
-92.42499999999997
 30
0.0
  0
SEQEND
  8
space
  0
ARC
  8
space
 62
0
 10
183.8
 20
-92.42499999999997
 30
0.0
 40
0.3
 50
-180.0
 51
-90.0
  0
ARC
  8
space
 62
0
 10
183.2
 20
-79.02499999999996
 30
0.0
 40
0.3
 50
-0.0
 51
90.0
  0
ARC
  8
space
 62
0
 10
197.8
 20
-79.02499999999996
 30
0.0
 40
0.3
 50
90.0
 51
-180.0
  0
ARC
  8
space
 62
0
 10
197.2
 20
-92.42499999999997
 30
0.0
 40
0.3
 50
-90.0
 51
-0.0
  0
POLYLINE
  8
space
 62
0
 70
0
 66
1
 10
0.0
 20
0.0
 30
0.0
  0
VERTEX
  8
space
 10
197.2
 20
-92.72499999999998
 30
0.0
  0
VERTEX
  8
space
 10
183.79999999999998
 20
-92.72499999999998
 30
0.0
  0
SEQEND
  8
space
  0
POLYLINE
  8
space
 62
0
 70
0
 66
1
 10
0.0
 20
0.0
 30
0.0
  0
VERTEX
  8
space
 10
183.5
 20
-92.42499999999997
 30
0.0
  0
VERTEX
  8
space
 10
183.5
 20
-79.02499999999996
 30
0.0
  0
SEQEND
  8
space
  0
POLYLINE
  8
space
 62
0
 70
0
 66
1
 10
0.0
 20
0.0
 30
0.0
  0
VERTEX
  8
space
 10
250.9
 20
-75.22499999999998
 30
0.0
  0
VERTEX
  8
space
 10
130.1
 20
-75.22499999999998
 30
0.0
  0
SEQEND
  8
space
  0
POLYLINE
  8
left007
 62
0
 70
0
 66
1
 10
0.0
 20
0.0
 30
0.0
  0
VERTEX
  8
left007
 10
129.6
 20
-75.72499999999998
 30
0.0
  0
VERTEX
  8
left007
 10
129.6
 20
-94.92499999999997
 30
0.0
  0
SEQEND
  8
left007
  0
ARC
  8
left007
 62
0
 10
130.1
 20
-75.72499999999998
 30
0.0
 40
0.5
 50
90.0
 51
-180.0
  0
ARC
  8
left007
 62
0
 10
137.6
 20
-79.22499999999998
 30
0.0
 40
0.5
 50
90.0
 51
-180.0
  0
POLYLINE
  8
left007
 62
0
 70
0
 66
1
 10
0.0
 20
0.0
 30
0.0
  0
VERTEX
  8
left007
 10
137.1
 20
-94.92499999999997
 30
0.0
  0
VERTEX
  8
left007
 10
137.1
 20
-79.22499999999998
 30
0.0
  0
SEQEND
  8
left007
  0
ARC
  8
left007
 62
0
 10
136.6
 20
-94.92499999999997
 30
0.0
 40
0.5
 50
-90.0
 51
-0.0
  0
POLYLINE
  8
left007
 62
0
 70
0
 66
1
 10
0.0
 20
0.0
 30
0.0
  0
VERTEX
  8
left007
 10
130.1
 20
-95.42499999999997
 30
0.0
  0
VERTEX
  8
left007
 10
136.6
 20
-95.42499999999997
 30
0.0
  0
SEQEND
  8
left007
  0
ARC
  8
left007
 62
0
 10
130.1
 20
-94.92499999999997
 30
0.0
 40
0.5
 50
-180.0
 51
-90.0
  0
POLYLINE
  8
left007
 62
0
 70
0
 66
1
 10
0.0
 20
0.0
 30
0.0
  0
VERTEX
  8
left007
 10
137.6
 20
-78.72499999999998
 30
0.0
  0
VERTEX
  8
left007
 10
183.2
 20
-78.72499999999997
 30
0.0
  0
SEQEND
  8
left007
  0
POLYLINE
  8
right007
 62
0
 70
0
 66
1
 10
0.0
 20
0.0
 30
0.0
  0
VERTEX
  8
right007
 10
251.4
 20
-75.72499999999998
 30
0.0
  0
VERTEX
  8
right007
 10
251.4
 20
-94.92499999999997
 30
0.0
  0
SEQEND
  8
right007
  0
ARC
  8
right007
 62
0
 10
250.9
 20
-75.72499999999998
 30
0.0
 40
0.5
 50
-0.0
 51
90.0
  0
POLYLINE
  8
right007
 62
0
 70
0
 66
1
 10
0.0
 20
0.0
 30
0.0
  0
VERTEX
  8
right007
 10
243.4
 20
-78.72499999999998
 30
0.0
  0
VERTEX
  8
right007
 10
197.8
 20
-78.72499999999997
 30
0.0
  0
SEQEND
  8
right007
  0
ARC
  8
right007
 62
0
 10
243.4
 20
-79.22499999999998
 30
0.0
 40
0.5
 50
-0.0
 51
90.0
  0
POLYLINE
  8
right007
 62
0
 70
0
 66
1
 10
0.0
 20
0.0
 30
0.0
  0
VERTEX
  8
right007
 10
243.9
 20
-79.22499999999998
 30
0.0
  0
VERTEX
  8
right007
 10
243.9
 20
-94.92499999999997
 30
0.0
  0
SEQEND
  8
right007
  0
ARC
  8
right007
 62
0
 10
244.4
 20
-94.92499999999997
 30
0.0
 40
0.5
 50
-180.0
 51
-90.0
  0
POLYLINE
  8
right007
 62
0
 70
0
 66
1
 10
0.0
 20
0.0
 30
0.0
  0
VERTEX
  8
right007
 10
244.4
 20
-95.42499999999997
 30
0.0
  0
VERTEX
  8
right007
 10
250.9
 20
-95.42499999999997
 30
0.0
  0
SEQEND
  8
right007
  0
ARC
  8
right007
 62
0
 10
250.9
 20
-94.92499999999997
 30
0.0
 40
0.5
 50
-90.0
 51
-0.0
  0
POLYLINE
  8
Group073
 62
0
 70
0
 66
1
 10
0.0
 20
0.0
 30
0.0
  0
VERTEX
  8
Group073
 10
264.76250000000005
 20
-78.72499999999998
 30
0.0
  0
VERTEX
  8
Group073
 10
278.1625
 20
-78.72499999999998
 30
0.0
  0
SEQEND
  8
Group073
  0
POLYLINE
  8
Group073
 62
0
 70
0
 66
1
 10
0.0
 20
0.0
 30
0.0
  0
VERTEX
  8
Group073
 10
278.1625
 20
-92.72499999999998
 30
0.0
  0
VERTEX
  8
Group073
 10
264.76250000000005
 20
-92.72499999999998
 30
0.0
  0
SEQEND
  8
Group073
  0
POLYLINE
  8
Group073
 62
0
 70
0
 66
1
 10
0.0
 20
0.0
 30
0.0
  0
VERTEX
  8
Group073
 10
278.46250000000003
 20
-79.02499999999998
 30
0.0
  0
VERTEX
  8
Group073
 10
278.46250000000003
 20
-92.42499999999998
 30
0.0
  0
SEQEND
  8
Group073
  0
ARC
  8
Group073
 62
0
 10
264.76250000000005
 20
-92.42499999999998
 30
0.0
 40
0.3
 50
-180.0
 51
-90.0
  0
ARC
  8
Group073
 62
0
 10
278.1625
 20
-92.42499999999998
 30
0.0
 40
0.3
 50
-90.0
 51
-0.0
  0
ARC
  8
Group073
 62
0
 10
278.1625
 20
-79.02499999999998
 30
0.0
 40
0.3
 50
-0.0
 51
90.0
  0
ARC
  8
Group073
 62
0
 10
264.76250000000005
 20
-79.02499999999998
 30
0.0
 40
0.3
 50
90.0
 51
-180.0
  0
POLYLINE
  8
Group073
 62
0
 70
0
 66
1
 10
0.0
 20
0.0
 30
0.0
  0
VERTEX
  8
Group073
 10
264.4625
 20
-92.42499999999998
 30
0.0
  0
VERTEX
  8
Group073
 10
264.4625
 20
-79.02499999999998
 30
0.0
  0
SEQEND
  8
Group073
  0
POLYLINE
  8
Group074
 62
0
 70
0
 66
1
 10
0.0
 20
0.0
 30
0.0
  0
VERTEX
  8
Group074
 10
312.3874999999998
 20
-78.72499999999998
 30
0.0
  0
VERTEX
  8
Group074
 10
325.7874999999998
 20
-78.72499999999998
 30
0.0
  0
SEQEND
  8
Group074
  0
POLYLINE
  8
Group074
 62
0
 70
0
 66
1
 10
0.0
 20
0.0
 30
0.0
  0
VERTEX
  8
Group074
 10
325.78749999999985
 20
-92.72499999999998
 30
0.0
  0
VERTEX
  8
Group074
 10
312.3874999999999
 20
-92.72499999999998
 30
0.0
  0
SEQEND
  8
Group074
  0
POLYLINE
  8
Group074
 62
0
 70
0
 66
1
 10
0.0
 20
0.0
 30
0.0
  0
VERTEX
  8
Group074
 10
326.08749999999986
 20
-79.02499999999998
 30
0.0
  0
VERTEX
  8
Group074
 10
326.08749999999986
 20
-92.42499999999998
 30
0.0
  0
SEQEND
  8
Group074
  0
ARC
  8
Group074
 62
0
 10
312.3874999999998
 20
-92.42499999999998
 30
0.0
 40
0.3
 50
-180.0
 51
-90.0
  0
ARC
  8
Group074
 62
0
 10
325.78749999999985
 20
-92.42499999999998
 30
0.0
 40
0.3
 50
-90.0
 51
-0.0
  0
ARC
  8
Group074
 62
0
 10
325.78749999999985
 20
-79.02499999999998
 30
0.0
 40
0.3
 50
-0.0
 51
90.0
  0
ARC
  8
Group074
 62
0
 10
312.3874999999998
 20
-79.02499999999998
 30
0.0
 40
0.3
 50
90.0
 51
-180.0
  0
POLYLINE
  8
Group074
 62
0
 70
0
 66
1
 10
0.0
 20
0.0
 30
0.0
  0
VERTEX
  8
Group074
 10
312.08749999999986
 20
-92.42499999999998
 30
0.0
  0
VERTEX
  8
Group074
 10
312.08749999999986
 20
-79.02499999999998
 30
0.0
  0
SEQEND
  8
Group074
  0
ARC
  8
Group076
 62
0
 10
345.72499999999997
 20
-2.825
 30
0.0
 40
0.3
 50
90.0
 51
-180.0
  0
ARC
  8
Group076
 62
0
 10
345.72499999999997
 20
-16.224999999999998
 30
0.0
 40
0.3
 50
-180.0
 51
-90.0
  0
ARC
  8
Group076
 62
0
 10
359.125
 20
-2.824999999999999
 30
0.0
 40
0.3
 50
-0.0
 51
90.0
  0
ARC
  8
Group076
 62
0
 10
359.125
 20
-16.224999999999998
 30
0.0
 40
0.3
 50
-90.0
 51
-0.0
  0
POLYLINE
  8
Group076
 62
0
 70
0
 66
1
 10
0.0
 20
0.0
 30
0.0
  0
VERTEX
  8
Group076
 10
345.72499999999997
 20
-2.525
 30
0.0
  0
VERTEX
  8
Group076
 10
359.125
 20
-2.524999999999999
 30
0.0
  0
SEQEND
  8
Group076
  0
POLYLINE
  8
Group076
 62
0
 70
0
 66
1
 10
0.0
 20
0.0
 30
0.0
  0
VERTEX
  8
Group076
 10
359.42499999999995
 20
-2.824999999999999
 30
0.0
  0
VERTEX
  8
Group076
 10
359.42499999999995
 20
-16.224999999999998
 30
0.0
  0
SEQEND
  8
Group076
  0
POLYLINE
  8
Group076
 62
0
 70
0
 66
1
 10
0.0
 20
0.0
 30
0.0
  0
VERTEX
  8
Group076
 10
359.125
 20
-16.525
 30
0.0
  0
VERTEX
  8
Group076
 10
345.725
 20
-16.525
 30
0.0
  0
SEQEND
  8
Group076
  0
POLYLINE
  8
Group076
 62
0
 70
0
 66
1
 10
0.0
 20
0.0
 30
0.0
  0
VERTEX
  8
Group076
 10
345.42499999999995
 20
-16.224999999999998
 30
0.0
  0
VERTEX
  8
Group076
 10
345.42499999999995
 20
-2.8249999999999993
 30
0.0
  0
SEQEND
  8
Group076
  0
ARC
  8
Group077
 62
0
 10
364.775
 20
-2.825
 30
0.0
 40
0.3
 50
90.0
 51
-180.0
  0
ARC
  8
Group077
 62
0
 10
364.775
 20
-16.224999999999998
 30
0.0
 40
0.3
 50
-180.0
 51
-90.0
  0
ARC
  8
Group077
 62
0
 10
378.175
 20
-2.824999999999999
 30
0.0
 40
0.3
 50
-0.0
 51
90.0
  0
ARC
  8
Group077
 62
0
 10
378.175
 20
-16.224999999999998
 30
0.0
 40
0.3
 50
-90.0
 51
-0.0
  0
POLYLINE
  8
Group077
 62
0
 70
0
 66
1
 10
0.0
 20
0.0
 30
0.0
  0
VERTEX
  8
Group077
 10
364.775
 20
-2.525
 30
0.0
  0
VERTEX
  8
Group077
 10
378.175
 20
-2.524999999999999
 30
0.0
  0
SEQEND
  8
Group077
  0
POLYLINE
  8
Group077
 62
0
 70
0
 66
1
 10
0.0
 20
0.0
 30
0.0
  0
VERTEX
  8
Group077
 10
378.47499999999997
 20
-2.824999999999999
 30
0.0
  0
VERTEX
  8
Group077
 10
378.47499999999997
 20
-16.224999999999998
 30
0.0
  0
SEQEND
  8
Group077
  0
POLYLINE
  8
Group077
 62
0
 70
0
 66
1
 10
0.0
 20
0.0
 30
0.0
  0
VERTEX
  8
Group077
 10
378.175
 20
-16.525
 30
0.0
  0
VERTEX
  8
Group077
 10
364.77500000000003
 20
-16.525
 30
0.0
  0
SEQEND
  8
Group077
  0
POLYLINE
  8
Group077
 62
0
 70
0
 66
1
 10
0.0
 20
0.0
 30
0.0
  0
VERTEX
  8
Group077
 10
364.47499999999997
 20
-16.224999999999998
 30
0.0
  0
VERTEX
  8
Group077
 10
364.47499999999997
 20
-2.8249999999999993
 30
0.0
  0
SEQEND
  8
Group077
  0
ARC
  8
Group078
 62
0
 10
383.825
 20
-2.825
 30
0.0
 40
0.3
 50
90.0
 51
-180.0
  0
ARC
  8
Group078
 62
0
 10
383.825
 20
-16.224999999999998
 30
0.0
 40
0.3
 50
-180.0
 51
-90.0
  0
ARC
  8
Group078
 62
0
 10
397.225
 20
-2.824999999999999
 30
0.0
 40
0.3
 50
-0.0
 51
90.0
  0
ARC
  8
Group078
 62
0
 10
397.225
 20
-16.224999999999998
 30
0.0
 40
0.3
 50
-90.0
 51
-0.0
  0
POLYLINE
  8
Group078
 62
0
 70
0
 66
1
 10
0.0
 20
0.0
 30
0.0
  0
VERTEX
  8
Group078
 10
383.825
 20
-2.525
 30
0.0
  0
VERTEX
  8
Group078
 10
397.225
 20
-2.524999999999999
 30
0.0
  0
SEQEND
  8
Group078
  0
POLYLINE
  8
Group078
 62
0
 70
0
 66
1
 10
0.0
 20
0.0
 30
0.0
  0
VERTEX
  8
Group078
 10
397.525
 20
-2.824999999999999
 30
0.0
  0
VERTEX
  8
Group078
 10
397.525
 20
-16.224999999999998
 30
0.0
  0
SEQEND
  8
Group078
  0
POLYLINE
  8
Group078
 62
0
 70
0
 66
1
 10
0.0
 20
0.0
 30
0.0
  0
VERTEX
  8
Group078
 10
397.225
 20
-16.525
 30
0.0
  0
VERTEX
  8
Group078
 10
383.82500000000005
 20
-16.525
 30
0.0
  0
SEQEND
  8
Group078
  0
POLYLINE
  8
Group078
 62
0
 70
0
 66
1
 10
0.0
 20
0.0
 30
0.0
  0
VERTEX
  8
Group078
 10
383.525
 20
-16.224999999999998
 30
0.0
  0
VERTEX
  8
Group078
 10
383.525
 20
-2.8249999999999993
 30
0.0
  0
SEQEND
  8
Group078
  0
ARC
  8
Group079
 62
0
 10
402.875
 20
-2.825
 30
0.0
 40
0.3
 50
90.0
 51
-180.0
  0
ARC
  8
Group079
 62
0
 10
402.875
 20
-16.224999999999998
 30
0.0
 40
0.3
 50
-180.0
 51
-90.0
  0
ARC
  8
Group079
 62
0
 10
416.27500000000003
 20
-2.824999999999999
 30
0.0
 40
0.3
 50
-0.0
 51
90.0
  0
ARC
  8
Group079
 62
0
 10
416.27500000000003
 20
-16.224999999999998
 30
0.0
 40
0.3
 50
-90.0
 51
-0.0
  0
POLYLINE
  8
Group079
 62
0
 70
0
 66
1
 10
0.0
 20
0.0
 30
0.0
  0
VERTEX
  8
Group079
 10
402.875
 20
-2.525
 30
0.0
  0
VERTEX
  8
Group079
 10
416.27500000000003
 20
-2.524999999999999
 30
0.0
  0
SEQEND
  8
Group079
  0
POLYLINE
  8
Group079
 62
0
 70
0
 66
1
 10
0.0
 20
0.0
 30
0.0
  0
VERTEX
  8
Group079
 10
416.575
 20
-2.824999999999999
 30
0.0
  0
VERTEX
  8
Group079
 10
416.575
 20
-16.224999999999998
 30
0.0
  0
SEQEND
  8
Group079
  0
POLYLINE
  8
Group079
 62
0
 70
0
 66
1
 10
0.0
 20
0.0
 30
0.0
  0
VERTEX
  8
Group079
 10
416.27500000000003
 20
-16.525
 30
0.0
  0
VERTEX
  8
Group079
 10
402.87500000000006
 20
-16.525
 30
0.0
  0
SEQEND
  8
Group079
  0
POLYLINE
  8
Group079
 62
0
 70
0
 66
1
 10
0.0
 20
0.0
 30
0.0
  0
VERTEX
  8
Group079
 10
402.575
 20
-16.224999999999998
 30
0.0
  0
VERTEX
  8
Group079
 10
402.575
 20
-2.8249999999999993
 30
0.0
  0
SEQEND
  8
Group079
  0
ARC
  8
Group081
 62
0
 10
345.72499999999997
 20
-21.875
 30
0.0
 40
0.3
 50
90.0
 51
-180.0
  0
ARC
  8
Group081
 62
0
 10
345.72499999999997
 20
-35.275
 30
0.0
 40
0.3
 50
-180.0
 51
-90.0
  0
ARC
  8
Group081
 62
0
 10
359.125
 20
-21.875
 30
0.0
 40
0.3
 50
-0.0
 51
90.0
  0
ARC
  8
Group081
 62
0
 10
359.125
 20
-35.275
 30
0.0
 40
0.3
 50
-90.0
 51
-0.0
  0
POLYLINE
  8
Group081
 62
0
 70
0
 66
1
 10
0.0
 20
0.0
 30
0.0
  0
VERTEX
  8
Group081
 10
345.72499999999997
 20
-21.575
 30
0.0
  0
VERTEX
  8
Group081
 10
359.125
 20
-21.575
 30
0.0
  0
SEQEND
  8
Group081
  0
POLYLINE
  8
Group081
 62
0
 70
0
 66
1
 10
0.0
 20
0.0
 30
0.0
  0
VERTEX
  8
Group081
 10
359.42499999999995
 20
-21.875
 30
0.0
  0
VERTEX
  8
Group081
 10
359.42499999999995
 20
-35.275
 30
0.0
  0
SEQEND
  8
Group081
  0
POLYLINE
  8
Group081
 62
0
 70
0
 66
1
 10
0.0
 20
0.0
 30
0.0
  0
VERTEX
  8
Group081
 10
359.125
 20
-35.575
 30
0.0
  0
VERTEX
  8
Group081
 10
345.725
 20
-35.575
 30
0.0
  0
SEQEND
  8
Group081
  0
POLYLINE
  8
Group081
 62
0
 70
0
 66
1
 10
0.0
 20
0.0
 30
0.0
  0
VERTEX
  8
Group081
 10
345.42499999999995
 20
-35.275
 30
0.0
  0
VERTEX
  8
Group081
 10
345.42499999999995
 20
-21.875
 30
0.0
  0
SEQEND
  8
Group081
  0
ARC
  8
Group082
 62
0
 10
364.775
 20
-21.875
 30
0.0
 40
0.3
 50
90.0
 51
-180.0
  0
ARC
  8
Group082
 62
0
 10
364.775
 20
-35.275
 30
0.0
 40
0.3
 50
-180.0
 51
-90.0
  0
ARC
  8
Group082
 62
0
 10
378.175
 20
-21.875
 30
0.0
 40
0.3
 50
-0.0
 51
90.0
  0
ARC
  8
Group082
 62
0
 10
378.175
 20
-35.275
 30
0.0
 40
0.3
 50
-90.0
 51
-0.0
  0
POLYLINE
  8
Group082
 62
0
 70
0
 66
1
 10
0.0
 20
0.0
 30
0.0
  0
VERTEX
  8
Group082
 10
364.775
 20
-21.575
 30
0.0
  0
VERTEX
  8
Group082
 10
378.175
 20
-21.575
 30
0.0
  0
SEQEND
  8
Group082
  0
POLYLINE
  8
Group082
 62
0
 70
0
 66
1
 10
0.0
 20
0.0
 30
0.0
  0
VERTEX
  8
Group082
 10
378.47499999999997
 20
-21.875
 30
0.0
  0
VERTEX
  8
Group082
 10
378.47499999999997
 20
-35.275
 30
0.0
  0
SEQEND
  8
Group082
  0
POLYLINE
  8
Group082
 62
0
 70
0
 66
1
 10
0.0
 20
0.0
 30
0.0
  0
VERTEX
  8
Group082
 10
378.175
 20
-35.575
 30
0.0
  0
VERTEX
  8
Group082
 10
364.77500000000003
 20
-35.575
 30
0.0
  0
SEQEND
  8
Group082
  0
POLYLINE
  8
Group082
 62
0
 70
0
 66
1
 10
0.0
 20
0.0
 30
0.0
  0
VERTEX
  8
Group082
 10
364.47499999999997
 20
-35.275
 30
0.0
  0
VERTEX
  8
Group082
 10
364.47499999999997
 20
-21.875
 30
0.0
  0
SEQEND
  8
Group082
  0
ARC
  8
Group083
 62
0
 10
383.825
 20
-21.875
 30
0.0
 40
0.3
 50
90.0
 51
-180.0
  0
ARC
  8
Group083
 62
0
 10
383.825
 20
-35.275
 30
0.0
 40
0.3
 50
-180.0
 51
-90.0
  0
ARC
  8
Group083
 62
0
 10
397.225
 20
-21.875
 30
0.0
 40
0.3
 50
-0.0
 51
90.0
  0
ARC
  8
Group083
 62
0
 10
397.225
 20
-35.275
 30
0.0
 40
0.3
 50
-90.0
 51
-0.0
  0
POLYLINE
  8
Group083
 62
0
 70
0
 66
1
 10
0.0
 20
0.0
 30
0.0
  0
VERTEX
  8
Group083
 10
383.825
 20
-21.575
 30
0.0
  0
VERTEX
  8
Group083
 10
397.225
 20
-21.575
 30
0.0
  0
SEQEND
  8
Group083
  0
POLYLINE
  8
Group083
 62
0
 70
0
 66
1
 10
0.0
 20
0.0
 30
0.0
  0
VERTEX
  8
Group083
 10
397.525
 20
-21.875
 30
0.0
  0
VERTEX
  8
Group083
 10
397.525
 20
-35.275
 30
0.0
  0
SEQEND
  8
Group083
  0
POLYLINE
  8
Group083
 62
0
 70
0
 66
1
 10
0.0
 20
0.0
 30
0.0
  0
VERTEX
  8
Group083
 10
397.225
 20
-35.575
 30
0.0
  0
VERTEX
  8
Group083
 10
383.82500000000005
 20
-35.575
 30
0.0
  0
SEQEND
  8
Group083
  0
POLYLINE
  8
Group083
 62
0
 70
0
 66
1
 10
0.0
 20
0.0
 30
0.0
  0
VERTEX
  8
Group083
 10
383.525
 20
-35.275
 30
0.0
  0
VERTEX
  8
Group083
 10
383.525
 20
-21.875
 30
0.0
  0
SEQEND
  8
Group083
  0
ARC
  8
Group086
 62
0
 10
345.72499999999997
 20
-40.925
 30
0.0
 40
0.3
 50
90.0
 51
-180.0
  0
ARC
  8
Group086
 62
0
 10
345.72499999999997
 20
-54.325
 30
0.0
 40
0.3
 50
-180.0
 51
-90.0
  0
ARC
  8
Group086
 62
0
 10
359.125
 20
-40.925
 30
0.0
 40
0.3
 50
-0.0
 51
90.0
  0
ARC
  8
Group086
 62
0
 10
359.125
 20
-54.325
 30
0.0
 40
0.3
 50
-90.0
 51
-0.0
  0
POLYLINE
  8
Group086
 62
0
 70
0
 66
1
 10
0.0
 20
0.0
 30
0.0
  0
VERTEX
  8
Group086
 10
345.72499999999997
 20
-40.625
 30
0.0
  0
VERTEX
  8
Group086
 10
359.125
 20
-40.625
 30
0.0
  0
SEQEND
  8
Group086
  0
POLYLINE
  8
Group086
 62
0
 70
0
 66
1
 10
0.0
 20
0.0
 30
0.0
  0
VERTEX
  8
Group086
 10
359.42499999999995
 20
-40.925
 30
0.0
  0
VERTEX
  8
Group086
 10
359.42499999999995
 20
-54.324999999999996
 30
0.0
  0
SEQEND
  8
Group086
  0
POLYLINE
  8
Group086
 62
0
 70
0
 66
1
 10
0.0
 20
0.0
 30
0.0
  0
VERTEX
  8
Group086
 10
359.125
 20
-54.625
 30
0.0
  0
VERTEX
  8
Group086
 10
345.725
 20
-54.625
 30
0.0
  0
SEQEND
  8
Group086
  0
POLYLINE
  8
Group086
 62
0
 70
0
 66
1
 10
0.0
 20
0.0
 30
0.0
  0
VERTEX
  8
Group086
 10
345.42499999999995
 20
-54.325
 30
0.0
  0
VERTEX
  8
Group086
 10
345.42499999999995
 20
-40.925000000000004
 30
0.0
  0
SEQEND
  8
Group086
  0
ARC
  8
Group089
 62
0
 10
364.775
 20
-40.925
 30
0.0
 40
0.3
 50
90.0
 51
-180.0
  0
ARC
  8
Group089
 62
0
 10
364.775
 20
-54.325
 30
0.0
 40
0.3
 50
-180.0
 51
-90.0
  0
ARC
  8
Group089
 62
0
 10
378.175
 20
-40.925
 30
0.0
 40
0.3
 50
-0.0
 51
90.0
  0
ARC
  8
Group089
 62
0
 10
378.175
 20
-54.325
 30
0.0
 40
0.3
 50
-90.0
 51
-0.0
  0
POLYLINE
  8
Group089
 62
0
 70
0
 66
1
 10
0.0
 20
0.0
 30
0.0
  0
VERTEX
  8
Group089
 10
364.775
 20
-40.625
 30
0.0
  0
VERTEX
  8
Group089
 10
378.175
 20
-40.625
 30
0.0
  0
SEQEND
  8
Group089
  0
POLYLINE
  8
Group089
 62
0
 70
0
 66
1
 10
0.0
 20
0.0
 30
0.0
  0
VERTEX
  8
Group089
 10
378.47499999999997
 20
-40.925
 30
0.0
  0
VERTEX
  8
Group089
 10
378.47499999999997
 20
-54.324999999999996
 30
0.0
  0
SEQEND
  8
Group089
  0
POLYLINE
  8
Group089
 62
0
 70
0
 66
1
 10
0.0
 20
0.0
 30
0.0
  0
VERTEX
  8
Group089
 10
378.175
 20
-54.625
 30
0.0
  0
VERTEX
  8
Group089
 10
364.77500000000003
 20
-54.625
 30
0.0
  0
SEQEND
  8
Group089
  0
POLYLINE
  8
Group089
 62
0
 70
0
 66
1
 10
0.0
 20
0.0
 30
0.0
  0
VERTEX
  8
Group089
 10
364.47499999999997
 20
-54.325
 30
0.0
  0
VERTEX
  8
Group089
 10
364.47499999999997
 20
-40.925000000000004
 30
0.0
  0
SEQEND
  8
Group089
  0
ARC
  8
Group090
 62
0
 10
383.825
 20
-40.925
 30
0.0
 40
0.3
 50
90.0
 51
-180.0
  0
ARC
  8
Group090
 62
0
 10
383.825
 20
-54.325
 30
0.0
 40
0.3
 50
-180.0
 51
-90.0
  0
ARC
  8
Group090
 62
0
 10
397.225
 20
-40.925
 30
0.0
 40
0.3
 50
-0.0
 51
90.0
  0
ARC
  8
Group090
 62
0
 10
397.225
 20
-54.325
 30
0.0
 40
0.3
 50
-90.0
 51
-0.0
  0
POLYLINE
  8
Group090
 62
0
 70
0
 66
1
 10
0.0
 20
0.0
 30
0.0
  0
VERTEX
  8
Group090
 10
383.825
 20
-40.625
 30
0.0
  0
VERTEX
  8
Group090
 10
397.225
 20
-40.625
 30
0.0
  0
SEQEND
  8
Group090
  0
POLYLINE
  8
Group090
 62
0
 70
0
 66
1
 10
0.0
 20
0.0
 30
0.0
  0
VERTEX
  8
Group090
 10
397.525
 20
-40.925
 30
0.0
  0
VERTEX
  8
Group090
 10
397.525
 20
-54.324999999999996
 30
0.0
  0
SEQEND
  8
Group090
  0
POLYLINE
  8
Group090
 62
0
 70
0
 66
1
 10
0.0
 20
0.0
 30
0.0
  0
VERTEX
  8
Group090
 10
397.225
 20
-54.625
 30
0.0
  0
VERTEX
  8
Group090
 10
383.82500000000005
 20
-54.625
 30
0.0
  0
SEQEND
  8
Group090
  0
POLYLINE
  8
Group090
 62
0
 70
0
 66
1
 10
0.0
 20
0.0
 30
0.0
  0
VERTEX
  8
Group090
 10
383.525
 20
-54.325
 30
0.0
  0
VERTEX
  8
Group090
 10
383.525
 20
-40.925000000000004
 30
0.0
  0
SEQEND
  8
Group090
  0
ARC
  8
Group091
 62
0
 10
345.72499999999997
 20
-59.975
 30
0.0
 40
0.3
 50
90.0
 51
-180.0
  0
ARC
  8
Group091
 62
0
 10
345.72499999999997
 20
-73.375
 30
0.0
 40
0.3
 50
-180.0
 51
-90.0
  0
ARC
  8
Group091
 62
0
 10
359.125
 20
-59.975
 30
0.0
 40
0.3
 50
-0.0
 51
90.0
  0
ARC
  8
Group091
 62
0
 10
359.125
 20
-73.375
 30
0.0
 40
0.3
 50
-90.0
 51
-0.0
  0
POLYLINE
  8
Group091
 62
0
 70
0
 66
1
 10
0.0
 20
0.0
 30
0.0
  0
VERTEX
  8
Group091
 10
345.72499999999997
 20
-59.675000000000004
 30
0.0
  0
VERTEX
  8
Group091
 10
359.125
 20
-59.675000000000004
 30
0.0
  0
SEQEND
  8
Group091
  0
POLYLINE
  8
Group091
 62
0
 70
0
 66
1
 10
0.0
 20
0.0
 30
0.0
  0
VERTEX
  8
Group091
 10
359.42499999999995
 20
-59.975
 30
0.0
  0
VERTEX
  8
Group091
 10
359.42499999999995
 20
-73.375
 30
0.0
  0
SEQEND
  8
Group091
  0
POLYLINE
  8
Group091
 62
0
 70
0
 66
1
 10
0.0
 20
0.0
 30
0.0
  0
VERTEX
  8
Group091
 10
359.125
 20
-73.67500000000001
 30
0.0
  0
VERTEX
  8
Group091
 10
345.725
 20
-73.67500000000001
 30
0.0
  0
SEQEND
  8
Group091
  0
POLYLINE
  8
Group091
 62
0
 70
0
 66
1
 10
0.0
 20
0.0
 30
0.0
  0
VERTEX
  8
Group091
 10
345.42499999999995
 20
-73.375
 30
0.0
  0
VERTEX
  8
Group091
 10
345.42499999999995
 20
-59.975
 30
0.0
  0
SEQEND
  8
Group091
  0
ARC
  8
Group095
 62
0
 10
364.775
 20
-59.975
 30
0.0
 40
0.3
 50
90.0
 51
-180.0
  0
ARC
  8
Group095
 62
0
 10
364.775
 20
-73.375
 30
0.0
 40
0.3
 50
-180.0
 51
-90.0
  0
ARC
  8
Group095
 62
0
 10
378.175
 20
-59.975
 30
0.0
 40
0.3
 50
-0.0
 51
90.0
  0
ARC
  8
Group095
 62
0
 10
378.175
 20
-73.375
 30
0.0
 40
0.3
 50
-90.0
 51
-0.0
  0
POLYLINE
  8
Group095
 62
0
 70
0
 66
1
 10
0.0
 20
0.0
 30
0.0
  0
VERTEX
  8
Group095
 10
364.775
 20
-59.675000000000004
 30
0.0
  0
VERTEX
  8
Group095
 10
378.175
 20
-59.675000000000004
 30
0.0
  0
SEQEND
  8
Group095
  0
POLYLINE
  8
Group095
 62
0
 70
0
 66
1
 10
0.0
 20
0.0
 30
0.0
  0
VERTEX
  8
Group095
 10
378.47499999999997
 20
-59.975
 30
0.0
  0
VERTEX
  8
Group095
 10
378.47499999999997
 20
-73.375
 30
0.0
  0
SEQEND
  8
Group095
  0
POLYLINE
  8
Group095
 62
0
 70
0
 66
1
 10
0.0
 20
0.0
 30
0.0
  0
VERTEX
  8
Group095
 10
378.175
 20
-73.67500000000001
 30
0.0
  0
VERTEX
  8
Group095
 10
364.77500000000003
 20
-73.67500000000001
 30
0.0
  0
SEQEND
  8
Group095
  0
POLYLINE
  8
Group095
 62
0
 70
0
 66
1
 10
0.0
 20
0.0
 30
0.0
  0
VERTEX
  8
Group095
 10
364.47499999999997
 20
-73.375
 30
0.0
  0
VERTEX
  8
Group095
 10
364.47499999999997
 20
-59.975
 30
0.0
  0
SEQEND
  8
Group095
  0
ARC
  8
Group092
 62
0
 10
383.825
 20
-59.975
 30
0.0
 40
0.3
 50
90.0
 51
-180.0
  0
ARC
  8
Group092
 62
0
 10
383.825
 20
-73.375
 30
0.0
 40
0.3
 50
-180.0
 51
-90.0
  0
ARC
  8
Group092
 62
0
 10
397.225
 20
-59.975
 30
0.0
 40
0.3
 50
-0.0
 51
90.0
  0
ARC
  8
Group092
 62
0
 10
397.225
 20
-73.375
 30
0.0
 40
0.3
 50
-90.0
 51
-0.0
  0
POLYLINE
  8
Group092
 62
0
 70
0
 66
1
 10
0.0
 20
0.0
 30
0.0
  0
VERTEX
  8
Group092
 10
383.825
 20
-59.675000000000004
 30
0.0
  0
VERTEX
  8
Group092
 10
397.225
 20
-59.675000000000004
 30
0.0
  0
SEQEND
  8
Group092
  0
POLYLINE
  8
Group092
 62
0
 70
0
 66
1
 10
0.0
 20
0.0
 30
0.0
  0
VERTEX
  8
Group092
 10
397.525
 20
-59.975
 30
0.0
  0
VERTEX
  8
Group092
 10
397.525
 20
-73.375
 30
0.0
  0
SEQEND
  8
Group092
  0
POLYLINE
  8
Group092
 62
0
 70
0
 66
1
 10
0.0
 20
0.0
 30
0.0
  0
VERTEX
  8
Group092
 10
397.225
 20
-73.67500000000001
 30
0.0
  0
VERTEX
  8
Group092
 10
383.82500000000005
 20
-73.67500000000001
 30
0.0
  0
SEQEND
  8
Group092
  0
POLYLINE
  8
Group092
 62
0
 70
0
 66
1
 10
0.0
 20
0.0
 30
0.0
  0
VERTEX
  8
Group092
 10
383.525
 20
-73.375
 30
0.0
  0
VERTEX
  8
Group092
 10
383.525
 20
-59.975
 30
0.0
  0
SEQEND
  8
Group092
  0
POLYLINE
  8
right014
 62
0
 70
0
 66
1
 10
0.0
 20
0.0
 30
0.0
  0
VERTEX
  8
right014
 10
346.3
 20
-75.72500000000002
 30
0.0
  0
VERTEX
  8
right014
 10
346.3
 20
-94.92500000000001
 30
0.0
  0
SEQEND
  8
right014
  0
ARC
  8
right014
 62
0
 10
346.8
 20
-75.72500000000002
 30
0.0
 40
0.5
 50
90.0
 51
-180.0
  0
ARC
  8
right014
 62
0
 10
354.3
 20
-93.22500000000004
 30
0.0
 40
0.5
 50
90.0
 51
-180.0
  0
ARC
  8
right014
 62
0
 10
353.3
 20
-94.92500000000003
 30
0.0
 40
0.5
 50
-90.0
 51
-0.0
  0
POLYLINE
  8
right014
 62
0
 70
0
 66
1
 10
0.0
 20
0.0
 30
0.0
  0
VERTEX
  8
right014
 10
346.8
 20
-95.42500000000003
 30
0.0
  0
VERTEX
  8
right014
 10
353.3
 20
-95.42500000000003
 30
0.0
  0
SEQEND
  8
right014
  0
ARC
  8
right014
 62
0
 10
346.8
 20
-94.92500000000003
 30
0.0
 40
0.5
 50
-180.0
 51
-90.0
  0
POLYLINE
  8
left014
 62
0
 70
0
 66
1
 10
0.0
 20
0.0
 30
0.0
  0
VERTEX
  8
left014
 10
377.6000000000001
 20
-75.72500000000005
 30
0.0
  0
VERTEX
  8
left014
 10
377.6000000000001
 20
-94.92500000000004
 30
0.0
  0
SEQEND
  8
left014
  0
ARC
  8
left014
 62
0
 10
377.1000000000001
 20
-75.72500000000005
 30
0.0
 40
0.5
 50
-0.0
 51
90.0
  0
ARC
  8
left014
 62
0
 10
369.6000000000001
 20
-93.22500000000004
 30
0.0
 40
0.5
 50
-0.0
 51
90.0
  0
ARC
  8
left014
 62
0
 10
370.6000000000001
 20
-94.92500000000004
 30
0.0
 40
0.5
 50
-180.0
 51
-90.0
  0
POLYLINE
  8
left014
 62
0
 70
0
 66
1
 10
0.0
 20
0.0
 30
0.0
  0
VERTEX
  8
left014
 10
370.6000000000001
 20
-95.42500000000004
 30
0.0
  0
VERTEX
  8
left014
 10
377.1000000000001
 20
-95.42500000000004
 30
0.0
  0
SEQEND
  8
left014
  0
ARC
  8
left014
 62
0
 10
377.1000000000001
 20
-94.92500000000004
 30
0.0
 40
0.5
 50
-90.0
 51
-0.0
  0
POLYLINE
  8
Group099
 62
0
 70
0
 66
1
 10
0.0
 20
0.0
 30
0.0
  0
VERTEX
  8
Group099
 10
370.1000000000001
 20
-93.22500000000004
 30
0.0
  0
VERTEX
  8
Group099
 10
370.1000000000001
 20
-94.92500000000003
 30
0.0
  0
SEQEND
  8
Group099
  0
POLYLINE
  8
Group099
 62
0
 70
0
 66
1
 10
0.0
 20
0.0
 30
0.0
  0
VERTEX
  8
Group099
 10
353.8
 20
-93.22500000000004
 30
0.0
  0
VERTEX
  8
Group099
 10
353.8
 20
-94.92500000000003
 30
0.0
  0
SEQEND
  8
Group099
  0
POLYLINE
  8
Group099
 62
0
 70
0
 66
1
 10
0.0
 20
0.0
 30
0.0
  0
VERTEX
  8
Group099
 10
377.1000000000001
 20
-75.22500000000005
 30
0.0
  0
VERTEX
  8
Group099
 10
346.8
 20
-75.22500000000004
 30
0.0
  0
SEQEND
  8
Group099
  0
POLYLINE
  8
Group099
 62
0
 70
0
 66
1
 10
0.0
 20
0.0
 30
0.0
  0
VERTEX
  8
Group099
 10
369.6000000000001
 20
-92.72500000000004
 30
0.0
  0
VERTEX
  8
Group099
 10
354.3
 20
-92.72500000000004
 30
0.0
  0
SEQEND
  8
Group099
  0
ARC
  8
Group100
 62
0
 10
383.825
 20
-79.025
 30
0.0
 40
0.3
 50
90.0
 51
-180.0
  0
ARC
  8
Group100
 62
0
 10
383.825
 20
-92.42500000000001
 30
0.0
 40
0.3
 50
-180.0
 51
-90.0
  0
ARC
  8
Group100
 62
0
 10
397.225
 20
-79.025
 30
0.0
 40
0.3
 50
-0.0
 51
90.0
  0
ARC
  8
Group100
 62
0
 10
397.225
 20
-92.42500000000001
 30
0.0
 40
0.3
 50
-90.0
 51
-0.0
  0
POLYLINE
  8
Group100
 62
0
 70
0
 66
1
 10
0.0
 20
0.0
 30
0.0
  0
VERTEX
  8
Group100
 10
383.825
 20
-78.72500000000002
 30
0.0
  0
VERTEX
  8
Group100
 10
397.225
 20
-78.72500000000002
 30
0.0
  0
SEQEND
  8
Group100
  0
POLYLINE
  8
Group100
 62
0
 70
0
 66
1
 10
0.0
 20
0.0
 30
0.0
  0
VERTEX
  8
Group100
 10
397.525
 20
-79.025
 30
0.0
  0
VERTEX
  8
Group100
 10
397.525
 20
-92.42500000000001
 30
0.0
  0
SEQEND
  8
Group100
  0
POLYLINE
  8
Group100
 62
0
 70
0
 66
1
 10
0.0
 20
0.0
 30
0.0
  0
VERTEX
  8
Group100
 10
397.225
 20
-92.72500000000002
 30
0.0
  0
VERTEX
  8
Group100
 10
383.82500000000005
 20
-92.72500000000002
 30
0.0
  0
SEQEND
  8
Group100
  0
POLYLINE
  8
Group100
 62
0
 70
0
 66
1
 10
0.0
 20
0.0
 30
0.0
  0
VERTEX
  8
Group100
 10
383.525
 20
-92.42500000000001
 30
0.0
  0
VERTEX
  8
Group100
 10
383.525
 20
-79.025
 30
0.0
  0
SEQEND
  8
Group100
  0
POLYLINE
  8
right012
 62
0
 70
0
 66
1
 10
0.0
 20
0.0
 30
0.0
  0
VERTEX
  8
right012
 10
399.57500000000005
 20
-53.75
 30
0.0
  0
VERTEX
  8
right012
 10
418.77500000000003
 20
-53.75000000000001
 30
0.0
  0
SEQEND
  8
right012
  0
ARC
  8
right012
 62
0
 10
399.57500000000005
 20
-53.25
 30
0.0
 40
0.5
 50
-180.0
 51
-90.0
  0
ARC
  8
right012
 62
0
 10
417.07500000000005
 20
-45.75
 30
0.0
 40
0.5
 50
-180.0
 51
-90.0
  0
ARC
  8
right012
 62
0
 10
418.77500000000003
 20
-46.75
 30
0.0
 40
0.5
 50
-0.0
 51
90.0
  0
POLYLINE
  8
right012
 62
0
 70
0
 66
1
 10
0.0
 20
0.0
 30
0.0
  0
VERTEX
  8
right012
 10
419.27500000000003
 20
-53.25
 30
0.0
  0
VERTEX
  8
right012
 10
419.27500000000003
 20
-46.75
 30
0.0
  0
SEQEND
  8
right012
  0
ARC
  8
right012
 62
0
 10
418.77500000000003
 20
-53.25
 30
0.0
 40
0.5
 50
-90.0
 51
-0.0
  0
POLYLINE
  8
left012
 62
0
 70
0
 66
1
 10
0.0
 20
0.0
 30
0.0
  0
VERTEX
  8
left012
 10
399.57500000000005
 20
-22.449999999999932
 30
0.0
  0
VERTEX
  8
left012
 10
418.77500000000003
 20
-22.449999999999935
 30
0.0
  0
SEQEND
  8
left012
  0
ARC
  8
left012
 62
0
 10
399.57500000000005
 20
-22.949999999999932
 30
0.0
 40
0.5
 50
90.0
 51
-180.0
  0
ARC
  8
left012
 62
0
 10
417.07500000000005
 20
-30.449999999999932
 30
0.0
 40
0.5
 50
90.0
 51
-180.0
  0
ARC
  8
left012
 62
0
 10
418.77500000000003
 20
-29.449999999999932
 30
0.0
 40
0.5
 50
-90.0
 51
-0.0
  0
POLYLINE
  8
left012
 62
0
 70
0
 66
1
 10
0.0
 20
0.0
 30
0.0
  0
VERTEX
  8
left012
 10
419.27500000000003
 20
-29.449999999999932
 30
0.0
  0
VERTEX
  8
left012
 10
419.27500000000003
 20
-22.949999999999932
 30
0.0
  0
SEQEND
  8
left012
  0
ARC
  8
left012
 62
0
 10
418.77500000000003
 20
-22.949999999999932
 30
0.0
 40
0.5
 50
-0.0
 51
90.0
  0
POLYLINE
  8
plus
 62
0
 70
0
 66
1
 10
0.0
 20
0.0
 30
0.0
  0
VERTEX
  8
plus
 10
417.07500000000005
 20
-29.949999999999932
 30
0.0
  0
VERTEX
  8
plus
 10
418.77500000000003
 20
-29.949999999999932
 30
0.0
  0
SEQEND
  8
plus
  0
POLYLINE
  8
plus
 62
0
 70
0
 66
1
 10
0.0
 20
0.0
 30
0.0
  0
VERTEX
  8
plus
 10
417.07500000000005
 20
-46.25
 30
0.0
  0
VERTEX
  8
plus
 10
418.77500000000003
 20
-46.25
 30
0.0
  0
SEQEND
  8
plus
  0
POLYLINE
  8
plus
 62
0
 70
0
 66
1
 10
0.0
 20
0.0
 30
0.0
  0
VERTEX
  8
plus
 10
416.57500000000005
 20
-30.449999999999932
 30
0.0
  0
VERTEX
  8
plus
 10
416.57500000000005
 20
-45.75
 30
0.0
  0
SEQEND
  8
plus
  0
POLYLINE
  8
plus
 62
0
 70
0
 66
1
 10
0.0
 20
0.0
 30
0.0
  0
VERTEX
  8
plus
 10
399.07500000000005
 20
-22.949999999999932
 30
0.0
  0
VERTEX
  8
plus
 10
399.07500000000005
 20
-53.25
 30
0.0
  0
SEQEND
  8
plus
  0
POLYLINE
  8
enter001
 62
0
 70
0
 66
1
 10
0.0
 20
0.0
 30
0.0
  0
VERTEX
  8
enter001
 10
417.07500000000005
 20
-68.05
 30
0.0
  0
VERTEX
  8
enter001
 10
418.77500000000003
 20
-68.05
 30
0.0
  0
SEQEND
  8
enter001
  0
POLYLINE
  8
enter001
 62
0
 70
0
 66
1
 10
0.0
 20
0.0
 30
0.0
  0
VERTEX
  8
enter001
 10
399.07500000000005
 20
-61.05
 30
0.0
  0
VERTEX
  8
enter001
 10
399.07500000000005
 20
-91.35000000000007
 30
0.0
  0
SEQEND
  8
enter001
  0
POLYLINE
  8
enter001
 62
0
 70
0
 66
1
 10
0.0
 20
0.0
 30
0.0
  0
VERTEX
  8
enter001
 10
416.57500000000005
 20
-68.55
 30
0.0
  0
VERTEX
  8
enter001
 10
416.57500000000005
 20
-83.85000000000007
 30
0.0
  0
SEQEND
  8
enter001
  0
POLYLINE
  8
enter001
 62
0
 70
0
 66
1
 10
0.0
 20
0.0
 30
0.0
  0
VERTEX
  8
enter001
 10
417.07500000000005
 20
-84.35000000000007
 30
0.0
  0
VERTEX
  8
enter001
 10
418.77500000000003
 20
-84.35000000000007
 30
0.0
  0
SEQEND
  8
enter001
  0
POLYLINE
  8
right013
 62
0
 70
0
 66
1
 10
0.0
 20
0.0
 30
0.0
  0
VERTEX
  8
right013
 10
399.57500000000005
 20
-91.85000000000007
 30
0.0
  0
VERTEX
  8
right013
 10
418.77500000000003
 20
-91.85000000000005
 30
0.0
  0
SEQEND
  8
right013
  0
ARC
  8
right013
 62
0
 10
399.57500000000005
 20
-91.35000000000007
 30
0.0
 40
0.5
 50
-180.0
 51
-90.0
  0
ARC
  8
right013
 62
0
 10
417.07500000000005
 20
-83.85000000000007
 30
0.0
 40
0.5
 50
-180.0
 51
-90.0
  0
ARC
  8
right013
 62
0
 10
418.77500000000003
 20
-84.85000000000007
 30
0.0
 40
0.5
 50
-0.0
 51
90.0
  0
POLYLINE
  8
right013
 62
0
 70
0
 66
1
 10
0.0
 20
0.0
 30
0.0
  0
VERTEX
  8
right013
 10
419.27500000000003
 20
-91.35000000000007
 30
0.0
  0
VERTEX
  8
right013
 10
419.27500000000003
 20
-84.85000000000007
 30
0.0
  0
SEQEND
  8
right013
  0
ARC
  8
right013
 62
0
 10
418.77500000000003
 20
-91.35000000000007
 30
0.0
 40
0.5
 50
-90.0
 51
-0.0
  0
POLYLINE
  8
left013
 62
0
 70
0
 66
1
 10
0.0
 20
0.0
 30
0.0
  0
VERTEX
  8
left013
 10
399.57500000000005
 20
-60.55
 30
0.0
  0
VERTEX
  8
left013
 10
418.77500000000003
 20
-60.550000000000004
 30
0.0
  0
SEQEND
  8
left013
  0
ARC
  8
left013
 62
0
 10
399.57500000000005
 20
-61.05
 30
0.0
 40
0.5
 50
90.0
 51
-180.0
  0
ARC
  8
left013
 62
0
 10
417.07500000000005
 20
-68.55
 30
0.0
 40
0.5
 50
90.0
 51
-180.0
  0
ARC
  8
left013
 62
0
 10
418.77500000000003
 20
-67.55
 30
0.0
 40
0.5
 50
-90.0
 51
-0.0
  0
POLYLINE
  8
left013
 62
0
 70
0
 66
1
 10
0.0
 20
0.0
 30
0.0
  0
VERTEX
  8
left013
 10
419.27500000000003
 20
-67.55
 30
0.0
  0
VERTEX
  8
left013
 10
419.27500000000003
 20
-61.050000000000004
 30
0.0
  0
SEQEND
  8
left013
  0
ARC
  8
left013
 62
0
 10
418.77500000000003
 20
-61.05
 30
0.0
 40
0.5
 50
-0.0
 51
90.0
  0
ARC
  8
5mm switch plate
 62
0
 10
4.764286063144739
 20
37.21067021237001
 30
0.0
 40
18.75
 50
90.0
 51
-180.0
  0
ARC
  8
5mm switch plate
 62
0
 10
414.3400444696202
 20
37.21067021237002
 30
0.0
 40
18.75
 50
-0.0
 51
90.0
  0
ARC
  8
5mm switch plate
 62
0
 10
4.761355857206198
 20
-90.4889300539225
 30
0.0
 40
18.75
 50
-180.0
 51
-90.00000000000001
  0
ARC
  8
5mm switch plate
 62
0
 10
414.3371142636816
 20
-90.48893005392253
 30
0.0
 40
18.75
 50
-90.0
 51
-0.0
  0
POLYLINE
  8
5mm switch plate
 62
0
 70
0
 66
1
 10
0.0
 20
0.0
 30
0.0
  0
VERTEX
  8
5mm switch plate
 10
-13.985713936855262
 20
37.21067021237001
 30
0.0
  0
VERTEX
  8
5mm switch plate
 10
-13.988644142793802
 20
-90.4889300539225
 30
0.0
  0
SEQEND
  8
5mm switch plate
  0
POLYLINE
  8
5mm switch plate
 62
0
 70
0
 66
1
 10
0.0
 20
0.0
 30
0.0
  0
VERTEX
  8
5mm switch plate
 10
4.761355857206194
 20
-109.2389300539225
 30
0.0
  0
VERTEX
  8
5mm switch plate
 10
414.3371142636816
 20
-109.23893005392253
 30
0.0
  0
SEQEND
  8
5mm switch plate
  0
POLYLINE
  8
5mm switch plate
 62
0
 70
0
 66
1
 10
0.0
 20
0.0
 30
0.0
  0
VERTEX
  8
5mm switch plate
 10
433.0871142636816
 20
-90.48893005392253
 30
0.0
  0
VERTEX
  8
5mm switch plate
 10
433.0900444696202
 20
37.21067021237002
 30
0.0
  0
SEQEND
  8
5mm switch plate
  0
POLYLINE
  8
5mm switch plate
 62
0
 70
0
 66
1
 10
0.0
 20
0.0
 30
0.0
  0
VERTEX
  8
5mm switch plate
 10
132.994011612307
 20
42.96066210492122
 30
0.0
  0
VERTEX
  8
5mm switch plate
 10
132.99401161230702
 20
55.96067021237001
 30
0.0
  0
SEQEND
  8
5mm switch plate
  0
POLYLINE
  8
5mm switch plate
 62
0
 70
0
 66
1
 10
0.0
 20
0.0
 30
0.0
  0
VERTEX
  8
5mm switch plate
 10
147.99401161230702
 20
42.96066210492126
 30
0.0
  0
VERTEX
  8
5mm switch plate
 10
147.99401161230702
 20
55.96067021237001
 30
0.0
  0
SEQEND
  8
5mm switch plate
  0
POLYLINE
  8
5mm switch plate
 62
0
 70
0
 66
1
 10
0.0
 20
0.0
 30
0.0
  0
VERTEX
  8
5mm switch plate
 10
132.99401161230702
 20
55.96067021237001
 30
0.0
  0
VERTEX
  8
5mm switch plate
 10
4.764286063144738
 20
55.96067021237001
 30
0.0
  0
SEQEND
  8
5mm switch plate
  0
POLYLINE
  8
5mm switch plate
 62
0
 70
0
 66
1
 10
0.0
 20
0.0
 30
0.0
  0
VERTEX
  8
5mm switch plate
 10
147.99401161230702
 20
55.96067021237001
 30
0.0
  0
VERTEX
  8
5mm switch plate
 10
414.3400444696202
 20
55.96067021237002
 30
0.0
  0
SEQEND
  8
5mm switch plate
  0
ARC
  8
5mm switch plate
 62
0
 10
4.764286063144739
 20
37.21067021237001
 30
0.0
 40
5.749991892551208
 50
89.99999999999973
 51
-180.0
  0
POLYLINE
  8
5mm switch plate
 62
0
 70
0
 66
1
 10
0.0
 20
0.0
 30
0.0
  0
VERTEX
  8
5mm switch plate
 10
4.764286063144766
 20
42.96066210492122
 30
0.0
  0
VERTEX
  8
5mm switch plate
 10
132.994011612307
 20
42.96066210492122
 30
0.0
  0
SEQEND
  8
5mm switch plate
  0
ARC
  8
5mm switch plate
 62
0
 10
4.761355857206198
 20
10.749983659432942
 30
0.0
 40
5.749991892551208
 50
180.0
 51
-90.00000000000003
  0
ARC
  8
5mm switch plate
 62
0
 10
414.3371142636816
 20
10.749983659432942
 30
0.0
 40
5.749991892551208
 50
-90.0
 51
-0.0
  0
ARC
  8
5mm switch plate
 62
0
 10
414.3400444696201
 20
37.21067021237002
 30
0.0
 40
5.749991892551208
 50
-0.0
 51
90.0
  0
POLYLINE
  8
5mm switch plate
 62
0
 70
0
 66
1
 10
0.0
 20
0.0
 30
0.0
  0
VERTEX
  8
5mm switch plate
 10
147.99401161230702
 20
42.96066210492126
 30
0.0
  0
VERTEX
  8
5mm switch plate
 10
414.3400444696201
 20
42.960662104921255
 30
0.0
  0
SEQEND
  8
5mm switch plate
  0
POLYLINE
  8
5mm switch plate
 62
0
 70
0
 66
1
 10
0.0
 20
0.0
 30
0.0
  0
VERTEX
  8
5mm switch plate
 10
414.33711426368154
 20
4.999991766881735
 30
0.0
  0
VERTEX
  8
5mm switch plate
 10
4.761355857206183
 20
4.999991766881735
 30
0.0
  0
SEQEND
  8
5mm switch plate
  0
POLYLINE
  8
5mm switch plate
 62
0
 70
0
 66
1
 10
0.0
 20
0.0
 30
0.0
  0
VERTEX
  8
5mm switch plate
 10
420.08710615623284
 20
10.74998365943294
 30
0.0
  0
VERTEX
  8
5mm switch plate
 10
420.0900363621713
 20
37.21067021236999
 30
0.0
  0
SEQEND
  8
5mm switch plate
  0
POLYLINE
  8
5mm switch plate
 62
0
 70
0
 66
1
 10
0.0
 20
0.0
 30
0.0
  0
VERTEX
  8
5mm switch plate
 10
-0.98863603534501
 20
10.74998365943297
 30
0.0
  0
VERTEX
  8
5mm switch plate
 10
-0.985705829406469
 20
37.21067021237001
 30
0.0
  0
SEQEND
  8
5mm switch plate
  0
CIRCLE
  8
Screw holes
 62
0
 10
127.99401161230702
 20
46.460666158645616
 30
0.0
 40
1.6
  0
CIRCLE
  8
Screw holes
 62
0
 10
4.764286063144754
 20
46.460666158645616
 30
0.0
 40
1.6
  0
CIRCLE
  8
Screw holes
 62
0
 10
414.3400444696201
 20
46.46066615864562
 30
0.0
 40
1.6
  0
CIRCLE
  8
Screw holes
 62
0
 10
152.99401161230702
 20
46.46066615864566
 30
0.0
 40
1.6
  0
CIRCLE
  8
Screw holes
 62
0
 10
283.6670280409636
 20
46.46066615864564
 30
0.0
 40
1.6
  0
CIRCLE
  8
Screw holes
 62
0
 10
-4.210938424685637
 20
-47.619465026961244
 30
0.0
 40
1.6
  0
CIRCLE
  8
Screw holes
 62
0
 10
423.31137589832736
 20
-47.619465026961244
 30
0.0
 40
1.6
  0
CIRCLE
  8
Screw holes
 62
0
 10
209.55216526638245
 20
-99.73892599236336
 30
0.0
 40
1.6
  0
CIRCLE
  8
Screw holes
 62
0
 10
107.15822566476359
 20
-99.73892599236336
 30
0.0
 40
1.6
  0
CIRCLE
  8
Screw holes
 62
0
 10
311.94610486800127
 20
-99.73892599236336
 30
0.0
 40
1.6
  0
CIRCLE
  8
Screw holes
 62
0
 10
414.3400444696201
 20
-99.73892599236335
 30
0.0
 40
1.6
  0
CIRCLE
  8
Screw holes
 62
0
 10
4.764286063144754
 20
-99.73892599236336
 30
0.0
 40
1.6
  0
ENDSEC
  0
EOF
